<?xml version="1.0" encoding="UTF-8"?>
<svg id="_レイヤー_2" data-name="レイヤー 2" xmlns="http://www.w3.org/2000/svg" viewBox="0 0 81.63 62.58">
  <defs>
    <style>
      .cls-1 {
        fill: none;
        stroke: #231815;
        stroke-miterlimit: 10;
      }

      .cls-2 {
        fill: #231815;
      }
    </style>
  </defs>
  <g id="_レイヤー_1-2" data-name="レイヤー 1">
    <g>
      <path class="cls-2" d="M15.13,54.94c-.35,0-.6-.28-.6-.63s.25-.62.61-.62.59.27.59.62c0,.38-.25.63-.6.63ZM15.6,61.99h-.91v-6h.91v6Z"/>
      <path class="cls-2" d="M22.21,61.99h-.91v-3.54c0-.98-.35-1.84-1.4-1.84-.78,0-1.57.66-1.57,1.71v3.67h-.91v-4.46c0-.62-.02-1.07-.04-1.55h.81l.06.98h.02c.3-.58.99-1.11,1.93-1.11.75,0,2.02.45,2.02,2.49v3.65Z"/>
      <path class="cls-2" d="M24.22,54.91l.9-.31v1.4h1.55v.72h-1.55v3.46c0,.76.23,1.18.81,1.18.28,0,.46-.03.62-.09l.05.7c-.2.09-.51.14-.89.14-1.45,0-1.5-1.32-1.5-1.96v-3.44h-.92v-.72h.92v-1.09Z"/>
      <path class="cls-2" d="M33.66,56.18h-1.53c-.13.92-.54,1.89-1.57,2.6-.1-.15-.35-.41-.51-.52.89-.59,1.25-1.34,1.38-2.08h-1.22v-.67h1.29v-1.68h-1.03v-.66h4.93v.66h-1.03v1.68h1.2v.67h-1.2v2.43h-.71v-2.43ZM35.57,61.88h4.71v.7h-10.12v-.7h4.65v-1.54h-3.48v-.68h3.48v-1.41l.97.07c0,.08-.06.13-.21.15v1.19h3.52v.68h-3.52v1.54ZM32.18,53.83v1.68h1.47v-1.68h-1.47ZM37.19,53.32c0,.08-.06.12-.22.14v3.62h-.69v-3.83l.91.07ZM39.93,52.79c-.01.08-.07.13-.21.15v4.92c0,.79-.45.84-1.96.84-.03-.2-.14-.47-.24-.66.25.01.5.01.69.01.79,0,.79-.01.79-.19v-5.13l.92.05Z"/>
    </g>
    <g>
      <g>
        <polyline class="cls-1" points="27.38 .84 81.13 .84 81.13 40.86 80.62 40.86"/>
        <rect class="cls-1" x=".5" y="8.02" width="53.75" height="40.03"/>
        <polyline class="cls-1" points="80.47 40.86 54.25 48.05 54.25 8.02 81.13 .66 81.13 40.68"/>
        <line class="cls-1" x1="80.77" y1="40.78" x2="80.47" y2="40.86"/>
        <line class="cls-1" x1="81.13" y1="40.68" x2="80.77" y2="40.78"/>
        <polyline class="cls-1" points=".5 48.09 .5 8.06 27.38 .69"/>
        <line class="cls-1" x1="1.32" y1="47.86" x2=".5" y2="48.09"/>
      </g>
      <path class="cls-2" d="M25.13,32.64h.3c.34,0,.61.06.8.19.19.13.29.31.29.54,0,.25-.08.43-.25.54-.17.12-.43.17-.79.17h-2.83c-.21,0-.38-.07-.51-.21s-.21-.31-.21-.51c0-.25.09-.44.28-.55.19-.12.48-.17.88-.17h.21l3.32-3.41-3.26-3.17h-.14c-.4,0-.67-.05-.83-.16-.15-.11-.23-.29-.23-.55,0-.28.09-.47.26-.58.17-.11.51-.16,1-.16h2.1c.37,0,.64.06.8.18.17.12.25.3.25.56,0,.23-.09.41-.28.53-.19.12-.46.18-.82.18h-.08l2.21,2.16,2.1-2.16h-.21c-.38,0-.67-.06-.85-.17-.18-.11-.28-.29-.28-.52,0-.26.08-.46.25-.58.16-.12.43-.18.8-.18h2.67c.21,0,.38.07.52.2.13.13.2.3.2.51,0,.25-.08.44-.26.55s-.44.18-.82.18h-.29l-2.94,3.07,3.59,3.51h.1c.26,0,.46.06.61.19.14.13.21.31.21.54,0,.27-.08.46-.25.56-.16.1-.5.15-1.01.15h-2.09c-.36,0-.63-.06-.8-.17s-.26-.3-.26-.54c0-.23.08-.4.25-.53s.39-.19.68-.19h.57l-2.58-2.52-2.36,2.52Z"/>
    </g>
  </g>
</svg>