<?xml version="1.0" encoding="UTF-8"?>
<svg id="_レイヤー_2" data-name="レイヤー 2" xmlns="http://www.w3.org/2000/svg" viewBox="0 0 118.69 192.11">
  <defs>
    <style>
      .cls-1, .cls-2 {
        fill: none;
        stroke: #231815;
        stroke-miterlimit: 10;
      }

      .cls-3 {
        fill: #231815;
      }

      .cls-4 {
        fill: #fff;
      }

      .cls-2 {
        stroke-width: 2px;
      }
    </style>
  </defs>
  <g id="_レイヤー_1-2" data-name="レイヤー 1">
    <g>
      <g>
        <path class="cls-3" d="M0,169.49h7l.07-.03.75.57s-.07.08-.13.1c-.89,4.14-2.81,6.29-6.17,7.57-.12-.2-.34-.48-.5-.65,3.2-1.18,5.05-3.22,5.76-6.8H0v-.76ZM8.38,167.52c.66,0,1.2.54,1.2,1.21s-.54,1.2-1.2,1.2-1.21-.54-1.21-1.2c0-.69.56-1.21,1.21-1.21ZM9.22,168.73c0-.47-.37-.85-.84-.85s-.85.37-.85.85.38.85.85.85.84-.41.84-.85Z"/>
        <path class="cls-3" d="M18.91,169.67v7.26h-.79v-.69h-6.06v.71h-.77v-7.28h7.62ZM18.12,175.5v-5.09h-6.06v5.09h6.06Z"/>
        <path class="cls-3" d="M29.89,170.35c-.04.07-.1.12-.17.17-1.17,3.64-2.97,5.84-5.95,7.36-.12-.19-.34-.44-.56-.61,2.83-1.38,4.6-3.49,5.53-6.48h-3.88c-.64.99-1.45,1.91-2.43,2.68-.14-.15-.41-.36-.62-.5,1.5-1.12,2.74-2.86,3.49-4.82l1.03.29c-.03.11-.17.15-.31.14-.22.5-.47,1.02-.73,1.46h3.83l.13-.07.63.36ZM28.52,167.82c.52.42,1.12,1.09,1.44,1.56l-.41.35c-.33-.51-.92-1.16-1.42-1.56l.38-.35ZM30.12,167.5c.52.42,1.12,1.08,1.44,1.56l-.41.34c-.33-.5-.9-1.13-1.42-1.55l.39-.35Z"/>
        <path class="cls-3" d="M41.22,171.74s-.08.09-.14.11c-.9,3.32-2.74,4.94-6.03,5.85-.1-.2-.31-.47-.46-.64,2.99-.75,4.85-2.29,5.54-4.84h-7.28v-.75h7.61l.11-.07.65.33ZM40.18,169.38h-6.27v-.73h6.27v.73Z"/>
        <path class="cls-3" d="M44.53,175.22c2.42.27,5.25.9,6.98,1.58l-.33.77c-1.56-.65-4.49-1.34-6.91-1.63l.26-.73ZM45.41,171.85c1.75.18,3.95.59,5.31,1.01l-.25.77c-1.29-.44-3.51-.86-5.29-1.03l.23-.75ZM45.45,168.45c1.87.2,4.27.64,5.79,1.18l-.32.77c-1.52-.57-3.85-1-5.72-1.21l.25-.74Z"/>
        <path class="cls-3" d="M55.31,169.05c1.14.36,2.46.93,3.28,1.5l-.42.69c-.79-.56-2.09-1.14-3.21-1.53l.35-.66ZM55.26,176.68c3.91-1.21,6.5-3.4,7.82-6.45.23.19.48.33.71.45-1.38,3.01-4.06,5.36-7.79,6.6-.01.1-.08.21-.15.25l-.59-.86Z"/>
        <path class="cls-3" d="M73.89,170.35c-.04.07-.1.12-.17.17-1.17,3.64-2.97,5.84-5.95,7.36-.12-.19-.34-.44-.56-.61,2.83-1.38,4.6-3.49,5.53-6.48h-3.88c-.64.99-1.45,1.91-2.43,2.68-.14-.15-.41-.36-.62-.5,1.5-1.12,2.74-2.86,3.49-4.82l1.03.29c-.03.11-.17.15-.31.14-.22.5-.47,1.02-.73,1.46h3.83l.13-.07.63.36ZM72.52,167.82c.52.42,1.12,1.09,1.44,1.56l-.41.35c-.33-.51-.92-1.16-1.42-1.56l.38-.35ZM74.12,167.5c.52.42,1.12,1.08,1.44,1.56l-.41.34c-.33-.5-.9-1.13-1.42-1.55l.39-.35Z"/>
        <path class="cls-3" d="M81.74,169.86c-.04.1-.13.18-.27.18-.4,3.42-1.54,6.4-3.37,6.4-.92,0-1.76-.92-1.76-2.66,0-2.64,2.06-4.85,4.95-4.85,3.18,0,4.55,2.01,4.55,4.16,0,2.62-1.52,3.88-4.18,4.5-.1-.18-.29-.47-.46-.67,2.53-.48,3.83-1.72,3.83-3.79,0-1.82-1.17-3.47-3.74-3.47-.11,0-.23.01-.33.02l.78.19ZM80.69,169.71c-2.22.27-3.6,2.11-3.6,4.04,0,1.18.51,1.91,1.03,1.91,1.33,0,2.29-2.94,2.56-5.95Z"/>
        <path class="cls-3" d="M97.15,173.91h-2.44c.64.78,1.61,1.46,2.57,1.8-.15.14-.37.4-.48.58-1.09-.47-2.2-1.39-2.87-2.39h-3.58c-.69,1.04-1.84,2.01-2.92,2.53-.11-.18-.32-.43-.48-.57.94-.38,1.94-1.13,2.59-1.96h-2.48v-.64h2.33v-3.6h-1.83v-.64h1.83v-1.18l.96.05c-.01.09-.08.13-.22.15v.97h3.95v-1.18l.97.05c-.01.09-.08.14-.22.15v.97h1.83v.64h-1.83v3.6h2.32v.64ZM92.46,175.91v1.25h3.89v.64h-8.44v-.64h3.79v-1.25h-2.34v-.62h2.34v-1.04l.97.05c-.01.08-.08.13-.22.15v.84h2.4v.62h-2.4ZM94.08,169.67h-3.95v.81h3.95v-.81ZM90.13,171.06v.81h3.95v-.81h-3.95ZM90.13,172.44v.83h3.95v-.83h-3.95Z"/>
        <path class="cls-3" d="M101.53,176.58h-2.05v.96h-.64v-3.7c-.17.37-.35.72-.55,1.01-.09-.17-.28-.47-.4-.62.71-1.11,1.18-3.01,1.45-5h-1.34v-.69h3.95v.59h1.14v-1.29l.84.05c-.01.08-.07.12-.2.14v1.09h1.03v.6h-1.03v.29c.23.19.92.78,1.09.95l-.4.44c-.12-.18-.43-.52-.69-.79v1.88h-.64v-1.91c-.33.62-.76,1.21-1.17,1.61-.09-.15-.24-.39-.39-.51.51-.43,1.05-1.21,1.38-1.95h-1.07v-.51h-1.82c-.13.9-.31,1.8-.53,2.65h2.01v4.69ZM100.89,175.92v-3.37h-1.41v3.37h1.41ZM105.28,175.52v1.65c.26.04.55.07.86.07h2.17c-.1.14-.19.45-.22.64h-1.99c-1.5,0-2.45-.33-3.06-1.72-.25.75-.68,1.44-1.4,1.92-.1-.15-.31-.39-.46-.5,1.16-.74,1.47-2.11,1.6-3.49l.87.09c-.02.08-.09.12-.22.13-.03.3-.08.62-.13.91.28.96.7,1.49,1.3,1.75v-3.48h-2.74v-.63h5.89l.38.02c0,.13-.37,1.18-.65,1.66l-.58-.21c.11-.23.23-.54.34-.85h-1.95v1.4h2.23v.63h-2.23ZM106.15,172.51v-2.04c-.34.67-.81,1.32-1.3,1.72-.08-.15-.24-.37-.36-.49.55-.41,1.11-1.17,1.43-1.95h-.92v-.6h1.16v-1.29l.85.05c-.01.08-.07.12-.21.14v1.09h1.38v.6h-1.17c.3.78.81,1.56,1.34,1.96-.14.11-.33.31-.43.45-.43-.37-.83-1-1.12-1.67v2.02h-.64Z"/>
        <path class="cls-3" d="M118.69,172.56s-.04.02-.07.02c-.07,0-.12-.03-.17-.07-.84.28-2.06.73-2.97,1.12.02.25.03.54.03.86,0,.35-.01.75-.03,1.18l-.8.04c.03-.4.05-.9.05-1.33,0-.17,0-.32-.01-.44-1.24.61-2.25,1.34-2.25,2s.76.95,2.28.95c1.07,0,2.06-.02,2.76-.11v.74c-.64.07-1.63.09-2.76.09-2.11,0-3.05-.51-3.05-1.63,0-.97,1.28-1.9,2.93-2.73-.07-.69-.37-1.03-.81-1.03-.8,0-1.64.45-2.63,1.55-.31.34-.74.77-1.21,1.2l-.54-.54c1.1-.97,2.13-1.89,2.77-4.06h-.62s-1.84.01-1.84.01v-.71c.67.01,1.45.01,1.9.01h.75c.12-.52.22-.99.3-1.58l1.08.13c-.02.11-.11.18-.28.2-.08.44-.18.83-.27,1.22.75-.01,2.35-.19,3.78-.64l.13.74c-1.38.43-3.04.58-4.12.62-.26.83-.54,1.49-.79,1.86h.01c.48-.43,1.21-.71,1.77-.71.75,0,1.22.54,1.36,1.43.92-.42,2.09-.87,2.97-1.21l.34.84Z"/>
        <path class="cls-3" d="M30.65,184.2s-.08.09-.14.1c-.35.91-.87,1.82-1.47,2.63.45.34,1.33,1.08,1.57,1.28l-.43.64c-.25-.27-.79-.79-1.23-1.2v4.44h-.72v-4.19c-.46.5-.93.93-1.41,1.29-.08-.2-.26-.53-.38-.65,1.22-.85,2.51-2.35,3.21-3.91h-3v-.68h1.58v-2.09l.94.05c-.01.08-.08.13-.22.15v1.88h1.09l.13-.03.48.29ZM32.87,188.95c-.02.08-.1.12-.22.13-.24,1.23-.75,2.37-2.42,3.01-.08-.17-.29-.43-.44-.56,1.5-.52,1.99-1.5,2.18-2.68l.9.1ZM34.42,190.93c0,.26.05.32.35.32h.99c.28,0,.33-.18.36-1.34.13.13.44.24.64.3-.08,1.38-.27,1.71-.92,1.71h-1.17c-.78,0-.97-.22-.97-.98v-2.4h-2.5v-6.25h4.7v6.25h-1.39s-.07.02-.1.02v2.38ZM31.91,182.91v1.25h3.27v-1.25h-3.27ZM31.91,184.77v1.25h3.27v-1.25h-3.27ZM31.91,186.62v1.29h3.27v-1.29h-3.27Z"/>
        <path class="cls-3" d="M44.15,191.03c0,.26.08.31.58.31h1.72c.44,0,.51-.14.55-1.27.17.11.46.23.67.28-.09,1.36-.31,1.66-1.14,1.66h-1.85c-1.01,0-1.27-.2-1.27-.97v-1.3h-1.67c-.34,1.28-1.13,1.99-3.83,2.34-.07-.19-.24-.5-.39-.65,2.31-.23,3.12-.69,3.43-1.69h-1.4v-4.53h6.19v4.53h-1.61v1.29ZM38.71,184.29v1.56h-.68v-2.2h1.76c-.22-.38-.63-.92-1.02-1.32l.63-.3c.41.41.88.97,1.09,1.35l-.51.26h4.54c.41-.46.94-1.19,1.23-1.69l.86.37c-.03.07-.12.09-.23.09-.25.36-.65.84-1.01,1.23h1.92v2.2h-.72v-1.56h-7.85ZM40.26,185.73v.81h4.79v-.81h-4.79ZM40.26,187.05v.84h4.79v-.84h-4.79ZM40.26,188.38v.85h4.79v-.85h-4.79ZM42.25,181.85c.35.46.73,1.09.87,1.5l-.66.26c-.13-.42-.5-1.06-.84-1.53l.63-.23Z"/>
        <path class="cls-3" d="M50.13,183.74c.21-.56.43-1.33.54-1.89l.95.23c-.03.08-.1.11-.24.11-.12.45-.34,1.07-.55,1.55h1.85v6.55h-3.01v.91h-.69v-7.46h1.17ZM51.96,186.62v-2.2h-2.31v2.2h2.31ZM49.65,189.6h2.31v-2.32h-2.31v2.32ZM57.98,183.76l.38.02c-.01.06-.01.17-.01.24-.15,5.33-.3,7.08-.73,7.61-.28.37-.57.44-1.34.44-.36,0-.81-.01-1.27-.04-.02-.21-.11-.52-.24-.7.78.05,1.49.05,1.79.05.18,0,.3-.04.41-.17.35-.38.52-2.1.65-6.77h-3.09c-.35.97-.78,1.85-1.26,2.51-.12-.13-.38-.37-.55-.48.78-1.04,1.42-2.85,1.79-4.64l.93.22c-.03.1-.12.13-.24.12-.12.53-.26,1.07-.44,1.58h3.21ZM54.86,186.09c.64.86,1.29,1.99,1.52,2.74l-.67.32c-.23-.75-.85-1.91-1.49-2.77l.64-.29Z"/>
        <path class="cls-3" d="M62,182.67c-.03.12-.14.19-.36.18-.38,1.79-.58,3.76-.58,4.95,0,.83.03,1.66.14,2.18.21-.54.68-1.69.84-2.08l.46.48c-.45,1.11-.78,1.74-.94,2.23-.05.19-.09.36-.09.52,0,.12.02.23.05.34l-.78.14c-.35-1.04-.48-2.32-.48-3.78s.23-3.45.58-5.36l1.16.2ZM69,190.71c-.4.02-.8.03-1.21.03-.78,0-1.52-.04-2.05-.12-1.35-.2-1.98-.95-1.98-1.83,0-.76.42-1.4,1.03-2.12l.71.31c-.55.57-.94,1.1-.94,1.73,0,1.28,1.87,1.28,3.01,1.28.46,0,.96-.02,1.42-.05v.78ZM63.91,183.99c1.42-.03,3.33-.17,4.8-.42l.07.77c-1.36.23-3.58.37-4.84.41l-.02-.76Z"/>
        <path class="cls-3" d="M80.54,188.35v.69h-4.57v2.13c0,.92-.53.93-2.56.93-.05-.21-.2-.52-.32-.73.56.02,1.06.03,1.41.03.64,0,.72,0,.72-.24v-2.13h-4.51v-.69h4.51v-.96l.52.03c.56-.29,1.14-.67,1.6-1.04h-4.79v-.66h5.57l.13-.04.57.36c-.03.05-.1.09-.17.1-.65.62-1.69,1.33-2.67,1.82v.4h4.57ZM71.69,184.4v1.77h-.7v-2.44h1.72c-.21-.43-.62-1.01-.98-1.44l.62-.3c.44.48.91,1.13,1.11,1.57l-.32.17h2.33c-.17-.5-.53-1.18-.87-1.68l.64-.24c.4.55.79,1.29.93,1.76l-.38.17h1.93c.43-.51.97-1.28,1.26-1.8.69.25.78.31.87.36-.03.07-.12.1-.23.09-.28.4-.67.91-1.06,1.35h1.79v2.44h-.73v-1.77h-7.93Z"/>
        <path class="cls-3" d="M81.6,190.05c.65-.42,1.79-1.29,2.68-2.1l.38.59c-.73.67-1.77,1.53-2.35,1.98.01.12-.03.23-.12.3l-.59-.77ZM84.67,182.17c1.07.68,2.73,1.22,4.14,1.33l-.15.71c-.17-.02-.32-.03-.46-.03-.55,0-.98.2-1.66.83l-.65-.28c.3-.31.76-.67,1.11-.81-.78-.18-1.79-.55-2.72-1.14l.4-.6ZM86.11,185.71c-.19.32-.3.58-.3.84,0,.45.32.84,1.06,1.34.89.61,1.32,1.35,1.32,2.15,0,1.01-.78,1.68-1.79,1.68-.55,0-1.17-.23-2.12-.74.09-.18.15-.41.21-.64.92.48,1.47.65,1.84.65.69,0,1.07-.41,1.07-.98,0-.5-.36-1.16-1.16-1.71-.8-.55-1.19-1.08-1.19-1.69,0-.35.12-.73.37-1.16l.69.25ZM88.59,187.01c1.26.5,2.46,1.55,2.97,3.04l-.72.4c-.46-1.34-1.54-2.43-2.66-2.86l.41-.57ZM89.12,182.36c.59.46,1.18,1.07,1.49,1.56l-.42.33c-.32-.5-.87-1.12-1.45-1.57l.39-.32ZM90.48,181.66c.59.47,1.14,1.01,1.46,1.54l-.42.33c-.33-.53-.87-1.09-1.44-1.54l.4-.33Z"/>
      </g>
      <rect class="cls-3" x="6.54" y="17.48" width="98.77" height="42.16" rx="13.17" ry="13.17"/>
      <g>
        <path class="cls-3" d="M29.82,1.99h7l.07-.03.75.57s-.07.08-.13.1c-.89,4.14-2.81,6.29-6.17,7.57-.12-.2-.34-.48-.5-.65,3.2-1.18,5.05-3.22,5.76-6.8h-6.78v-.76ZM38.2.02c.66,0,1.2.54,1.2,1.21s-.54,1.2-1.2,1.2-1.21-.54-1.21-1.2c0-.69.56-1.21,1.21-1.21ZM39.04,1.23c0-.47-.37-.85-.84-.85s-.85.37-.85.85.38.85.85.85.84-.41.84-.85Z"/>
        <path class="cls-3" d="M48.73,2.17v7.26h-.79v-.69h-6.06v.71h-.77V2.17h7.62ZM47.94,8V2.9h-6.06v5.09h6.06Z"/>
        <path class="cls-3" d="M59.71,2.85c-.04.07-.1.12-.17.17-1.17,3.64-2.97,5.84-5.95,7.36-.12-.19-.34-.44-.56-.61,2.83-1.38,4.6-3.49,5.53-6.48h-3.88c-.64.99-1.45,1.91-2.43,2.68-.14-.15-.41-.36-.62-.5,1.5-1.12,2.74-2.86,3.49-4.82l1.03.29c-.03.11-.17.15-.31.14-.22.5-.47,1.02-.73,1.46h3.83l.13-.07.63.36ZM58.34.32c.52.42,1.12,1.09,1.44,1.56l-.41.35c-.33-.51-.92-1.16-1.42-1.56l.38-.35ZM59.94,0c.52.42,1.12,1.08,1.44,1.56l-.41.34c-.33-.5-.9-1.13-1.42-1.55l.39-.35Z"/>
        <path class="cls-3" d="M71.04,4.24s-.08.09-.14.11c-.9,3.32-2.74,4.94-6.03,5.85-.1-.2-.31-.47-.46-.64,2.99-.75,4.85-2.29,5.54-4.84h-7.28v-.75h7.61l.11-.07.65.33ZM70,1.88h-6.27v-.73h6.27v.73Z"/>
        <path class="cls-3" d="M81.99,9.96c-.17-.37-.36-.77-.58-1.17-2.29.24-6.05.47-7.73.56-.03.11-.11.2-.21.22l-.3-.99c.33-.01.73-.02,1.16-.04.73-2.11,1.77-5.4,2.38-7.6l1.07.29c-.04.1-.15.15-.32.15-.6,2.02-1.55,4.97-2.31,7.13,1.83-.08,4.43-.26,5.89-.4-.57-.95-1.3-1.95-1.96-2.68l.66-.37c1.16,1.27,2.48,3.36,3.04,4.55l-.77.35Z"/>
      </g>
      <g>
        <polyline class="cls-1" points="42.41 110.45 96.16 110.45 96.16 150.48 95.66 150.48"/>
        <rect class="cls-1" x="15.54" y="117.63" width="53.75" height="40.03"/>
        <polyline class="cls-1" points="95.5 150.48 69.29 157.66 69.29 117.63 96.16 110.27 96.16 150.3"/>
        <line class="cls-1" x1="95.81" y1="150.39" x2="95.5" y2="150.48"/>
        <line class="cls-1" x1="96.16" y1="150.3" x2="95.81" y2="150.39"/>
        <polyline class="cls-1" points="15.54 157.7 15.54 117.67 42.41 110.31"/>
        <line class="cls-1" x1="16.35" y1="157.48" x2="15.54" y2="157.7"/>
      </g>
      <path class="cls-3" d="M40.16,142.25h.3c.34,0,.61.06.8.19.19.13.29.31.29.54,0,.25-.08.43-.25.54-.17.12-.43.17-.79.17h-2.83c-.21,0-.38-.07-.51-.21s-.21-.31-.21-.51c0-.25.09-.44.28-.55.19-.12.48-.17.88-.17h.21l3.32-3.41-3.26-3.17h-.14c-.4,0-.67-.05-.83-.16-.15-.11-.23-.29-.23-.55,0-.28.09-.47.26-.58.17-.11.51-.16,1-.16h2.1c.37,0,.64.06.8.18.17.12.25.3.25.56,0,.23-.09.41-.28.53-.19.12-.46.18-.82.18h-.08l2.21,2.16,2.1-2.16h-.21c-.38,0-.67-.06-.85-.17-.18-.11-.28-.29-.28-.52,0-.26.08-.46.25-.58.16-.12.43-.18.8-.18h2.67c.21,0,.38.07.52.2.13.13.2.3.2.51,0,.25-.08.44-.26.55s-.44.18-.82.18h-.29l-2.94,3.07,3.59,3.51h.1c.26,0,.46.06.61.19.14.13.21.31.21.54,0,.27-.08.46-.25.56-.16.1-.5.15-1.01.15h-2.09c-.36,0-.63-.06-.8-.17s-.26-.3-.26-.54c0-.23.08-.4.25-.53s.39-.19.68-.19h.57l-2.58-2.52-2.36,2.52Z"/>
      <path class="cls-3" d="M59.55,75.26h-5.21l-.52,3.51c.32-.04.61-.08,1.11-.08,1.05,0,2.1.23,2.94.73,1.07.61,1.95,1.79,1.95,3.51,0,2.67-2.12,4.66-5.08,4.66-1.49,0-2.75-.42-3.4-.84l.46-1.41c.57.34,1.68.76,2.92.76,1.74,0,3.23-1.13,3.23-2.96-.02-1.76-1.2-3.02-3.93-3.02-.78,0-1.39.08-1.89.15l.88-6.55h6.53v1.55Z"/>
      <g>
        <path class="cls-4" d="M27.64,42.53h.3c.34,0,.61.06.8.19.19.13.29.31.29.54,0,.25-.08.43-.25.54-.17.12-.43.17-.79.17h-2.83c-.21,0-.38-.07-.51-.21s-.21-.31-.21-.51c0-.25.09-.44.28-.55.19-.12.48-.17.88-.17h.21l3.32-3.41-3.26-3.17h-.14c-.4,0-.67-.05-.83-.16-.15-.11-.23-.29-.23-.55,0-.28.09-.47.26-.58.17-.11.51-.16,1-.16h2.1c.37,0,.64.06.8.18.17.12.25.3.25.56,0,.23-.09.41-.28.53-.19.12-.46.18-.82.18h-.08l2.21,2.16,2.1-2.16h-.21c-.38,0-.67-.06-.85-.17-.18-.11-.28-.29-.28-.52,0-.26.08-.46.25-.58.16-.12.43-.18.8-.18h2.67c.21,0,.38.07.52.2.13.13.2.3.2.51,0,.25-.08.44-.26.55s-.44.18-.82.18h-.29l-2.94,3.07,3.59,3.51h.1c.26,0,.46.06.61.19.14.13.21.31.21.54,0,.27-.08.46-.25.56-.16.1-.5.15-1.01.15h-2.09c-.36,0-.63-.06-.8-.17s-.26-.3-.26-.54c0-.23.08-.4.25-.53s.39-.19.68-.19h.57l-2.58-2.52-2.36,2.52Z"/>
        <path class="cls-4" d="M50.49,35.03h9.2c.21,0,.36.07.48.2.11.13.17.31.17.55s-.06.43-.17.56c-.11.13-.27.2-.48.2h-9.2c-.21,0-.37-.06-.49-.19-.11-.13-.17-.32-.17-.57s.06-.43.17-.56c.11-.13.28-.19.49-.19ZM50.49,38.47h9.2c.21,0,.36.07.48.2.11.13.17.32.17.56s-.06.43-.17.56c-.11.13-.27.2-.48.2h-9.2c-.21,0-.37-.07-.49-.2-.11-.13-.17-.32-.17-.56s.06-.43.17-.56c.11-.13.28-.19.49-.19Z"/>
        <path class="cls-4" d="M77.98,35.95c.45-.16.87-.29,1.25-.36.38-.08.75-.12,1.1-.12,1.2,0,2.19.42,2.99,1.25.8.83,1.19,1.86,1.19,3.09,0,1.31-.44,2.38-1.32,3.23-.88.85-2.01,1.27-3.38,1.27-1.15,0-2.11-.16-2.89-.47-.78-.31-1.16-.69-1.16-1.13,0-.18.07-.34.21-.48.14-.14.31-.21.5-.21.08,0,.48.13,1.21.39.73.26,1.4.4,2.02.4.92,0,1.66-.28,2.23-.83.57-.55.86-1.26.86-2.13s-.27-1.55-.81-2.12c-.54-.56-1.22-.85-2.04-.85-.62,0-1.22.15-1.81.46-.59.31-.95.46-1.07.46-.21,0-.35-.08-.44-.23-.08-.15-.13-.42-.13-.82v-5.12c0-.23.07-.39.21-.49.14-.1.38-.15.73-.15h5.19c.33,0,.57.07.74.2.16.13.25.33.25.6,0,.25-.09.45-.26.59-.17.14-.41.21-.73.21h-4.65v3.32Z"/>
      </g>
      <g>
        <line class="cls-2" x1="55.85" y1="113.48" x2="55.85" y2="90.12"/>
        <polygon class="cls-3" points="64.03 106.85 62.56 105.49 55.85 112.71 49.14 105.49 47.67 106.85 55.85 115.65 64.03 106.85"/>
      </g>
    </g>
  </g>
</svg>