<?xml version="1.0" encoding="UTF-8"?>
<svg id="_レイヤー_2" data-name="レイヤー 2" xmlns="http://www.w3.org/2000/svg" viewBox="0 0 470.18 305.69">
  <defs>
    <style>
      .cls-1 {
        fill: none;
      }

      .cls-2 {
        fill: #231815;
      }

      .cls-3 {
        fill: #fff;
      }

      .cls-4 {
        fill: #fff100;
      }
    </style>
  </defs>
  <g id="_レイヤー_1-2" data-name="レイヤー 1">
    <g>
      <rect class="cls-2" y="21.32" width="212.05" height="128.24" rx="13.17" ry="13.17"/>
      <g>
        <path class="cls-2" d="M77.55,7.06h7.63l.07-.04.82.62s-.07.08-.14.11c-.97,4.51-3.06,6.86-6.73,8.25-.13-.22-.37-.53-.54-.71,3.49-1.28,5.5-3.51,6.28-7.41h-7.39v-.83ZM86.69,4.91c.72,0,1.31.59,1.31,1.32s-.59,1.31-1.31,1.31-1.32-.59-1.32-1.31c0-.76.61-1.32,1.32-1.32ZM87.6,6.23c0-.52-.41-.92-.91-.92s-.92.41-.92.92.42.92.92.92.91-.44.91-.92Z"/>
        <path class="cls-2" d="M98.17,7.25v7.92h-.86v-.76h-6.61v.78h-.84v-7.94h8.31ZM97.31,13.61v-5.55h-6.61v5.55h6.61Z"/>
        <path class="cls-2" d="M110.15,7.99c-.05.07-.11.13-.18.18-1.27,3.97-3.24,6.37-6.49,8.02-.13-.2-.37-.48-.61-.66,3.08-1.5,5.01-3.8,6.03-7.06h-4.23c-.7,1.08-1.58,2.09-2.65,2.93-.16-.17-.44-.4-.67-.54,1.63-1.22,2.99-3.12,3.8-5.25l1.13.31c-.04.12-.18.17-.34.16-.24.54-.52,1.12-.79,1.6h4.17l.14-.07.68.4ZM108.66,5.23c.56.46,1.22,1.19,1.57,1.7l-.44.38c-.36-.55-1.01-1.26-1.55-1.7l.42-.38ZM110.4,4.89c.56.46,1.22,1.17,1.57,1.7l-.44.37c-.36-.54-.98-1.24-1.55-1.69l.42-.38Z"/>
        <path class="cls-2" d="M122.51,9.5s-.08.1-.16.12c-.98,3.62-2.99,5.38-6.57,6.38-.11-.22-.34-.52-.5-.7,3.26-.82,5.29-2.49,6.04-5.28h-7.94v-.82h8.3l.12-.07.71.36ZM121.38,6.94h-6.84v-.79h6.84v.79Z"/>
        <path class="cls-2" d="M134.46,15.74c-.18-.41-.4-.84-.64-1.27-2.5.26-6.6.52-8.43.61-.04.12-.12.22-.23.24l-.32-1.08c.36-.01.79-.02,1.26-.05.79-2.3,1.93-5.89,2.59-8.29l1.16.31c-.05.11-.17.17-.35.17-.66,2.21-1.69,5.42-2.52,7.77,1.99-.08,4.83-.29,6.42-.43-.62-1.03-1.42-2.12-2.13-2.93l.72-.41c1.26,1.38,2.7,3.66,3.31,4.96l-.84.38Z"/>
      </g>
      <g>
        <path class="cls-2" d="M93.39,174.67h-4.47c.86,1.37,2.47,2.19,4.62,2.51-.17.18-.38.5-.49.72-2.37-.44-4.07-1.46-4.98-3.23h-.18c-.61,1.22-1.96,2.36-4.81,3.23-.1-.18-.32-.49-.49-.66,2.51-.71,3.75-1.61,4.38-2.57h-4.28v-.71h4.64c.13-.37.19-.74.23-1.1h-3.39v-.7h3.42v-1.03h-3.74v-.68h3.74v-1.2l1.04.07c-.01.08-.07.14-.23.17v.96h3.83v-1.52h-8.42v1.58h-.79v-2.3h4.57v-1.48l1.07.07c-.01.08-.08.14-.24.16v1.25h4.64v2.3h-.77v.62h-3.89v1.03h3.61v.7h-3.63c-.04.37-.08.73-.2,1.1h5.23v.71Z"/>
        <path class="cls-2" d="M98.14,167.14c-.02.06-.12.11-.26.08-.7.88-1.94,2.01-3.01,2.77-.1-.18-.32-.49-.47-.65,1.01-.66,2.19-1.73,2.81-2.6l.93.4ZM96.3,177.88v-5.28c-.46.5-.91.97-1.37,1.37-.11-.16-.36-.48-.52-.62,1.14-.95,2.46-2.52,3.29-4.02l.94.38c-.04.07-.13.12-.28.1-.36.6-.78,1.21-1.24,1.8l.22.07c-.02.07-.1.13-.24.16v6.04h-.8ZM105.57,170.99v.78h-1.91v5.07c0,1.01-.38,1.03-2.81,1.03-.04-.23-.14-.55-.26-.79.53.01,1.02.02,1.39.02.78,0,.86,0,.86-.28v-5.06h-4.17v-.78h6.9ZM105.12,167.5v.77h-5.98v-.77h5.98Z"/>
        <path class="cls-2" d="M110.21,172.07c-.23-.41-.49-.83-.76-1.19l.61-.29c.56.76,1.16,1.78,1.39,2.43l-.65.31c-.06-.19-.16-.42-.28-.66l-1.31.07v5.13h-.73v-5.1c-.68.02-1.31.06-1.8.07-.01.1-.08.13-.17.16l-.22-.9h.89c.26-.31.55-.67.83-1.06-.37-.54-1.02-1.24-1.59-1.74l.41-.53c.12.1.24.2.36.32.42-.71.91-1.68,1.19-2.37l.88.37c-.05.07-.12.1-.25.1-.34.7-.89,1.68-1.34,2.35.31.31.59.62.78.9.54-.8,1.06-1.66,1.43-2.35l.85.41c-.05.06-.14.1-.28.1-.62,1.02-1.61,2.45-2.47,3.49l2.23-.04ZM107.98,173.88c-.02.07-.1.12-.23.12-.17,1.02-.44,2.17-.82,2.88-.16-.11-.42-.23-.6-.31.35-.67.61-1.82.77-2.91l.88.23ZM110.56,176.2c-.11-.65-.44-1.64-.79-2.39l.62-.2c.36.76.71,1.71.84,2.36l-.67.23ZM117.62,169.19h-2.95v2.01h2.59v.74h-5.95v-.74h2.54v-2.01h-2.79v-.74h2.79v-1.7l1.05.06c-.01.1-.08.16-.24.17v1.48h2.95v.74ZM111.67,177.86v-4.56h5.24v4.52h-.78v-.48h-3.71v.52h-.76ZM116.13,174.04h-3.71v2.57h3.71v-2.57Z"/>
        <path class="cls-2" d="M129.35,173.95h-4.19c1.14,1.2,2.94,2.33,4.52,2.88-.18.17-.44.48-.58.7-1.61-.67-3.49-1.95-4.69-3.35v3.71h-.82v-3.63c-1.18,1.4-3.01,2.63-4.65,3.26-.13-.2-.38-.52-.56-.68,1.62-.55,3.39-1.66,4.5-2.88h-4.17v-.76h4.89v-1.08h-3.72v-4.79h8.35v4.79h-3.81v1.08h4.93v.76ZM120.67,168.04v1.33h2.93v-1.33h-2.93ZM120.67,171.41h2.93v-1.37h-2.93v1.37ZM127.41,169.37v-1.33h-3v1.33h3ZM127.41,171.41v-1.37h-3v1.37h3Z"/>
      </g>
      <g>
        <g>
          <path class="cls-2" d="M319.13,37.5h-66.77c-10.34,0-18.75-8.41-18.75-18.75S242.02,0,252.36,0h66.77c10.34,0,18.75,8.41,18.75,18.75s-8.41,18.75-18.75,18.75ZM252.36,1c-9.79,0-17.75,7.96-17.75,17.75s7.96,17.75,17.75,17.75h66.77c9.79,0,17.75-7.96,17.75-17.75s-7.96-17.75-17.75-17.75h-66.77Z"/>
          <g>
            <path class="cls-2" d="M279.15,16.46h-3.6v6.57h-.79v-10.63h4.39v4.05ZM278.38,13.04h-2.83v1.06h2.83v-1.06ZM275.55,15.82h2.83v-1.13h-2.83v1.13ZM283.03,20.02h-1.7v2.77h-.73v-2.77h-1.83c-.08.78-.47,2.09-1.66,2.88-.12-.16-.36-.38-.54-.5,1.06-.66,1.4-1.67,1.48-2.37h-1.57v-.68h1.59v-1.4h-1.36v-.68h6.06v.68h-1.44v1.4h1.7v.68ZM278.78,19.33h1.81v-1.4h-1.81v1.4ZM284.78,12.4v9.52c0,1.03-.46,1.08-2.34,1.08-.04-.23-.14-.6-.26-.83.41.01.8.02,1.1.02.63,0,.71,0,.71-.28v-5.46h-3.71v-4.07h4.5ZM283.98,13.04h-2.93v1.06h2.93v-1.06ZM281.06,15.83h2.93v-1.14h-2.93v1.14Z"/>
            <path class="cls-2" d="M290.32,14.37l.46.12-.07.17c-.17,2.12-.55,3.83-1.15,5.16.59.46,1.09.9,1.42,1.31l-.49.66c-.3-.38-.76-.82-1.28-1.25-.61,1.12-1.42,1.93-2.38,2.51-.11-.2-.34-.49-.5-.66.9-.48,1.65-1.26,2.25-2.34-.44-.34-.91-.65-1.37-.92l-.14.53-.68-.36c.3-1.05.67-2.58,1.02-4.12h-1.2v-.76h1.37c.19-.9.36-1.76.5-2.53l.98.12c-.01.08-.08.13-.24.14-.13.68-.3,1.46-.48,2.27h1.85l.14-.04ZM288.16,15.16c-.25,1.12-.53,2.24-.78,3.23.5.28,1.02.61,1.52.95.48-1.12.83-2.51,1-4.17h-1.74ZM295.49,13.85c.78.98,1.62,2.28,1.92,3.15l-.71.38c-.08-.24-.2-.52-.35-.82-1.9.16-3.84.28-5.1.36-.02.1-.1.14-.17.16l-.33-.94.97-.04c.5-1.19,1.07-2.97,1.37-4.26l1.06.26c-.04.08-.13.13-.28.14-.32,1.12-.86,2.67-1.36,3.83l3.49-.17c-.35-.59-.77-1.21-1.18-1.74l.66-.34ZM291.66,23.02v-4.92h5.08v4.87h-.8v-.52h-3.51v.56h-.77ZM295.94,18.85h-3.51v2.85h3.51v-2.85Z"/>
          </g>
        </g>
        <g>
          <path class="cls-2" d="M320.18,305.69h-66.77c-10.34,0-18.75-8.41-18.75-18.75s8.41-18.75,18.75-18.75h66.77c10.34,0,18.75,8.41,18.75,18.75s-8.41,18.75-18.75,18.75ZM253.41,269.19c-9.79,0-17.75,7.96-17.75,17.75s7.96,17.75,17.75,17.75h66.77c9.79,0,17.75-7.96,17.75-17.75s-7.96-17.75-17.75-17.75h-66.77Z"/>
          <g>
            <path class="cls-2" d="M284.99,281.24l.55.3s-.08.11-.16.12c-.43,1.15-1.08,2.17-1.86,3.03.88.8,1.91,1.45,3.01,1.83-.17.17-.4.46-.53.66-1.09-.44-2.12-1.13-2.99-1.98-.95.91-2.03,1.61-3.15,2.11-.1-.17-.32-.47-.49-.61l-.05.02c-.06-.22-.16-.46-.28-.72-.37.02-.76.04-1.12.06v5.13h-.72v-5.1c-.67.04-1.27.06-1.75.07-.01.1-.08.13-.17.16l-.22-.9h.84c.26-.32.54-.7.83-1.1-.37-.55-1-1.26-1.55-1.78l.42-.52c.12.11.25.23.38.36.41-.7.88-1.65,1.14-2.34l.85.36c-.04.07-.12.11-.25.11-.31.67-.84,1.65-1.29,2.33.28.29.53.59.72.85.52-.78,1-1.59,1.34-2.28l.84.4c-.04.06-.13.11-.26.11-.61,1.02-1.57,2.45-2.41,3.49l2.08-.04c-.22-.41-.46-.83-.71-1.19l.6-.26c.55.77,1.12,1.8,1.33,2.47.9-.44,1.77-1.02,2.53-1.74-.49-.54-.91-1.14-1.26-1.78-.37.53-.8,1.04-1.31,1.51-.12-.17-.4-.4-.58-.49,1.25-1.14,2.09-2.67,2.52-3.86l.98.14c-.02.08-.1.14-.24.16-.12.29-.26.6-.42.92h2.65l.13-.04ZM276.75,287.2c-.04.07-.11.12-.24.12-.17,1.02-.44,2.17-.8,2.88-.17-.11-.43-.23-.6-.31.35-.67.6-1.82.76-2.91l.89.23ZM279.24,289.53c-.11-.65-.44-1.64-.79-2.39l.62-.2c.36.76.71,1.73.83,2.36l-.66.23ZM284.99,291.26c-1.08-.65-3.08-1.49-4.74-1.94l.49-.58c1.62.44,3.63,1.27,4.72,1.87l-.48.65ZM284,288.46c-.54-.43-1.58-1.06-2.42-1.42l.49-.5c.85.35,1.89.94,2.45,1.36l-.52.56ZM281.81,281.99l-.14.25c.35.68.8,1.33,1.33,1.92.58-.65,1.07-1.37,1.43-2.17h-2.61Z"/>
            <path class="cls-2" d="M296.87,280.97l.74.46c-.04.06-.13.11-.2.12-1.01,1.15-2.71,2.54-4.19,3.37v5.21c0,.58-.16.82-.61.95-.44.13-1.24.13-2.49.13-.05-.23-.2-.58-.34-.82.66.02,1.28.04,1.71.04.78,0,.89,0,.89-.31v-5.91l.52.02c1.07-.62,2.23-1.56,3.02-2.4h-8.02v-.79h8.82l.16-.06Z"/>
          </g>
        </g>
        <path class="cls-2" d="M337.88,238.64h-104.27v-37.5h104.27v37.5ZM234.61,237.64h102.27v-35.5h-102.27v35.5Z"/>
        <g>
          <path class="cls-2" d="M269.07,217.61l-2.16,3.17,2.22,3.37h-1.14l-.98-1.52c-.24-.4-.46-.75-.7-1.17h-.02c-.2.41-.44.77-.7,1.17l-.96,1.52h-1.1l2.24-3.33-2.13-3.2h1.12l.95,1.45c.24.37.44.71.66,1.09h.04c.2-.38.43-.74.66-1.09l.92-1.45h1.09Z"/>
          <path class="cls-2" d="M283.09,219.15s-.05.02-.07.02c-.07,0-.13-.04-.18-.07-.91.3-2.24.79-3.24,1.22.02.28.04.59.04.93,0,.38-.01.82-.04,1.28l-.88.05c.04-.43.06-.98.06-1.45,0-.18,0-.35-.01-.48-1.36.66-2.46,1.46-2.46,2.18s.83,1.03,2.48,1.03c1.16,0,2.24-.02,3.01-.12v.8c-.7.07-1.78.1-3.01.1-2.3,0-3.32-.55-3.32-1.78,0-1.05,1.39-2.07,3.19-2.97-.07-.76-.41-1.13-.89-1.13-.88,0-1.79.49-2.87,1.69-.34.37-.8.84-1.32,1.31l-.59-.59c1.2-1.06,2.33-2.06,3.02-4.43h-.67s-2,.01-2,.01v-.78c.73.01,1.58.01,2.07.01h.82c.13-.56.24-1.08.32-1.73l1.17.14c-.02.12-.12.19-.3.22-.08.48-.19.9-.3,1.33.82-.01,2.57-.2,4.13-.7l.14.8c-1.5.47-3.31.64-4.5.67-.29.9-.59,1.62-.86,2.03h.01c.53-.47,1.32-.78,1.93-.78.82,0,1.33.59,1.49,1.56,1.01-.46,2.28-.95,3.24-1.32l.37.91Z"/>
          <path class="cls-2" d="M294.01,220.14l1.07.07c-.01.08-.07.14-.24.16v4.77h-.83v-.75h-7.8v.79h-.8v-5.04l1.06.06c-.01.1-.08.16-.25.17v3.23h3.41v-4.26h-3.75v-4.15l1.05.07c-.01.07-.08.13-.25.16v3.13h2.95v-4.47l1.07.07c-.01.08-.08.14-.24.17v4.23h3.07v-3.37l1.07.07c-.01.08-.07.14-.24.17v3.92h-3.9v4.26h3.56v-3.45Z"/>
          <path class="cls-2" d="M306.18,216.69c.18,0,.2,0,.38-.01l.47.05c0,.07-.01.19-.02.28-.18,5.26-.36,7.05-.84,7.6-.34.42-.72.49-1.5.49-.41,0-.92-.01-1.42-.05-.01-.24-.12-.6-.29-.84.85.07,1.62.08,1.92.08.25,0,.4-.04.53-.18.4-.4.59-2.12.74-6.61h-4.31c-.17,2.54-.98,5.51-4.55,7.7-.13-.2-.43-.5-.62-.64,3.37-2.03,4.16-4.74,4.33-7.06h-3.98v-.82h4.02c.01-.22.01-.42.01-.62v-2.04l1.08.07c-.01.08-.08.14-.24.17v1.8c0,.2,0,.41-.01.62h4.29Z"/>
        </g>
        <g>
          <path class="cls-2" d="M263.17,182.76h-2.7v8.29h-1v-8.29h-2.69v-.84h6.38v.84Z"/>
          <path class="cls-2" d="M267.12,185.35c-.11-.01-.22-.02-.36-.02-1.08,0-1.63,1.07-1.63,2.17v3.55h-1v-4.58c0-.7-.01-1.33-.05-1.96h.88l.05,1.26h.04c.29-.82.97-1.4,1.78-1.4.11,0,.19.02.3.04v.95Z"/>
          <path class="cls-2" d="M273.41,189.3c0,.67.04,1.24.06,1.74h-.9l-.05-1.03h-.04c-.3.52-.97,1.17-2.09,1.17-.98,0-2.15-.56-2.15-2.82v-3.86h1v3.68c0,1.27.37,2.16,1.46,2.16.78,0,1.7-.62,1.7-1.78v-4.07h1v4.8Z"/>
          <path class="cls-2" d="M280.01,190.77c-.37.18-1.06.41-2.05.41-1.91,0-3.05-1.34-3.05-3.3,0-2.05,1.15-3.53,2.91-3.53,2.02,0,2.53,1.85,2.53,2.99,0,.23-.01.4-.02.55h-4.45c.01,1.81,1.04,2.5,2.22,2.5.82,0,1.31-.17,1.71-.34l.19.72ZM279.37,187.15c.01-.89-.36-2.04-1.64-2.04-1.2,0-1.73,1.14-1.82,2.04h3.47Z"/>
        </g>
        <g>
          <path class="cls-2" d="M345.05,149.42v-9.14h4.61v.84h-3.61v3.25h3.32v.83h-3.32v4.22h-1Z"/>
          <path class="cls-2" d="M355.53,147.86c0,.54.01,1.1.1,1.56h-.91l-.1-.84h-.04c-.34.52-1.01.98-1.93.98-1.25,0-1.91-.91-1.91-1.86,0-1.57,1.37-2.42,3.79-2.41,0-.55,0-1.8-1.49-1.8-.56,0-1.15.16-1.59.47l-.24-.68c.53-.35,1.26-.55,1.99-.55,1.85,0,2.33,1.31,2.33,2.6v2.53ZM354.54,146.02c-1.24,0-2.78.18-2.78,1.56,0,.84.53,1.21,1.13,1.21.97,0,1.65-.74,1.65-1.54v-1.24Z"/>
          <path class="cls-2" d="M358.45,149.42h-1v-9.59h1v9.59Z"/>
          <path class="cls-2" d="M363.48,143.88c-.24-.16-.68-.38-1.27-.38-.72,0-1.1.44-1.1.97,0,.56.37.83,1.21,1.19,1.06.43,1.67.98,1.67,1.97,0,1.16-.89,1.93-2.32,1.93-.65,0-1.27-.18-1.71-.44l.28-.77c.35.2.91.44,1.47.44.88,0,1.31-.47,1.31-1.06s-.35-.95-1.21-1.29c-1.1-.44-1.67-1.06-1.67-1.85,0-1.02.82-1.86,2.13-1.86.62,0,1.15.18,1.5.4l-.29.76Z"/>
          <path class="cls-2" d="M370.14,149.14c-.37.18-1.06.41-2.05.41-1.91,0-3.05-1.34-3.05-3.3,0-2.05,1.15-3.53,2.91-3.53,2.02,0,2.53,1.85,2.53,2.99,0,.23-.01.4-.02.55h-4.45c.01,1.81,1.04,2.5,2.22,2.5.82,0,1.31-.17,1.71-.34l.19.72ZM369.51,145.52c.01-.89-.36-2.04-1.64-2.04-1.2,0-1.73,1.14-1.82,2.04h3.47Z"/>
        </g>
        <g>
          <path class="cls-2" d="M337.88,104.55h-104.27v-37.5h104.27v37.5ZM234.61,103.55h102.27v-35.5h-102.27v35.5Z"/>
          <g>
            <path class="cls-2" d="M275.01,82.51l-2.16,3.17,2.22,3.37h-1.14l-.98-1.52c-.24-.4-.46-.75-.7-1.17h-.02c-.2.41-.44.77-.7,1.17l-.96,1.52h-1.1l2.24-3.33-2.13-3.2h1.12l.95,1.45c.24.37.44.71.66,1.09h.04c.2-.38.43-.74.66-1.09l.92-1.45h1.09Z"/>
            <path class="cls-2" d="M285.57,84.44h-6.99v-.72h6.99v.72ZM285.57,87.06h-6.99v-.72h6.99v.72Z"/>
            <path class="cls-2" d="M292.04,89.04v-8.05h-.02l-1.48.85-.24-.74,1.86-1.04h.85v8.98h-.97Z"/>
            <path class="cls-2" d="M296.01,84.58c0-3.14,1.22-4.67,2.9-4.67s2.75,1.61,2.75,4.55c0,3.12-1.09,4.72-2.88,4.72-1.63,0-2.77-1.61-2.77-4.61ZM300.66,84.51c0-2.24-.54-3.79-1.8-3.79-1.07,0-1.82,1.43-1.82,3.79s.66,3.86,1.79,3.86c1.33,0,1.83-1.73,1.83-3.86Z"/>
          </g>
        </g>
        <path class="cls-2" d="M470.18,238.33h-104.27v-37.5h104.27v37.5ZM366.91,237.33h102.27v-35.5h-102.27v35.5Z"/>
        <g>
          <path class="cls-2" d="M393,212.06v-7.34h3.33v.52h-2.81v6.82h-.52Z"/>
          <path class="cls-2" d="M401.31,207.83l-1.8,2.64,1.85,2.81h-.95l-.82-1.27c-.2-.33-.38-.63-.58-.98h-.02c-.17.34-.37.64-.58.98l-.8,1.27h-.92l1.87-2.78-1.78-2.67h.93l.79,1.21c.2.31.37.59.55.91h.03c.17-.32.36-.62.55-.91l.77-1.21h.91Z"/>
          <path class="cls-2" d="M405.35,213.56c-.31-.72-.43-2.21-.43-3.52s.21-3,.54-4.67l.97.19c-.02.1-.12.17-.26.18-.36,1.37-.58,3.15-.58,4.31,0,.76.01,1.52.09,1.89.22-.6.62-1.56.83-2.03l.45.42c-.33.68-1.03,2.2-1.03,2.67,0,.14.03.29.1.48l-.68.08ZM407.89,207.68c.84,0,1.68.02,2.52-.04-.04-.86-.07-1.6-.09-2.34l1.01.03c0,.1-.1.18-.26.21,0,.64.03,1.29.05,2.05.79-.08,1.43-.22,1.96-.4l.09.7c-.48.15-1.17.29-2.02.36.04,1.11.09,2.28.12,2.92.76.31,1.52.8,2.04,1.27l-.39.64c-.41-.41-1-.85-1.62-1.14,0,.85-.17,1.8-1.67,1.8-1.17,0-1.95-.56-1.95-1.44,0-1.02,1.03-1.47,1.95-1.47.31,0,.64.04.95.13-.03-.63-.09-1.68-.14-2.66-.31.02-.73.03-1.02.03h-1.52v-.65ZM410.63,211.6c-.32-.1-.66-.18-.99-.18-.61,0-1.34.22-1.34.85,0,.56.6.84,1.33.84s1.01-.36,1.01-1.16v-.35Z"/>
          <path class="cls-2" d="M421.15,205.79v.69h-2.69l-.31,2.12c.16-.02.32-.04.58-.04,1.33,0,2.52.79,2.52,2.3s-1.1,2.54-2.58,2.54c-.75,0-1.38-.22-1.72-.44l.24-.65c.28.19.83.42,1.48.42.94,0,1.75-.69,1.74-1.77,0-1.03-.66-1.75-2.06-1.75-.4,0-.71.03-.96.07l.47-3.49h3.29Z"/>
          <path class="cls-2" d="M432.86,213.22c-.86-.68-1.95-1.33-3-1.67.02.39-.05.9-.13,1.16-.08.83-.85,1.15-1.77,1.15-1.29,0-2.31-.63-2.32-1.64-.02-1.01,1.04-1.63,2.3-1.64.35,0,.8.02,1.17.09,0-.27-.05-.5-.06-.73-.09-1.31-.17-3.41-.18-4.85l1.04.06c0,.1-.09.19-.26.21,0,.27,0,1.59,0,1.89.65,0,2.11-.11,3.32-.32l.07.71c-1.14.18-2.62.28-3.38.29,0,.57.02.8.17,2.87,1.29.38,2.51,1.06,3.49,1.78l-.46.64ZM427.92,211.18c-.96.02-1.63.42-1.63.99,0,.73.79,1.05,1.59,1.05.7,0,1.28-.25,1.28-.96,0-.23,0-.64-.02-.93-.4-.12-.84-.15-1.22-.15Z"/>
          <path class="cls-2" d="M436.97,210.73c-.19-.54-.28-1.32-.29-1.88,0-.94.1-2.03.34-3.3l1,.17c-.04.13-.16.16-.29.17-.2.83-.34,2.1-.34,2.91,0,.22,0,.4.03.54.2-.49.57-1.17.78-1.55.09.13.29.34.39.44-.74,1.33-.96,1.71-.96,2.13,0,.08,0,.16.03.25l-.69.12ZM442.33,205.3c0,.12-.09.17-.26.22.07.87.17,2.32.17,3.47,0,1.93-.71,3.67-3.72,4.92-.11-.16-.35-.43-.5-.58,2.73-1.04,3.46-2.69,3.46-4.33,0-1.23-.12-2.68-.23-3.75l1.08.05Z"/>
          <path class="cls-2" d="M393.49,218.55c-.02.08-.09.12-.22.12-.29,1.3-.89,3.13-1.81,4.26-.16-.11-.45-.28-.63-.36.92-1.08,1.49-2.83,1.74-4.2l.92.18ZM395.23,215.99l.92.05c0,.08-.07.13-.21.14v7.98c0,.52-.14.73-.48.85-.36.11-.98.13-1.92.13-.05-.2-.17-.52-.29-.71.45,0,.88.02,1.2.02.7,0,.78,0,.78-.28v-8.17ZM399.63,223.09c-.25-1.2-1.07-3.1-1.96-4.55l.64-.25c.9,1.43,1.77,3.29,2.03,4.5l-.71.3Z"/>
          <path class="cls-2" d="M409.58,218.14c-.91.26-2.13.44-3.33.55.39,1.36.81,2.17,1.89,2.64l-.49.61c-.46-.35-.93-.62-2.23-.69l-.12-.59c.49.04.86.1,1.11.15-.35-.42-.62-1.06-.89-2.07-.45.04-1.06.06-1.66.06-.65,0-1.71-.01-2.35-.03v-.68c.6.03,1.45.03,2.36.03.51,0,1.09-.01,1.49-.05-.12-.54-.23-1.28-.35-2.05l1.07.02c0,.12-.1.19-.26.23.06.57.16,1.2.27,1.75,1.15-.1,2.45-.31,3.33-.59l.16.71ZM407.79,224.71c-.48.02-.99.03-1.86.03-2.09,0-3.57-.64-3.57-1.98,0-.57.35-1.15.9-1.68l.54.43c-.45.36-.72.85-.72,1.23,0,.99,1.28,1.31,2.87,1.31.87,0,1.38-.02,1.89-.05l-.05.71Z"/>
          <path class="cls-2" d="M412.61,217.19c-.02.09-.13.15-.27.16-.12.75-.19,1.65-.19,2.49,0,.37.02.73.04,1.05.12,1.7.81,2.73,1.58,2.72.4,0,.92-1.02,1.28-2.14.14.14.41.33.58.43-.46,1.35-1.04,2.45-1.87,2.47-1.27.02-2.15-1.52-2.29-3.44-.03-.38-.04-.8-.04-1.25,0-.88.05-1.84.15-2.69l1.03.2ZM419.23,221.83c-.28-1.75-1.17-3.01-2.52-3.76l.44-.54c1.46.78,2.53,2.22,2.82,4.07l-.74.23Z"/>
          <path class="cls-2" d="M421.37,217.19c.75-.03,6.91-.47,8.21-.48v.75c-.12,0-.24,0-.36,0-.58,0-1.07.1-1.71.51-1.5.9-2.95,2.51-2.95,3.8,0,1.4.98,2.23,3.46,2.55l-.33.7c-2.84-.41-3.9-1.47-3.9-3.25,0-1.41,1.39-3.12,3.22-4.27-1.1.08-4.05.3-5.34.42-.03.08-.14.15-.22.16l-.08-.88ZM427.84,219.16c.48.36,1.05.95,1.36,1.38l-.38.31c-.28-.44-.89-1.06-1.32-1.39l.34-.3ZM428.92,218.28c.49.36,1.07.94,1.36,1.38l-.38.3c-.27-.4-.85-1.02-1.32-1.38l.34-.3Z"/>
          <path class="cls-2" d="M435.84,217.49c0-.22-.04-1.31-.06-1.56l1.03.04c0,.08-.08.18-.26.21,0,.12,0,.24.02,1.29,1.23-.04,2.52-.07,3.27-.08v.69c-.85-.02-2.06,0-3.25.04.02.78.04,1.5.07,2.05.1.33.12.63.12,1.05,0,.32-.03.69-.1.97-.26,1.17-1.12,2.2-2.88,2.9-.13-.17-.35-.42-.51-.57,1.53-.55,2.35-1.38,2.6-2.33h0c-.21.3-.58.53-1.03.53-.89,0-1.68-.73-1.68-1.75-.01-1.06.85-1.87,1.8-1.87.36,0,.73.13.93.31,0-.17-.02-.84-.04-1.27-1.04.02-4.2.13-4.61.15l-.02-.66,2.28-.06,2.33-.08ZM436.03,221c0-.39,0-1.3-1.02-1.3-.69,0-1.18.54-1.19,1.27,0,.7.53,1.16,1.11,1.16.71,0,1.1-.55,1.1-1.13Z"/>
          <path class="cls-2" d="M444.22,217.79v7.34h-3.33v-.53h2.81v-6.81h.52Z"/>
          <path class="cls-2" d="M411.21,230.39s-.05.01-.08.01c-.07,0-.15-.02-.21-.06-2.97.87-5.66,2.18-5.65,3.52,0,.96,1.06,1.29,2.68,1.29s2.84-.12,3.54-.23l.06.73c-.92.12-2.41.18-3.58.18-1.98,0-3.42-.46-3.43-1.93,0-1.07,1.06-2.01,2.63-2.82-.34-.61-.46-1.77-.46-4.03l1.1.09c0,.13-.11.21-.31.24-.01,1.75.05,2.84.33,3.38.94-.44,2.02-.84,3.12-1.2l.26.83Z"/>
          <path class="cls-2" d="M421.31,231.94l.89.06c-.01.07-.06.12-.2.13v3.98h-.69v-.63h-6.5v.66h-.67v-4.2l.88.05c0,.08-.07.13-.21.14v2.69h2.84v-3.55h-3.13v-3.46l.88.06c0,.06-.07.11-.21.13v2.61h2.46v-3.73l.89.06c0,.07-.07.12-.2.14v3.53h2.56v-2.81l.89.06c0,.07-.06.12-.2.14v3.27h-3.25v3.55h2.97v-2.88Z"/>
          <path class="cls-2" d="M431.45,229.07c.15,0,.17,0,.32,0l.39.04c0,.06,0,.16-.02.23-.15,4.39-.3,5.88-.7,6.34-.28.35-.6.41-1.25.41-.34,0-.77,0-1.18-.04,0-.2-.1-.5-.24-.7.71.06,1.35.07,1.6.07.21,0,.33-.03.44-.15.33-.33.49-1.77.62-5.51h-3.59c-.14,2.12-.82,4.59-3.79,6.42-.11-.17-.36-.42-.52-.53,2.81-1.69,3.47-3.95,3.61-5.89h-3.32v-.68h3.35c0-.18,0-.35,0-.52v-1.7l.9.06c0,.07-.07.12-.2.14v1.5c0,.17,0,.34,0,.52h3.58Z"/>
        </g>
        <rect class="cls-2" x="338.84" y="152.34" width="75.67" height="1"/>
        <g>
          <rect class="cls-2" x="417.55" y="152.89" width="1" height="41.97"/>
          <polygon class="cls-2" points="421.75 192.05 418.05 193.63 414.34 192.05 418.05 200.83 421.75 192.05"/>
        </g>
        <g>
          <rect class="cls-4" x="284.86" y="180.75" width="1" height="14.61"/>
          <polygon class="cls-4" points="289.06 192.55 285.36 194.13 281.66 192.55 285.36 201.33 289.06 192.55"/>
        </g>
        <g>
          <rect class="cls-4" x="284.86" y="238.14" width="1" height="24.58"/>
          <polygon class="cls-4" points="289.06 259.91 285.36 261.48 281.66 259.91 285.36 268.69 289.06 259.91"/>
        </g>
        <g>
          <rect class="cls-4" x="284.86" y="104.05" width="1" height="14.86"/>
          <polygon class="cls-4" points="289.06 116.1 285.36 117.68 281.66 116.1 285.36 124.88 289.06 116.1"/>
        </g>
        <g>
          <rect class="cls-4" x="284.86" y="37.74" width="1" height="23.84"/>
          <polygon class="cls-4" points="289.06 58.77 285.36 60.34 281.66 58.77 285.36 67.55 289.06 58.77"/>
        </g>
        <rect class="cls-2" x="338.84" y="152.34" width="79.8" height="1"/>
        <rect class="cls-2" x="285.77" y="249.01" width="132.87" height="1"/>
        <rect class="cls-2" x="417.55" y="238.14" width="1" height="11.37"/>
        <g>
          <g>
            <path class="cls-2" d="M275.7,149.55l-2.16,3.17,2.22,3.37h-1.14l-.98-1.52c-.24-.4-.46-.75-.7-1.17h-.02c-.2.41-.44.77-.7,1.17l-.96,1.52h-1.1l2.24-3.33-2.13-3.2h1.12l.95,1.45c.24.37.44.71.66,1.09h.04c.2-.38.43-.74.66-1.09l.92-1.45h1.09Z"/>
            <path class="cls-2" d="M285.89,152.14v.68l-6.25,3.26v-.84l5.41-2.75v-.02l-5.41-2.77v-.84l6.25,3.27Z"/>
            <path class="cls-2" d="M295.19,147.11v.83h-3.23l-.37,2.54c.19-.02.38-.05.7-.05,1.59,0,3.02.95,3.02,2.76s-1.32,3.05-3.09,3.05c-.9,0-1.66-.26-2.06-.53l.29-.78c.34.23,1,.5,1.78.5,1.13,0,2.1-.83,2.09-2.12,0-1.24-.79-2.1-2.47-2.1-.48,0-.85.04-1.15.08l.56-4.19h3.95Z"/>
            <path class="cls-2" d="M298.98,153.58h-.9c-.05-.44-.05-.49-.05-.64,0-.67.24-1.39.82-2.12.64-.77.97-1.31.97-1.97,0-.74-.46-1.25-1.32-1.25-.47,0-.98.17-1.31.42l-.29-.73c.42-.3,1.14-.52,1.8-.52,1.49,0,2.16.95,2.16,1.97,0,.9-.52,1.58-1.15,2.38-.52.66-.76,1.19-.76,1.81,0,.1,0,.19.01.29v.36ZM297.81,155.48c.01-.44.29-.77.71-.77s.71.32.71.77c0,.42-.28.75-.71.75-.46,0-.71-.36-.71-.75Z"/>
          </g>
          <g>
            <polygon class="cls-2" points="285.94 181.25 285.48 180.37 337.77 152.84 285.48 125.32 285.94 124.44 339.91 152.84 285.94 181.25"/>
            <polygon class="cls-2" points="285.54 181.25 231.57 152.84 285.54 124.44 286.01 125.32 233.72 152.84 286.01 180.37 285.54 181.25"/>
          </g>
        </g>
      </g>
      <g>
        <path class="cls-3" d="M9.96,38.76h1.57c.13,0,.22.03.28.08.06.05.09.14.09.26,0,.13-.03.23-.09.28-.06.05-.16.08-.31.08h-3.78c-.13,0-.23-.03-.29-.09s-.1-.15-.1-.26.03-.2.1-.25.17-.08.31-.08h1.49v-3.13h-.96c-.13,0-.24-.03-.31-.09s-.11-.15-.11-.26.03-.2.1-.25.16-.08.29-.08h1.43c.09,0,.16.02.21.05.05.04.08.08.08.15v3.62ZM9.06,33.53c0-.35.03-.57.1-.66.06-.09.2-.14.41-.14s.33.04.4.12c.07.08.1.26.1.54s-.03.45-.09.52c-.06.07-.2.1-.41.1s-.34-.03-.41-.09c-.06-.06-.1-.19-.1-.39Z"/>
        <path class="cls-3" d="M13.69,38.76v-3.13h-.09c-.22,0-.37-.03-.46-.08-.08-.05-.12-.14-.12-.27,0-.12.03-.21.1-.26.07-.05.18-.08.33-.08h.7c.09,0,.16.02.21.05s.07.08.07.15v.33c.24-.22.47-.38.71-.49.23-.11.47-.16.72-.16.49,0,.88.15,1.16.46.28.31.42.73.42,1.27v2.21h.23c.16,0,.28.03.35.08.07.05.11.14.11.26,0,.13-.04.22-.12.27-.08.05-.21.08-.41.08h-1.08c-.21,0-.34-.02-.4-.07s-.09-.14-.09-.28c0-.13.03-.21.1-.26.07-.05.2-.07.39-.07h.17v-2.03c0-.38-.09-.67-.26-.87-.17-.2-.42-.3-.75-.3s-.63.11-.88.34c-.25.22-.38.5-.38.83v2.03h.17c.2,0,.33.02.4.07s.1.14.1.26c0,.14-.03.23-.09.28s-.2.07-.43.07h-1.15c-.13,0-.23-.03-.3-.09-.07-.06-.1-.15-.1-.27,0-.13.04-.22.12-.27.08-.05.22-.07.45-.07h.1Z"/>
        <path class="cls-3" d="M22.84,35.21c.16,0,.28.03.35.08.07.06.11.14.11.26s-.03.2-.1.26c-.07.06-.17.08-.31.08h-1.98v1.63c0,.53.07.89.21,1.05.14.17.38.25.71.25.3,0,.65-.09,1.06-.26s.67-.26.77-.26c.09,0,.17.03.23.1.06.07.1.14.1.24,0,.11-.04.2-.12.28-.08.08-.22.16-.41.23-.32.13-.61.22-.86.28-.26.06-.5.09-.72.09-.38,0-.7-.06-.96-.18-.26-.12-.45-.3-.58-.54-.07-.11-.11-.25-.14-.41-.03-.16-.04-.4-.04-.72v-1.78h-.83c-.14,0-.24-.03-.3-.08-.06-.05-.09-.14-.09-.26,0-.13.04-.22.13-.27s.27-.07.54-.07h.55v-1.26c0-.14.03-.24.09-.31.06-.07.15-.1.28-.1.14,0,.24.04.3.12s.08.27.08.56v.99h1.93Z"/>
        <path class="cls-3" d="M32.44,38.76h.14c.16,0,.29.03.38.09.09.06.14.15.14.26,0,.12-.04.2-.12.26-.08.06-.21.08-.38.08h-1.35c-.1,0-.18-.03-.24-.1s-.1-.15-.1-.24c0-.12.04-.21.13-.26s.23-.08.42-.08h.1l1.58-1.62-1.55-1.51h-.07c-.19,0-.32-.03-.39-.08-.07-.05-.11-.14-.11-.26,0-.13.04-.22.12-.27.08-.05.24-.08.48-.08h1c.18,0,.3.03.38.08.08.06.12.14.12.26,0,.11-.04.19-.13.25-.09.06-.22.09-.39.09h-.04l1.05,1.03,1-1.03h-.1c-.18,0-.32-.03-.41-.08-.09-.05-.13-.14-.13-.25,0-.13.04-.22.12-.27s.21-.08.38-.08h1.27c.1,0,.18.03.25.09.06.06.09.14.09.25,0,.12-.04.21-.12.26s-.21.08-.39.08h-.14l-1.4,1.46,1.71,1.67h.05c.12,0,.22.03.29.09.07.06.1.15.1.26,0,.13-.04.22-.12.27s-.24.07-.48.07h-1c-.17,0-.3-.03-.38-.08s-.12-.14-.12-.26c0-.11.04-.19.12-.25s.19-.09.32-.09h.27l-1.23-1.2-1.12,1.2Z"/>
        <path class="cls-3" d="M43.33,35.19h4.38c.1,0,.17.03.23.09.05.06.08.15.08.26s-.03.21-.08.27c-.05.06-.13.09-.23.09h-4.38c-.1,0-.18-.03-.23-.09-.05-.06-.08-.15-.08-.27s.03-.21.08-.27c.05-.06.13-.09.23-.09ZM43.33,36.83h4.38c.1,0,.17.03.23.09.05.06.08.15.08.27s-.03.21-.08.27c-.05.06-.13.09-.23.09h-4.38c-.1,0-.18-.03-.23-.09-.05-.06-.08-.15-.08-.27s.03-.21.08-.27c.05-.06.13-.09.23-.09Z"/>
        <path class="cls-3" d="M56.35,34.21s-.07.01-.09.01c-.02,0-.04,0-.06,0-.1,0-.18-.03-.25-.08-.06-.06-.1-.13-.1-.23,0-.08.03-.15.08-.21s.13-.1.24-.13l1.45-.39s.07-.02.1-.02c.04,0,.07,0,.11,0,.06,0,.11.03.15.09.04.06.05.13.05.23v5.28h.78c.29,0,.47.02.55.07.08.05.12.14.12.27,0,.12-.03.21-.1.26s-.16.09-.29.09h-2.92c-.13,0-.23-.03-.29-.09s-.1-.15-.1-.26c0-.13.04-.22.12-.27.08-.05.26-.07.55-.07h.81v-4.77l-.92.22Z"/>
        <path class="cls-3" d="M63.52,39.61c-.61,0-1.1-.29-1.46-.87-.36-.58-.54-1.37-.54-2.38s.18-1.79.54-2.37c.36-.58.84-.87,1.46-.87s1.1.29,1.46.87.54,1.37.54,2.37-.18,1.79-.54,2.37c-.36.58-.85.87-1.46.87ZM63.52,33.83c-.37,0-.67.22-.87.67-.21.44-.31,1.07-.31,1.88s.1,1.44.31,1.88c.21.44.5.67.87.67s.67-.22.88-.67c.21-.45.31-1.07.31-1.88s-.1-1.43-.31-1.88c-.21-.44-.5-.67-.88-.67Z"/>
        <path class="cls-3" d="M68.91,38.26c.03-.11.06-.18.1-.21s.11-.04.2-.04h1.01s.08,0,.11.03c.03.02.04.04.04.07,0,0,0,.03,0,.05s-.02.05-.03.07l-1.26,2.62c-.03.05-.05.09-.09.11-.03.02-.07.03-.11.03-.03,0-.05,0-.06,0-.01,0-.03,0-.04,0l-.32-.12s-.08-.04-.11-.07c-.02-.03-.04-.06-.04-.1,0-.01,0-.03,0-.04,0-.02,0-.04.02-.08l.59-2.33ZM68.53,35.95c0-.25.09-.46.27-.62.18-.16.41-.24.69-.24s.52.08.7.24c.18.16.27.37.27.63s-.09.47-.27.63c-.18.16-.41.24-.7.24s-.52-.08-.69-.24-.26-.37-.26-.63Z"/>
        <path class="cls-3" d="M9.96,50.76h1.57c.13,0,.22.03.28.08.06.05.09.14.09.26,0,.13-.03.23-.09.28-.06.05-.16.08-.31.08h-3.78c-.13,0-.23-.03-.29-.09s-.1-.15-.1-.26.03-.2.1-.25.17-.08.31-.08h1.49v-3.13h-.96c-.13,0-.24-.03-.31-.09s-.11-.15-.11-.26.03-.2.1-.25.16-.08.29-.08h1.43c.09,0,.16.02.21.05.05.04.08.08.08.15v3.62ZM9.06,45.53c0-.35.03-.57.1-.66.06-.09.2-.14.41-.14s.33.04.4.12c.07.08.1.26.1.54s-.03.45-.09.52c-.06.07-.2.1-.41.1s-.34-.03-.41-.09c-.06-.06-.1-.19-.1-.39Z"/>
        <path class="cls-3" d="M17.01,50.75c.13,0,.24.03.3.09.07.06.11.14.11.26s-.03.21-.1.26c-.07.06-.16.09-.29.09h-3.19c-.13,0-.24-.03-.3-.09-.07-.06-.11-.15-.11-.26s.03-.2.1-.26c.07-.06.16-.09.29-.09h.83v-2.98h-.8c-.13,0-.24-.03-.31-.09-.07-.06-.11-.15-.11-.26s.03-.21.1-.26.17-.09.3-.09h.77v-.33c0-.59.17-1.02.5-1.28.33-.26.88-.4,1.63-.4.36,0,.63.04.81.12.17.08.26.21.26.38,0,.1-.04.18-.11.25s-.17.1-.29.1c-.06,0-.2-.02-.42-.06-.22-.04-.41-.06-.57-.06-.37,0-.63.08-.79.23-.16.16-.24.41-.24.77v.28h1.73c.13,0,.24.03.3.09.07.06.11.15.11.26,0,.11-.04.2-.11.26-.07.06-.17.1-.29.1h-1.69v2.98h1.59Z"/>
        <path class="cls-3" d="M28.5,45.71c0,.07-.05.22-.16.44-.11.23-.19.41-.25.54-.22.52-.38.99-.47,1.42-.09.43-.14.88-.14,1.34,0,.43.04.84.12,1.24.08.4.2.8.36,1.19.08.21.19.47.33.76.14.29.21.47.21.54s-.02.13-.05.17c-.03.04-.07.06-.12.06-.1,0-.21-.05-.34-.16-.12-.11-.27-.28-.43-.51-.35-.5-.61-1.02-.78-1.57s-.26-1.12-.26-1.72c0-.55.07-1.08.21-1.57.14-.5.36-.98.65-1.45.19-.31.36-.54.52-.7s.3-.23.42-.23c.05,0,.09.02.12.06.03.04.05.09.05.16Z"/>
        <path class="cls-3" d="M32.44,50.76h.14c.16,0,.29.03.38.09.09.06.14.15.14.26,0,.12-.04.2-.12.26-.08.06-.21.08-.38.08h-1.35c-.1,0-.18-.03-.24-.1s-.1-.15-.1-.24c0-.12.04-.21.13-.26s.23-.08.42-.08h.1l1.58-1.62-1.55-1.51h-.07c-.19,0-.32-.03-.39-.08-.07-.05-.11-.14-.11-.26,0-.13.04-.22.12-.27.08-.05.24-.08.48-.08h1c.18,0,.3.03.38.08.08.06.12.14.12.26,0,.11-.04.19-.13.25-.09.06-.22.09-.39.09h-.04l1.05,1.03,1-1.03h-.1c-.18,0-.32-.03-.41-.08-.09-.05-.13-.14-.13-.25,0-.13.04-.22.12-.27s.21-.08.38-.08h1.27c.1,0,.18.03.25.09.06.06.09.14.09.25,0,.12-.04.21-.12.26s-.21.08-.39.08h-.14l-1.4,1.46,1.71,1.67h.05c.12,0,.22.03.29.09.07.06.1.15.1.26,0,.13-.04.22-.12.27s-.24.07-.48.07h-1c-.17,0-.3-.03-.38-.08s-.12-.14-.12-.26c0-.11.04-.19.12-.25s.19-.09.32-.09h.27l-1.23-1.2-1.12,1.2Z"/>
        <path class="cls-3" d="M40.82,48.36l-3.57-1.63c-.15-.07-.26-.14-.32-.2-.06-.07-.09-.14-.09-.23,0-.09.03-.17.09-.22.06-.06.13-.08.23-.08.05,0,.1,0,.16.03.06.02.14.05.23.09l3.88,1.78s.03.02.06.03c.29.13.44.28.44.44s-.14.31-.43.44c-.03.01-.06.02-.07.03l-3.88,1.81h-.02c-.17.08-.29.12-.37.12-.1,0-.17-.03-.23-.09-.06-.06-.09-.14-.09-.23,0-.08.03-.16.09-.23.06-.07.17-.13.32-.2l3.57-1.65Z"/>
        <path class="cls-3" d="M44.41,47.63c.21-.08.41-.14.6-.17.18-.04.36-.06.52-.06.57,0,1.04.2,1.42.59.38.4.57.89.57,1.47,0,.62-.21,1.13-.63,1.54s-.96.61-1.61.61c-.55,0-1-.07-1.37-.22-.37-.15-.55-.33-.55-.54,0-.08.03-.16.1-.23.07-.07.15-.1.24-.1.04,0,.23.06.57.19.35.13.67.19.96.19.44,0,.79-.13,1.06-.39.27-.26.41-.6.41-1.01s-.13-.74-.39-1.01c-.26-.27-.58-.4-.97-.4-.29,0-.58.07-.86.22-.28.15-.45.22-.51.22-.1,0-.17-.04-.21-.11-.04-.07-.06-.2-.06-.39v-2.44c0-.11.03-.19.1-.23.07-.05.18-.07.35-.07h2.47c.16,0,.27.03.35.1.08.06.12.16.12.29,0,.12-.04.21-.12.28s-.2.1-.35.1h-2.21v1.58Z"/>
        <path class="cls-3" d="M50.52,53.18c0-.07.06-.21.17-.43.11-.22.2-.4.25-.54.22-.52.37-1,.47-1.43.09-.43.14-.88.14-1.34,0-.42-.04-.83-.12-1.23-.08-.4-.2-.8-.36-1.21-.08-.21-.2-.47-.34-.76-.14-.29-.21-.47-.21-.54,0-.07.02-.12.05-.16.03-.04.08-.06.13-.06.11,0,.22.05.34.16.12.11.26.27.43.5.35.5.61,1.02.78,1.57s.26,1.13.26,1.73c0,.55-.07,1.08-.22,1.58-.14.5-.36.99-.65,1.46-.2.32-.38.55-.53.7-.15.15-.29.22-.41.22-.05,0-.09-.02-.13-.06s-.05-.1-.05-.17Z"/>
        <path class="cls-3" d="M57.15,49.2c.33.1.55.27.68.5.13.23.2.62.2,1.16v.72c0,.34.04.56.11.68s.2.19.39.24c.04,0,.1.02.18.03.29.04.43.17.43.4,0,.11-.04.2-.11.26s-.18.09-.32.09c-.55,0-.94-.14-1.16-.41s-.34-.79-.34-1.54v-.57c0-.38-.05-.65-.16-.81-.11-.16-.37-.27-.79-.34-.13-.02-.22-.06-.27-.12-.06-.06-.08-.15-.08-.28,0-.1.02-.19.07-.24s.12-.1.22-.13c.05,0,.12-.03.21-.05.54-.11.81-.49.81-1.12v-.58c0-.75.11-1.27.34-1.54s.62-.42,1.17-.42c.13,0,.24.03.31.1.07.06.11.15.11.26,0,.22-.14.35-.43.39-.06,0-.1.02-.13.02-.21.04-.35.12-.43.24-.08.12-.12.36-.12.71v.72c0,.54-.07.93-.2,1.16s-.36.39-.68.48Z"/>
        <path class="cls-3" d="M20.25,65.15h1.17c.12,0,.22.03.28.09s.09.15.09.26c0,.13-.03.22-.09.27-.06.05-.17.08-.32.08h-2.15c-.13,0-.23-.03-.3-.09-.07-.06-.1-.14-.1-.26,0-.13.04-.22.12-.27.08-.05.24-.08.46-.08h.09v-5.07h-.09c-.22,0-.38-.03-.46-.08-.08-.05-.12-.14-.12-.27,0-.11.03-.2.1-.26.07-.06.17-.09.3-.09h.74c.1,0,.17.02.21.05.04.03.07.08.07.15v.47c.22-.23.47-.4.73-.51.27-.11.56-.17.87-.17.65,0,1.2.22,1.64.66s.66,1,.66,1.67-.21,1.17-.62,1.58-.95.62-1.6.62c-.34,0-.66-.06-.95-.18-.29-.12-.53-.3-.73-.52v1.95ZM21.76,63.19c.45,0,.82-.14,1.11-.43.29-.29.43-.65.43-1.11s-.15-.81-.44-1.1c-.29-.29-.66-.43-1.11-.43s-.82.14-1.1.43-.43.65-.43,1.1.14.82.43,1.1c.28.29.65.43,1.11.43Z"/>
        <path class="cls-3" d="M27.03,63.21h1.62c.13,0,.22.03.28.08.06.05.09.14.09.26,0,.13-.03.23-.09.28-.06.05-.16.08-.31.08h-3.19c-.13,0-.22-.03-.29-.09s-.1-.15-.1-.26.03-.2.1-.25c.07-.06.17-.08.31-.08h.85v-3.13h-.33c-.32,0-.51-.03-.59-.08s-.12-.14-.12-.27c0-.11.03-.2.1-.25.06-.06.16-.08.29-.08h1.11c.09,0,.15.02.2.05.05.04.07.08.07.15v.83c.31-.39.63-.68.97-.86s.7-.28,1.08-.28c.29,0,.52.06.7.17s.27.27.27.45c0,.12-.04.23-.13.32-.09.09-.19.14-.3.14-.08,0-.2-.05-.38-.15-.18-.1-.34-.15-.48-.15-.25,0-.52.09-.8.27-.28.18-.59.47-.94.86v2.02Z"/>
        <path class="cls-3" d="M33.97,63.21h1.57c.13,0,.22.03.28.08.06.05.09.14.09.26,0,.13-.03.23-.09.28-.06.05-.16.08-.31.08h-3.78c-.13,0-.23-.03-.29-.09s-.1-.15-.1-.26.03-.2.1-.25.17-.08.31-.08h1.49v-3.13h-.96c-.13,0-.24-.03-.31-.09s-.11-.15-.11-.26.03-.2.1-.25.16-.08.29-.08h1.43c.09,0,.16.02.21.05.05.04.08.08.08.15v3.62ZM33.06,57.98c0-.35.03-.57.1-.66.06-.09.2-.14.41-.14s.33.04.4.12c.07.08.1.26.1.54s-.03.45-.09.52c-.06.07-.2.1-.41.1s-.34-.03-.41-.09c-.06-.06-.1-.19-.1-.39Z"/>
        <path class="cls-3" d="M37.7,63.21v-3.13h-.09c-.22,0-.37-.03-.46-.08-.08-.05-.12-.14-.12-.27,0-.12.03-.21.1-.26.07-.05.18-.08.33-.08h.7c.09,0,.16.02.21.05s.07.08.07.15v.33c.24-.22.47-.38.71-.49.23-.11.47-.16.72-.16.49,0,.88.15,1.16.46.28.31.42.73.42,1.27v2.21h.23c.16,0,.28.03.35.08.07.05.11.14.11.26,0,.13-.04.22-.12.27-.08.05-.21.08-.41.08h-1.08c-.21,0-.34-.02-.4-.07s-.09-.14-.09-.28c0-.13.03-.21.1-.26.07-.05.2-.07.39-.07h.17v-2.03c0-.38-.09-.67-.26-.87-.17-.2-.42-.3-.75-.3s-.63.11-.88.34c-.25.22-.38.5-.38.83v2.03h.17c.2,0,.33.02.4.07s.1.14.1.26c0,.14-.03.23-.09.28s-.2.07-.43.07h-1.15c-.13,0-.23-.03-.3-.09-.07-.06-.1-.15-.1-.27,0-.13.04-.22.12-.27.08-.05.22-.07.45-.07h.1Z"/>
        <path class="cls-3" d="M46.85,59.66c.16,0,.28.03.35.08.07.06.11.14.11.26s-.03.2-.1.26c-.07.06-.17.08-.31.08h-1.98v1.63c0,.53.07.89.21,1.05.14.17.38.25.71.25.3,0,.65-.09,1.06-.26s.67-.26.77-.26c.09,0,.17.03.23.1.06.07.1.14.1.24,0,.11-.04.2-.12.28-.08.08-.22.16-.41.23-.32.13-.61.22-.86.28-.26.06-.5.09-.72.09-.38,0-.7-.06-.96-.18-.26-.12-.45-.3-.58-.54-.07-.11-.11-.25-.14-.41-.03-.16-.04-.4-.04-.72v-1.78h-.83c-.14,0-.24-.03-.3-.08-.06-.05-.09-.14-.09-.26,0-.13.04-.22.13-.27s.27-.07.54-.07h.55v-1.26c0-.14.03-.24.09-.31.06-.07.15-.1.28-.1.14,0,.24.04.3.12s.08.27.08.56v.99h1.93Z"/>
        <path class="cls-3" d="M51.19,58.21h-.83c-.32,0-.51-.03-.59-.08-.08-.05-.12-.14-.12-.28,0-.12.03-.21.1-.26.07-.06.16-.09.29-.09h1.61c.09,0,.16.02.21.05s.07.08.07.15v5.5h1.53c.12,0,.21.03.27.08.06.05.08.14.08.26,0,.13-.03.23-.08.28-.06.05-.16.08-.31.08h-3.6c-.13,0-.22-.03-.29-.09-.07-.06-.1-.15-.1-.26s.03-.2.1-.25.17-.08.31-.08h1.35v-5Z"/>
        <path class="cls-3" d="M55.7,63.21v-3.13h-.09c-.22,0-.37-.03-.46-.08-.08-.05-.12-.14-.12-.27,0-.12.03-.21.1-.26.07-.05.18-.08.33-.08h.7c.09,0,.16.02.21.05s.07.08.07.15v.33c.24-.22.47-.38.71-.49.23-.11.47-.16.72-.16.49,0,.88.15,1.16.46.28.31.42.73.42,1.27v2.21h.23c.16,0,.28.03.35.08.07.05.11.14.11.26,0,.13-.04.22-.12.27-.08.05-.21.08-.41.08h-1.08c-.21,0-.34-.02-.4-.07s-.09-.14-.09-.28c0-.13.03-.21.1-.26.07-.05.2-.07.39-.07h.17v-2.03c0-.38-.09-.67-.26-.87-.17-.2-.42-.3-.75-.3s-.63.11-.88.34c-.25.22-.38.5-.38.83v2.03h.17c.2,0,.33.02.4.07s.1.14.1.26c0,.14-.03.23-.09.28s-.2.07-.43.07h-1.15c-.13,0-.23-.03-.3-.09-.07-.06-.1-.15-.1-.27,0-.13.04-.22.12-.27.08-.05.22-.07.45-.07h.1Z"/>
        <path class="cls-3" d="M64.51,58.16c0,.07-.05.22-.16.44-.11.23-.19.41-.25.54-.22.52-.38.99-.47,1.42-.09.43-.14.88-.14,1.34,0,.43.04.84.12,1.24.08.4.2.8.36,1.19.08.21.19.47.33.76.14.29.21.47.21.54s-.02.13-.05.17c-.03.04-.07.06-.12.06-.1,0-.21-.05-.34-.16-.12-.11-.27-.28-.43-.51-.35-.5-.61-1.02-.78-1.57s-.26-1.12-.26-1.72c0-.55.07-1.08.21-1.57.14-.5.36-.98.65-1.45.19-.31.36-.54.52-.7s.3-.23.42-.23c.05,0,.09.02.12.06.03.04.05.09.05.16Z"/>
        <path class="cls-3" d="M68.6,59.62c-.08,0-.14-.02-.18-.06-.04-.04-.06-.12-.07-.25l-.15-1.8v-.06c0-.08.02-.14.05-.18s.09-.06.17-.06h.47c.08,0,.13.02.17.06s.05.1.05.18v.06l-.15,1.8c-.01.12-.04.21-.07.25-.04.04-.09.06-.18.06h-.11ZM70.33,59.62c-.08,0-.14-.02-.18-.06-.04-.04-.06-.12-.07-.25l-.15-1.8v-.06c0-.08.02-.14.06-.18.04-.04.09-.06.16-.06h.47c.07,0,.13.02.16.06.04.04.06.1.06.18v.06l-.15,1.8c-.01.12-.04.21-.07.25-.04.04-.09.06-.18.06h-.11Z"/>
        <path class="cls-3" d="M74.45,63.21h.14c.16,0,.29.03.38.09.09.06.14.15.14.26,0,.12-.04.2-.12.26-.08.06-.21.08-.38.08h-1.35c-.1,0-.18-.03-.24-.1s-.1-.15-.1-.24c0-.12.04-.21.13-.26s.23-.08.42-.08h.1l1.58-1.62-1.55-1.51h-.07c-.19,0-.32-.03-.39-.08-.07-.05-.11-.14-.11-.26,0-.13.04-.22.12-.27.08-.05.24-.08.48-.08h1c.18,0,.3.03.38.08.08.06.12.14.12.26,0,.11-.04.19-.13.25-.09.06-.22.09-.39.09h-.04l1.05,1.03,1-1.03h-.1c-.18,0-.32-.03-.41-.08-.09-.05-.13-.14-.13-.25,0-.13.04-.22.12-.27s.21-.08.38-.08h1.27c.1,0,.18.03.25.09.06.06.09.14.09.25,0,.12-.04.21-.12.26s-.21.08-.39.08h-.14l-1.4,1.46,1.71,1.67h.05c.12,0,.22.03.29.09.07.06.1.15.1.26,0,.13-.04.22-.12.27s-.24.07-.48.07h-1c-.17,0-.3-.03-.38-.08s-.12-.14-.12-.26c0-.11.04-.19.12-.25s.19-.09.32-.09h.27l-1.23-1.2-1.12,1.2Z"/>
        <path class="cls-3" d="M82.37,65.1c-.31-.72-.43-2.21-.43-3.52s.21-3,.54-4.67l.97.19c-.02.1-.12.17-.26.18-.36,1.37-.58,3.15-.58,4.31,0,.76.01,1.52.09,1.89.22-.6.62-1.56.83-2.03l.45.42c-.33.68-1.03,2.2-1.03,2.67,0,.14.03.29.1.48l-.68.08ZM84.91,59.21c.84,0,1.68.02,2.52-.04-.04-.86-.07-1.6-.09-2.34l1.01.03c0,.1-.1.18-.26.21,0,.64.03,1.29.05,2.05.79-.08,1.43-.22,1.96-.4l.09.7c-.48.15-1.17.29-2.02.36.04,1.11.09,2.28.12,2.92.76.31,1.52.8,2.04,1.27l-.39.64c-.41-.41-1-.85-1.62-1.14,0,.85-.17,1.8-1.67,1.8-1.17,0-1.95-.56-1.95-1.44,0-1.02,1.03-1.47,1.95-1.47.31,0,.64.04.95.13-.03-.63-.09-1.68-.14-2.66-.31.02-.73.03-1.02.03h-1.52v-.65ZM87.65,63.14c-.32-.1-.66-.18-.99-.18-.61,0-1.34.22-1.34.85,0,.56.6.84,1.33.84s1.01-.36,1.01-1.16v-.35Z"/>
        <path class="cls-3" d="M95.42,60.08c.21-.08.41-.14.6-.17.18-.04.36-.06.52-.06.57,0,1.04.2,1.42.59.38.4.57.89.57,1.47,0,.62-.21,1.13-.63,1.54s-.96.61-1.61.61c-.55,0-1-.07-1.37-.22-.37-.15-.55-.33-.55-.54,0-.08.03-.16.1-.23.07-.07.15-.1.24-.1.04,0,.23.06.57.19.35.13.67.19.96.19.44,0,.79-.13,1.06-.39.27-.26.41-.6.41-1.01s-.13-.74-.39-1.01c-.26-.27-.58-.4-.97-.4-.29,0-.58.07-.86.22-.28.15-.45.22-.51.22-.1,0-.17-.04-.21-.11-.04-.07-.06-.2-.06-.39v-2.44c0-.11.03-.19.1-.23.07-.05.18-.07.35-.07h2.47c.16,0,.27.03.35.1.08.06.12.16.12.29,0,.12-.04.21-.12.28s-.2.1-.35.1h-2.21v1.58Z"/>
        <path class="cls-3" d="M110.37,64.76c-.86-.68-1.95-1.33-3-1.67.02.39-.05.9-.13,1.16-.08.83-.85,1.15-1.77,1.15-1.29,0-2.31-.63-2.32-1.64-.02-1.01,1.04-1.63,2.3-1.64.35,0,.8.02,1.17.09,0-.27-.05-.5-.06-.73-.09-1.31-.17-3.41-.18-4.85l1.04.06c0,.1-.09.19-.26.21,0,.27,0,1.59,0,1.89.65,0,2.11-.11,3.32-.32l.07.71c-1.14.18-2.62.28-3.38.29,0,.57.02.8.17,2.87,1.29.38,2.51,1.06,3.49,1.78l-.46.64ZM105.43,62.72c-.96.02-1.63.42-1.63.99,0,.73.79,1.05,1.59,1.05.7,0,1.28-.25,1.28-.96,0-.23,0-.64-.02-.93-.4-.12-.84-.15-1.22-.15Z"/>
        <path class="cls-3" d="M114.48,62.27c-.19-.54-.28-1.32-.29-1.88,0-.94.1-2.03.34-3.3l1,.17c-.04.13-.16.16-.29.17-.2.83-.34,2.1-.34,2.91,0,.22.01.4.03.54.2-.49.57-1.17.78-1.55.09.13.29.34.39.44-.74,1.33-.96,1.71-.96,2.13,0,.08,0,.16.03.25l-.69.12ZM119.84,56.83c0,.12-.09.17-.26.22.07.87.17,2.32.17,3.47,0,1.93-.71,3.67-3.72,4.92-.11-.16-.35-.43-.5-.58,2.73-1.04,3.46-2.69,3.46-4.33,0-1.23-.12-2.68-.23-3.75l1.08.05Z"/>
        <path class="cls-3" d="M131.49,60h-3.91c.65,2.39,1.94,4.23,4.07,5.02-.17.15-.39.43-.5.63-2.09-.86-3.36-2.63-4.1-5.04-.46,1.98-1.55,3.94-4.13,5.05-.1-.18-.31-.42-.48-.57,2.64-1.07,3.63-3.07,4.01-5.09h-3.86v-.69h3.97c.13-1.04.12-2.06.13-2.93l.94.05c0,.09-.09.14-.22.17,0,.79-.02,1.73-.14,2.71h4.22v.69Z"/>
        <path class="cls-3" d="M140.96,59.95c-.9.31-1.99.5-3.02.62.31.54.92,1.29,1.65,1.57l-.4.57c-.14-.07-.4-.19-.58-.3-.22-.08-.71-.15-1.18-.15-.14,0-.28,0-.41.02l-.14-.55c.34-.02.83,0,1.12.04-.27-.29-.59-.72-.79-1.13-.67.07-1.41.1-2.68.1-.49,0-1.04,0-1.49-.01v-.63c.44,0,1.02.02,1.52.02.82,0,1.63,0,2.44-.07-.11-.31-.27-.88-.39-1.33-.4.04-.85.06-1.26.06-.54,0-1.23,0-1.7-.02v-.62c.6.03,1.26.03,1.69.03.36,0,.77-.02,1.15-.05-.09-.46-.19-1.01-.27-1.57h1.03c0,.13-.09.2-.27.23.06.43.13.89.21,1.28.94-.09,1.95-.29,2.68-.58l.17.62c-.73.27-1.72.46-2.72.57.13.53.26,1,.38,1.31,1.06-.11,2.21-.34,3.12-.66l.14.63ZM139.2,65.24c-.55.04-1.21.06-2.2.06-1.62,0-2.88-.53-2.86-1.66,0-.59.53-1.22,1.18-1.58l.45.46c-.58.31-.92.73-.92,1.11,0,.71.88,1.02,2.15,1.03.75,0,1.54-.04,2.22-.09l-.02.67Z"/>
        <path class="cls-3" d="M144.08,57.72c-.02.09-.13.15-.27.16-.12.75-.19,1.65-.19,2.49,0,.37.02.73.04,1.05.12,1.7.81,2.73,1.58,2.72.4,0,.92-1.02,1.28-2.14.14.14.41.33.58.43-.46,1.35-1.04,2.45-1.87,2.47-1.27.02-2.15-1.52-2.29-3.44-.03-.38-.04-.8-.04-1.25,0-.88.05-1.84.15-2.69l1.03.2ZM150.71,62.37c-.28-1.75-1.17-3.01-2.52-3.76l.44-.54c1.46.78,2.53,2.22,2.82,4.07l-.74.23Z"/>
        <path class="cls-3" d="M152.84,57.72c.75-.03,6.91-.47,8.21-.48v.75c-.12,0-.24,0-.36,0-.58,0-1.07.1-1.71.51-1.5.9-2.95,2.51-2.95,3.8,0,1.4.98,2.23,3.46,2.55l-.33.7c-2.84-.41-3.9-1.47-3.9-3.25,0-1.41,1.39-3.12,3.22-4.27-1.1.08-4.05.3-5.34.42-.03.08-.14.15-.22.16l-.08-.88ZM159.32,59.69c.48.36,1.05.95,1.36,1.38l-.38.31c-.28-.44-.89-1.06-1.32-1.39l.34-.3ZM160.4,58.81c.49.36,1.07.94,1.36,1.38l-.38.3c-.27-.4-.85-1.02-1.32-1.38l.34-.3Z"/>
        <path class="cls-3" d="M167.32,58.02c0-.22-.04-1.31-.06-1.56l1.03.04c0,.08-.08.18-.26.21,0,.12,0,.24.02,1.29,1.23-.04,2.52-.07,3.27-.08v.69c-.85-.02-2.06,0-3.25.04.02.78.04,1.5.07,2.05.1.33.12.63.12,1.05,0,.32-.03.69-.1.97-.26,1.17-1.12,2.2-2.88,2.9-.13-.17-.35-.42-.51-.57,1.53-.55,2.35-1.38,2.6-2.33h0c-.21.3-.58.53-1.03.53-.89,0-1.68-.73-1.68-1.75-.01-1.06.85-1.87,1.8-1.87.36,0,.73.13.93.31,0-.17-.02-.84-.04-1.27-1.04.02-4.2.13-4.61.15l-.02-.66,2.28-.06,2.33-.08ZM167.51,61.53c0-.39,0-1.3-1.02-1.3-.69,0-1.18.54-1.19,1.27,0,.7.53,1.16,1.11,1.16.71,0,1.1-.55,1.1-1.13Z"/>
        <path class="cls-3" d="M176.6,59.62c-.08,0-.14-.02-.18-.06-.04-.04-.06-.12-.07-.25l-.15-1.8v-.06c0-.08.02-.14.05-.18s.09-.06.17-.06h.47c.08,0,.13.02.17.06s.05.1.05.18v.06l-.15,1.8c-.01.12-.04.21-.07.25-.04.04-.09.06-.18.06h-.11ZM178.33,59.62c-.08,0-.14-.02-.18-.06-.04-.04-.06-.12-.07-.25l-.15-1.8v-.06c0-.08.02-.14.06-.18.04-.04.09-.06.16-.06h.47c.07,0,.13.02.16.06.04.04.06.1.06.18v.06l-.15,1.8c-.01.12-.04.21-.07.25-.04.04-.09.06-.18.06h-.11Z"/>
        <path class="cls-3" d="M182.53,65.63c0-.07.06-.21.17-.43.11-.22.2-.4.25-.54.22-.52.37-1,.47-1.43.09-.43.14-.88.14-1.34,0-.42-.04-.83-.12-1.23-.08-.4-.2-.8-.36-1.21-.08-.21-.2-.47-.34-.76-.14-.29-.21-.47-.21-.54,0-.07.02-.12.05-.16.03-.04.08-.06.13-.06.11,0,.22.05.34.16.12.11.26.27.43.5.35.5.61,1.02.78,1.57s.26,1.13.26,1.73c0,.55-.07,1.08-.22,1.58-.14.5-.36.99-.65,1.46-.2.32-.38.55-.53.7-.15.15-.29.22-.41.22-.05,0-.09-.02-.13-.06s-.05-.1-.05-.17Z"/>
        <path class="cls-3" d="M188.91,62.71c.03-.11.06-.18.1-.21s.11-.04.2-.04h1.01s.08,0,.11.03c.03.02.04.04.04.07,0,0,0,.03,0,.05s-.02.05-.03.07l-1.26,2.62c-.03.05-.05.09-.09.11-.03.02-.07.03-.11.03-.03,0-.05,0-.06,0-.01,0-.03,0-.04,0l-.32-.12s-.08-.04-.11-.07c-.02-.03-.04-.06-.04-.1,0-.01,0-.03,0-.04,0-.02,0-.04.02-.08l.59-2.33ZM188.54,60.4c0-.25.09-.46.27-.62.18-.16.41-.24.69-.24s.52.08.7.24c.18.16.27.37.27.63s-.09.47-.27.63c-.18.16-.41.24-.7.24s-.52-.08-.69-.24-.26-.37-.26-.63Z"/>
        <path class="cls-3" d="M20.25,77.15h1.17c.12,0,.22.03.28.09s.09.15.09.26c0,.13-.03.22-.09.27-.06.05-.17.08-.32.08h-2.15c-.13,0-.23-.03-.3-.09-.07-.06-.1-.14-.1-.26,0-.13.04-.22.12-.27.08-.05.24-.08.46-.08h.09v-5.07h-.09c-.22,0-.38-.03-.46-.08-.08-.05-.12-.14-.12-.27,0-.11.03-.2.1-.26.07-.06.17-.09.3-.09h.74c.1,0,.17.02.21.05.04.03.07.08.07.15v.47c.22-.23.47-.4.73-.51.27-.11.56-.17.87-.17.65,0,1.2.22,1.64.66s.66,1,.66,1.67-.21,1.17-.62,1.58-.95.62-1.6.62c-.34,0-.66-.06-.95-.18-.29-.12-.53-.3-.73-.52v1.95ZM21.76,75.19c.45,0,.82-.14,1.11-.43.29-.29.43-.65.43-1.11s-.15-.81-.44-1.1c-.29-.29-.66-.43-1.11-.43s-.82.14-1.1.43-.43.65-.43,1.1.14.82.43,1.1c.28.29.65.43,1.11.43Z"/>
        <path class="cls-3" d="M27.03,75.21h1.62c.13,0,.22.03.28.08.06.05.09.14.09.26,0,.13-.03.23-.09.28-.06.05-.16.08-.31.08h-3.19c-.13,0-.22-.03-.29-.09s-.1-.15-.1-.26.03-.2.1-.25c.07-.06.17-.08.31-.08h.85v-3.13h-.33c-.32,0-.51-.03-.59-.08s-.12-.14-.12-.27c0-.11.03-.2.1-.25.06-.06.16-.08.29-.08h1.11c.09,0,.15.02.2.05.05.04.07.08.07.15v.83c.31-.39.63-.68.97-.86s.7-.28,1.08-.28c.29,0,.52.06.7.17s.27.27.27.45c0,.12-.04.23-.13.32-.09.09-.19.14-.3.14-.08,0-.2-.05-.38-.15-.18-.1-.34-.15-.48-.15-.25,0-.52.09-.8.27-.28.18-.59.47-.94.86v2.02Z"/>
        <path class="cls-3" d="M33.97,75.21h1.57c.13,0,.22.03.28.08.06.05.09.14.09.26,0,.13-.03.23-.09.28-.06.05-.16.08-.31.08h-3.78c-.13,0-.23-.03-.29-.09s-.1-.15-.1-.26.03-.2.1-.25.17-.08.31-.08h1.49v-3.13h-.96c-.13,0-.24-.03-.31-.09s-.11-.15-.11-.26.03-.2.1-.25.16-.08.29-.08h1.43c.09,0,.16.02.21.05.05.04.08.08.08.15v3.62ZM33.06,69.98c0-.35.03-.57.1-.66.06-.09.2-.14.41-.14s.33.04.4.12c.07.08.1.26.1.54s-.03.45-.09.52c-.06.07-.2.1-.41.1s-.34-.03-.41-.09c-.06-.06-.1-.19-.1-.39Z"/>
        <path class="cls-3" d="M37.7,75.21v-3.13h-.09c-.22,0-.37-.03-.46-.08-.08-.05-.12-.14-.12-.27,0-.12.03-.21.1-.26.07-.05.18-.08.33-.08h.7c.09,0,.16.02.21.05s.07.08.07.15v.33c.24-.22.47-.38.71-.49.23-.11.47-.16.72-.16.49,0,.88.15,1.16.46.28.31.42.73.42,1.27v2.21h.23c.16,0,.28.03.35.08.07.05.11.14.11.26,0,.13-.04.22-.12.27-.08.05-.21.08-.41.08h-1.08c-.21,0-.34-.02-.4-.07s-.09-.14-.09-.28c0-.13.03-.21.1-.26.07-.05.2-.07.39-.07h.17v-2.03c0-.38-.09-.67-.26-.87-.17-.2-.42-.3-.75-.3s-.63.11-.88.34c-.25.22-.38.5-.38.83v2.03h.17c.2,0,.33.02.4.07s.1.14.1.26c0,.14-.03.23-.09.28s-.2.07-.43.07h-1.15c-.13,0-.23-.03-.3-.09-.07-.06-.1-.15-.1-.27,0-.13.04-.22.12-.27.08-.05.22-.07.45-.07h.1Z"/>
        <path class="cls-3" d="M46.85,71.66c.16,0,.28.03.35.08.07.06.11.14.11.26s-.03.2-.1.26c-.07.06-.17.08-.31.08h-1.98v1.63c0,.53.07.89.21,1.05.14.17.38.25.71.25.3,0,.65-.09,1.06-.26s.67-.26.77-.26c.09,0,.17.03.23.1.06.07.1.14.1.24,0,.11-.04.2-.12.28-.08.08-.22.16-.41.23-.32.13-.61.22-.86.28-.26.06-.5.09-.72.09-.38,0-.7-.06-.96-.18-.26-.12-.45-.3-.58-.54-.07-.11-.11-.25-.14-.41-.03-.16-.04-.4-.04-.72v-1.78h-.83c-.14,0-.24-.03-.3-.08-.06-.05-.09-.14-.09-.26,0-.13.04-.22.13-.27s.27-.07.54-.07h.55v-1.26c0-.14.03-.24.09-.31.06-.07.15-.1.28-.1.14,0,.24.04.3.12s.08.27.08.56v.99h1.93Z"/>
        <path class="cls-3" d="M52.51,70.16c0,.07-.05.22-.16.44-.11.23-.19.41-.25.54-.22.52-.38.99-.47,1.42-.09.43-.14.88-.14,1.34,0,.43.04.84.12,1.24.08.4.2.8.36,1.19.08.21.19.47.33.76.14.29.21.47.21.54s-.02.13-.05.17c-.03.04-.07.06-.12.06-.1,0-.21-.05-.34-.16-.12-.11-.27-.28-.43-.51-.35-.5-.61-1.02-.78-1.57s-.26-1.12-.26-1.72c0-.55.07-1.08.21-1.57.14-.5.36-.98.65-1.45.19-.31.36-.54.52-.7s.3-.23.42-.23c.05,0,.09.02.12.06.03.04.05.09.05.16Z"/>
        <path class="cls-3" d="M56.6,71.62c-.08,0-.14-.02-.18-.06-.04-.04-.06-.12-.07-.25l-.15-1.8v-.06c0-.08.02-.14.05-.18s.09-.06.17-.06h.47c.08,0,.13.02.17.06s.05.1.05.18v.06l-.15,1.8c-.01.12-.04.21-.07.25-.04.04-.09.06-.18.06h-.11ZM58.33,71.62c-.08,0-.14-.02-.18-.06-.04-.04-.06-.12-.07-.25l-.15-1.8v-.06c0-.08.02-.14.06-.18.04-.04.09-.06.16-.06h.47c.07,0,.13.02.16.06.04.04.06.1.06.18v.06l-.15,1.8c-.01.12-.04.21-.07.25-.04.04-.09.06-.18.06h-.11Z"/>
        <path class="cls-3" d="M62.45,75.21h.14c.16,0,.29.03.38.09.09.06.14.15.14.26,0,.12-.04.2-.12.26-.08.06-.21.08-.38.08h-1.35c-.1,0-.18-.03-.24-.1s-.1-.15-.1-.24c0-.12.04-.21.13-.26s.23-.08.42-.08h.1l1.58-1.62-1.55-1.51h-.07c-.19,0-.32-.03-.39-.08-.07-.05-.11-.14-.11-.26,0-.13.04-.22.12-.27.08-.05.24-.08.48-.08h1c.18,0,.3.03.38.08.08.06.12.14.12.26,0,.11-.04.19-.13.25-.09.06-.22.09-.39.09h-.04l1.05,1.03,1-1.03h-.1c-.18,0-.32-.03-.41-.08-.09-.05-.13-.14-.13-.25,0-.13.04-.22.12-.27s.21-.08.38-.08h1.27c.1,0,.18.03.25.09.06.06.09.14.09.25,0,.12-.04.21-.12.26s-.21.08-.39.08h-.14l-1.4,1.46,1.71,1.67h.05c.12,0,.22.03.29.09.07.06.1.15.1.26,0,.13-.04.22-.12.27s-.24.07-.48.07h-1c-.17,0-.3-.03-.38-.08s-.12-.14-.12-.26c0-.11.04-.19.12-.25s.19-.09.32-.09h.27l-1.23-1.2-1.12,1.2Z"/>
        <path class="cls-3" d="M74.6,70.19c-.04.09-.12.16-.25.16-.36,3.11-1.4,5.82-3.06,5.82-.84,0-1.6-.84-1.6-2.42,0-2.4,1.87-4.41,4.5-4.41,2.89,0,4.14,1.83,4.14,3.78,0,2.38-1.38,3.53-3.8,4.09-.09-.16-.26-.43-.42-.61,2.3-.44,3.48-1.56,3.48-3.45,0-1.65-1.06-3.15-3.4-3.15-.1,0-.21.01-.3.02l.71.17ZM73.64,70.06c-2.02.25-3.27,1.92-3.27,3.67,0,1.07.46,1.74.94,1.74,1.21,0,2.08-2.67,2.33-5.41Z"/>
        <path class="cls-3" d="M80.62,77.67v-5.74c-.36.61-.74,1.17-1.14,1.64-.08-.16-.24-.48-.35-.63.92-1.04,1.82-2.78,2.38-4.51l.79.26c-.02.07-.1.11-.22.1-.24.67-.52,1.34-.84,1.98l.23.07c0,.06-.07.11-.2.13v6.7h-.65ZM88.7,76.54v.6h-5.68v.5h-.63v-6.2l.82.05c0,.07-.06.12-.19.14v4.91h5.68ZM83.98,70.94h1.17c.04-.27.08-.58.11-.91h-2.77v-.6h2.83c.03-.37.06-.74.08-1.06l.86.06c-.01.07-.07.12-.2.13-.02.26-.05.56-.08.87h2.62v.6h-2.69c-.04.32-.08.64-.12.91h2.23v4.76h-4.04v-4.76ZM87.37,72.35v-.88h-2.75v.88h2.75ZM87.37,73.75v-.89h-2.75v.89h2.75ZM87.37,75.17v-.91h-2.75v.91h2.75Z"/>
        <path class="cls-3" d="M90.37,77.1c-.31-.72-.43-2.21-.43-3.52s.21-3,.54-4.67l.97.19c-.02.1-.12.17-.26.18-.36,1.37-.58,3.15-.58,4.31,0,.76.01,1.52.09,1.89.22-.6.62-1.56.83-2.03l.45.42c-.33.68-1.03,2.2-1.03,2.67,0,.14.03.29.1.48l-.68.08ZM92.91,71.21c.84,0,1.68.02,2.52-.04-.04-.86-.07-1.6-.09-2.34l1.01.03c0,.1-.1.18-.26.21,0,.64.03,1.29.05,2.05.79-.08,1.43-.22,1.96-.4l.09.7c-.48.15-1.17.29-2.02.36.04,1.11.09,2.28.12,2.92.76.31,1.52.8,2.04,1.27l-.39.64c-.41-.41-1-.85-1.62-1.14,0,.85-.17,1.8-1.67,1.8-1.17,0-1.95-.56-1.95-1.44,0-1.02,1.03-1.47,1.95-1.47.31,0,.64.04.95.13-.03-.63-.09-1.68-.14-2.66-.31.02-.73.03-1.02.03h-1.52v-.65ZM95.65,75.14c-.32-.1-.66-.18-.99-.18-.61,0-1.34.22-1.34.85,0,.56.6.84,1.33.84s1.01-.36,1.01-1.16v-.35Z"/>
        <path class="cls-3" d="M103.6,71.62c-.08,0-.14-.02-.18-.06-.04-.04-.06-.12-.07-.25l-.15-1.8v-.06c0-.08.02-.14.05-.18s.09-.06.17-.06h.47c.08,0,.13.02.17.06s.05.1.05.18v.06l-.15,1.8c-.01.12-.04.21-.07.25-.04.04-.09.06-.18.06h-.11ZM105.33,71.62c-.08,0-.14-.02-.18-.06-.04-.04-.06-.12-.07-.25l-.15-1.8v-.06c0-.08.02-.14.06-.18.04-.04.09-.06.16-.06h.47c.07,0,.13.02.16.06.04.04.06.1.06.18v.06l-.15,1.8c-.01.12-.04.21-.07.25-.04.04-.09.06-.18.06h-.11Z"/>
        <path class="cls-3" d="M109.52,77.63c0-.07.06-.21.17-.43.11-.22.2-.4.25-.54.22-.52.37-1,.47-1.43.09-.43.14-.88.14-1.34,0-.42-.04-.83-.12-1.23-.08-.4-.2-.8-.36-1.21-.08-.21-.2-.47-.34-.76-.14-.29-.21-.47-.21-.54,0-.07.02-.12.05-.16.03-.04.08-.06.13-.06.11,0,.22.05.34.16.12.11.26.27.43.5.35.5.61,1.02.78,1.57s.26,1.13.26,1.73c0,.55-.07,1.08-.22,1.58-.14.5-.36.99-.65,1.46-.2.32-.38.55-.53.7-.15.15-.29.22-.41.22-.05,0-.09-.02-.13-.06s-.05-.1-.05-.17Z"/>
        <path class="cls-3" d="M115.91,74.71c.03-.11.06-.18.1-.21s.11-.04.2-.04h1.01s.08,0,.11.03c.03.02.04.04.04.07,0,0,0,.03,0,.05s-.02.05-.03.07l-1.26,2.62c-.03.05-.05.09-.09.11-.03.02-.07.03-.11.03-.03,0-.05,0-.06,0-.01,0-.03,0-.04,0l-.32-.12s-.08-.04-.11-.07c-.02-.03-.04-.06-.04-.1,0-.01,0-.03,0-.04,0-.02,0-.04.02-.08l.59-2.33ZM115.53,72.4c0-.25.09-.46.27-.62.18-.16.41-.24.69-.24s.52.08.7.24c.18.16.27.37.27.63s-.09.47-.27.63c-.18.16-.41.24-.7.24s-.52-.08-.69-.24-.26-.37-.26-.63Z"/>
        <path class="cls-3" d="M20.25,88.7h1.17c.12,0,.22.03.28.09s.09.15.09.26c0,.13-.03.22-.09.27-.06.05-.17.08-.32.08h-2.15c-.13,0-.23-.03-.3-.09-.07-.06-.1-.14-.1-.26,0-.13.04-.22.12-.27.08-.05.24-.08.46-.08h.09v-5.07h-.09c-.22,0-.38-.03-.46-.08-.08-.05-.12-.14-.12-.27,0-.11.03-.2.1-.26.07-.06.17-.09.3-.09h.74c.1,0,.17.02.21.05.04.03.07.08.07.15v.47c.22-.23.47-.4.73-.51.27-.11.56-.17.87-.17.65,0,1.2.22,1.64.66s.66,1,.66,1.67-.21,1.17-.62,1.58-.95.62-1.6.62c-.34,0-.66-.06-.95-.18-.29-.12-.53-.3-.73-.52v1.95ZM21.76,86.74c.45,0,.82-.14,1.11-.43.29-.29.43-.65.43-1.11s-.15-.81-.44-1.1c-.29-.29-.66-.43-1.11-.43s-.82.14-1.1.43-.43.65-.43,1.1.14.82.43,1.1c.28.29.65.43,1.11.43Z"/>
        <path class="cls-3" d="M27.03,86.76h1.62c.13,0,.22.03.28.08.06.05.09.14.09.26,0,.13-.03.23-.09.28-.06.05-.16.08-.31.08h-3.19c-.13,0-.22-.03-.29-.09s-.1-.15-.1-.26.03-.2.1-.25c.07-.06.17-.08.31-.08h.85v-3.13h-.33c-.32,0-.51-.03-.59-.08s-.12-.14-.12-.27c0-.11.03-.2.1-.25.06-.06.16-.08.29-.08h1.11c.09,0,.15.02.2.05.05.04.07.08.07.15v.83c.31-.39.63-.68.97-.86s.7-.28,1.08-.28c.29,0,.52.06.7.17s.27.27.27.45c0,.12-.04.23-.13.32-.09.09-.19.14-.3.14-.08,0-.2-.05-.38-.15-.18-.1-.34-.15-.48-.15-.25,0-.52.09-.8.27-.28.18-.59.47-.94.86v2.02Z"/>
        <path class="cls-3" d="M33.97,86.76h1.57c.13,0,.22.03.28.08.06.05.09.14.09.26,0,.13-.03.23-.09.28-.06.05-.16.08-.31.08h-3.78c-.13,0-.23-.03-.29-.09s-.1-.15-.1-.26.03-.2.1-.25.17-.08.31-.08h1.49v-3.13h-.96c-.13,0-.24-.03-.31-.09s-.11-.15-.11-.26.03-.2.1-.25.16-.08.29-.08h1.43c.09,0,.16.02.21.05.05.04.08.08.08.15v3.62ZM33.06,81.53c0-.35.03-.57.1-.66.06-.09.2-.14.41-.14s.33.04.4.12c.07.08.1.26.1.54s-.03.45-.09.52c-.06.07-.2.1-.41.1s-.34-.03-.41-.09c-.06-.06-.1-.19-.1-.39Z"/>
        <path class="cls-3" d="M37.7,86.76v-3.13h-.09c-.22,0-.37-.03-.46-.08-.08-.05-.12-.14-.12-.27,0-.12.03-.21.1-.26.07-.05.18-.08.33-.08h.7c.09,0,.16.02.21.05s.07.08.07.15v.33c.24-.22.47-.38.71-.49.23-.11.47-.16.72-.16.49,0,.88.15,1.16.46.28.31.42.73.42,1.27v2.21h.23c.16,0,.28.03.35.08.07.05.11.14.11.26,0,.13-.04.22-.12.27-.08.05-.21.08-.41.08h-1.08c-.21,0-.34-.02-.4-.07s-.09-.14-.09-.28c0-.13.03-.21.1-.26.07-.05.2-.07.39-.07h.17v-2.03c0-.38-.09-.67-.26-.87-.17-.2-.42-.3-.75-.3s-.63.11-.88.34c-.25.22-.38.5-.38.83v2.03h.17c.2,0,.33.02.4.07s.1.14.1.26c0,.14-.03.23-.09.28s-.2.07-.43.07h-1.15c-.13,0-.23-.03-.3-.09-.07-.06-.1-.15-.1-.27,0-.13.04-.22.12-.27.08-.05.22-.07.45-.07h.1Z"/>
        <path class="cls-3" d="M46.85,83.21c.16,0,.28.03.35.08.07.06.11.14.11.26s-.03.2-.1.26c-.07.06-.17.08-.31.08h-1.98v1.63c0,.53.07.89.21,1.05.14.17.38.25.71.25.3,0,.65-.09,1.06-.26s.67-.26.77-.26c.09,0,.17.03.23.1.06.07.1.14.1.24,0,.11-.04.2-.12.28-.08.08-.22.16-.41.23-.32.13-.61.22-.86.28-.26.06-.5.09-.72.09-.38,0-.7-.06-.96-.18-.26-.12-.45-.3-.58-.54-.07-.11-.11-.25-.14-.41-.03-.16-.04-.4-.04-.72v-1.78h-.83c-.14,0-.24-.03-.3-.08-.06-.05-.09-.14-.09-.26,0-.13.04-.22.13-.27s.27-.07.54-.07h.55v-1.26c0-.14.03-.24.09-.31.06-.07.15-.1.28-.1.14,0,.24.04.3.12s.08.27.08.56v.99h1.93Z"/>
        <path class="cls-3" d="M52.51,81.71c0,.07-.05.22-.16.44-.11.23-.19.41-.25.54-.22.52-.38.99-.47,1.42-.09.43-.14.88-.14,1.34,0,.43.04.84.12,1.24.08.4.2.8.36,1.19.08.21.19.47.33.76.14.29.21.47.21.54s-.02.13-.05.17c-.03.04-.07.06-.12.06-.1,0-.21-.05-.34-.16-.12-.11-.27-.28-.43-.51-.35-.5-.61-1.02-.78-1.57s-.26-1.12-.26-1.72c0-.55.07-1.08.21-1.57.14-.5.36-.98.65-1.45.19-.31.36-.54.52-.7s.3-.23.42-.23c.05,0,.09.02.12.06.03.04.05.09.05.16Z"/>
        <path class="cls-3" d="M56.45,86.76h.14c.16,0,.29.03.38.09.09.06.14.15.14.26,0,.12-.04.2-.12.26-.08.06-.21.08-.38.08h-1.35c-.1,0-.18-.03-.24-.1s-.1-.15-.1-.24c0-.12.04-.21.13-.26s.23-.08.42-.08h.1l1.58-1.62-1.55-1.51h-.07c-.19,0-.32-.03-.39-.08-.07-.05-.11-.14-.11-.26,0-.13.04-.22.12-.27.08-.05.24-.08.48-.08h1c.18,0,.3.03.38.08.08.06.12.14.12.26,0,.11-.04.19-.13.25-.09.06-.22.09-.39.09h-.04l1.05,1.03,1-1.03h-.1c-.18,0-.32-.03-.41-.08-.09-.05-.13-.14-.13-.25,0-.13.04-.22.12-.27s.21-.08.38-.08h1.27c.1,0,.18.03.25.09.06.06.09.14.09.25,0,.12-.04.21-.12.26s-.21.08-.39.08h-.14l-1.4,1.46,1.71,1.67h.05c.12,0,.22.03.29.09.07.06.1.15.1.26,0,.13-.04.22-.12.27s-.24.07-.48.07h-1c-.17,0-.3-.03-.38-.08s-.12-.14-.12-.26c0-.11.04-.19.12-.25s.19-.09.32-.09h.27l-1.23-1.2-1.12,1.2Z"/>
        <path class="cls-3" d="M62.52,89.18c0-.07.06-.21.17-.43.11-.22.2-.4.25-.54.22-.52.37-1,.47-1.43.09-.43.14-.88.14-1.34,0-.42-.04-.83-.12-1.23-.08-.4-.2-.8-.36-1.21-.08-.21-.2-.47-.34-.76-.14-.29-.21-.47-.21-.54,0-.07.02-.12.05-.16.03-.04.08-.06.13-.06.11,0,.22.05.34.16.12.11.26.27.43.5.35.5.61,1.02.78,1.57s.26,1.13.26,1.73c0,.55-.07,1.08-.22,1.58-.14.5-.36.99-.65,1.46-.2.32-.38.55-.53.7-.15.15-.29.22-.41.22-.05,0-.09-.02-.13-.06s-.05-.1-.05-.17Z"/>
        <path class="cls-3" d="M68.91,86.26c.03-.11.06-.18.1-.21s.11-.04.2-.04h1.01s.08,0,.11.03c.03.02.04.04.04.07,0,0,0,.03,0,.05s-.02.05-.03.07l-1.26,2.62c-.03.05-.05.09-.09.11-.03.02-.07.03-.11.03-.03,0-.05,0-.06,0-.01,0-.03,0-.04,0l-.32-.12s-.08-.04-.11-.07c-.02-.03-.04-.06-.04-.1,0-.01,0-.03,0-.04,0-.02,0-.04.02-.08l.59-2.33ZM68.53,83.95c0-.25.09-.46.27-.62.18-.16.41-.24.69-.24s.52.08.7.24c.18.16.27.37.27.63s-.09.47-.27.63c-.18.16-.41.24-.7.24s-.52-.08-.69-.24-.26-.37-.26-.63Z"/>
        <path class="cls-3" d="M20.25,101.15h1.17c.12,0,.22.03.28.09s.09.15.09.26c0,.13-.03.22-.09.27-.06.05-.17.08-.32.08h-2.15c-.13,0-.23-.03-.3-.09-.07-.06-.1-.14-.1-.26,0-.13.04-.22.12-.27.08-.05.24-.08.46-.08h.09v-5.07h-.09c-.22,0-.38-.03-.46-.08-.08-.05-.12-.14-.12-.27,0-.11.03-.2.1-.26.07-.06.17-.09.3-.09h.74c.1,0,.17.02.21.05.04.03.07.08.07.15v.47c.22-.23.47-.4.73-.51.27-.11.56-.17.87-.17.65,0,1.2.22,1.64.66s.66,1,.66,1.67-.21,1.17-.62,1.58-.95.62-1.6.62c-.34,0-.66-.06-.95-.18-.29-.12-.53-.3-.73-.52v1.95ZM21.76,99.19c.45,0,.82-.14,1.11-.43.29-.29.43-.65.43-1.11s-.15-.81-.44-1.1c-.29-.29-.66-.43-1.11-.43s-.82.14-1.1.43-.43.65-.43,1.1.14.82.43,1.1c.28.29.65.43,1.11.43Z"/>
        <path class="cls-3" d="M27.03,99.21h1.62c.13,0,.22.03.28.08.06.05.09.14.09.26,0,.13-.03.23-.09.28-.06.05-.16.08-.31.08h-3.19c-.13,0-.22-.03-.29-.09s-.1-.15-.1-.26.03-.2.1-.25c.07-.06.17-.08.31-.08h.85v-3.13h-.33c-.32,0-.51-.03-.59-.08s-.12-.14-.12-.27c0-.11.03-.2.1-.25.06-.06.16-.08.29-.08h1.11c.09,0,.15.02.2.05.05.04.07.08.07.15v.83c.31-.39.63-.68.97-.86s.7-.28,1.08-.28c.29,0,.52.06.7.17s.27.27.27.45c0,.12-.04.23-.13.32-.09.09-.19.14-.3.14-.08,0-.2-.05-.38-.15-.18-.1-.34-.15-.48-.15-.25,0-.52.09-.8.27-.28.18-.59.47-.94.86v2.02Z"/>
        <path class="cls-3" d="M33.97,99.21h1.57c.13,0,.22.03.28.08.06.05.09.14.09.26,0,.13-.03.23-.09.28-.06.05-.16.08-.31.08h-3.78c-.13,0-.23-.03-.29-.09s-.1-.15-.1-.26.03-.2.1-.25.17-.08.31-.08h1.49v-3.13h-.96c-.13,0-.24-.03-.31-.09s-.11-.15-.11-.26.03-.2.1-.25.16-.08.29-.08h1.43c.09,0,.16.02.21.05.05.04.08.08.08.15v3.62ZM33.06,93.98c0-.35.03-.57.1-.66.06-.09.2-.14.41-.14s.33.04.4.12c.07.08.1.26.1.54s-.03.45-.09.52c-.06.07-.2.1-.41.1s-.34-.03-.41-.09c-.06-.06-.1-.19-.1-.39Z"/>
        <path class="cls-3" d="M37.7,99.21v-3.13h-.09c-.22,0-.37-.03-.46-.08-.08-.05-.12-.14-.12-.27,0-.12.03-.21.1-.26.07-.05.18-.08.33-.08h.7c.09,0,.16.02.21.05s.07.08.07.15v.33c.24-.22.47-.38.71-.49.23-.11.47-.16.72-.16.49,0,.88.15,1.16.46.28.31.42.73.42,1.27v2.21h.23c.16,0,.28.03.35.08.07.05.11.14.11.26,0,.13-.04.22-.12.27-.08.05-.21.08-.41.08h-1.08c-.21,0-.34-.02-.4-.07s-.09-.14-.09-.28c0-.13.03-.21.1-.26.07-.05.2-.07.39-.07h.17v-2.03c0-.38-.09-.67-.26-.87-.17-.2-.42-.3-.75-.3s-.63.11-.88.34c-.25.22-.38.5-.38.83v2.03h.17c.2,0,.33.02.4.07s.1.14.1.26c0,.14-.03.23-.09.28s-.2.07-.43.07h-1.15c-.13,0-.23-.03-.3-.09-.07-.06-.1-.15-.1-.27,0-.13.04-.22.12-.27.08-.05.22-.07.45-.07h.1Z"/>
        <path class="cls-3" d="M46.85,95.66c.16,0,.28.03.35.08.07.06.11.14.11.26s-.03.2-.1.26c-.07.06-.17.08-.31.08h-1.98v1.63c0,.53.07.89.21,1.05.14.17.38.25.71.25.3,0,.65-.09,1.06-.26s.67-.26.77-.26c.09,0,.17.03.23.1.06.07.1.14.1.24,0,.11-.04.2-.12.28-.08.08-.22.16-.41.23-.32.13-.61.22-.86.28-.26.06-.5.09-.72.09-.38,0-.7-.06-.96-.18-.26-.12-.45-.3-.58-.54-.07-.11-.11-.25-.14-.41-.03-.16-.04-.4-.04-.72v-1.78h-.83c-.14,0-.24-.03-.3-.08-.06-.05-.09-.14-.09-.26,0-.13.04-.22.13-.27s.27-.07.54-.07h.55v-1.26c0-.14.03-.24.09-.31.06-.07.15-.1.28-.1.14,0,.24.04.3.12s.08.27.08.56v.99h1.93Z"/>
        <path class="cls-3" d="M52.51,94.16c0,.07-.05.22-.16.44-.11.23-.19.41-.25.54-.22.52-.38.99-.47,1.42-.09.43-.14.88-.14,1.34,0,.43.04.84.12,1.24.08.4.2.8.36,1.19.08.21.19.47.33.76.14.29.21.47.21.54s-.02.13-.05.17c-.03.04-.07.06-.12.06-.1,0-.21-.05-.34-.16-.12-.11-.27-.28-.43-.51-.35-.5-.61-1.02-.78-1.57s-.26-1.12-.26-1.72c0-.55.07-1.08.21-1.57.14-.5.36-.98.65-1.45.19-.31.36-.54.52-.7s.3-.23.42-.23c.05,0,.09.02.12.06.03.04.05.09.05.16Z"/>
        <path class="cls-3" d="M56.6,95.62c-.08,0-.14-.02-.18-.06-.04-.04-.06-.12-.07-.25l-.15-1.8v-.06c0-.08.02-.14.05-.18s.09-.06.17-.06h.47c.08,0,.13.02.17.06s.05.1.05.18v.06l-.15,1.8c-.01.12-.04.21-.07.25-.04.04-.09.06-.18.06h-.11ZM58.33,95.62c-.08,0-.14-.02-.18-.06-.04-.04-.06-.12-.07-.25l-.15-1.8v-.06c0-.08.02-.14.06-.18.04-.04.09-.06.16-.06h.47c.07,0,.13.02.16.06.04.04.06.1.06.18v.06l-.15,1.8c-.01.12-.04.21-.07.25-.04.04-.09.06-.18.06h-.11Z"/>
        <path class="cls-3" d="M63.84,93.72c.75-.03,6.91-.47,8.21-.48v.75c-.12,0-.24,0-.36,0-.58,0-1.07.1-1.71.51-1.5.9-2.95,2.51-2.95,3.8,0,1.4.98,2.23,3.46,2.55l-.33.7c-2.84-.41-3.9-1.47-3.9-3.25,0-1.41,1.39-3.12,3.22-4.27-1.1.08-4.05.3-5.34.42-.03.08-.14.15-.22.16l-.08-.88ZM70.31,95.69c.48.36,1.05.95,1.36,1.38l-.38.31c-.28-.44-.89-1.06-1.32-1.39l.34-.3ZM71.39,94.81c.49.36,1.07.94,1.36,1.38l-.38.3c-.27-.4-.85-1.02-1.32-1.38l.34-.3Z"/>
        <path class="cls-3" d="M78.32,94.02c0-.22-.04-1.31-.06-1.56l1.03.04c0,.08-.08.18-.26.21,0,.12,0,.24.02,1.29,1.23-.04,2.52-.07,3.27-.08v.69c-.85-.02-2.06,0-3.25.04.02.78.04,1.5.07,2.05.1.33.12.63.12,1.05,0,.32-.03.69-.1.97-.26,1.17-1.12,2.2-2.88,2.9-.13-.17-.35-.42-.51-.57,1.53-.55,2.35-1.38,2.6-2.33h0c-.21.3-.58.53-1.03.53-.89,0-1.68-.73-1.68-1.75-.01-1.06.85-1.87,1.8-1.87.36,0,.73.13.93.31,0-.17-.02-.84-.04-1.27-1.04.02-4.2.13-4.61.15l-.02-.66,2.28-.06,2.33-.08ZM78.51,97.53c0-.39,0-1.3-1.02-1.3-.69,0-1.18.54-1.19,1.27,0,.7.53,1.16,1.11,1.16.71,0,1.1-.55,1.1-1.13Z"/>
        <path class="cls-3" d="M87.6,95.62c-.08,0-.14-.02-.18-.06-.04-.04-.06-.12-.07-.25l-.15-1.8v-.06c0-.08.02-.14.05-.18s.09-.06.17-.06h.47c.08,0,.13.02.17.06s.05.1.05.18v.06l-.15,1.8c-.01.12-.04.21-.07.25-.04.04-.09.06-.18.06h-.11ZM89.33,95.62c-.08,0-.14-.02-.18-.06-.04-.04-.06-.12-.07-.25l-.15-1.8v-.06c0-.08.02-.14.06-.18.04-.04.09-.06.16-.06h.47c.07,0,.13.02.16.06.04.04.06.1.06.18v.06l-.15,1.8c-.01.12-.04.21-.07.25-.04.04-.09.06-.18.06h-.11Z"/>
        <path class="cls-3" d="M93.52,101.63c0-.07.06-.21.17-.43.11-.22.2-.4.25-.54.22-.52.37-1,.47-1.43.09-.43.14-.88.14-1.34,0-.42-.04-.83-.12-1.23-.08-.4-.2-.8-.36-1.21-.08-.21-.2-.47-.34-.76-.14-.29-.21-.47-.21-.54,0-.07.02-.12.05-.16.03-.04.08-.06.13-.06.11,0,.22.05.34.16.12.11.26.27.43.5.35.5.61,1.02.78,1.57s.26,1.13.26,1.73c0,.55-.07,1.08-.22,1.58-.14.5-.36.99-.65,1.46-.2.32-.38.55-.53.7-.15.15-.29.22-.41.22-.05,0-.09-.02-.13-.06s-.05-.1-.05-.17Z"/>
        <path class="cls-3" d="M99.91,98.71c.03-.11.06-.18.1-.21s.11-.04.2-.04h1.01s.08,0,.11.03c.03.02.04.04.04.07,0,0,0,.03,0,.05s-.02.05-.03.07l-1.26,2.62c-.03.05-.05.09-.09.11-.03.02-.07.03-.11.03-.03,0-.05,0-.06,0-.01,0-.03,0-.04,0l-.32-.12s-.08-.04-.11-.07c-.02-.03-.04-.06-.04-.1,0-.01,0-.03,0-.04,0-.02,0-.04.02-.08l.59-2.33ZM99.53,96.4c0-.25.09-.46.27-.62.18-.16.41-.24.69-.24s.52.08.7.24c.18.16.27.37.27.63s-.09.47-.27.63c-.18.16-.41.24-.7.24s-.52-.08-.69-.24-.26-.37-.26-.63Z"/>
        <path class="cls-3" d="M9.88,109.2c-.33-.09-.56-.26-.69-.49-.13-.23-.2-.62-.2-1.16v-.72c0-.34-.04-.58-.11-.7-.07-.12-.2-.2-.38-.25-.04,0-.11-.02-.19-.03-.28-.04-.42-.16-.42-.37,0-.12.03-.22.1-.28.07-.06.17-.1.31-.1.55,0,.94.14,1.17.42s.34.79.34,1.54v.58c0,.63.26,1.01.79,1.12.1.02.18.04.23.05.1.03.18.07.23.13.05.06.07.14.07.24,0,.11-.03.2-.08.26-.05.07-.13.11-.23.13-.04,0-.09.02-.15.03-.57.11-.86.49-.86,1.13v.57c0,.75-.11,1.27-.34,1.54s-.61.41-1.16.41c-.14,0-.25-.03-.32-.09-.07-.06-.1-.16-.1-.29,0-.21.14-.33.42-.37.06,0,.1-.01.13-.02.21-.04.36-.11.43-.22s.12-.35.12-.7v-.72c0-.53.07-.92.2-1.15.13-.23.36-.4.69-.5Z"/>
        <path class="cls-3" d="M13.86,109.41c.03.47.18.83.48,1.09.29.26.69.38,1.19.38.38,0,.8-.1,1.25-.3.45-.2.72-.31.82-.31s.18.03.24.09.1.14.1.23-.03.18-.1.26-.18.15-.33.23c-.33.16-.66.28-1.01.36-.35.08-.69.13-1.03.13-.74,0-1.34-.21-1.78-.64-.45-.43-.67-1-.67-1.7s.24-1.3.71-1.75,1.09-.67,1.85-.67c.69,0,1.26.21,1.71.62s.68.92.68,1.51c0,.18-.04.3-.12.37-.08.06-.28.09-.62.09h-3.35ZM13.88,108.77h3.18c-.05-.39-.21-.7-.49-.93-.27-.24-.61-.35-1.01-.35-.43,0-.8.11-1.09.34s-.49.54-.59.95Z"/>
        <path class="cls-3" d="M21.18,105.76h-.83c-.32,0-.51-.03-.59-.08-.08-.05-.12-.14-.12-.28,0-.12.03-.21.1-.26.07-.06.16-.09.29-.09h1.61c.09,0,.16.02.21.05s.07.08.07.15v5.5h1.53c.12,0,.21.03.27.08.06.05.08.14.08.26,0,.13-.03.23-.08.28-.06.05-.16.08-.31.08h-3.6c-.13,0-.22-.03-.29-.09-.07-.06-.1-.15-.1-.26s.03-.2.1-.25.17-.08.31-.08h1.35v-5Z"/>
        <path class="cls-3" d="M25.38,111.1v-.87c0-.14.03-.25.08-.31.05-.06.14-.09.26-.09.13,0,.24.09.32.27.05.11.1.19.14.25.14.18.34.32.61.42.27.11.56.16.88.16.34,0,.62-.07.83-.21s.31-.32.31-.55-.08-.4-.25-.49c-.17-.1-.46-.15-.86-.15h-.27c-.66,0-1.17-.12-1.52-.35s-.52-.57-.52-1.01.17-.76.51-1c.34-.24.82-.36,1.43-.36.25,0,.51.04.77.11.26.07.4.1.41.1.04,0,.1-.03.21-.09.1-.06.2-.1.3-.1.11,0,.19.04.25.12.05.08.08.2.08.37v.57c0,.17-.03.3-.08.37-.05.08-.13.11-.25.11-.1,0-.22-.08-.36-.25-.1-.11-.18-.2-.25-.26-.17-.16-.36-.27-.55-.34-.2-.07-.42-.1-.69-.1-.31,0-.55.07-.74.2-.19.14-.28.31-.28.52s.1.35.29.44.61.14,1.24.15c.68.02,1.17.13,1.48.35.31.22.47.56.47,1.02s-.17.79-.52,1.05-.81.4-1.4.4c-.19,0-.39-.02-.62-.05-.23-.03-.51-.09-.86-.17-.11.08-.21.13-.29.17-.08.04-.15.06-.21.06-.11,0-.2-.04-.26-.12-.06-.08-.09-.19-.09-.34Z"/>
        <path class="cls-3" d="M31.86,109.41c.03.47.18.83.48,1.09.29.26.69.38,1.19.38.38,0,.8-.1,1.25-.3.45-.2.72-.31.82-.31s.18.03.24.09.1.14.1.23-.03.18-.1.26-.18.15-.33.23c-.33.16-.66.28-1.01.36-.35.08-.69.13-1.03.13-.74,0-1.34-.21-1.78-.64-.45-.43-.67-1-.67-1.7s.24-1.3.71-1.75,1.09-.67,1.85-.67c.69,0,1.26.21,1.71.62s.68.92.68,1.51c0,.18-.04.3-.12.37-.08.06-.28.09-.62.09h-3.35ZM31.89,108.77h3.18c-.05-.39-.21-.7-.49-.93-.27-.24-.61-.35-1.01-.35-.43,0-.8.11-1.09.34s-.49.54-.59.95Z"/>
        <path class="cls-3" d="M39.15,109.2c.33.1.55.27.68.5.13.23.2.62.2,1.16v.72c0,.34.04.56.11.68s.2.19.39.24c.04,0,.1.02.18.03.29.04.43.17.43.4,0,.11-.04.2-.11.26s-.18.09-.32.09c-.55,0-.94-.14-1.16-.41s-.34-.79-.34-1.54v-.57c0-.38-.05-.65-.16-.81-.11-.16-.37-.27-.79-.34-.13-.02-.22-.06-.27-.12-.06-.06-.08-.15-.08-.28,0-.1.02-.19.07-.24s.12-.1.22-.13c.05,0,.12-.03.21-.05.54-.11.81-.49.81-1.12v-.58c0-.75.11-1.27.34-1.54s.62-.42,1.17-.42c.13,0,.24.03.31.1.07.06.11.15.11.26,0,.22-.14.35-.43.39-.06,0-.1.02-.13.02-.21.04-.35.12-.43.24-.08.12-.12.36-.12.71v.72c0,.54-.07.93-.2,1.16s-.36.39-.68.48Z"/>
        <path class="cls-3" d="M26.25,125.15h1.17c.12,0,.22.03.28.09s.09.15.09.26c0,.13-.03.22-.09.27-.06.05-.17.08-.32.08h-2.15c-.13,0-.23-.03-.3-.09-.07-.06-.1-.14-.1-.26,0-.13.04-.22.12-.27.08-.05.24-.08.46-.08h.09v-5.07h-.09c-.22,0-.38-.03-.46-.08-.08-.05-.12-.14-.12-.27,0-.11.03-.2.1-.26.07-.06.17-.09.3-.09h.74c.1,0,.17.02.21.05.04.03.07.08.07.15v.47c.22-.23.47-.4.73-.51.27-.11.56-.17.87-.17.65,0,1.2.22,1.64.66s.66,1,.66,1.67-.21,1.17-.62,1.58-.95.62-1.6.62c-.34,0-.66-.06-.95-.18-.29-.12-.53-.3-.73-.52v1.95ZM27.76,123.19c.45,0,.82-.14,1.11-.43.29-.29.43-.65.43-1.11s-.15-.81-.44-1.1c-.29-.29-.66-.43-1.11-.43s-.82.14-1.1.43-.43.65-.43,1.1.14.82.43,1.1c.28.29.65.43,1.11.43Z"/>
        <path class="cls-3" d="M33.03,123.21h1.62c.13,0,.22.03.28.08.06.05.09.14.09.26,0,.13-.03.23-.09.28-.06.05-.16.08-.31.08h-3.19c-.13,0-.22-.03-.29-.09s-.1-.15-.1-.26.03-.2.1-.25c.07-.06.17-.08.31-.08h.85v-3.13h-.33c-.32,0-.51-.03-.59-.08s-.12-.14-.12-.27c0-.11.03-.2.1-.25.06-.06.16-.08.29-.08h1.11c.09,0,.15.02.2.05.05.04.07.08.07.15v.83c.31-.39.63-.68.97-.86s.7-.28,1.08-.28c.29,0,.52.06.7.17s.27.27.27.45c0,.12-.04.23-.13.32-.09.09-.19.14-.3.14-.08,0-.2-.05-.38-.15-.18-.1-.34-.15-.48-.15-.25,0-.52.09-.8.27-.28.18-.59.47-.94.86v2.02Z"/>
        <path class="cls-3" d="M39.97,123.21h1.57c.13,0,.22.03.28.08.06.05.09.14.09.26,0,.13-.03.23-.09.28-.06.05-.16.08-.31.08h-3.78c-.13,0-.23-.03-.29-.09s-.1-.15-.1-.26.03-.2.1-.25.17-.08.31-.08h1.49v-3.13h-.96c-.13,0-.24-.03-.31-.09s-.11-.15-.11-.26.03-.2.1-.25.16-.08.29-.08h1.43c.09,0,.16.02.21.05.05.04.08.08.08.15v3.62ZM39.06,117.98c0-.35.03-.57.1-.66.06-.09.2-.14.41-.14s.33.04.4.12c.07.08.1.26.1.54s-.03.45-.09.52c-.06.07-.2.1-.41.1s-.34-.03-.41-.09c-.06-.06-.1-.19-.1-.39Z"/>
        <path class="cls-3" d="M43.7,123.21v-3.13h-.09c-.22,0-.37-.03-.46-.08-.08-.05-.12-.14-.12-.27,0-.12.03-.21.1-.26.07-.05.18-.08.33-.08h.7c.09,0,.16.02.21.05s.07.08.07.15v.33c.24-.22.47-.38.71-.49.23-.11.47-.16.72-.16.49,0,.88.15,1.16.46.28.31.42.73.42,1.27v2.21h.23c.16,0,.28.03.35.08.07.05.11.14.11.26,0,.13-.04.22-.12.27-.08.05-.21.08-.41.08h-1.08c-.21,0-.34-.02-.4-.07s-.09-.14-.09-.28c0-.13.03-.21.1-.26.07-.05.2-.07.39-.07h.17v-2.03c0-.38-.09-.67-.26-.87-.17-.2-.42-.3-.75-.3s-.63.11-.88.34c-.25.22-.38.5-.38.83v2.03h.17c.2,0,.33.02.4.07s.1.14.1.26c0,.14-.03.23-.09.28s-.2.07-.43.07h-1.15c-.13,0-.23-.03-.3-.09-.07-.06-.1-.15-.1-.27,0-.13.04-.22.12-.27.08-.05.22-.07.45-.07h.1Z"/>
        <path class="cls-3" d="M52.85,119.66c.16,0,.28.03.35.08.07.06.11.14.11.26s-.03.2-.1.26c-.07.06-.17.08-.31.08h-1.98v1.63c0,.53.07.89.21,1.05.14.17.38.25.71.25.3,0,.65-.09,1.06-.26s.67-.26.77-.26c.09,0,.17.03.23.1.06.07.1.14.1.24,0,.11-.04.2-.12.28-.08.08-.22.16-.41.23-.32.13-.61.22-.86.28-.26.06-.5.09-.72.09-.38,0-.7-.06-.96-.18-.26-.12-.45-.3-.58-.54-.07-.11-.11-.25-.14-.41-.03-.16-.04-.4-.04-.72v-1.78h-.83c-.14,0-.24-.03-.3-.08-.06-.05-.09-.14-.09-.26,0-.13.04-.22.13-.27s.27-.07.54-.07h.55v-1.26c0-.14.03-.24.09-.31.06-.07.15-.1.28-.1.14,0,.24.04.3.12s.08.27.08.56v.99h1.93Z"/>
        <path class="cls-3" d="M57.19,118.21h-.83c-.32,0-.51-.03-.59-.08-.08-.05-.12-.14-.12-.28,0-.12.03-.21.1-.26.07-.06.16-.09.29-.09h1.61c.09,0,.16.02.21.05s.07.08.07.15v5.5h1.53c.12,0,.21.03.27.08.06.05.08.14.08.26,0,.13-.03.23-.08.28-.06.05-.16.08-.31.08h-3.6c-.13,0-.22-.03-.29-.09-.07-.06-.1-.15-.1-.26s.03-.2.1-.25.17-.08.31-.08h1.35v-5Z"/>
        <path class="cls-3" d="M61.7,123.21v-3.13h-.09c-.22,0-.37-.03-.46-.08-.08-.05-.12-.14-.12-.27,0-.12.03-.21.1-.26.07-.05.18-.08.33-.08h.7c.09,0,.16.02.21.05s.07.08.07.15v.33c.24-.22.47-.38.71-.49.23-.11.47-.16.72-.16.49,0,.88.15,1.16.46.28.31.42.73.42,1.27v2.21h.23c.16,0,.28.03.35.08.07.05.11.14.11.26,0,.13-.04.22-.12.27-.08.05-.21.08-.41.08h-1.08c-.21,0-.34-.02-.4-.07s-.09-.14-.09-.28c0-.13.03-.21.1-.26.07-.05.2-.07.39-.07h.17v-2.03c0-.38-.09-.67-.26-.87-.17-.2-.42-.3-.75-.3s-.63.11-.88.34c-.25.22-.38.5-.38.83v2.03h.17c.2,0,.33.02.4.07s.1.14.1.26c0,.14-.03.23-.09.28s-.2.07-.43.07h-1.15c-.13,0-.23-.03-.3-.09-.07-.06-.1-.15-.1-.27,0-.13.04-.22.12-.27.08-.05.22-.07.45-.07h.1Z"/>
        <path class="cls-3" d="M70.51,118.16c0,.07-.05.22-.16.44-.11.23-.19.41-.25.54-.22.52-.38.99-.47,1.42-.09.43-.14.88-.14,1.34,0,.43.04.84.12,1.24.08.4.2.8.36,1.19.08.21.19.47.33.76.14.29.21.47.21.54s-.02.13-.05.17c-.03.04-.07.06-.12.06-.1,0-.21-.05-.34-.16-.12-.11-.27-.28-.43-.51-.35-.5-.61-1.02-.78-1.57s-.26-1.12-.26-1.72c0-.55.07-1.08.21-1.57.14-.5.36-.98.65-1.45.19-.31.36-.54.52-.7s.3-.23.42-.23c.05,0,.09.02.12.06.03.04.05.09.05.16Z"/>
        <path class="cls-3" d="M74.6,119.62c-.08,0-.14-.02-.18-.06-.04-.04-.06-.12-.07-.25l-.15-1.8v-.06c0-.08.02-.14.05-.18s.09-.06.17-.06h.47c.08,0,.13.02.17.06s.05.1.05.18v.06l-.15,1.8c-.01.12-.04.21-.07.25-.04.04-.09.06-.18.06h-.11ZM76.33,119.62c-.08,0-.14-.02-.18-.06-.04-.04-.06-.12-.07-.25l-.15-1.8v-.06c0-.08.02-.14.06-.18.04-.04.09-.06.16-.06h.47c.07,0,.13.02.16.06.04.04.06.1.06.18v.06l-.15,1.8c-.01.12-.04.21-.07.25-.04.04-.09.06-.18.06h-.11Z"/>
        <path class="cls-3" d="M80.45,123.21h.14c.16,0,.29.03.38.09.09.06.14.15.14.26,0,.12-.04.2-.12.26-.08.06-.21.08-.38.08h-1.35c-.1,0-.18-.03-.24-.1s-.1-.15-.1-.24c0-.12.04-.21.13-.26s.23-.08.42-.08h.1l1.58-1.62-1.55-1.51h-.07c-.19,0-.32-.03-.39-.08-.07-.05-.11-.14-.11-.26,0-.13.04-.22.12-.27.08-.05.24-.08.48-.08h1c.18,0,.3.03.38.08.08.06.12.14.12.26,0,.11-.04.19-.13.25-.09.06-.22.09-.39.09h-.04l1.05,1.03,1-1.03h-.1c-.18,0-.32-.03-.41-.08-.09-.05-.13-.14-.13-.25,0-.13.04-.22.12-.27s.21-.08.38-.08h1.27c.1,0,.18.03.25.09.06.06.09.14.09.25,0,.12-.04.21-.12.26s-.21.08-.39.08h-.14l-1.4,1.46,1.71,1.67h.05c.12,0,.22.03.29.09.07.06.1.15.1.26,0,.13-.04.22-.12.27s-.24.07-.48.07h-1c-.17,0-.3-.03-.38-.08s-.12-.14-.12-.26c0-.11.04-.19.12-.25s.19-.09.32-.09h.27l-1.23-1.2-1.12,1.2Z"/>
        <path class="cls-3" d="M88.37,125.1c-.31-.72-.43-2.21-.43-3.52s.21-3,.54-4.67l.97.19c-.02.1-.12.17-.26.18-.36,1.37-.58,3.15-.58,4.31,0,.76,0,1.52.09,1.89.22-.6.62-1.56.83-2.03l.45.42c-.33.68-1.03,2.2-1.03,2.67,0,.14.03.29.1.48l-.68.08ZM90.91,119.21c.84,0,1.68.02,2.52-.04-.04-.86-.07-1.6-.09-2.34l1.01.03c0,.1-.1.18-.26.21,0,.64.03,1.29.05,2.05.79-.08,1.43-.22,1.96-.4l.09.7c-.48.15-1.17.29-2.02.36.04,1.11.09,2.28.12,2.92.76.31,1.52.8,2.04,1.27l-.39.64c-.41-.41-1-.85-1.62-1.14,0,.85-.17,1.8-1.67,1.8-1.17,0-1.95-.56-1.95-1.44,0-1.02,1.03-1.47,1.95-1.47.31,0,.64.04.95.13-.03-.63-.09-1.68-.14-2.66-.31.02-.73.03-1.02.03h-1.52v-.65ZM93.65,123.14c-.32-.1-.66-.18-.99-.18-.61,0-1.34.22-1.34.85,0,.56.6.84,1.33.84s1.01-.36,1.01-1.16v-.35Z"/>
        <path class="cls-3" d="M101.42,120.08c.21-.08.41-.14.6-.17.18-.04.36-.06.52-.06.57,0,1.04.2,1.42.59.38.4.57.89.57,1.47,0,.62-.21,1.13-.63,1.54s-.96.61-1.61.61c-.55,0-1-.07-1.37-.22-.37-.15-.55-.33-.55-.54,0-.08.03-.16.1-.23.07-.07.15-.1.24-.1.04,0,.23.06.57.19.35.13.67.19.96.19.44,0,.79-.13,1.06-.39.27-.26.41-.6.41-1.01s-.13-.74-.39-1.01c-.26-.27-.58-.4-.97-.4-.29,0-.58.07-.86.22-.28.15-.45.22-.51.22-.1,0-.17-.04-.21-.11-.04-.07-.06-.2-.06-.39v-2.44c0-.11.03-.19.1-.23.07-.05.18-.07.35-.07h2.47c.16,0,.27.03.35.1.08.06.12.16.12.29,0,.12-.04.21-.12.28s-.2.1-.35.1h-2.21v1.58Z"/>
        <path class="cls-3" d="M116.37,124.76c-.86-.68-1.95-1.33-3-1.67.02.39-.05.9-.13,1.16-.08.83-.85,1.15-1.77,1.15-1.29,0-2.31-.63-2.32-1.64-.02-1.01,1.04-1.63,2.3-1.64.35,0,.8.02,1.17.09,0-.27-.05-.5-.06-.73-.09-1.31-.17-3.41-.18-4.85l1.04.06c0,.1-.09.19-.26.21,0,.27,0,1.59,0,1.89.65,0,2.11-.11,3.32-.32l.07.71c-1.14.18-2.62.28-3.38.29,0,.57.02.8.17,2.87,1.29.38,2.51,1.06,3.49,1.78l-.46.64ZM111.43,122.72c-.96.02-1.63.42-1.63.99,0,.73.79,1.05,1.59,1.05.7,0,1.28-.25,1.28-.96,0-.23,0-.64-.02-.93-.4-.12-.84-.15-1.22-.15Z"/>
        <path class="cls-3" d="M120.48,122.27c-.19-.54-.28-1.32-.29-1.88,0-.94.1-2.03.34-3.3l1,.17c-.04.13-.16.16-.29.17-.2.83-.34,2.1-.34,2.91,0,.22,0,.4.03.54.2-.49.57-1.17.78-1.55.09.13.29.34.39.44-.74,1.33-.96,1.71-.96,2.13,0,.08,0,.16.03.25l-.69.12ZM125.84,116.83c0,.12-.09.17-.26.22.07.87.17,2.32.17,3.47,0,1.93-.71,3.67-3.72,4.92-.11-.16-.35-.43-.5-.58,2.73-1.04,3.46-2.69,3.46-4.33,0-1.23-.12-2.68-.23-3.75l1.08.05Z"/>
        <path class="cls-3" d="M130.96,119.08c-.02.08-.09.12-.22.12-.29,1.3-.89,3.13-1.81,4.26-.16-.11-.45-.28-.63-.36.92-1.08,1.49-2.83,1.74-4.2l.92.18ZM132.71,116.52l.92.05c0,.08-.07.13-.21.14v7.98c0,.52-.14.73-.48.85-.36.11-.98.13-1.92.13-.05-.2-.17-.52-.29-.71.45,0,.88.02,1.2.02.7,0,.78,0,.78-.28v-8.17ZM137.11,123.63c-.25-1.2-1.07-3.1-1.96-4.55l.64-.25c.9,1.43,1.77,3.29,2.03,4.5l-.71.3Z"/>
        <path class="cls-3" d="M147.06,118.67c-.91.26-2.13.44-3.33.55.39,1.36.81,2.17,1.89,2.64l-.49.61c-.46-.35-.93-.62-2.23-.69l-.12-.59c.49.04.86.1,1.11.15-.35-.42-.62-1.06-.89-2.07-.45.04-1.06.06-1.66.06-.65,0-1.71-.01-2.35-.03v-.68c.6.03,1.45.03,2.36.03.51,0,1.09-.01,1.49-.05-.12-.54-.23-1.28-.35-2.05l1.07.02c0,.12-.1.19-.26.23.06.57.16,1.2.27,1.75,1.15-.1,2.45-.31,3.33-.59l.16.71ZM145.27,125.25c-.48.02-.99.03-1.86.03-2.09,0-3.57-.64-3.57-1.98,0-.57.35-1.15.9-1.68l.54.43c-.45.36-.72.85-.72,1.23,0,.99,1.28,1.31,2.87,1.31.87,0,1.38-.02,1.89-.05l-.05.71Z"/>
        <path class="cls-3" d="M150.08,117.72c-.02.09-.13.15-.27.16-.12.75-.19,1.65-.19,2.49,0,.37.02.73.04,1.05.12,1.7.81,2.73,1.58,2.72.4,0,.92-1.02,1.28-2.14.14.14.41.33.58.43-.46,1.35-1.04,2.45-1.87,2.47-1.27.02-2.15-1.52-2.29-3.44-.03-.38-.04-.8-.04-1.25,0-.88.05-1.84.15-2.69l1.03.2ZM156.71,122.37c-.28-1.75-1.17-3.01-2.52-3.76l.44-.54c1.46.78,2.53,2.22,2.82,4.07l-.74.23Z"/>
        <path class="cls-3" d="M158.84,117.72c.75-.03,6.91-.47,8.21-.48v.75c-.12,0-.24,0-.36,0-.58,0-1.07.1-1.71.51-1.5.9-2.95,2.51-2.95,3.8,0,1.4.98,2.23,3.46,2.55l-.33.7c-2.84-.41-3.9-1.47-3.9-3.25,0-1.41,1.39-3.12,3.22-4.27-1.1.08-4.05.3-5.34.42-.03.08-.14.15-.22.16l-.08-.88ZM165.32,119.69c.48.36,1.05.95,1.36,1.38l-.38.31c-.28-.44-.89-1.06-1.32-1.39l.34-.3ZM166.4,118.81c.49.36,1.07.94,1.36,1.38l-.38.3c-.27-.4-.85-1.02-1.32-1.38l.34-.3Z"/>
        <path class="cls-3" d="M173.32,118.02c0-.22-.04-1.31-.06-1.56l1.03.04c0,.08-.08.18-.26.21,0,.12,0,.24.02,1.29,1.23-.04,2.52-.07,3.27-.08v.69c-.85-.02-2.06,0-3.25.04.02.78.04,1.5.07,2.05.1.33.12.63.12,1.05,0,.32-.03.69-.1.97-.26,1.17-1.12,2.2-2.88,2.9-.13-.17-.35-.42-.51-.57,1.53-.55,2.35-1.38,2.6-2.33h0c-.21.3-.58.53-1.03.53-.89,0-1.68-.73-1.68-1.75-.01-1.06.85-1.87,1.8-1.87.36,0,.73.13.93.31,0-.17-.02-.84-.04-1.27-1.04.02-4.2.13-4.61.15l-.02-.66,2.28-.06,2.33-.08ZM173.51,121.53c0-.39,0-1.3-1.02-1.3-.69,0-1.18.54-1.19,1.27,0,.7.53,1.16,1.11,1.16.71,0,1.1-.55,1.1-1.13Z"/>
        <path class="cls-3" d="M182.6,119.62c-.08,0-.14-.02-.18-.06-.04-.04-.06-.12-.07-.25l-.15-1.8v-.06c0-.08.02-.14.05-.18s.09-.06.17-.06h.47c.08,0,.13.02.17.06s.05.1.05.18v.06l-.15,1.8c-.01.12-.04.21-.07.25-.04.04-.09.06-.18.06h-.11ZM184.33,119.62c-.08,0-.14-.02-.18-.06-.04-.04-.06-.12-.07-.25l-.15-1.8v-.06c0-.08.02-.14.06-.18.04-.04.09-.06.16-.06h.47c.07,0,.13.02.16.06.04.04.06.1.06.18v.06l-.15,1.8c-.01.12-.04.21-.07.25-.04.04-.09.06-.18.06h-.11Z"/>
        <path class="cls-3" d="M188.53,125.63c0-.07.06-.21.17-.43.11-.22.2-.4.25-.54.22-.52.37-1,.47-1.43.09-.43.14-.88.14-1.34,0-.42-.04-.83-.12-1.23-.08-.4-.2-.8-.36-1.21-.08-.21-.2-.47-.34-.76-.14-.29-.21-.47-.21-.54,0-.07.02-.12.05-.16.03-.04.08-.06.13-.06.11,0,.22.05.34.16.12.11.26.27.43.5.35.5.61,1.02.78,1.57s.26,1.13.26,1.73c0,.55-.07,1.08-.22,1.58-.14.5-.36.99-.65,1.46-.2.32-.38.55-.53.7-.15.15-.29.22-.41.22-.05,0-.09-.02-.13-.06s-.05-.1-.05-.17Z"/>
        <path class="cls-3" d="M194.91,122.71c.03-.11.06-.18.1-.21s.11-.04.2-.04h1.01s.08,0,.11.03c.03.02.04.04.04.07,0,0,0,.03,0,.05s-.02.05-.03.07l-1.26,2.62c-.03.05-.05.09-.09.11-.03.02-.07.03-.11.03-.03,0-.05,0-.06,0-.01,0-.03,0-.04,0l-.32-.12s-.08-.04-.11-.07c-.02-.03-.04-.06-.04-.1,0-.01,0-.03,0-.04,0-.02,0-.04.02-.08l.59-2.33ZM194.54,120.4c0-.25.09-.46.27-.62.18-.16.41-.24.69-.24s.52.08.7.24c.18.16.27.37.27.63s-.09.47-.27.63c-.18.16-.41.24-.7.24s-.52-.08-.69-.24-.26-.37-.26-.63Z"/>
        <path class="cls-3" d="M9.88,133.2c-.33-.09-.56-.26-.69-.49-.13-.23-.2-.62-.2-1.16v-.72c0-.34-.04-.58-.11-.7-.07-.12-.2-.2-.38-.25-.04,0-.11-.02-.19-.03-.28-.04-.42-.16-.42-.37,0-.12.03-.22.1-.28.07-.06.17-.1.31-.1.55,0,.94.14,1.17.42s.34.79.34,1.54v.58c0,.63.26,1.01.79,1.12.1.02.18.04.23.05.1.03.18.07.23.13.05.06.07.14.07.24,0,.11-.03.2-.08.26-.05.07-.13.11-.23.13-.04,0-.09.02-.15.03-.57.11-.86.49-.86,1.13v.57c0,.75-.11,1.27-.34,1.54s-.61.41-1.16.41c-.14,0-.25-.03-.32-.09-.07-.06-.1-.16-.1-.29,0-.21.14-.33.42-.37.06,0,.1-.01.13-.02.21-.04.36-.11.43-.22s.12-.35.12-.7v-.72c0-.53.07-.92.2-1.15.13-.23.36-.4.69-.5Z"/>
        <path class="cls-3" d="M14.9,134.26c.03-.11.06-.18.1-.21s.11-.04.2-.04h1.01s.08,0,.11.03c.03.02.04.04.04.07,0,0,0,.03,0,.05s-.02.05-.03.07l-1.26,2.62c-.03.05-.05.09-.09.11-.03.02-.07.03-.11.03-.03,0-.05,0-.06,0-.01,0-.03,0-.04,0l-.32-.12s-.08-.04-.11-.07c-.02-.03-.04-.06-.04-.1,0-.01,0-.03,0-.04,0-.02,0-.04.02-.08l.59-2.33ZM14.52,131.95c0-.25.09-.46.27-.62.18-.16.41-.24.69-.24s.52.08.7.24c.18.16.27.37.27.63s-.09.47-.27.63c-.18.16-.41.24-.7.24s-.52-.08-.69-.24-.26-.37-.26-.63Z"/>
      </g>
      <rect class="cls-2" y="185.76" width="212.05" height="116.13" rx="13.17" ry="13.17"/>
      <rect class="cls-1" x="16.53" y="200" width="178.99" height="101.9"/>
      <g>
        <path class="cls-3" d="M18.46,210.12h.14c.16,0,.29.03.38.09.09.06.14.15.14.26,0,.12-.04.2-.12.26-.08.06-.21.08-.38.08h-1.35c-.1,0-.18-.03-.24-.1s-.1-.15-.1-.24c0-.12.04-.21.13-.26s.23-.08.42-.08h.1l1.58-1.62-1.55-1.51h-.07c-.19,0-.32-.03-.39-.08-.07-.05-.11-.14-.11-.26,0-.13.04-.22.12-.27.08-.05.24-.08.48-.08h1c.18,0,.3.03.38.08.08.06.12.14.12.26,0,.11-.04.19-.13.25-.09.06-.22.09-.39.09h-.04l1.05,1.03,1-1.03h-.1c-.18,0-.32-.03-.41-.08-.09-.05-.13-.14-.13-.25,0-.13.04-.22.12-.27s.21-.08.38-.08h1.27c.1,0,.18.03.25.09.06.06.09.14.09.25,0,.12-.04.21-.12.26s-.21.08-.39.08h-.14l-1.4,1.46,1.71,1.67h.05c.12,0,.22.03.29.09.07.06.1.15.1.26,0,.13-.04.22-.12.27s-.24.07-.48.07h-1c-.17,0-.3-.03-.38-.08s-.12-.14-.12-.26c0-.11.04-.19.12-.25s.19-.09.32-.09h.27l-1.23-1.2-1.12,1.2Z"/>
        <path class="cls-3" d="M26.38,212.01c-.31-.72-.43-2.21-.43-3.52s.21-3,.54-4.67l.97.19c-.02.1-.12.17-.26.18-.36,1.37-.58,3.15-.58,4.31,0,.76,0,1.52.09,1.89.22-.6.62-1.56.83-2.03l.45.42c-.33.68-1.03,2.2-1.03,2.67,0,.14.03.29.1.48l-.68.08ZM28.92,206.12c.84,0,1.68.02,2.52-.04-.04-.86-.07-1.6-.09-2.34l1.01.03c0,.1-.1.18-.26.21,0,.64.03,1.29.05,2.05.79-.08,1.43-.22,1.96-.4l.09.7c-.48.15-1.17.29-2.02.36.04,1.11.09,2.28.12,2.92.76.31,1.52.8,2.04,1.27l-.39.64c-.41-.41-1-.85-1.62-1.14,0,.85-.17,1.8-1.67,1.8-1.17,0-1.95-.56-1.95-1.44,0-1.02,1.03-1.47,1.95-1.47.31,0,.64.04.95.13-.03-.63-.09-1.68-.14-2.66-.31.02-.73.03-1.02.03h-1.52v-.65ZM31.66,210.05c-.32-.1-.66-.18-.99-.18-.61,0-1.34.22-1.34.85,0,.56.6.84,1.33.84s1.01-.36,1.01-1.16v-.35Z"/>
        <path class="cls-3" d="M38.53,204.22h3.76v.72h-3.14l-.29,2.07c.18-.03.49-.06.78-.06,2.09,0,2.83,1.17,2.83,2.37,0,1.43-1.11,2.53-2.93,2.53-.83,0-1.59-.27-1.95-.52l.25-.69c.34.22.99.52,1.72.52,1.06,0,2-.61,2-1.77,0-1.07-.69-1.79-2.29-1.79-.49,0-.85.05-1.22.14l.48-3.52Z"/>
        <path class="cls-3" d="M53.38,211.67c-.86-.68-1.95-1.33-3-1.67.02.39-.05.9-.13,1.16-.08.83-.85,1.15-1.77,1.15-1.29,0-2.31-.63-2.32-1.64-.02-1.01,1.04-1.63,2.3-1.64.35,0,.8.02,1.17.09,0-.27-.05-.5-.06-.73-.09-1.31-.17-3.41-.18-4.85l1.04.06c0,.1-.09.19-.26.21,0,.27,0,1.59,0,1.89.65,0,2.11-.11,3.32-.32l.07.71c-1.14.18-2.62.28-3.38.29,0,.57.02.8.17,2.87,1.29.38,2.51,1.06,3.49,1.78l-.46.64ZM48.44,209.63c-.96.02-1.63.42-1.63.99,0,.73.79,1.05,1.59,1.05.7,0,1.28-.25,1.28-.96,0-.23,0-.64-.02-.93-.4-.12-.84-.15-1.22-.15Z"/>
        <path class="cls-3" d="M57.49,209.18c-.19-.54-.28-1.32-.29-1.88,0-.94.1-2.03.34-3.3l1,.17c-.04.13-.16.16-.29.17-.2.83-.34,2.1-.34,2.91,0,.22.01.4.03.54.2-.49.57-1.17.78-1.55.09.13.29.34.39.44-.74,1.33-.96,1.71-.96,2.13,0,.08,0,.16.03.25l-.69.12ZM62.85,203.74c0,.12-.09.17-.26.22.07.87.17,2.32.17,3.47,0,1.93-.71,3.67-3.72,4.92-.11-.16-.35-.43-.5-.58,2.73-1.04,3.46-2.69,3.46-4.33,0-1.23-.12-2.68-.23-3.75l1.08.05Z"/>
        <path class="cls-3" d="M74.49,206.91h-3.91c.65,2.39,1.94,4.23,4.07,5.02-.17.15-.39.43-.5.63-2.09-.86-3.36-2.63-4.1-5.04-.46,1.98-1.55,3.94-4.13,5.05-.1-.18-.31-.42-.48-.57,2.64-1.07,3.63-3.07,4.01-5.09h-3.86v-.69h3.97c.13-1.04.12-2.06.13-2.93l.94.05c0,.09-.09.14-.22.17,0,.79-.02,1.73-.14,2.71h4.22v.69Z"/>
        <path class="cls-3" d="M83.97,206.86c-.9.31-1.99.5-3.02.62.31.54.92,1.29,1.65,1.57l-.4.57c-.14-.07-.4-.19-.58-.3-.22-.08-.71-.15-1.18-.15-.14,0-.28,0-.41.02l-.14-.55c.34-.02.83,0,1.12.04-.27-.29-.59-.72-.79-1.13-.67.07-1.41.1-2.68.1-.49,0-1.04,0-1.49-.01v-.63c.44,0,1.02.02,1.52.02.82,0,1.63,0,2.44-.07-.11-.31-.27-.88-.39-1.33-.4.04-.85.06-1.26.06-.54,0-1.23,0-1.7-.02v-.62c.6.03,1.26.03,1.69.03.36,0,.77-.02,1.15-.05-.09-.46-.19-1.01-.27-1.57h1.03c0,.13-.09.2-.27.23.06.43.13.89.21,1.28.94-.09,1.95-.29,2.68-.58l.17.62c-.73.27-1.72.46-2.72.57.13.53.26,1,.38,1.31,1.06-.11,2.21-.34,3.12-.66l.14.63ZM82.21,212.15c-.55.04-1.21.06-2.2.06-1.62,0-2.88-.53-2.86-1.66,0-.59.53-1.22,1.18-1.58l.45.46c-.58.31-.92.73-.92,1.11,0,.71.88,1.02,2.15,1.03.75,0,1.54-.04,2.22-.09l-.02.67Z"/>
        <path class="cls-3" d="M87.09,204.63c-.02.09-.13.15-.27.16-.12.75-.19,1.65-.19,2.49,0,.37.02.73.04,1.05.12,1.7.81,2.73,1.58,2.72.4,0,.92-1.02,1.28-2.14.14.14.41.33.58.43-.46,1.35-1.04,2.45-1.87,2.47-1.27.02-2.15-1.52-2.29-3.44-.03-.38-.04-.8-.04-1.25,0-.88.05-1.84.15-2.69l1.03.2ZM93.72,209.28c-.28-1.75-1.17-3.01-2.52-3.76l.44-.54c1.46.78,2.53,2.22,2.82,4.07l-.74.23Z"/>
        <path class="cls-3" d="M95.85,204.63c.75-.03,6.91-.47,8.21-.48v.75c-.12,0-.24,0-.36,0-.58,0-1.07.1-1.71.51-1.5.9-2.95,2.51-2.95,3.8,0,1.4.98,2.23,3.46,2.55l-.33.7c-2.84-.41-3.9-1.47-3.9-3.25,0-1.41,1.39-3.12,3.22-4.27-1.1.08-4.05.3-5.34.42-.03.08-.14.15-.22.16l-.08-.88ZM102.33,206.6c.48.36,1.05.95,1.36,1.38l-.38.31c-.28-.44-.89-1.06-1.32-1.39l.34-.3ZM103.41,205.72c.49.36,1.07.94,1.36,1.38l-.38.3c-.27-.4-.85-1.02-1.32-1.38l.34-.3Z"/>
        <path class="cls-3" d="M110.33,204.93c0-.22-.04-1.31-.06-1.56l1.03.04c0,.08-.08.18-.26.21,0,.12,0,.24.02,1.29,1.23-.04,2.52-.07,3.27-.08v.69c-.85-.02-2.06,0-3.25.04.02.78.04,1.5.07,2.05.1.33.12.63.12,1.05,0,.32-.03.69-.1.97-.26,1.17-1.12,2.2-2.88,2.9-.13-.17-.35-.42-.51-.57,1.53-.55,2.35-1.38,2.6-2.33h0c-.21.3-.58.53-1.03.53-.89,0-1.68-.73-1.68-1.75-.01-1.06.85-1.87,1.8-1.87.36,0,.73.13.93.31,0-.17-.02-.84-.04-1.27-1.04.02-4.2.13-4.61.15l-.02-.66,2.28-.06,2.33-.08ZM110.52,208.44c0-.39,0-1.3-1.02-1.3-.69,0-1.18.54-1.19,1.27,0,.7.53,1.16,1.11,1.16.71,0,1.1-.55,1.1-1.13Z"/>
        <path class="cls-3" d="M18.46,222.12h.14c.16,0,.29.03.38.09.09.06.14.15.14.26,0,.12-.04.2-.12.26-.08.06-.21.08-.38.08h-1.35c-.1,0-.18-.03-.24-.1s-.1-.15-.1-.24c0-.12.04-.21.13-.26s.23-.08.42-.08h.1l1.58-1.62-1.55-1.51h-.07c-.19,0-.32-.03-.39-.08-.07-.05-.11-.14-.11-.26,0-.13.04-.22.12-.27.08-.05.24-.08.48-.08h1c.18,0,.3.03.38.08.08.06.12.14.12.26,0,.11-.04.19-.13.25-.09.06-.22.09-.39.09h-.04l1.05,1.03,1-1.03h-.1c-.18,0-.32-.03-.41-.08-.09-.05-.13-.14-.13-.25,0-.13.04-.22.12-.27s.21-.08.38-.08h1.27c.1,0,.18.03.25.09.06.06.09.14.09.25,0,.12-.04.21-.12.26s-.21.08-.39.08h-.14l-1.4,1.46,1.71,1.67h.05c.12,0,.22.03.29.09.07.06.1.15.1.26,0,.13-.04.22-.12.27s-.24.07-.48.07h-1c-.17,0-.3-.03-.38-.08s-.12-.14-.12-.26c0-.11.04-.19.12-.25s.19-.09.32-.09h.27l-1.23-1.2-1.12,1.2Z"/>
        <path class="cls-3" d="M30.61,217.1c-.04.09-.12.16-.25.16-.36,3.11-1.4,5.82-3.06,5.82-.84,0-1.6-.84-1.6-2.42,0-2.4,1.87-4.41,4.5-4.41,2.89,0,4.14,1.83,4.14,3.78,0,2.38-1.38,3.53-3.8,4.09-.09-.16-.26-.43-.42-.61,2.3-.44,3.48-1.56,3.48-3.45,0-1.65-1.06-3.15-3.4-3.15-.1,0-.21.01-.3.02l.71.17ZM29.65,216.97c-2.02.25-3.27,1.92-3.27,3.67,0,1.07.46,1.74.94,1.74,1.21,0,2.08-2.67,2.33-5.41Z"/>
        <path class="cls-3" d="M36.63,224.58v-5.74c-.36.61-.74,1.17-1.14,1.64-.08-.16-.24-.48-.35-.63.92-1.04,1.82-2.78,2.38-4.51l.79.26c-.02.07-.1.11-.22.1-.24.67-.52,1.34-.84,1.98l.23.07c0,.06-.07.11-.2.13v6.7h-.65ZM44.71,223.45v.6h-5.68v.5h-.63v-6.2l.82.05c0,.07-.06.12-.19.14v4.91h5.68ZM39.99,217.85h1.17c.04-.27.08-.58.11-.91h-2.77v-.6h2.83c.03-.37.06-.74.08-1.06l.86.06c-.01.07-.07.12-.2.13-.02.26-.05.56-.08.87h2.62v.6h-2.69c-.04.32-.08.64-.12.91h2.23v4.76h-4.04v-4.76ZM43.38,219.26v-.88h-2.75v.88h2.75ZM43.38,220.66v-.89h-2.75v.89h2.75ZM43.38,222.08v-.91h-2.75v.91h2.75Z"/>
        <path class="cls-3" d="M46.38,224.01c-.31-.72-.43-2.21-.43-3.52s.21-3,.54-4.67l.97.19c-.02.1-.12.17-.26.18-.36,1.37-.58,3.15-.58,4.31,0,.76,0,1.52.09,1.89.22-.6.62-1.56.83-2.03l.45.42c-.33.68-1.03,2.2-1.03,2.67,0,.14.03.29.1.48l-.68.08ZM48.92,218.12c.84,0,1.68.02,2.52-.04-.04-.86-.07-1.6-.09-2.34l1.01.03c0,.1-.1.18-.26.21,0,.64.03,1.29.05,2.05.79-.08,1.43-.22,1.96-.4l.09.7c-.48.15-1.17.29-2.02.36.04,1.11.09,2.28.12,2.92.76.31,1.52.8,2.04,1.27l-.39.64c-.41-.41-1-.85-1.62-1.14,0,.85-.17,1.8-1.67,1.8-1.17,0-1.95-.56-1.95-1.44,0-1.02,1.03-1.47,1.95-1.47.31,0,.64.04.95.13-.03-.63-.09-1.68-.14-2.66-.31.02-.73.03-1.02.03h-1.52v-.65ZM51.66,222.05c-.32-.1-.66-.18-.99-.18-.61,0-1.34.22-1.34.85,0,.56.6.84,1.33.84s1.01-.36,1.01-1.16v-.35Z"/>
        <path class="cls-3" d="M59.36,217.57s-.07.01-.09.01c-.02,0-.04,0-.06,0-.1,0-.18-.03-.25-.08-.06-.06-.1-.13-.1-.23,0-.08.03-.15.08-.21s.13-.1.24-.13l1.45-.39s.07-.02.1-.02c.04,0,.07,0,.11,0,.06,0,.11.03.15.09.04.06.05.13.05.23v5.28h.78c.29,0,.47.02.55.07.08.05.12.14.12.27,0,.12-.03.21-.1.26s-.16.09-.29.09h-2.92c-.13,0-.23-.03-.29-.09s-.1-.15-.1-.26c0-.13.04-.22.12-.27.08-.05.26-.07.55-.07h.81v-4.77l-.92.22Z"/>
        <path class="cls-3" d="M66.53,222.97c-.61,0-1.1-.29-1.46-.87-.36-.58-.54-1.37-.54-2.38s.18-1.79.54-2.37c.36-.58.84-.87,1.46-.87s1.1.29,1.46.87.54,1.37.54,2.37-.18,1.79-.54,2.37c-.36.58-.85.87-1.46.87ZM66.53,217.19c-.37,0-.67.22-.87.67-.21.44-.31,1.07-.31,1.88s.1,1.44.31,1.88c.21.44.5.67.87.67s.67-.22.88-.67c.21-.45.31-1.07.31-1.88s-.1-1.43-.31-1.88c-.21-.44-.5-.67-.88-.67Z"/>
        <path class="cls-3" d="M72.85,216.63c.75-.03,6.91-.47,8.21-.48v.75c-.12,0-.24,0-.36,0-.58,0-1.07.1-1.71.51-1.5.9-2.95,2.51-2.95,3.8,0,1.4.98,2.23,3.46,2.55l-.33.7c-2.84-.41-3.9-1.47-3.9-3.25,0-1.41,1.39-3.12,3.22-4.27-1.1.08-4.05.3-5.34.42-.03.08-.14.15-.22.16l-.08-.88ZM79.33,218.6c.48.36,1.05.95,1.36,1.38l-.38.31c-.28-.44-.89-1.06-1.32-1.39l.34-.3ZM80.41,217.72c.49.36,1.07.94,1.36,1.38l-.38.3c-.27-.4-.85-1.02-1.32-1.38l.34-.3Z"/>
        <path class="cls-3" d="M87.33,216.93c0-.22-.04-1.31-.06-1.56l1.03.04c0,.08-.08.18-.26.21,0,.12,0,.24.02,1.29,1.23-.04,2.52-.07,3.27-.08v.69c-.85-.02-2.06,0-3.25.04.02.78.04,1.5.07,2.05.1.33.12.63.12,1.05,0,.32-.03.69-.1.97-.26,1.17-1.12,2.2-2.88,2.9-.13-.17-.35-.42-.51-.57,1.53-.55,2.35-1.38,2.6-2.33h0c-.21.3-.58.53-1.03.53-.89,0-1.68-.73-1.68-1.75-.01-1.06.85-1.87,1.8-1.87.36,0,.73.13.93.31,0-.17-.02-.84-.04-1.27-1.04.02-4.2.13-4.61.15l-.02-.66,2.28-.06,2.33-.08ZM87.52,220.44c0-.39,0-1.3-1.02-1.3-.69,0-1.18.54-1.19,1.27,0,.7.53,1.16,1.11,1.16.71,0,1.1-.55,1.1-1.13Z"/>
      </g>
    </g>
  </g>
</svg>