<?xml version="1.0" encoding="UTF-8"?>
<svg id="_レイヤー_2" data-name="レイヤー 2" xmlns="http://www.w3.org/2000/svg" viewBox="0 0 280.56 54.42">
  <defs>
    <style>
      .cls-1 {
        fill: #094;
      }

      .cls-1, .cls-2, .cls-3, .cls-4, .cls-5, .cls-6, .cls-7 {
        stroke: #231815;
        stroke-miterlimit: 10;
      }

      .cls-2 {
        fill: #fff100;
      }

      .cls-3, .cls-5, .cls-6 {
        fill: #fff;
      }

      .cls-3, .cls-7 {
        stroke-width: 2px;
      }

      .cls-4, .cls-7 {
        fill: none;
      }

      .cls-8 {
        fill: #231815;
      }

      .cls-5 {
        stroke-width: 1.5px;
      }
    </style>
  </defs>
  <g id="_レイヤー_1-2" data-name="レイヤー 1">
    <g>
      <g>
        <path class="cls-8" d="M118.17,17.73c-.34-3-.19-10.2.12-13.66.07-.94.84-1.54,1.75-1.46.86.07,1.49.84,1.42,1.73-.29,3.36-.55,7.37-.31,10.49.02-.02.1-.05.12-.05.74-.46,1.73-.29,2.18.48.43.74.19,1.8-.55,2.26-.38.22-1.9,1.18-2.3,1.42-1.06.6-2.28-.1-2.42-1.2ZM136.03,14.2c-.12.86-.91,1.46-1.78,1.34-.38-.05-1.15-.14-1.54-.19v1.49c-.05,2.74-1.61,3.55-3.43,3.53-2.21,0-4.46-2.3-4.46-4.99,0-1.99,1.25-3.48,3.94-3.43h.77v-5.14h-3.41c-.86,0-1.58-.72-1.58-1.58s.72-1.58,1.58-1.58h3.41v-1.87c0-.89.72-1.58,1.61-1.58s1.58.7,1.58,1.58v1.87h1.22c.89,0,1.58.7,1.58,1.58s-.7,1.58-1.58,1.58h-1.22v5.35c.55.07,1.27.12,1.94.24.86.17,1.49.94,1.37,1.8ZM129.53,15.14c-.26-.05-.53-.07-.82-.07-.5-.02-.7.14-.7.41-.07.94.62,1.7,1.18,1.7.24,0,.36-.17.34-.58v-1.46Z"/>
        <path class="cls-8" d="M156,11.39c1.06.29,1.44,1.39,1.13,2.38-.98,3.24-2.83,6.07-6.62,6.12-3.75.05-6.17-2.45-5.95-6.22.17-2.64.22-4.75.62-11.83.05-.86.82-1.56,1.7-1.49.86.05,1.49.82,1.42,1.7-.43,5.06-.77,9.43-.74,11.86,0,2.16,1.22,3,3.07,2.88,1.27-.1,2.59-1.39,3.41-4.18.34-1.06,1.3-1.42,1.97-1.22ZM153.98,3.42v1.32c0,.67-.53,1.2-1.2,1.2s-1.18-.53-1.18-1.2v-1.32c0-.65.53-1.18,1.18-1.18s1.2.53,1.2,1.18ZM157.01,3.42v1.32c0,.67-.55,1.2-1.2,1.2s-1.2-.53-1.2-1.2v-1.32c0-.65.55-1.18,1.2-1.18s1.2.53,1.2,1.18Z"/>
        <path class="cls-8" d="M183.31,10.65c.14,3.14-1.25,6.31-5.09,8.69-.74.46-1.87.41-2.42-.26-.46-.58-.46-1.54.5-2.26,3.22-2.42,3.84-3.79,3.96-5.71.1-1.78-.48-3.53-2.38-3.84-1.34,2.98-2.93,6.58-3.86,8.04-1.01,1.58-1.97,2.62-3.89,2.42-2.28-.22-3.79-3.19-3.79-6.12,0-2.14,1.06-4.3,3.02-5.5l-.65-2.93c-.24-1.15.53-1.7,1.3-1.87.86-.17,1.68.41,1.85,1.27l.46,2.14c1.13-.38,2.5-.58,3.58-.65.24-.53.6-1.54.82-1.99.36-.79,1.3-1.15,2.09-.82.82.36,1.13,1.27.82,2.11-.14.36-.24.6-.43,1.11,2.62.86,3.96,2.98,4.13,6.17ZM172.58,11.42c-.12.07-.29.12-.43.14-.86.17-1.78-.29-1.97-1.25l-.17-.91c-.43.53-.72,1.32-.77,1.94-.17,1.54.55,3.14,1.22,3.14.7-.02,1.46-1.75,2.11-3.07ZM174.48,7.29c-.5.07-1.01.17-1.58.41l.43,2.14c.34-.7.77-1.49,1.15-2.54Z"/>
        <path class="cls-8" d="M190.42,4.58c-.02-.89.67-1.61,1.54-1.63l12.63-.53c.65,0,1.58.41,1.63,1.54.02.89-.67,1.63-1.56,1.66l-1.61.07c-2.4,1.87-5.52,5.57-5.64,7.56-.05,1.18.91,2.28,3.79,2.52.86.07,1.54.58,1.56,1.46.02.86-.82,1.78-1.68,1.78-4.27,0-7.1-2.66-6.62-5.93.34-2.28,2.45-5.16,4.42-7.27l-6.82.31c-.89.02-1.61-.67-1.63-1.54Z"/>
        <path class="cls-8" d="M228.05,9.64c.05-2.64-1.92-4.63-4.97-4.58-3.84.07-5.83,2.54-5.88,5.26-.02,1.56.46,2.71,1.2,2.78.82.05,1.87-1.9,2.59-5.38.17-.87.84-1.44,1.7-1.34.91.12,1.61.91,1.42,1.78-.55,2.78-2.14,8.33-5.78,8.35-2.09,0-4.2-2.45-4.13-6.26.1-4.58,3.91-8.02,8.83-8.11,5.33-.07,8.14,3.89,8.14,7.56,0,3.14-1.49,6.41-5.14,9.36-.67.55-1.87.46-2.42-.22-.46-.55-.41-1.54.36-2.23,2.71-2.4,4.06-4.13,4.08-6.96Z"/>
        <path class="cls-8" d="M118.9,31.05c0-.89.72-1.58,1.58-1.58h10.75c.79,0,1.46.6,1.56,1.39h.02c0,3.79.1,5.62-1.06,7.85-1.58,2.76-4.15,5.66-6.24,7.82-.6.62-1.66.65-2.28.05-.62-.62-.58-1.61,0-2.26,2.54-2.86,4.39-4.68,5.78-7.08.7-1.22.7-2.06.62-4.61h-9.17c-.86,0-1.58-.7-1.58-1.58ZM137.14,28.82c0,1.18-.94,2.11-2.11,2.11s-2.11-.94-2.11-2.11.96-2.11,2.11-2.11,2.11.96,2.11,2.11ZM135.96,28.82c0-.53-.41-.94-.94-.94s-.94.41-.94.94.43.94.94.94.94-.43.94-.94Z"/>
        <path class="cls-8" d="M157.87,31.53l-.02,11.93c0,.86-.6,1.49-1.58,1.56-3.98.24-6.34.38-10.78.02-1.01-.14-1.63-.74-1.63-1.61l.02-11.93c0-.86.72-1.58,1.58-1.58h10.78c.98.02,1.66.7,1.63,1.61ZM154.68,42.02v-8.93h-7.63l-.02,8.98c2.18.19,5.3.22,7.66-.05Z"/>
        <path class="cls-8" d="M166.7,34.41l3.84-6.77c.43-.74,1.42-1.01,2.16-.58.77.43,1.03,1.42.6,2.16l-.36.55h5.74c.7,0,1.61.43,1.61,1.68,0,.05-.02,3.7-.02,3.7,0,1.8-.12,2.5-.89,3.77-1.99,3.29-3.84,5.59-7.08,8.62-.65.6-1.73.55-2.33-.1-.6-.65-.46-1.61.14-2.23,2.71-2.76,4.92-5.02,6.55-7.85.31-.53.43-.96.43-1.63v-2.83h-5.88l-1.75,3.1c-.43.74-1.42,1.01-2.18.58-.74-.43-1.01-1.42-.58-2.16ZM181.54,27.28v1.32c0,.65-.53,1.2-1.2,1.2s-1.18-.55-1.18-1.2v-1.32c0-.65.53-1.2,1.18-1.2s1.2.55,1.2,1.2ZM184.56,27.28v1.32c0,.65-.53,1.2-1.2,1.2s-1.18-.55-1.18-1.2v-1.32c0-.65.53-1.2,1.18-1.2s1.2.55,1.2,1.2Z"/>
        <path class="cls-8" d="M205.82,34.15c.05,1.75-.02,2.88-.58,4.3-.84,2.3-4.97,6.84-6.91,8.35-.7.55-1.78.5-2.35-.17-.55-.67-.34-1.63.29-2.23,3.05-2.88,5.16-5.21,5.9-6.77.29-.53.38-1.11.41-1.9h-9.79c-.86,0-1.58-.7-1.58-1.58s.72-1.58,1.58-1.58h11.35c.98.05,1.66.72,1.68,1.58ZM193.29,29.15c0-.89.72-1.58,1.58-1.58h7.95c.86,0,1.58.7,1.58,1.58s-.72,1.58-1.58,1.58h-7.95c-.86,0-1.58-.72-1.58-1.58Z"/>
        <path class="cls-8" d="M219.43,40.65l7.27,3.12c.79.36,1.18,1.29.82,2.09-.34.82-1.27,1.18-2.09.84l-7.25-3.14c-.82-.34-1.18-1.27-.84-2.09.36-.79,1.3-1.18,2.09-.82ZM225.29,32.61l-6.05-2.52c-.82-.31-1.2-1.25-.86-2.06s1.27-1.2,2.06-.86l6.05,2.52c.82.31,1.2,1.25.86,2.06s-1.25,1.2-2.06.86ZM225.94,37.77c-.34.79-1.27,1.18-2.09.84l-4.22-1.78c-.82-.34-1.2-1.27-.86-2.06.34-.82,1.27-1.2,2.09-.86l4.25,1.78c.79.34,1.18,1.27.84,2.09Z"/>
        <path class="cls-8" d="M240.62,32.78c-.77-.43-1.03-1.39-.6-2.16.43-.77,1.39-1.03,2.16-.6l2.78,1.54c.74.43,1.03,1.42.6,2.16-.43.77-1.42,1.03-2.16.62l-2.78-1.56ZM255.1,32.97c-.74,3.1-2.14,5.78-3.79,7.87-1.82,2.35-4.78,4.27-8.69,5.06-.84.17-1.8-.36-1.99-1.22-.19-.96.5-1.68,1.3-1.87,3.48-.84,5.54-2.16,6.89-3.86,1.54-1.97,2.52-4.03,3.34-6.96.22-.84,1.15-1.32,1.97-1.06.84.26,1.22,1.13.98,2.04Z"/>
        <path class="cls-8" d="M262.7,34.41l3.84-6.77c.43-.74,1.42-1.01,2.16-.58.77.43,1.03,1.42.6,2.16l-.36.55h5.74c.7,0,1.61.43,1.61,1.68,0,.05-.02,3.7-.02,3.7,0,1.8-.12,2.5-.89,3.77-1.99,3.29-3.84,5.59-7.08,8.62-.65.6-1.73.55-2.33-.1-.6-.65-.46-1.61.14-2.23,2.71-2.76,4.92-5.02,6.55-7.85.31-.53.43-.96.43-1.63v-2.83h-5.88l-1.75,3.1c-.43.74-1.42,1.01-2.18.58-.74-.43-1.01-1.42-.58-2.16ZM277.54,27.28v1.32c0,.65-.53,1.2-1.2,1.2s-1.18-.55-1.18-1.2v-1.32c0-.65.53-1.2,1.18-1.2s1.2.55,1.2,1.2ZM280.56,27.28v1.32c0,.65-.53,1.2-1.2,1.2s-1.18-.55-1.18-1.2v-1.32c0-.65.53-1.2,1.18-1.2s1.2.55,1.2,1.2Z"/>
      </g>
      <g>
        <polygon class="cls-5" points="49.54 45.6 83.53 45.6 108.53 24.21 74.53 24.21 49.54 45.6"/>
        <rect class="cls-3" x="9.57" y="45.22" width="73.31" height="7.93"/>
        <polygon class="cls-3" points="82.88 45.6 9.57 45.6 1.21 1 74.51 1 82.88 45.6"/>
        <g>
          <polygon class="cls-2" points="38.32 17.14 39.05 39.58 27.93 30.17 27.19 7.73 38.32 17.14"/>
          <polygon class="cls-1" points="38.32 17.14 39.05 39.58 49.54 29.47 48.81 7.03 38.32 17.14"/>
        </g>
        <path class="cls-4" d="M110.28,30.17l-27.66,23.87,27.66-23.87Z"/>
        <path class="cls-7" d="M82.88,46.23v5.92-5.92Z"/>
        <polygon class="cls-6" points="82.88 53.16 110.01 30.01 110.01 24.28 82.88 47.42 82.88 53.16"/>
      </g>
    </g>
  </g>
</svg>