<?xml version="1.0" encoding="UTF-8"?>
<svg id="_レイヤー_2" data-name="レイヤー 2" xmlns="http://www.w3.org/2000/svg" viewBox="0 0 475.67 204.44">
  <defs>
    <style>
      .cls-1 {
        fill: #094;
      }

      .cls-1, .cls-2, .cls-3, .cls-4 {
        stroke: #231815;
        stroke-miterlimit: 10;
      }

      .cls-2 {
        fill: #fff100;
      }

      .cls-3 {
        fill: none;
      }

      .cls-5, .cls-6 {
        fill: #231815;
      }

      .cls-4 {
        fill: #fff;
      }

      .cls-6 {
        font-family: KozGoPr6N-Regular-83pv-RKSJ-H, 'Kozuka Gothic Pr6N';
        font-size: 11px;
      }
    </style>
  </defs>
  <g id="_レイヤー_1-2" data-name="レイヤー 1">
    <g>
      <g>
        <circle class="cls-3" cx="427.74" cy="81.37" r="27.91"/>
        <path class="cls-3" d="M456.65,105.74h0c4.6.25,8.17,3.58,7.95,7.43l-1.4,25.61c-.21,3.85-4.11,6.77-8.72,6.51h0c-4.6-.25-8.17-3.58-7.95-7.43l.94-17.26"/>
        <path class="cls-3" d="M399.24,104.32h0c-4.6.31-8.08,4.29-7.77,8.89l2.05,30.6c.31,4.6,4.29,8.08,8.89,7.77h0c4.6-.31,8.08-4.29,7.77-8.89l-1.38-20.63"/>
        <rect class="cls-4" x="361.48" y="161.26" width="75.96" height="7.08"/>
        <line class="cls-3" x1="439.13" y1="141.66" x2="443.72" y2="134.57"/>
        <line class="cls-3" x1="437.44" y1="161.26" x2="450.13" y2="141.66"/>
        <line class="cls-3" x1="437.44" y1="168.34" x2="454.72" y2="141.66"/>
        <rect class="cls-4" x="432.08" y="117.2" width="16.7" height="45.82" rx="8.35" ry="8.35" transform="translate(363.71 595.88) rotate(-98.09)"/>
        <polygon class="cls-4" points="437.44 160.93 361.48 160.93 352.08 111.17 428.04 111.17 437.44 160.93"/>
      </g>
      <g>
        <circle class="cls-3" cx="264.78" cy="81.37" r="27.91"/>
        <path class="cls-3" d="M293.69,105.74h0c4.6.25,8.17,3.58,7.95,7.43l-1.4,25.61c-.21,3.85-4.11,6.77-8.72,6.51h0c-4.6-.25-8.17-3.58-7.95-7.43l.94-17.26"/>
        <path class="cls-3" d="M236.28,104.32h0c-4.6.31-8.08,4.29-7.77,8.89l2.05,30.6c.31,4.6,4.29,8.08,8.89,7.77h0c4.6-.31,8.08-4.29,7.77-8.89l-1.38-20.63"/>
        <rect class="cls-4" x="198.52" y="161.26" width="75.96" height="7.08"/>
        <line class="cls-3" x1="276.18" y1="141.66" x2="280.76" y2="134.57"/>
        <line class="cls-3" x1="274.48" y1="161.26" x2="287.18" y2="141.66"/>
        <line class="cls-3" x1="274.48" y1="168.34" x2="291.76" y2="141.66"/>
        <rect class="cls-4" x="269.12" y="117.2" width="16.7" height="45.82" rx="8.35" ry="8.35" transform="translate(177.81 434.55) rotate(-98.09)"/>
        <polygon class="cls-4" points="274.48 160.93 198.52 160.93 189.13 111.17 265.09 111.17 274.48 160.93"/>
      </g>
      <path class="cls-3" d="M139.99,105.74h0c4.6.25,8.13,4.19,7.88,8.79l-1.68,30.62c-.25,4.6-4.19,8.13-8.79,7.88h0c-4.6-.25-8.13-4.19-7.88-8.79l1.13-20.65"/>
      <path class="cls-3" d="M81.58,104.32h0c-4.6.31-8.08,4.29-7.77,8.89l2.05,30.6c.31,4.6,4.29,8.08,8.89,7.77h0c4.6-.31,8.08-4.29,7.77-8.89l-1.38-20.63"/>
      <rect class="cls-4" x="126.85" y="107.64" width="16.7" height="45.82" rx="8.35" ry="8.35" transform="translate(-17.03 20.33) rotate(-8.09)"/>
      <polyline class="cls-4" points="105.55 141.66 38.68 141.66 38.68 134.57 127.06 134.57 127.06 141.66 126.39 141.66"/>
      <circle class="cls-3" cx="110.78" cy="87.06" r="27.91"/>
      <ellipse class="cls-3" cx="71.56" cy="72.59" rx="4.08" ry="4.3" transform="translate(-9.89 133.87) rotate(-82.37)"/>
      <ellipse class="cls-3" cx="64.42" cy="62.23" rx="5.06" ry="5.33" transform="translate(-5.81 117.82) rotate(-82.37)"/>
      <ellipse class="cls-3" cx="78.31" cy="80.21" rx="2.51" ry="2.38"/>
      <polygon class="cls-4" points="109.78 160.93 33.82 160.93 24.42 111.17 100.39 111.17 109.78 160.93"/>
      <rect class="cls-4" x="33.82" y="161.26" width="75.96" height="7.08"/>
      <line class="cls-3" x1="122.48" y1="141.66" x2="127.06" y2="134.57"/>
      <line class="cls-3" x1="109.78" y1="161.26" x2="122.48" y2="141.66"/>
      <line class="cls-3" x1="109.78" y1="168.34" x2="127.06" y2="141.66"/>
      <g>
        <path class="cls-3" d="M448.17,77.21c.47,1.04.81,2.53.9,4.27.2,3.72-.78,7.17-2.19,7.7s-2.72-2.06-2.92-5.78c-.1-1.86.09-3.65.49-5.05"/>
        <line class="cls-3" x1="448.31" y1="77.52" x2="446.04" y2="71.94"/>
        <line class="cls-3" x1="446.13" y1="71.56" x2="444.36" y2="78.76"/>
      </g>
      <g>
        <path class="cls-5" d="M35.17,181.85h7l.07-.03.75.57s-.07.08-.13.1c-.89,4.14-2.81,6.29-6.17,7.57-.12-.2-.34-.48-.5-.65,3.2-1.18,5.05-3.22,5.76-6.8h-6.78v-.76ZM43.55,179.88c.66,0,1.2.54,1.2,1.21s-.54,1.2-1.2,1.2-1.21-.54-1.21-1.2c0-.69.56-1.21,1.21-1.21ZM44.39,181.09c0-.47-.37-.85-.84-.85s-.85.37-.85.85.38.85.85.85.84-.41.84-.85Z"/>
        <path class="cls-5" d="M54.08,182.03v7.26h-.79v-.69h-6.06v.71h-.77v-7.28h7.62ZM53.29,187.86v-5.09h-6.06v5.09h6.06Z"/>
        <path class="cls-5" d="M65.06,182.71c-.04.07-.1.12-.17.17-1.17,3.64-2.97,5.84-5.95,7.36-.12-.19-.34-.44-.56-.61,2.83-1.38,4.6-3.49,5.53-6.48h-3.88c-.64.99-1.45,1.91-2.43,2.68-.14-.15-.41-.36-.62-.5,1.5-1.12,2.74-2.86,3.49-4.82l1.03.29c-.03.11-.17.15-.31.14-.22.5-.47,1.02-.73,1.46h3.83l.13-.07.63.36ZM63.69,180.18c.52.42,1.12,1.09,1.44,1.56l-.41.35c-.33-.51-.92-1.16-1.42-1.56l.38-.35ZM65.29,179.86c.52.42,1.12,1.08,1.44,1.56l-.41.34c-.33-.5-.9-1.13-1.42-1.55l.39-.35Z"/>
        <path class="cls-5" d="M76.39,184.1s-.08.09-.14.11c-.9,3.32-2.74,4.94-6.03,5.85-.1-.2-.31-.47-.46-.64,2.99-.75,4.85-2.29,5.54-4.84h-7.28v-.75h7.61l.11-.07.65.33ZM75.35,181.74h-6.27v-.73h6.27v.73Z"/>
        <path class="cls-5" d="M79.7,187.57c2.42.27,5.25.9,6.98,1.58l-.33.77c-1.56-.65-4.49-1.34-6.91-1.63l.26-.73ZM80.58,184.21c1.75.18,3.95.59,5.31,1.01l-.25.77c-1.29-.44-3.51-.86-5.29-1.03l.23-.75ZM80.62,180.81c1.87.2,4.27.64,5.79,1.18l-.32.77c-1.52-.57-3.85-1-5.72-1.21l.25-.74Z"/>
        <path class="cls-5" d="M90.48,181.41c1.14.36,2.46.93,3.28,1.5l-.42.69c-.79-.56-2.09-1.14-3.21-1.53l.35-.66ZM90.43,189.04c3.91-1.21,6.5-3.4,7.82-6.45.23.19.48.33.71.45-1.38,3.01-4.06,5.36-7.79,6.6-.01.1-.08.21-.15.25l-.59-.86Z"/>
        <path class="cls-5" d="M109.06,182.71c-.04.07-.1.12-.17.17-1.17,3.64-2.97,5.84-5.95,7.36-.12-.19-.34-.44-.56-.61,2.83-1.38,4.6-3.49,5.53-6.48h-3.88c-.64.99-1.45,1.91-2.43,2.68-.14-.15-.41-.36-.62-.5,1.5-1.12,2.74-2.86,3.49-4.82l1.03.29c-.03.11-.17.15-.31.14-.22.5-.47,1.02-.73,1.46h3.83l.13-.07.63.36ZM107.69,180.18c.52.42,1.12,1.09,1.44,1.56l-.41.35c-.33-.51-.92-1.16-1.42-1.56l.38-.35ZM109.29,179.86c.52.42,1.12,1.08,1.44,1.56l-.41.34c-.33-.5-.9-1.13-1.42-1.55l.39-.35Z"/>
        <path class="cls-5" d="M115.72,184.84s-.13.07-.22.05c-.22.29-.58.7-.89,1.01.37.4.74.78.87.94l-.45.55c-.25-.35-.86-1.09-1.32-1.61v4.64h-.74v-4.26c-.51.56-1.03,1.06-1.55,1.45-.08-.18-.29-.51-.42-.64,1.26-.88,2.63-2.45,3.37-4.04h-3.05v-.68h1.65v-2.06l.95.05c-.01.08-.07.13-.21.15v1.85h1.06l.13-.03.51.3c-.02.05-.09.1-.15.11-.34.85-.85,1.69-1.42,2.47.12.11.27.26.44.44.29-.36.65-.86.85-1.2l.61.48ZM120.76,181.26l.41.03c-.01.05-.01.18-.02.26-.12,5.85-.24,7.73-.67,8.28-.26.37-.54.48-1.38.48-.32,0-.69-.01-1.04-.03-.02-.22-.11-.54-.24-.76.7.05,1.31.05,1.58.05.18,0,.29-.04.39-.19.35-.4.5-2.27.62-7.43h-2.38c-.1,2.99-.29,6.6-2.94,8.47-.13-.18-.37-.42-.57-.55,2.49-1.65,2.7-4.98,2.75-7.92h-1.96v-.7h5.46Z"/>
        <path class="cls-5" d="M132.21,186.7v.69h-4.57v2.13c0,.92-.53.93-2.56.93-.05-.21-.2-.52-.32-.73.56.02,1.06.03,1.41.03.64,0,.72,0,.72-.24v-2.13h-4.51v-.69h4.51v-.96l.52.03c.56-.29,1.14-.67,1.6-1.04h-4.79v-.66h5.57l.13-.04.57.36c-.03.05-.1.09-.17.1-.65.62-1.69,1.33-2.67,1.82v.4h4.57ZM123.36,182.75v1.77h-.7v-2.44h1.72c-.21-.43-.62-1.01-.98-1.44l.62-.3c.44.48.91,1.13,1.11,1.57l-.32.17h2.33c-.17-.5-.53-1.18-.87-1.68l.64-.24c.4.55.79,1.29.93,1.76l-.38.17h1.93c.43-.51.97-1.28,1.26-1.8.69.25.78.31.87.36-.03.07-.12.1-.23.09-.28.4-.67.91-1.06,1.35h1.79v2.44h-.73v-1.77h-7.93Z"/>
        <path class="cls-5" d="M143.28,184.51h-4.28c-.6.44-1.23.85-1.88,1.22h4.61v4.65h-.74v-.33h-4.54v.37h-.72v-3.96c-.7.35-1.44.67-2.18.96-.1-.15-.29-.43-.44-.57,1.63-.59,3.22-1.39,4.69-2.34h-4.52v-.65h3.93v-1.49h-2.89v-.65h2.89v-1.53l.95.07c-.01.08-.08.13-.22.15v1.31h2.86v.37c.47-.46.9-.96,1.29-1.46l.78.45s-.1.07-.19.07c-.03,0-.07,0-.11-.01-.78.99-1.69,1.89-2.71,2.72h3.42v.65ZM140.99,187.56v-1.18h-4.54v1.18h4.54ZM136.45,189.41h4.54v-1.24h-4.54v1.24ZM137.93,183.86h.8c.63-.46,1.23-.96,1.78-1.49h-2.58v1.49Z"/>
      </g>
      <g>
        <path class="cls-5" d="M345.6,181.85h7l.07-.03.75.57s-.07.08-.13.1c-.89,4.14-2.81,6.29-6.17,7.57-.12-.2-.34-.48-.5-.65,3.2-1.18,5.05-3.22,5.76-6.8h-6.78v-.76ZM353.98,179.88c.66,0,1.2.54,1.2,1.21s-.54,1.2-1.2,1.2-1.21-.54-1.21-1.2c0-.69.56-1.21,1.21-1.21ZM354.82,181.09c0-.47-.37-.85-.84-.85s-.85.37-.85.85.38.85.85.85.84-.41.84-.85Z"/>
        <path class="cls-5" d="M364.51,182.03v7.26h-.79v-.69h-6.06v.71h-.77v-7.28h7.62ZM363.72,187.86v-5.09h-6.06v5.09h6.06Z"/>
        <path class="cls-5" d="M375.49,182.71c-.04.07-.1.12-.17.17-1.17,3.64-2.97,5.84-5.95,7.36-.12-.19-.34-.44-.56-.61,2.83-1.38,4.6-3.49,5.53-6.48h-3.88c-.64.99-1.45,1.91-2.43,2.68-.14-.15-.41-.36-.62-.5,1.5-1.12,2.74-2.86,3.49-4.82l1.03.29c-.03.11-.17.15-.31.14-.22.5-.47,1.02-.73,1.46h3.83l.13-.07.63.36ZM374.12,180.18c.52.42,1.12,1.09,1.44,1.56l-.41.35c-.33-.51-.92-1.16-1.42-1.56l.38-.35ZM375.72,179.86c.52.42,1.12,1.08,1.44,1.56l-.41.34c-.33-.5-.9-1.13-1.42-1.55l.39-.35Z"/>
        <path class="cls-5" d="M386.82,184.1s-.08.09-.14.11c-.9,3.32-2.74,4.94-6.03,5.85-.1-.2-.31-.47-.46-.64,2.99-.75,4.85-2.29,5.54-4.84h-7.28v-.75h7.61l.11-.07.65.33ZM385.78,181.74h-6.27v-.73h6.27v.73Z"/>
        <path class="cls-5" d="M390.13,187.57c2.42.27,5.25.9,6.98,1.58l-.33.77c-1.56-.65-4.49-1.34-6.91-1.63l.26-.73ZM391.01,184.21c1.75.18,3.95.59,5.31,1.01l-.25.77c-1.29-.44-3.51-.86-5.29-1.03l.23-.75ZM391.05,180.81c1.87.2,4.27.64,5.79,1.18l-.32.77c-1.52-.57-3.85-1-5.72-1.21l.25-.74Z"/>
        <path class="cls-5" d="M400.91,181.41c1.14.36,2.46.93,3.28,1.5l-.42.69c-.79-.56-2.09-1.14-3.21-1.53l.35-.66ZM400.86,189.04c3.91-1.21,6.5-3.4,7.82-6.45.23.19.48.33.71.45-1.38,3.01-4.06,5.36-7.79,6.6-.01.1-.08.21-.15.25l-.59-.86Z"/>
        <path class="cls-5" d="M419.49,182.71c-.04.07-.1.12-.17.17-1.17,3.64-2.97,5.84-5.95,7.36-.12-.19-.34-.44-.56-.61,2.83-1.38,4.6-3.49,5.53-6.48h-3.88c-.64.99-1.45,1.91-2.43,2.68-.14-.15-.41-.36-.62-.5,1.5-1.12,2.74-2.86,3.49-4.82l1.03.29c-.03.11-.17.15-.31.14-.22.5-.47,1.02-.73,1.46h3.83l.13-.07.63.36ZM418.12,180.18c.52.42,1.12,1.09,1.44,1.56l-.41.35c-.33-.51-.92-1.16-1.42-1.56l.38-.35ZM419.72,179.86c.52.42,1.12,1.08,1.44,1.56l-.41.34c-.33-.5-.9-1.13-1.42-1.55l.39-.35Z"/>
        <path class="cls-5" d="M424.73,183.77c.51.7,1.03,1.66,1.22,2.28l-.59.29c-.05-.2-.14-.42-.25-.66-.34.02-.69.03-1.02.05v4.71h-.66v-4.68c-.62.03-1.17.05-1.61.07-.01.09-.08.12-.15.14l-.2-.83h.77c.24-.3.5-.64.76-1.01-.34-.51-.91-1.16-1.42-1.63l.38-.47c.11.1.23.21.35.33.37-.64.8-1.52,1.04-2.15l.78.33c-.03.07-.11.1-.23.1-.29.62-.77,1.52-1.19,2.13.25.26.48.54.66.78.47-.72.91-1.46,1.23-2.09l.77.36c-.03.05-.12.1-.24.1-.56.94-1.44,2.24-2.21,3.2l1.9-.03c-.2-.37-.42-.76-.65-1.09l.55-.24ZM423,186.76c-.03.07-.1.11-.22.11-.15.93-.41,1.99-.74,2.64-.15-.1-.4-.21-.55-.29.32-.62.55-1.67.69-2.67l.81.21ZM425.27,188.89c-.1-.59-.41-1.51-.73-2.19l.57-.19c.33.69.65,1.58.76,2.17l-.61.21ZM429.05,187.5v1.92h2.78v.68h-6.28v-.68h2.77v-1.92h-2.16v-.68h2.16v-1.66l.95.05c-.01.08-.07.13-.22.15v1.45h2.26v.68h-2.26ZM430.83,180.76l.52.24s-.07.09-.11.11c-.43,1.18-1.12,2.12-1.99,2.87.76.53,1.67.91,2.7,1.13-.15.15-.36.44-.46.64-1.08-.28-2.01-.72-2.81-1.31-.78.55-1.66.98-2.58,1.3-.09-.19-.29-.45-.43-.59.87-.26,1.72-.66,2.45-1.18-.68-.65-1.22-1.43-1.6-2.34l.5-.15h-1.18v-.68h4.86l.13-.03ZM427.18,181.48c.34.79.85,1.49,1.5,2.06.67-.56,1.22-1.25,1.6-2.06h-3.09Z"/>
        <path class="cls-5" d="M433.51,187.19c-.06.98-.17,2.05-.61,2.64l-.44-.25c.4-.55.53-1.54.57-2.49l.47.1ZM436.84,185.73l.36.03c-.01.07-.02.15-.02.23-.13,2.84-.25,3.82-.53,4.15-.19.23-.35.29-.97.29-.19,0-.41,0-.62-.02-.02-.19-.08-.44-.17-.61.4.03.75.04.9.04.43,0,.5-.44.59-1.58l-.37.15c-.1-.41-.37-1.01-.64-1.47l.37-.13c.26.43.52,1.01.64,1.4h.01c.03-.47.08-1.08.11-1.85h-2.75v.29h-.64v-5.97h3.95v.64h-1.54v1.06h1.3v.6h-1.3v1.07h1.3v.61h-1.3v1.1h1.3ZM434.92,181.31h-1.16v1.06h1.16v-1.06ZM434.92,184.04v-1.07h-1.16v1.07h1.16ZM433.77,184.65v1.1h1.16v-1.1h-1.16ZM433.99,189.3c.02-.56-.04-1.4-.17-2.06l.42-.04c.12.65.2,1.5.19,2.04l-.44.07ZM435.01,187.04c.23.57.42,1.32.47,1.79l-.42.1c-.05-.48-.23-1.23-.44-1.8l.39-.09ZM440.45,180.27c-.01.07-.07.12-.14.13.6,1,1.72,2.08,2.71,2.64-.15.18-.31.45-.42.65-.99-.65-2.09-1.75-2.7-2.77-.53.98-1.54,2.13-2.65,2.84-.08-.18-.24-.43-.37-.58,1.1-.67,2.18-1.87,2.67-2.94l.9.03ZM442.38,187.3h-1.79c.43,1.18,1.23,2.12,2.37,2.56-.17.14-.39.41-.5.59-1.12-.54-1.94-1.54-2.41-2.83-.31,1.07-1.02,2.06-2.6,2.83-.09-.15-.31-.4-.46-.53,1.53-.71,2.17-1.65,2.44-2.63h-1.84v-2.76h2.01v-.84h-1.38v-.63h3.48v.63h-1.43v.84h2.1v2.76ZM438.22,186.69h1.33c.04-.34.06-.68.06-1.02v-.53h-1.39v1.55ZM441.73,185.14h-1.45v.54c0,.34-.01.68-.04,1.01h1.5v-1.55Z"/>
        <path class="cls-5" d="M453.71,184.51h-4.28c-.6.44-1.23.85-1.88,1.22h4.61v4.65h-.74v-.33h-4.54v.37h-.72v-3.96c-.7.35-1.44.67-2.18.96-.1-.15-.29-.43-.44-.57,1.63-.59,3.22-1.39,4.69-2.34h-4.52v-.65h3.93v-1.49h-2.89v-.65h2.89v-1.53l.95.07c-.01.08-.08.13-.22.15v1.31h2.86v.37c.47-.46.9-.96,1.29-1.46l.78.45s-.1.07-.19.07c-.03,0-.07,0-.11-.01-.78.99-1.69,1.89-2.71,2.72h3.42v.65ZM451.42,187.56v-1.18h-4.54v1.18h4.54ZM446.88,189.41h4.54v-1.24h-4.54v1.24ZM448.36,183.86h.8c.63-.46,1.23-.96,1.78-1.49h-2.58v1.49Z"/>
        <path class="cls-5" d="M461.39,182.62c-.93.33-2.18.54-3.38.63-.46,2.52-1.13,5.03-2.01,6.88l-.79-.3c.9-1.77,1.56-4.05,1.99-6.55-.22.01-1.69.02-2.02.01v-.75c.17.01.4.01.65.01.1,0,1.2,0,1.49-.01.11-.7.22-1.47.29-2.15l1.13.11c-.01.12-.17.21-.32.22-.07.48-.18,1.08-.27,1.75,1.08-.1,2.17-.29,3.08-.62l.18.76ZM464.32,189.89c-.43.03-.89.05-1.34.05-.89,0-1.76-.08-2.29-.22-.78-.22-1.23-.79-1.22-1.52.01-.48.22-1.03.68-1.6l.66.29c-.39.45-.57.88-.57,1.22,0,.87.84,1.07,2.63,1.07.48,0,.99-.02,1.43-.07l.02.77ZM460.02,184.65c1.13-.36,2.7-.59,3.99-.56v.75c-1.24-.03-2.68.14-3.81.5l-.19-.68ZM461.96,180.83c.54.4,1.19,1.03,1.53,1.5l-.41.35c-.32-.47-1.01-1.16-1.49-1.51l.36-.34ZM463.38,180.1c.54.4,1.19,1.01,1.52,1.49l-.41.35c-.31-.43-.96-1.1-1.47-1.5l.36-.34Z"/>
        <path class="cls-5" d="M469.86,180.74c-.02.13-.15.19-.36.2-.12.62-.32,1.68-.45,2.34.5-.05.95-.1,1.22-.1,1.67-.02,2.24,1.09,2.24,2.74,0,.83-.15,1.8-.37,2.46-.34,1.12-1.04,1.66-1.96,1.66-.45,0-1.04-.19-1.99-.96.12-.2.21-.44.3-.67.88.68,1.34.84,1.68.84.63,0,1-.4,1.22-1.1.23-.68.35-1.69.35-2.26-.01-1.25-.42-2-1.52-1.99-.33,0-.78.04-1.34.11-.55,2.24-1.2,4.17-2.26,5.94l-.73-.35c1.07-1.71,1.67-3.41,2.19-5.5-.56.07-1.36.17-1.96.26l-.07-.77c.54-.07,1.44-.17,2.18-.25.17-.8.34-1.79.47-2.76l1.14.15ZM472.41,180.4c.53.41,1.16,1.07,1.47,1.54l-.43.31c-.31-.47-.97-1.17-1.45-1.53l.41-.32ZM474.87,186.8c-.36-1.58-1.23-2.92-2.24-3.75l.64-.43c1.09.91,2.04,2.29,2.4,3.88l-.79.3ZM474.07,179.97c.54.4,1.17,1.06,1.49,1.53l-.43.32c-.31-.47-.97-1.18-1.45-1.54l.4-.31Z"/>
        <path class="cls-5" d="M393,195.74h-3.4c-.04.08-.15.1-.28.09-.24.46-.53.92-.84,1.38l.31.09c-.02.07-.09.13-.23.14v7.01h-.76v-6.33c-1.13,1.41-2.58,2.73-4.2,3.67-.11-.18-.34-.46-.5-.62,2.28-1.25,4.26-3.37,5.38-5.43h-5.08v-.74h9.59v.74ZM392.7,201.66c-.8-.8-2.49-2.01-3.82-2.84l.53-.51c1.32.77,3.01,1.95,3.85,2.74l-.56.61Z"/>
        <path class="cls-5" d="M404.2,199.37h-2s-.1.03-.17.04c-.35,1.21-.92,2.15-1.71,2.87,1.31.5,2.51,1.04,3.33,1.52l-.52.64c-.83-.52-2.08-1.1-3.46-1.64-1.18.84-2.74,1.33-4.65,1.63-.08-.18-.27-.47-.43-.64,1.73-.23,3.16-.63,4.26-1.3-.75-.28-1.52-.54-2.25-.75-.09.17-.17.33-.24.47l-.76-.2c.39-.69.84-1.66,1.29-2.65h-2.68v-.71h3c.31-.7.61-1.4.85-2l.95.19c-.03.09-.1.12-.24.12-.21.51-.46,1.09-.73,1.69h6.15v.71ZM395.33,196.27v1.67h-.75v-2.38h4.21v-1.36l.99.07c-.01.08-.07.13-.22.15v1.14h4.26v2.38h-.77v-1.67h-7.72ZM397.73,199.37c-.27.62-.56,1.23-.83,1.79.84.22,1.75.52,2.65.84.78-.65,1.34-1.51,1.67-2.63h-3.5Z"/>
        <path class="cls-5" d="M409.36,194.74c-.02.13-.15.19-.36.2-.12.62-.32,1.68-.45,2.34.5-.05.95-.1,1.22-.1,1.67-.02,2.24,1.09,2.24,2.74,0,.83-.15,1.8-.37,2.46-.34,1.12-1.04,1.66-1.96,1.66-.45,0-1.04-.19-1.99-.96.12-.2.21-.44.3-.67.88.68,1.34.84,1.68.84.63,0,1-.4,1.22-1.1.23-.68.35-1.69.35-2.26-.01-1.25-.42-2-1.52-1.99-.33,0-.78.04-1.34.11-.55,2.24-1.2,4.17-2.26,5.94l-.73-.35c1.07-1.71,1.67-3.41,2.19-5.5-.56.07-1.36.17-1.96.26l-.07-.77c.54-.07,1.44-.17,2.18-.25.17-.8.34-1.79.47-2.76l1.14.15ZM411.91,194.4c.53.41,1.16,1.07,1.47,1.54l-.43.31c-.31-.47-.97-1.17-1.45-1.53l.41-.32ZM414.37,200.8c-.36-1.58-1.23-2.92-2.24-3.75l.64-.43c1.09.91,2.04,2.29,2.4,3.88l-.79.3ZM413.57,193.97c.54.4,1.17,1.06,1.49,1.53l-.43.32c-.31-.47-.97-1.18-1.45-1.54l.4-.31Z"/>
        <path class="cls-5" d="M423.18,197.82c-.03.14-.07.29-.11.42,1.94.34,2.65,1.55,2.65,2.85,0,1.75-1.5,2.81-4.25,3.11-.04-.15-.2-.48-.3-.66,2.28-.22,3.74-1.01,3.74-2.43v-.08c-.06-1.28-.91-1.9-2.09-2.1-.47,1.24-1.28,2.4-2.19,3.23.08.23.18.43.29.59l-.65.41c-.1-.15-.19-.34-.26-.55-.88.65-1.58.83-2.08.83-.88,0-1.33-.65-1.33-1.46,0-1.52,1.25-2.73,2.85-3.37-.02-.57-.02-1.2-.01-1.85-1.86,0-2.06,0-2.42-.02l-.02-.73c.56.03,1.52.03,2.46.03.01-.51.03-1.12.05-1.64l1.1.08c-.01.11-.12.2-.29.22-.03.41-.06.91-.09,1.32,1.2-.03,3.3-.18,4.41-.46l.1.75c-1.17.29-3.29.4-4.54.43-.02.57-.03,1.12-.02,1.64.77-.24,1.46-.25,1.65-.25.17,0,.31,0,.45.01.04-.18.08-.34.11-.52l.78.2ZM419.81,201.92c-.18-.68-.28-1.55-.32-2.57-1.2.53-2.13,1.44-2.13,2.51,0,.65.36.87.76.85.52-.01,1.11-.31,1.69-.78ZM422.06,198.83c-.18-.01-1.03-.03-1.86.26.02.89.1,1.65.25,2.27.66-.67,1.25-1.56,1.61-2.53Z"/>
        <path class="cls-5" d="M430.84,199.04c.73-.37,1.86-.64,2.73-.64,1.75,0,2.85,1.02,2.85,2.64,0,1.99-1.75,3.09-3.96,3.09-1.43,0-2.41-.57-2.41-1.54,0-.81.8-1.47,1.8-1.47,1.24,0,2.08.99,2.24,1.99.88-.33,1.52-1.03,1.52-2.06,0-1.19-.88-1.95-2.27-1.95-1.65,0-3.27.74-3.99,1.44-.33.31-.76.77-1.06,1.11l-.56-.56c.99-1.03,4.14-4.04,5.63-5.43-.64.09-2.84.18-4.09.22-.03.08-.14.14-.23.17l-.09-.93c1.49-.01,4.32-.12,5.13-.24l.17-.08.58.71c-.05.04-.15.09-.26.1-.78.64-2.87,2.6-3.73,3.42h0ZM432.36,203.44c.33,0,.71-.04,1-.11-.12-.85-.75-1.56-1.56-1.56-.57,0-1.08.31-1.08.81,0,.67.91.86,1.64.86Z"/>
      </g>
      <g>
        <path class="cls-5" d="M205.85,181.22c.48-.09,1.12-.17,1.9-.17,2.71,0,2.93,1.74,2.93,2.4,0,1.97-1.57,2.67-3.06,2.67-.32,0-.6-.01-.86-.08v3.44h-.91v-8.27ZM206.77,185.3c.23.07.53.09.88.09,1.32,0,2.12-.66,2.12-1.86s-.86-1.73-2-1.73c-.46,0-.8.04-1,.09v3.41Z"/>
        <path class="cls-5" d="M214.83,184.27c-.1-.01-.2-.02-.33-.02-.99,0-1.5.98-1.5,1.99v3.26h-.91v-4.2c0-.64-.01-1.22-.04-1.79h.8l.04,1.16h.03c.26-.75.89-1.29,1.63-1.29.1,0,.18.02.28.03v.87Z"/>
        <path class="cls-5" d="M220.99,186.45c0,2.23-1.47,3.18-2.81,3.18-1.54,0-2.73-1.16-2.73-3.09,0-2.05,1.28-3.18,2.81-3.18,1.64,0,2.73,1.25,2.73,3.09ZM218.23,184.07c-1.3,0-1.84,1.28-1.84,2.43,0,1.33.74,2.41,1.82,2.41s1.85-1.08,1.85-2.43c0-1.07-.52-2.41-1.83-2.41Z"/>
        <path class="cls-5" d="M226.42,189.28c-.26.13-.86.34-1.63.34-1.72,0-2.85-1.22-2.85-3.06s1.22-3.2,3.07-3.2c.67,0,1.21.2,1.44.32l-.23.74c-.25-.14-.65-.31-1.23-.31-1.39,0-2.11,1.11-2.11,2.4,0,1.45.87,2.37,2.08,2.37.59,0,1-.17,1.3-.3l.17.7Z"/>
        <path class="cls-5" d="M231.94,189.24c-.34.17-.97.37-1.88.37-1.75,0-2.79-1.23-2.79-3.03,0-1.88,1.06-3.23,2.67-3.23,1.85,0,2.32,1.69,2.32,2.74,0,.21-.01.36-.02.51h-4.08c.01,1.66.96,2.29,2.04,2.29.75,0,1.2-.15,1.57-.31l.18.66ZM231.36,185.92c.01-.81-.33-1.87-1.51-1.87-1.1,0-1.58,1.04-1.67,1.87h3.18Z"/>
        <path class="cls-5" d="M236.43,184.41c-.22-.14-.63-.35-1.17-.35-.66,0-1.01.41-1.01.89,0,.52.34.76,1.11,1.09.97.4,1.53.9,1.53,1.8,0,1.07-.81,1.77-2.12,1.77-.59,0-1.17-.17-1.57-.41l.25-.7c.32.19.84.41,1.35.41.8,0,1.2-.43,1.2-.97s-.32-.87-1.11-1.19c-1.01-.41-1.53-.97-1.53-1.69,0-.94.75-1.71,1.96-1.71.57,0,1.06.17,1.38.36l-.26.69Z"/>
        <path class="cls-5" d="M241.1,184.41c-.22-.14-.63-.35-1.17-.35-.66,0-1.01.41-1.01.89,0,.52.34.76,1.11,1.09.97.4,1.53.9,1.53,1.8,0,1.07-.81,1.77-2.12,1.77-.59,0-1.17-.17-1.57-.41l.25-.7c.32.19.84.41,1.35.41.8,0,1.2-.43,1.2-.97s-.32-.87-1.11-1.19c-1.01-.41-1.53-.97-1.53-1.69,0-.94.75-1.71,1.96-1.71.57,0,1.06.17,1.38.36l-.26.69Z"/>
        <path class="cls-5" d="M243.41,182.45c-.35,0-.59-.28-.59-.63s.25-.62.61-.62.59.27.59.62c0,.38-.25.63-.6.63ZM243.87,189.5h-.91v-6h.91v6Z"/>
        <path class="cls-5" d="M250.48,189.5h-.91v-3.54c0-.98-.35-1.84-1.4-1.84-.78,0-1.57.66-1.57,1.71v3.67h-.91v-4.46c0-.62-.02-1.07-.04-1.55h.81l.06.98h.02c.3-.58.99-1.11,1.93-1.11.75,0,2.02.45,2.02,2.49v3.65Z"/>
        <path class="cls-5" d="M257.12,183.49c-.03.43-.05.91-.05,1.65v3.5c0,1.05-.02,3.44-2.86,3.44-.68,0-1.43-.17-1.88-.47l.24-.71c.39.23.97.45,1.68.45,1.1,0,1.9-.58,1.9-2.17v-.71h-.02c-.31.56-.95,1.02-1.86,1.02-1.43,0-2.45-1.27-2.45-2.95,0-2.08,1.3-3.18,2.6-3.18,1.02,0,1.56.55,1.82,1.03h.02l.04-.9h.82ZM256.14,185.8c0-1.04-.76-1.71-1.6-1.71-1.06,0-1.79.93-1.79,2.39,0,1.28.62,2.28,1.78,2.28.68,0,1.61-.52,1.61-1.76v-1.2Z"/>
        <path class="cls-5" d="M265.67,184.84s-.13.07-.22.05c-.22.29-.58.7-.89,1.01.37.4.74.78.87.94l-.45.55c-.25-.35-.86-1.09-1.32-1.61v4.64h-.74v-4.26c-.51.56-1.03,1.06-1.55,1.45-.08-.18-.29-.51-.42-.64,1.26-.88,2.63-2.45,3.37-4.04h-3.05v-.68h1.65v-2.06l.95.05c-.01.08-.07.13-.21.15v1.85h1.06l.13-.03.51.3c-.02.05-.09.1-.15.11-.34.85-.85,1.69-1.42,2.47.12.11.27.26.44.44.29-.36.65-.86.85-1.2l.61.48ZM270.71,181.26l.41.03c-.01.05-.01.18-.02.26-.12,5.85-.24,7.73-.67,8.28-.26.37-.54.48-1.38.48-.32,0-.69-.01-1.04-.03-.02-.22-.11-.54-.24-.76.7.05,1.31.05,1.58.05.18,0,.29-.04.39-.19.35-.4.49-2.27.62-7.43h-2.38c-.1,2.99-.29,6.6-2.94,8.47-.13-.18-.37-.42-.57-.55,2.49-1.65,2.7-4.98,2.75-7.92h-1.96v-.7h5.46Z"/>
        <path class="cls-5" d="M282.16,186.7v.69h-4.57v2.13c0,.92-.53.93-2.56.93-.05-.21-.2-.52-.32-.73.56.02,1.06.03,1.41.03.64,0,.72,0,.72-.24v-2.13h-4.51v-.69h4.51v-.96l.52.03c.56-.29,1.14-.67,1.6-1.04h-4.79v-.66h5.57l.13-.04.57.36c-.03.05-.1.09-.17.1-.65.62-1.69,1.33-2.67,1.82v.4h4.57ZM273.3,182.75v1.77h-.7v-2.44h1.72c-.21-.43-.62-1.01-.98-1.44l.62-.3c.44.48.91,1.13,1.11,1.57l-.32.17h2.33c-.17-.5-.53-1.18-.87-1.68l.64-.24c.4.55.79,1.29.93,1.76l-.38.17h1.93c.43-.51.97-1.28,1.26-1.8.69.25.78.31.87.36-.03.07-.12.1-.23.09-.27.4-.67.91-1.06,1.35h1.79v2.44h-.73v-1.77h-7.93Z"/>
        <path class="cls-5" d="M293.22,184.51h-4.28c-.6.44-1.23.85-1.88,1.22h4.61v4.65h-.74v-.33h-4.54v.37h-.72v-3.96c-.7.35-1.44.67-2.18.96-.1-.15-.29-.43-.44-.57,1.63-.59,3.22-1.39,4.69-2.34h-4.52v-.65h3.93v-1.49h-2.89v-.65h2.89v-1.53l.95.07c-.01.08-.08.13-.22.15v1.31h2.86v.37c.47-.46.9-.96,1.29-1.46l.78.45s-.1.07-.19.07c-.03,0-.07,0-.11-.01-.78.99-1.69,1.89-2.71,2.72h3.42v.65ZM290.94,187.56v-1.18h-4.54v1.18h4.54ZM286.39,189.41h4.54v-1.24h-4.54v1.24ZM287.88,183.86h.8c.63-.46,1.23-.96,1.78-1.49h-2.58v1.49Z"/>
      </g>
      <g>
        <ellipse class="cls-4" cx="62.01" cy="28.41" rx="61.51" ry="27.91"/>
        <text class="cls-6" transform="translate(6.5 34.15)"><tspan x="0" y="0">プログラミング？？？</tspan></text>
      </g>
      <g>
        <polygon class="cls-2" points="66.96 128.98 69.24 155.93 55.27 145.31 52.98 118.36 66.96 128.98"/>
        <polygon class="cls-1" points="66.96 128.98 69.24 155.93 81.22 143.11 78.94 116.16 66.96 128.98"/>
      </g>
      <g>
        <polygon class="cls-2" points="230.78 128.98 233.07 155.93 219.09 145.31 216.81 118.36 230.78 128.98"/>
        <polygon class="cls-1" points="230.78 128.98 233.07 155.93 245.05 143.11 242.77 116.16 230.78 128.98"/>
      </g>
    </g>
  </g>
</svg>