<?xml version="1.0" encoding="UTF-8"?>
<svg id="_レイヤー_2" data-name="レイヤー 2" xmlns="http://www.w3.org/2000/svg" viewBox="0 0 212.05 258.86">
  <defs>
    <style>
      .cls-1 {
        fill: #231815;
      }

      .cls-2 {
        stroke: #231815;
        stroke-miterlimit: 10;
      }

      .cls-2, .cls-3 {
        fill: #fff;
      }

      .cls-4 {
        fill: #c9caca;
      }
    </style>
  </defs>
  <g id="_レイヤー_1-2" data-name="レイヤー 1">
    <g>
      <rect class="cls-1" y="15.71" width="212.05" height="84.4" rx="13.17" ry="13.17"/>
      <rect class="cls-4" x=".14" y="131.59" width="211.76" height="102.12" rx="13.17" ry="13.17"/>
      <g>
        <path class="cls-1" d="M79.92,1.99h7l.07-.03.75.57s-.07.08-.13.1c-.89,4.14-2.81,6.29-6.17,7.57-.12-.2-.34-.48-.5-.65,3.2-1.18,5.05-3.22,5.76-6.8h-6.78v-.76ZM88.3.02c.66,0,1.2.54,1.2,1.21s-.54,1.2-1.2,1.2-1.21-.54-1.21-1.2c0-.69.56-1.21,1.21-1.21ZM89.14,1.23c0-.47-.37-.85-.84-.85s-.85.37-.85.85.38.85.85.85.84-.41.84-.85Z"/>
        <path class="cls-1" d="M98.83,2.17v7.26h-.79v-.69h-6.06v.71h-.77V2.17h7.62ZM98.04,8V2.9h-6.06v5.09h6.06Z"/>
        <path class="cls-1" d="M109.81,2.85c-.04.07-.1.12-.17.17-1.17,3.64-2.97,5.84-5.95,7.36-.12-.19-.34-.44-.56-.61,2.83-1.38,4.6-3.49,5.53-6.48h-3.88c-.64.99-1.45,1.91-2.43,2.68-.14-.15-.41-.36-.62-.5,1.5-1.12,2.74-2.86,3.49-4.82l1.03.29c-.03.11-.17.15-.31.14-.22.5-.47,1.02-.73,1.46h3.83l.13-.07.63.36ZM108.44.32c.52.42,1.12,1.09,1.44,1.56l-.41.35c-.33-.51-.92-1.16-1.42-1.56l.38-.35ZM110.04,0c.52.42,1.12,1.08,1.44,1.56l-.41.34c-.33-.5-.9-1.13-1.42-1.55l.39-.35Z"/>
        <path class="cls-1" d="M121.14,4.24s-.08.09-.14.11c-.9,3.32-2.74,4.94-6.03,5.85-.1-.2-.31-.47-.46-.64,2.99-.75,4.85-2.29,5.54-4.84h-7.28v-.75h7.61l.11-.07.65.33ZM120.1,1.88h-6.27v-.73h6.27v.73Z"/>
        <path class="cls-1" d="M132.09,9.96c-.17-.37-.36-.77-.58-1.17-2.29.24-6.05.47-7.73.56-.03.11-.11.2-.21.22l-.3-.99c.33-.01.73-.02,1.16-.04.73-2.11,1.77-5.4,2.38-7.6l1.07.29c-.04.1-.15.15-.32.15-.6,2.02-1.55,4.97-2.31,7.13,1.83-.08,4.43-.26,5.89-.4-.57-.95-1.3-1.95-1.96-2.68l.66-.37c1.16,1.27,2.48,3.36,3.04,4.55l-.77.35Z"/>
      </g>
      <g>
        <path class="cls-1" d="M35.92,250.25h7l.07-.03.75.57s-.07.08-.13.1c-.89,4.14-2.81,6.29-6.17,7.57-.12-.2-.34-.48-.5-.65,3.2-1.18,5.05-3.22,5.76-6.8h-6.78v-.76ZM44.3,248.28c.66,0,1.2.54,1.2,1.21s-.54,1.2-1.2,1.2-1.21-.54-1.21-1.2c0-.69.56-1.21,1.21-1.21ZM45.14,249.49c0-.47-.37-.85-.84-.85s-.85.37-.85.85.38.85.85.85.84-.41.84-.85Z"/>
        <path class="cls-1" d="M54.83,250.43v7.26h-.79v-.69h-6.06v.71h-.77v-7.28h7.62ZM54.04,256.26v-5.09h-6.06v5.09h6.06Z"/>
        <path class="cls-1" d="M65.81,251.11c-.04.07-.1.12-.17.17-1.17,3.64-2.97,5.84-5.95,7.36-.12-.19-.34-.44-.56-.61,2.83-1.38,4.6-3.49,5.53-6.48h-3.88c-.64.99-1.45,1.91-2.43,2.68-.14-.15-.41-.36-.62-.5,1.5-1.12,2.74-2.86,3.49-4.82l1.03.29c-.03.11-.17.15-.31.14-.22.5-.47,1.02-.73,1.46h3.83l.13-.07.63.36ZM64.44,248.58c.52.42,1.12,1.09,1.44,1.56l-.41.35c-.33-.51-.92-1.16-1.42-1.56l.38-.35ZM66.04,248.26c.52.42,1.12,1.08,1.44,1.56l-.41.34c-.33-.5-.9-1.13-1.42-1.55l.39-.35Z"/>
        <path class="cls-1" d="M77.14,252.49s-.08.09-.14.11c-.9,3.32-2.74,4.94-6.03,5.85-.1-.2-.31-.47-.46-.64,2.99-.75,4.85-2.29,5.54-4.84h-7.28v-.75h7.61l.11-.07.65.33ZM76.1,250.14h-6.27v-.73h6.27v.73Z"/>
        <path class="cls-1" d="M80.45,255.97c2.42.27,5.25.9,6.98,1.58l-.33.77c-1.56-.65-4.49-1.34-6.91-1.63l.26-.73ZM81.33,252.6c1.75.18,3.95.59,5.31,1.01l-.25.77c-1.29-.44-3.51-.86-5.29-1.03l.23-.75ZM81.37,249.2c1.87.2,4.27.64,5.79,1.18l-.32.77c-1.52-.57-3.85-1-5.72-1.21l.25-.74Z"/>
        <path class="cls-1" d="M91.23,249.81c1.14.36,2.46.93,3.28,1.5l-.42.69c-.79-.56-2.09-1.14-3.21-1.53l.35-.66ZM91.18,257.43c3.91-1.21,6.5-3.4,7.82-6.45.23.19.48.33.71.45-1.38,3.01-4.06,5.36-7.79,6.6-.01.1-.08.21-.15.25l-.59-.86Z"/>
        <path class="cls-1" d="M109.81,251.11c-.04.07-.1.12-.17.17-1.17,3.64-2.97,5.84-5.95,7.36-.12-.19-.34-.44-.56-.61,2.83-1.38,4.6-3.49,5.53-6.48h-3.88c-.64.99-1.45,1.91-2.43,2.68-.14-.15-.41-.36-.62-.5,1.5-1.12,2.74-2.86,3.49-4.82l1.03.29c-.03.11-.17.15-.31.14-.22.5-.47,1.02-.73,1.46h3.83l.13-.07.63.36ZM108.44,248.58c.52.42,1.12,1.09,1.44,1.56l-.41.35c-.33-.51-.92-1.16-1.42-1.56l.38-.35ZM110.04,248.26c.52.42,1.12,1.08,1.44,1.56l-.41.34c-.33-.5-.9-1.13-1.42-1.55l.39-.35Z"/>
        <path class="cls-1" d="M115.52,249.08c-.02.13-.12.21-.34.24-.09,1.28-.2,4.19-.2,5.82s.81,2.43,2.2,2.43,2.71-.67,3.96-2.09c.11.18.36.53.5.65-1.29,1.46-2.85,2.23-4.47,2.23-2,0-3.03-1.15-3.03-3.23,0-1.39.1-4.8.18-6.15l1.2.1Z"/>
        <path class="cls-1" d="M127.18,248.93c-.03.09-.14.18-.34.19-.08.48-.18,1.06-.28,1.49,1.08-.07,2.28-.25,3.24-.54l.12.75c-1.02.25-2.23.43-3.5.53-.53,2.11-1.25,3.83-2.33,5.41l-.74-.3c1-1.44,1.76-3.09,2.23-5.09h-2.19v-.71h1.31c.34,0,.69-.01,1.01-.01.13-.58.23-1.21.31-1.86l1.16.15ZM130.1,253.62c.01.89.08,1.5.14,2.25.7.28,1.62.75,2.34,1.28l-.4.7c-.6-.46-1.35-.89-1.95-1.16,0,1.1-.44,1.96-2.06,1.96-1.22,0-2.16-.55-2.15-1.58,0-1.1,1.16-1.63,2.17-1.63.4,0,.8.08,1.24.2-.04-.7-.1-1.42-.1-1.94l.75-.09ZM129.5,256.37c-.45-.18-.91-.25-1.31-.25-.66,0-1.44.26-1.45.95,0,.63.62.92,1.47.92.79,0,1.3-.38,1.3-1.11,0-.18,0-.34-.01-.51ZM132.51,252.48c-1.24.01-2.75.21-3.89.54l-.12-.69c1.25-.36,2.77-.59,3.97-.59l.04.75Z"/>
        <path class="cls-1" d="M138.18,249.14c-.02.13-.15.19-.36.2-.12.62-.32,1.68-.45,2.34.5-.05.95-.1,1.22-.1,1.67-.02,2.24,1.09,2.24,2.74,0,.83-.15,1.8-.37,2.46-.34,1.12-1.04,1.66-1.96,1.66-.45,0-1.04-.19-1.99-.96.12-.2.21-.44.3-.67.88.68,1.34.84,1.68.84.63,0,1-.4,1.22-1.1.23-.68.35-1.69.35-2.26-.01-1.25-.42-2-1.52-1.99-.33,0-.78.04-1.34.11-.55,2.24-1.2,4.17-2.26,5.94l-.73-.35c1.07-1.71,1.67-3.41,2.19-5.5-.56.07-1.36.17-1.96.26l-.07-.77c.54-.07,1.44-.17,2.18-.25.17-.8.34-1.79.47-2.76l1.14.15ZM140.73,248.8c.53.41,1.16,1.07,1.47,1.54l-.43.31c-.31-.47-.97-1.17-1.45-1.53l.41-.32ZM143.19,255.2c-.36-1.58-1.23-2.92-2.24-3.75l.64-.43c1.09.91,2.04,2.29,2.4,3.88l-.79.3ZM142.39,248.37c.54.4,1.17,1.06,1.49,1.53l-.43.32c-.31-.47-.97-1.18-1.45-1.54l.4-.31Z"/>
        <path class="cls-1" d="M147.91,250.98c-.04.11-.13.17-.29.19-.09,1.63-.3,3.01-.45,3.25h.01c1.08-.8,2.76-1.35,4.05-1.35,1.69,0,2.75.87,2.73,2.41-.03,2.02-1.71,2.93-5.96,3.1-.05-.21-.15-.52-.28-.73,3.84-.17,5.38-.79,5.41-2.37.01-1.06-.73-1.69-2.01-1.69-2.04,0-3.87,1.22-4.18,1.76l-.75-.36c.22-.21.61-2.18.63-4.33l1.09.13ZM148.1,248.84c1.5.18,3.19.52,4.27.97l-.27.76c-1.13-.48-2.77-.8-4.22-1l.23-.73Z"/>
        <path class="cls-1" d="M165.96,255.1v.69h-4.57v2.13c0,.92-.53.93-2.56.93-.05-.21-.2-.52-.32-.73.56.02,1.06.03,1.41.03.64,0,.72,0,.72-.24v-2.13h-4.51v-.69h4.51v-.96l.52.03c.56-.29,1.14-.67,1.6-1.04h-4.79v-.66h5.57l.13-.04.57.36c-.03.05-.1.09-.17.1-.65.62-1.69,1.33-2.67,1.82v.4h4.57ZM157.11,251.15v1.77h-.7v-2.44h1.72c-.21-.43-.62-1.01-.98-1.44l.62-.3c.44.48.91,1.13,1.11,1.57l-.32.17h2.33c-.17-.5-.53-1.18-.87-1.68l.64-.24c.4.55.79,1.29.93,1.76l-.38.17h1.93c.43-.51.97-1.28,1.26-1.8.69.25.78.31.87.36-.03.07-.12.1-.23.09-.28.4-.67.91-1.06,1.35h1.79v2.44h-.73v-1.77h-7.93Z"/>
        <path class="cls-1" d="M167.02,256.81c.65-.42,1.79-1.29,2.68-2.1l.38.59c-.73.67-1.77,1.53-2.35,1.98.01.12-.03.23-.12.3l-.59-.77ZM170.09,248.93c1.07.68,2.73,1.22,4.14,1.33l-.15.71c-.17-.02-.32-.03-.46-.03-.55,0-.98.2-1.66.83l-.65-.28c.3-.31.76-.67,1.11-.81-.78-.18-1.79-.55-2.72-1.14l.4-.6ZM171.53,252.46c-.19.32-.3.58-.3.84,0,.45.32.84,1.06,1.34.89.61,1.32,1.35,1.32,2.15,0,1.01-.78,1.68-1.79,1.68-.55,0-1.17-.23-2.12-.74.09-.18.15-.41.21-.64.92.48,1.47.65,1.84.65.69,0,1.07-.41,1.07-.98,0-.5-.36-1.16-1.16-1.71-.8-.55-1.19-1.08-1.19-1.69,0-.35.12-.73.37-1.16l.69.25ZM174.02,253.77c1.26.5,2.46,1.55,2.97,3.04l-.72.4c-.46-1.34-1.54-2.43-2.66-2.86l.41-.57ZM174.54,249.12c.59.46,1.18,1.07,1.49,1.56l-.42.33c-.32-.5-.87-1.12-1.45-1.57l.39-.32ZM175.9,248.41c.59.47,1.14,1.01,1.46,1.54l-.42.33c-.33-.53-.87-1.09-1.44-1.54l.4-.33Z"/>
      </g>
      <g>
        <path class="cls-1" d="M94.45,123.32h-4.1c.79,1.25,2.27,2.01,4.24,2.3-.15.17-.35.46-.45.66-2.18-.41-3.73-1.34-4.57-2.96h-.17c-.56,1.12-1.79,2.17-4.41,2.96-.09-.17-.3-.45-.45-.61,2.3-.65,3.44-1.47,4.02-2.35h-3.93v-.65h4.26c.12-.34.18-.68.21-1.01h-3.11v-.64h3.14v-.95h-3.43v-.63h3.43v-1.1l.96.07c-.01.08-.07.13-.21.15v.88h3.51v-1.4h-7.72v1.45h-.73v-2.11h4.19v-1.35l.98.07c-.01.08-.08.13-.22.14v1.14h4.26v2.11h-.7v.57h-3.56v.95h3.31v.64h-3.33c-.03.34-.08.67-.19,1.01h4.8v.65Z"/>
        <path class="cls-1" d="M98.8,116.42c-.02.05-.11.1-.24.08-.64.8-1.78,1.85-2.76,2.54-.09-.17-.3-.45-.43-.59.92-.6,2.01-1.58,2.57-2.39l.86.36ZM97.11,126.27v-4.84c-.42.46-.84.89-1.25,1.25-.1-.14-.33-.44-.47-.57,1.04-.87,2.25-2.31,3.01-3.69l.86.35c-.03.07-.12.11-.25.09-.33.55-.71,1.11-1.13,1.65l.2.07c-.02.07-.09.12-.22.14v5.54h-.74ZM105.62,119.95v.71h-1.75v4.65c0,.92-.35.95-2.58.95-.03-.21-.13-.51-.24-.73.48.01.93.02,1.28.02.72,0,.79,0,.79-.25v-4.64h-3.83v-.71h6.33ZM105.2,116.75v.7h-5.49v-.7h5.49Z"/>
        <path class="cls-1" d="M109.86,120.94c-.21-.37-.45-.76-.69-1.09l.56-.26c.52.69,1.07,1.63,1.28,2.23l-.59.29c-.05-.18-.14-.38-.25-.61l-1.2.07v4.71h-.67v-4.68c-.63.02-1.2.05-1.65.07-.01.09-.08.12-.15.14l-.2-.83h.81c.24-.29.51-.62.76-.97-.34-.5-.93-1.13-1.46-1.59l.37-.48c.11.09.22.19.33.3.38-.65.84-1.54,1.09-2.18l.8.34c-.04.07-.11.09-.23.09-.31.64-.81,1.54-1.23,2.16.29.29.54.57.72.83.5-.74.97-1.52,1.31-2.16l.78.37c-.04.05-.13.09-.25.09-.57.94-1.47,2.24-2.27,3.2l2.05-.03ZM107.82,122.6c-.02.07-.09.11-.21.11-.15.93-.41,1.99-.75,2.64-.14-.1-.38-.21-.55-.29.32-.62.56-1.67.7-2.67l.8.21ZM110.18,124.73c-.1-.59-.41-1.51-.73-2.19l.57-.19c.33.69.65,1.57.77,2.17l-.62.21ZM116.66,118.3h-2.71v1.85h2.38v.68h-5.46v-.68h2.33v-1.85h-2.56v-.68h2.56v-1.56l.97.05c-.01.09-.08.14-.22.15v1.35h2.71v.68ZM111.21,126.25v-4.18h4.81v4.15h-.71v-.44h-3.4v.47h-.69ZM115.3,122.75h-3.4v2.35h3.4v-2.35Z"/>
        <path class="cls-1" d="M127.41,122.66h-3.84c1.04,1.1,2.7,2.13,4.15,2.64-.17.15-.41.44-.53.64-1.47-.62-3.2-1.79-4.3-3.07v3.4h-.75v-3.33c-1.08,1.29-2.76,2.41-4.27,2.99-.12-.19-.35-.47-.52-.63,1.49-.51,3.11-1.52,4.13-2.64h-3.83v-.69h4.49v-.99h-3.41v-4.39h7.66v4.39h-3.5v.99h4.52v.69ZM119.46,117.24v1.22h2.68v-1.22h-2.68ZM119.46,120.33h2.68v-1.25h-2.68v1.25ZM125.64,118.46v-1.22h-2.75v1.22h2.75ZM125.64,120.33v-1.25h-2.75v1.25h2.75Z"/>
      </g>
      <g>
        <path class="cls-3" d="M16.92,35.51c-.26,0-.43-.03-.53-.09-.1-.06-.14-.17-.14-.33,0-.14.04-.24.12-.31.08-.07.2-.1.35-.1h1.64c.22,0,.37.03.45.09.07.06.11.17.11.32s-.05.26-.15.33c-.1.06-.28.09-.54.09h-.22l1.52,3.8,1.69-3.8h-.35c-.3,0-.5-.03-.61-.09-.11-.06-.16-.17-.16-.33s.04-.26.11-.32c.07-.06.22-.09.45-.09h1.81c.16,0,.27.03.35.1.08.07.12.17.12.31,0,.16-.05.26-.14.33-.1.06-.27.09-.53.09h-.11l-1.93,4.28c-.1.22-.19.36-.29.42s-.24.1-.42.1c-.17,0-.3-.03-.39-.09s-.19-.2-.28-.42l-1.93-4.28Z"/>
        <path class="cls-3" d="M29.88,37.4c0,.84-.29,1.52-.86,2.05s-1.31.8-2.22.8-1.64-.27-2.21-.8-.86-1.21-.86-2.05.29-1.52.86-2.05,1.31-.79,2.21-.79,1.65.27,2.22.8.86,1.21.86,2.04ZM26.81,39.42c.6,0,1.09-.19,1.48-.57.38-.38.58-.87.58-1.45s-.19-1.08-.58-1.46c-.39-.38-.88-.58-1.48-.58s-1.09.19-1.47.58c-.38.38-.58.87-.58,1.46s.19,1.08.57,1.46c.38.38.88.57,1.48.57Z"/>
        <path class="cls-3" d="M34.55,39.27h1.88c.15,0,.26.03.34.1s.11.17.11.31c0,.16-.03.27-.1.33s-.19.09-.38.09h-4.54c-.16,0-.27-.04-.35-.11s-.12-.18-.12-.32.04-.24.12-.3.21-.1.37-.1h1.79v-3.76h-1.15c-.16,0-.28-.04-.37-.11-.08-.07-.13-.18-.13-.31s.04-.24.12-.31c.08-.07.2-.1.35-.1h1.72c.11,0,.19.02.25.06s.09.1.09.18v4.35ZM33.47,33c0-.42.04-.69.11-.8s.24-.16.49-.16.4.05.48.14.12.31.12.65-.04.54-.11.62-.24.12-.49.12-.41-.04-.49-.11-.11-.23-.11-.46Z"/>
        <path class="cls-3" d="M42.97,40.1c-.08,0-.14-.02-.17-.06s-.05-.12-.05-.24v-.48c-.23.29-.53.52-.88.68s-.73.24-1.14.24c-.74,0-1.36-.26-1.85-.79s-.75-1.18-.75-1.96.27-1.48.8-2.02,1.19-.81,1.99-.81c.4,0,.76.07,1.08.21s.6.35.83.63v-2.24h-.31c-.34,0-.56-.03-.66-.09s-.15-.17-.15-.33c0-.14.04-.25.12-.32s.2-.11.35-.11h1.2c.12,0,.2.02.25.06s.08.1.08.18v6.6h.26c.19,0,.33.03.42.1s.13.17.13.31c0,.13-.04.24-.11.31s-.17.11-.3.11h-1.13ZM39.14,37.47c0,.54.17.98.52,1.32s.79.52,1.32.52.98-.18,1.33-.54.52-.81.52-1.36-.17-.99-.52-1.34-.79-.53-1.33-.53-1,.18-1.34.53-.51.82-.51,1.39Z"/>
        <path class="cls-3" d="M57.38,40.1c-.08,0-.14-.02-.17-.06s-.05-.12-.05-.24v-.48c-.23.29-.53.52-.88.68s-.73.24-1.14.24c-.74,0-1.36-.26-1.85-.79s-.75-1.18-.75-1.96.27-1.48.8-2.02,1.19-.81,1.99-.81c.4,0,.76.07,1.08.21s.6.35.83.63v-2.24h-.31c-.34,0-.56-.03-.66-.09s-.15-.17-.15-.33c0-.14.04-.25.12-.32s.2-.11.35-.11h1.2c.12,0,.2.02.25.06s.08.1.08.18v6.6h.26c.19,0,.33.03.42.1s.13.17.13.31c0,.13-.04.24-.11.31s-.17.11-.3.11h-1.13ZM53.54,37.47c0,.54.17.98.52,1.32s.79.52,1.32.52.98-.18,1.33-.54.52-.81.52-1.36-.17-.99-.52-1.34-.79-.53-1.33-.53-1,.18-1.34.53-.51.82-.51,1.39Z"/>
        <path class="cls-3" d="M62.24,39.27h1.95c.15,0,.26.03.34.1s.11.17.11.31c0,.16-.03.27-.1.33s-.19.09-.38.09h-3.83c-.15,0-.27-.04-.35-.11s-.12-.18-.12-.32.04-.24.12-.3.2-.1.37-.1h1.02v-3.76h-.4c-.38,0-.62-.03-.71-.09-.09-.06-.14-.17-.14-.33,0-.14.04-.24.11-.31.08-.07.19-.1.35-.1h1.34c.11,0,.19.02.24.06s.08.1.08.18v1c.37-.46.76-.81,1.16-1.04s.84-.34,1.3-.34c.35,0,.63.07.84.21s.32.32.32.54c0,.14-.05.27-.16.38s-.23.17-.35.17c-.09,0-.24-.06-.45-.18s-.4-.18-.57-.18c-.3,0-.63.11-.96.33-.34.22-.71.56-1.12,1.03v2.43Z"/>
        <path class="cls-3" d="M71.36,39.36c-.32.29-.67.51-1.05.66s-.76.23-1.16.23c-.58,0-1.05-.16-1.41-.49s-.54-.75-.54-1.27c0-.62.24-1.1.71-1.44s1.14-.51,2-.51c.23,0,.46.01.69.04s.47.08.71.14v-.04c0-.45-.11-.78-.32-1s-.55-.32-1-.32c-.3,0-.64.08-1.02.25s-.62.25-.74.25c-.11,0-.21-.05-.28-.14s-.11-.21-.11-.35c0-.23.22-.43.65-.59s.98-.24,1.66-.24,1.21.17,1.56.52.53.87.53,1.55v2.65h.29c.28,0,.46.03.56.09s.14.16.14.32c0,.14-.04.25-.12.32s-.2.11-.35.11h-.92c-.11,0-.2-.03-.27-.1s-.12-.16-.14-.29l-.05-.36ZM71.32,37.51c-.21-.07-.42-.12-.62-.16s-.4-.05-.6-.05c-.6,0-1.08.1-1.42.3s-.52.48-.52.82c0,.27.11.48.33.66s.49.26.83.26c.5,0,.96-.13,1.38-.39s.64-.53.64-.81v-.63Z"/>
        <path class="cls-3" d="M77.18,37.12l-.76,2.78c-.04.15-.1.25-.18.31s-.2.09-.35.09c-.14,0-.25-.04-.33-.11s-.15-.21-.21-.41l-1.34-4.28h-.05c-.16,0-.28-.03-.35-.1-.07-.06-.11-.17-.11-.32,0-.13.04-.23.11-.3.08-.07.19-.1.34-.1h1.56c.21,0,.35.03.43.09.07.06.11.17.11.32,0,.09-.02.17-.06.24-.04.07-.1.11-.16.12-.07.02-.14.03-.23.04s-.19.01-.32.01h-.34l1.01,3.52.76-2.55c.04-.15.1-.25.18-.31s.19-.09.35-.09c.14,0,.25.04.33.11s.15.21.21.4l.73,2.44.97-3.52h-.39c-.27,0-.45-.03-.54-.09-.09-.06-.14-.17-.14-.33s.04-.26.11-.32c.07-.06.21-.09.41-.09h1.57c.12,0,.21.04.27.1.06.07.09.17.09.3,0,.15-.04.25-.11.31-.07.06-.2.1-.4.1l-1.32,4.39c-.05.15-.11.25-.19.31s-.19.09-.34.09c-.14,0-.25-.04-.33-.11s-.15-.21-.21-.4l-.77-2.67Z"/>
        <path class="cls-3" d="M85.61,33.21c0,.08-.07.26-.2.53s-.23.49-.3.65c-.27.62-.45,1.19-.57,1.71s-.17,1.05-.17,1.61c0,.51.05,1.01.14,1.49s.24.96.43,1.43c.1.26.23.56.4.91s.25.57.25.65-.02.15-.06.2-.09.07-.15.07c-.12,0-.26-.06-.4-.19s-.32-.33-.52-.61c-.42-.6-.73-1.22-.94-1.88s-.31-1.35-.31-2.07c0-.66.08-1.29.25-1.89s.43-1.18.78-1.74c.23-.37.44-.65.63-.84s.36-.28.51-.28c.06,0,.11.02.15.07s.06.11.06.19Z"/>
        <path class="cls-3" d="M90.42,42.17c0-.08.07-.25.2-.52s.23-.48.3-.64c.26-.62.45-1.2.56-1.71s.17-1.05.17-1.6c0-.5-.05-.99-.14-1.47s-.24-.97-.44-1.45c-.1-.26-.24-.56-.4-.91s-.25-.57-.25-.65c0-.08.02-.14.06-.19s.09-.07.15-.07c.13,0,.27.06.41.19s.32.33.51.61c.42.59.73,1.22.94,1.88s.31,1.35.31,2.07c0,.66-.09,1.29-.26,1.89s-.43,1.18-.78,1.75c-.24.38-.45.66-.64.84s-.35.27-.5.27c-.06,0-.11-.03-.15-.08s-.06-.12-.06-.2Z"/>
        <path class="cls-3" d="M98.38,37.4c.39.12.66.32.82.59s.23.74.23,1.39v.87c0,.41.04.68.13.81s.24.23.47.29c.05.01.12.02.22.04.34.05.52.21.52.48,0,.13-.04.24-.13.31s-.22.11-.38.11c-.66,0-1.12-.16-1.39-.49s-.4-.95-.4-1.85v-.68c0-.46-.06-.78-.19-.97s-.45-.33-.95-.41c-.15-.02-.26-.07-.33-.14s-.1-.18-.1-.34c0-.12.03-.22.08-.29s.14-.12.26-.15c.06-.01.14-.03.25-.06.65-.14.97-.58.97-1.34v-.7c0-.9.14-1.52.41-1.85s.74-.5,1.4-.5c.16,0,.28.04.37.11s.13.18.13.31c0,.27-.17.43-.52.47-.07.01-.12.02-.16.02-.25.05-.42.14-.51.29s-.14.43-.14.85v.86c0,.65-.08,1.12-.23,1.39s-.43.47-.82.58Z"/>
        <path class="cls-3" d="M33.43,60.27h1.95c.15,0,.26.03.34.1s.11.17.11.31c0,.16-.03.27-.1.33s-.19.09-.38.09h-3.83c-.15,0-.27-.04-.35-.11s-.12-.18-.12-.32.04-.24.12-.3.2-.1.37-.1h1.02v-3.76h-.4c-.38,0-.62-.03-.71-.09-.09-.06-.14-.17-.14-.33,0-.14.04-.24.11-.31.08-.07.19-.1.35-.1h1.34c.11,0,.19.02.24.06s.08.1.08.18v1c.37-.46.76-.81,1.16-1.04s.84-.34,1.3-.34c.35,0,.63.07.84.21s.32.32.32.54c0,.14-.05.27-.16.38s-.23.17-.35.17c-.09,0-.24-.06-.45-.18s-.4-.18-.57-.18c-.3,0-.63.11-.96.33-.34.22-.71.56-1.12,1.03v2.43Z"/>
        <path class="cls-3" d="M39.23,58.65c.03.56.22,1,.57,1.31.35.31.83.46,1.43.46.46,0,.96-.12,1.49-.37s.87-.37.98-.37.21.04.29.11.12.17.12.28-.04.22-.12.31c-.08.09-.21.18-.39.27-.39.19-.79.34-1.21.44s-.83.15-1.24.15c-.89,0-1.6-.26-2.14-.77s-.8-1.19-.8-2.04.28-1.56.85-2.1,1.3-.8,2.21-.8c.82,0,1.51.25,2.05.75s.81,1.11.81,1.82c0,.22-.05.37-.14.44s-.34.11-.75.11h-4.03ZM39.26,57.88h3.81c-.06-.46-.25-.84-.58-1.12s-.74-.42-1.22-.42c-.52,0-.96.14-1.31.41s-.59.65-.7,1.14Z"/>
        <path class="cls-3" d="M50.18,56.04v-.02c0-.13.04-.22.11-.28s.19-.09.35-.09.27.05.33.14.09.29.09.58v1.09c0,.14-.04.25-.11.33s-.19.11-.33.11c-.11,0-.2-.03-.27-.09s-.17-.19-.28-.38c-.19-.32-.42-.56-.68-.72s-.58-.24-.92-.24c-.61,0-1.1.18-1.49.54s-.57.82-.57,1.39.18,1.06.55,1.43.83.55,1.41.55c.26,0,.51-.04.75-.11s.46-.18.67-.33c.07-.05.17-.12.3-.22.25-.21.45-.31.6-.31.12,0,.22.04.3.11s.11.17.11.3c0,.31-.29.62-.88.95s-1.2.48-1.86.48c-.85,0-1.55-.27-2.12-.81s-.85-1.22-.85-2.03.28-1.49.84-2.04,1.27-.82,2.11-.82c.3,0,.59.04.89.12s.62.2.95.37Z"/>
        <path class="cls-3" d="M57.21,56.01c.19,0,.33.03.42.1s.13.17.13.32c0,.14-.04.24-.12.31s-.21.1-.37.1h-2.37v1.96c0,.64.08,1.06.25,1.27s.45.3.85.3c.36,0,.78-.1,1.28-.31s.8-.31.92-.31c.11,0,.2.04.28.12s.11.17.11.29c0,.13-.05.24-.14.34s-.26.19-.49.28c-.38.15-.73.26-1.03.33s-.59.11-.86.11c-.46,0-.84-.07-1.15-.22s-.54-.36-.69-.65c-.08-.14-.13-.3-.17-.49s-.05-.48-.05-.87v-2.14h-1c-.16,0-.28-.03-.36-.1s-.11-.17-.11-.31c0-.16.05-.27.15-.33s.32-.09.65-.09h.66v-1.51c0-.17.04-.29.11-.37s.18-.12.34-.12c.17,0,.29.05.36.15s.1.32.1.67v1.19h2.31Z"/>
        <path class="cls-3" d="M64,54.21c0,.08-.07.26-.2.53s-.23.49-.3.65c-.27.62-.45,1.19-.57,1.71s-.17,1.05-.17,1.61c0,.51.05,1.01.14,1.49s.24.96.43,1.43c.1.26.23.56.4.91s.25.57.25.65-.02.15-.06.2-.09.07-.15.07c-.12,0-.26-.06-.4-.19s-.32-.33-.52-.61c-.42-.6-.73-1.22-.94-1.88s-.31-1.35-.31-2.07c0-.66.08-1.29.25-1.89s.43-1.18.78-1.74c.23-.37.44-.65.63-.84s.36-.28.51-.28c.06,0,.11.02.15.07s.06.11.06.19Z"/>
        <path class="cls-3" d="M68.7,56.52c.26-.09.5-.16.71-.21s.43-.07.63-.07c.68,0,1.25.24,1.71.71s.68,1.06.68,1.77c0,.75-.25,1.36-.76,1.85s-1.15.73-1.93.73c-.66,0-1.21-.09-1.65-.27s-.67-.39-.67-.65c0-.1.04-.19.12-.27s.18-.12.29-.12c.04,0,.27.08.69.23s.8.23,1.16.23c.52,0,.95-.16,1.27-.47s.49-.72.49-1.22-.15-.89-.46-1.21-.7-.48-1.17-.48c-.35,0-.7.09-1.03.26s-.54.26-.61.26c-.12,0-.2-.04-.25-.13s-.07-.24-.07-.47v-2.92c0-.13.04-.22.12-.28s.22-.08.42-.08h2.96c.19,0,.33.04.42.12.09.08.14.19.14.34s-.05.26-.15.34c-.1.08-.24.12-.42.12h-2.65v1.9Z"/>
        <path class="cls-3" d="M77.22,61.29c-.73,0-1.32-.35-1.75-1.04s-.65-1.64-.65-2.85.22-2.15.65-2.84,1.01-1.04,1.75-1.04,1.32.35,1.75,1.04.65,1.64.65,2.84-.22,2.15-.65,2.84-1.02,1.05-1.75,1.05ZM77.22,54.36c-.45,0-.8.27-1.05.8-.25.53-.38,1.28-.38,2.25s.12,1.73.38,2.26c.25.53.6.8,1.05.8s.8-.27,1.05-.8c.25-.53.38-1.29.38-2.26s-.12-1.72-.38-2.25c-.25-.53-.6-.8-1.05-.8Z"/>
        <path class="cls-3" d="M83.73,59.46c.03-.13.07-.22.12-.25s.14-.06.26-.06h1.28c.06,0,.11.01.14.04s.05.05.05.09c0,.02,0,.04-.01.08s-.02.06-.04.09l-1.61,3.35c-.03.06-.06.11-.11.14s-.1.05-.15.05c-.01,0-.02,0-.04,0s-.04-.01-.07-.02l-.41-.15c-.06-.03-.11-.06-.14-.09s-.05-.08-.05-.12v-.09s0-.04.01-.06l.76-2.98Z"/>
        <path class="cls-3" d="M97.5,56.52c.26-.09.5-.16.71-.21s.43-.07.63-.07c.68,0,1.25.24,1.71.71s.68,1.06.68,1.77c0,.75-.25,1.36-.76,1.85s-1.15.73-1.93.73c-.66,0-1.21-.09-1.65-.27s-.67-.39-.67-.65c0-.1.04-.19.12-.27s.18-.12.29-.12c.04,0,.27.08.69.23s.8.23,1.16.23c.52,0,.95-.16,1.27-.47s.49-.72.49-1.22-.15-.89-.46-1.21-.7-.48-1.17-.48c-.35,0-.7.09-1.03.26s-.54.26-.61.26c-.12,0-.2-.04-.25-.13s-.07-.24-.07-.47v-2.92c0-.13.04-.22.12-.28s.22-.08.42-.08h2.96c.19,0,.33.04.42.12.09.08.14.19.14.34s-.05.26-.15.34c-.1.08-.24.12-.42.12h-2.65v1.9Z"/>
        <path class="cls-3" d="M106.02,61.29c-.73,0-1.32-.35-1.75-1.04s-.65-1.64-.65-2.85.22-2.15.65-2.84,1.01-1.04,1.75-1.04,1.32.35,1.75,1.04.65,1.64.65,2.84-.22,2.15-.65,2.84-1.02,1.05-1.75,1.05ZM106.02,54.36c-.45,0-.8.27-1.05.8-.25.53-.38,1.28-.38,2.25s.12,1.73.38,2.26c.25.53.6.8,1.05.8s.8-.27,1.05-.8c.25-.53.38-1.29.38-2.26s-.12-1.72-.38-2.25c-.25-.53-.6-.8-1.05-.8Z"/>
        <path class="cls-3" d="M112.53,59.46c.03-.13.07-.22.12-.25s.14-.06.26-.06h1.28c.06,0,.11.01.14.04s.05.05.05.09c0,.02,0,.04-.01.08s-.02.06-.04.09l-1.61,3.35c-.03.06-.06.11-.11.14s-.1.05-.15.05c-.01,0-.02,0-.04,0s-.04-.01-.07-.02l-.41-.15c-.06-.03-.11-.06-.14-.09s-.05-.08-.05-.12v-.09s0-.04.01-.06l.76-2.98Z"/>
        <path class="cls-3" d="M128.54,57.07c.46.12.81.35,1.06.68s.38.73.38,1.21c0,.68-.24,1.24-.73,1.68s-1.11.65-1.88.65c-.59,0-1.12-.11-1.58-.34s-.69-.48-.69-.75c0-.12.04-.21.13-.29s.19-.11.31-.11c.07,0,.31.1.72.3s.8.3,1.16.3c.46,0,.84-.13,1.13-.4s.44-.61.44-1.03c0-.35-.1-.64-.3-.88s-.48-.39-.83-.46c-.11-.02-.24-.04-.42-.05-.33-.02-.49-.16-.49-.41,0-.23.16-.37.48-.4.12-.01.23-.03.31-.04.3-.05.55-.17.74-.38s.28-.45.28-.74c0-.37-.12-.67-.35-.91s-.52-.35-.88-.35c-.33,0-.67.1-1.01.3s-.56.3-.65.3c-.11,0-.2-.04-.27-.11s-.11-.16-.11-.26c0-.24.22-.48.66-.71s.92-.35,1.45-.35c.61,0,1.12.18,1.52.55s.61.82.61,1.36c0,.41-.1.75-.29,1.01s-.49.47-.9.62Z"/>
        <path class="cls-3" d="M134.83,61.29c-.73,0-1.32-.35-1.75-1.04s-.65-1.64-.65-2.85.22-2.15.65-2.84,1.01-1.04,1.75-1.04,1.32.35,1.75,1.04.65,1.64.65,2.84-.22,2.15-.65,2.84-1.02,1.05-1.75,1.05ZM134.83,54.36c-.45,0-.8.27-1.05.8-.25.53-.38,1.28-.38,2.25s.12,1.73.38,2.26c.25.53.6.8,1.05.8s.8-.27,1.05-.8c.25-.53.38-1.29.38-2.26s-.12-1.72-.38-2.25c-.25-.53-.6-.8-1.05-.8Z"/>
        <path class="cls-3" d="M142.03,61.29c-.73,0-1.32-.35-1.75-1.04s-.65-1.64-.65-2.85.22-2.15.65-2.84,1.01-1.04,1.75-1.04,1.32.35,1.75,1.04.65,1.64.65,2.84-.22,2.15-.65,2.84-1.02,1.05-1.75,1.05ZM142.03,54.36c-.45,0-.8.27-1.05.8-.25.53-.38,1.28-.38,2.25s.12,1.73.38,2.26c.25.53.6.8,1.05.8s.8-.27,1.05-.8c.25-.53.38-1.29.38-2.26s-.12-1.72-.38-2.25c-.25-.53-.6-.8-1.05-.8Z"/>
        <path class="cls-3" d="M148.54,59.46c.03-.13.07-.22.12-.25s.14-.06.26-.06h1.28c.06,0,.11.01.14.04s.05.05.05.09c0,.02,0,.04-.01.08s-.02.06-.04.09l-1.61,3.35c-.03.06-.06.11-.11.14s-.1.05-.15.05c-.01,0-.02,0-.04,0s-.04-.01-.07-.02l-.41-.15c-.06-.03-.11-.06-.14-.09s-.05-.08-.05-.12v-.09s0-.04.01-.06l.76-2.98Z"/>
        <path class="cls-3" d="M164.54,57.07c.46.12.81.35,1.06.68s.38.73.38,1.21c0,.68-.24,1.24-.73,1.68s-1.11.65-1.88.65c-.59,0-1.12-.11-1.58-.34s-.69-.48-.69-.75c0-.12.04-.21.13-.29s.19-.11.31-.11c.07,0,.31.1.72.3s.8.3,1.16.3c.46,0,.84-.13,1.13-.4s.44-.61.44-1.03c0-.35-.1-.64-.3-.88s-.48-.39-.83-.46c-.11-.02-.24-.04-.42-.05-.33-.02-.49-.16-.49-.41,0-.23.16-.37.48-.4.12-.01.23-.03.31-.04.3-.05.55-.17.74-.38s.28-.45.28-.74c0-.37-.12-.67-.35-.91s-.52-.35-.88-.35c-.33,0-.67.1-1.01.3s-.56.3-.65.3c-.11,0-.2-.04-.27-.11s-.11-.16-.11-.26c0-.24.22-.48.66-.71s.92-.35,1.45-.35c.61,0,1.12.18,1.52.55s.61.82.61,1.36c0,.41-.1.75-.29,1.01s-.49.47-.9.62Z"/>
        <path class="cls-3" d="M170.83,61.29c-.73,0-1.32-.35-1.75-1.04s-.65-1.64-.65-2.85.22-2.15.65-2.84,1.01-1.04,1.75-1.04,1.32.35,1.75,1.04.65,1.64.65,2.84-.22,2.15-.65,2.84-1.02,1.05-1.75,1.05ZM170.83,54.36c-.45,0-.8.27-1.05.8-.25.53-.38,1.28-.38,2.25s.12,1.73.38,2.26c.25.53.6.8,1.05.8s.8-.27,1.05-.8c.25-.53.38-1.29.38-2.26s-.12-1.72-.38-2.25c-.25-.53-.6-.8-1.05-.8Z"/>
        <path class="cls-3" d="M178.03,61.29c-.73,0-1.32-.35-1.75-1.04s-.65-1.64-.65-2.85.22-2.15.65-2.84,1.01-1.04,1.75-1.04,1.32.35,1.75,1.04.65,1.64.65,2.84-.22,2.15-.65,2.84-1.02,1.05-1.75,1.05ZM178.03,54.36c-.45,0-.8.27-1.05.8-.25.53-.38,1.28-.38,2.25s.12,1.73.38,2.26c.25.53.6.8,1.05.8s.8-.27,1.05-.8c.25-.53.38-1.29.38-2.26s-.12-1.72-.38-2.25c-.25-.53-.6-.8-1.05-.8Z"/>
        <path class="cls-3" d="M184.04,63.17c0-.08.07-.25.2-.52s.23-.48.3-.64c.26-.62.45-1.2.56-1.71s.17-1.05.17-1.6c0-.5-.05-.99-.14-1.47s-.24-.97-.44-1.45c-.1-.26-.24-.56-.4-.91s-.25-.57-.25-.65c0-.08.02-.14.06-.19s.09-.07.15-.07c.13,0,.27.06.41.19s.32.33.51.61c.42.59.73,1.22.94,1.88s.31,1.35.31,2.07c0,.66-.09,1.29-.26,1.89s-.43,1.18-.78,1.75c-.24.38-.45.66-.64.84s-.35.27-.5.27c-.06,0-.11-.03-.15-.08s-.06-.12-.06-.2Z"/>
        <path class="cls-3" d="M191.7,59.67c.04-.13.08-.21.12-.25s.13-.05.24-.05h1.21c.05,0,.09.01.13.04s.05.05.05.09c0,.01,0,.03-.01.06s-.02.06-.04.09l-1.51,3.15c-.03.06-.07.11-.1.13s-.08.04-.14.04c-.03,0-.06,0-.07,0s-.03,0-.04,0l-.39-.14c-.06-.02-.1-.05-.13-.09s-.04-.07-.04-.12c0-.02,0-.03,0-.05s0-.05.02-.09l.7-2.79ZM191.25,56.9c0-.3.11-.55.32-.75s.49-.29.83-.29.63.1.84.29.32.44.32.75-.11.56-.32.75-.5.29-.84.29-.62-.1-.83-.29-.32-.44-.32-.76Z"/>
        <path class="cls-3" d="M20.05,79.4c-.39-.11-.67-.31-.83-.58s-.24-.74-.24-1.39v-.86c0-.41-.04-.69-.13-.83s-.24-.24-.46-.3c-.05-.01-.13-.02-.23-.04-.34-.05-.5-.2-.5-.45,0-.15.04-.26.12-.34s.21-.11.37-.11c.66,0,1.13.17,1.4.5s.41.95.41,1.85v.7c0,.76.32,1.21.95,1.34.12.02.21.04.28.06.12.04.22.09.27.16s.08.17.08.29c0,.13-.03.24-.09.32s-.15.13-.28.15c-.04,0-.1.02-.18.04-.69.13-1.03.59-1.03,1.36v.68c0,.91-.13,1.52-.4,1.85s-.73.49-1.39.49c-.17,0-.29-.04-.38-.11s-.13-.19-.13-.34c0-.25.17-.4.5-.45.07,0,.12-.02.15-.02.25-.04.43-.13.52-.27s.14-.42.14-.84v-.87c0-.64.08-1.1.24-1.38s.43-.48.83-.6Z"/>
      </g>
      <rect class="cls-2" x="73.56" y="150.05" width="68.53" height="68.53"/>
    </g>
  </g>
</svg>