<?xml version="1.0" encoding="UTF-8"?>
<svg id="_レイヤー_2" data-name="レイヤー 2" xmlns="http://www.w3.org/2000/svg" viewBox="0 0 456.97 203.53">
  <defs>
    <style>
      .cls-1, .cls-2, .cls-3 {
        stroke: #231815;
        stroke-miterlimit: 10;
      }

      .cls-1, .cls-3 {
        fill: none;
      }

      .cls-4 {
        fill: #231815;
      }

      .cls-2, .cls-5 {
        fill: #fff;
      }

      .cls-3 {
        stroke-width: 2px;
      }
    </style>
  </defs>
  <g id="_レイヤー_1-2" data-name="レイヤー 1">
    <g>
      <rect class="cls-4" x="179.31" y="18.16" width="98.77" height="42.16" rx="13.17" ry="13.17"/>
      <g>
        <circle class="cls-1" cx="403.92" cy="66.43" r="27.91"/>
        <path class="cls-1" d="M421.74,31.02c-1.1-1.22-1.77-2.83-1.77-4.6,0-3.79,3.07-6.86,6.86-6.86s6.86,3.07,6.86,6.86c0,1.9-.77,3.61-2.01,4.85"/>
        <path class="cls-1" d="M432.83,90.8h0c4.6.25,8.17,3.58,7.95,7.43l-1.4,25.61c-.21,3.85-4.11,6.77-8.72,6.51h0c-4.6-.25-8.17-3.58-7.95-7.43l.94-17.26"/>
        <path class="cls-1" d="M375.42,89.38h0c-4.6.31-8.08,4.29-7.77,8.89l2.05,30.6c.31,4.6,4.29,8.08,8.89,7.77h0c4.6-.31,8.08-4.29,7.77-8.89l-1.38-20.63"/>
        <rect class="cls-2" x="337.66" y="146.32" width="75.96" height="7.08"/>
        <line class="cls-1" x1="415.31" y1="126.72" x2="419.9" y2="119.64"/>
        <line class="cls-1" x1="413.62" y1="146.32" x2="426.31" y2="126.72"/>
        <line class="cls-1" x1="413.62" y1="153.4" x2="430.9" y2="126.72"/>
        <rect class="cls-2" x="408.26" y="102.27" width="16.7" height="45.82" rx="8.35" ry="8.35" transform="translate(351.32 555.26) rotate(-98.09)"/>
        <polygon class="cls-2" points="413.62 145.99 337.66 145.99 328.26 96.23 404.22 96.23 413.62 145.99"/>
        <line class="cls-1" x1="421.42" y1="30.67" x2="425.51" y2="35.72"/>
        <line class="cls-1" x1="425.13" y1="35.56" x2="428.41" y2="35.56"/>
        <line class="cls-1" x1="425.25" y1="37.13" x2="428.41" y2="37.13"/>
        <line class="cls-1" x1="425.25" y1="38.79" x2="428.41" y2="38.79"/>
        <line class="cls-1" x1="425.25" y1="40.24" x2="428.41" y2="40.24"/>
        <line class="cls-1" x1="430.7" y1="15.59" x2="429.35" y2="18.45"/>
        <line class="cls-1" x1="426.97" y1="15" x2="426.97" y2="18.16"/>
        <line class="cls-1" x1="422.96" y1="15.65" x2="424.54" y2="18.39"/>
        <line class="cls-1" x1="428.02" y1="35.72" x2="432.01" y2="30.91"/>
      </g>
      <g>
        <path class="cls-1" d="M116.17,90.8h0c4.6.25,8.13,4.19,7.88,8.79l-1.68,30.62c-.25,4.6-4.19,8.13-8.79,7.88h0c-4.6-.25-8.13-4.19-7.88-8.79l1.13-20.65"/>
        <path class="cls-1" d="M57.76,89.38h0c-4.6.31-8.08,4.29-7.77,8.89l2.05,30.6c.31,4.6,4.29,8.08,8.89,7.77h0c4.6-.31,8.08-4.29,7.77-8.89l-1.38-20.63"/>
        <rect class="cls-2" x="103.03" y="92.71" width="16.7" height="45.82" rx="8.35" ry="8.35" transform="translate(-15.17 16.83) rotate(-8.09)"/>
        <polyline class="cls-2" points="81.73 126.72 14.86 126.72 14.86 119.64 103.24 119.64 103.24 126.72 102.57 126.72"/>
        <circle class="cls-1" cx="86.96" cy="72.12" r="27.91"/>
        <path class="cls-1" d="M115.89,29.94c-4.74,0-9.49-.73-14.01-2.14-1.6-.5-3.24-1.12-4.43-2.3-3.37-3.33-1.15-9.83,3.3-11.46s9.6.76,12.47,4.52c1.68,2.2,2.71,5.44,1.03,7.64-1.34,1.75-3.81,2.09-6.01,2.25-1.75.13-3.84.1-4.85-1.34-.47-.67-.59-1.52-.66-2.34-.31-3.52.04-7.1,1.03-10.49,2.57,1.11,5.14,2.22,7.71,3.33.77.33,1.59.71,2.03,1.42,1.19,1.94-1.24,4.08-3.35,4.92-2.7,1.08-5.51,1.88-8.37,2.38-.62.11-1.31.2-1.86-.12-.61-.34-.88-1.06-1.09-1.73-1.03-3.28-1.77-6.65-2.19-10.07,3.82-.85,7.97-.8,11.48.93s6.23,5.34,6.19,9.26c-.05,4.05-2.97,7.62-6.52,9.57s-7.65,2.56-11.66,3.08c-.72.09-1.53.15-2.08-.32-.65-.55-.61-1.55-.51-2.39.55-4.89,1.28-10.17,4.72-13.7,1.7-1.74,3.9-2.87,6.09-3.93,6.65-3.21,13.51-5.99,20.52-8.32.95,1.83,1.92,3.7,2.17,5.74s-.37,4.32-2.04,5.51c-1.19.85-2.72,1.03-4.18,1.16-7.07.65-14.19.78-21.28.39-.58-.03-1.2-.08-1.68-.4-1.26-.85-.77-2.79-.14-4.18,1.07-2.38,2.18-4.79,3.93-6.72s4.3-3.32,6.9-3.03,4.98,2.65,4.71,5.24c-.33,3.08-3.76,4.72-6.77,5.44-3.86.93-7.86,1.3-11.82,1.11-1.38-.07-3.13-.56-3.24-1.93-.07-.97.77-1.73,1.56-2.31,8.14-6,17.93-9.74,28-10.7,3.31-.31,6.81-.3,9.75,1.26s5.07,5.06,4.07,8.23c-.77,2.45-3.18,4.09-5.68,4.67s-5.11.28-7.65-.02c-2.14-.25-4.38-.55-6.1-1.84s-2.63-3.93-1.34-5.65c5.1,3.84,8.4,9.99,8.79,16.36.1,1.68,0,3.43-.71,4.96-1.27,2.76-4.22,4.31-7.03,5.47-2.93,1.21-5.95,2.21-9.02,2.99-3.07.78-6.64,1.25-9.13-.71-1.35-1.07-2.12-2.69-2.73-4.3-1.31-3.47-2.04-7.17-2.13-10.88-.06-2.41.56-5.39,2.89-6.04,1.04-.29,2.14,0,3.18.28,5.61,1.54,11.21,3.09,16.82,4.63,1.28.35,2.83,1.01,2.91,2.34.1,1.77-2.34,2.35-4.11,2.29-2.3-.07-4.66-.16-6.81-.99-4.25-1.65-6.97-6.04-7.77-10.54s.03-9.1,1.05-13.55c3.37,1.45,6.47,3.52,9.11,6.07,2.45,2.37,4.54,5.27,5.2,8.61s-.36,7.16-3.12,9.16-7.25,1.47-8.94-1.49c-.58-1.02-.8-2.3-.31-3.37.31-.67.85-1.19,1.42-1.66,5.77-4.8,13.96-5.52,21.41-4.62,3.69.45,7.82,1.58,9.48,4.9,1.74,3.47-.22,7.92-3.44,10.08s-7.31,2.55-11.19,2.52c-6.45-.05-13.62-1.5-17.35-6.76-.86-1.21-1.48-2.88-.69-4.13.47-.74,1.31-1.13,2.13-1.45,6.92-2.74,14.78-3.03,21.88-.81,3.15.98,6.35,2.65,7.83,5.6-6.06,4.93-14.68,6.51-22.09,4.05s-13.38-8.87-15.3-16.44c8.67-.93,17.67,1.89,24.25,7.6.99.86,1.98,2.37,1.09,3.34-.38.41-.97.54-1.52.63-8.95,1.45-18.42-.52-26.05-5.43,8.63-2.02,17.52-2.93,26.38-2.7,1.96.05,4.18.29,5.35,1.85-1.26,2.51-4.26,3.54-7.01,4.13-9.78,2.1-20.11,1.62-29.66-1.38-1.78-.56-3.94-2.02-3.23-3.75.36-.89,1.35-1.31,2.24-1.65,2.44-.92,4.95-1.86,7.56-1.78s5.35,1.42,6.29,3.85c-2.23-1.09-4.52-2.22-6.14-4.1s-2.41-4.7-1.23-6.88c.87-1.59,2.56-2.52,4.17-3.36,3.87-2.03,8.39-4.09,12.44-2.45,2.53,1.03,4.28,3.31,5.92,5.5,1.52,2.03,3.09,4.2,3.28,6.73.41,5.25-5.17,8.96-10.28,10.23-5.76,1.43-11.78,1.35-17.7.97-.99-1.92.99-4.01,2.83-5.14,6.18-3.79,13.4-5.88,20.65-5.99,3.4-.05,7.32.64,9.03,3.58.34.59.58,1.3.39,1.96-.32,1.08-1.58,1.53-2.69,1.75-10.02,2-21-2.13-27.22-10.23,10.43-3.76,21.66-5.25,32.71-4.36,2.87.23,6.02.79,7.81,3.04,2.25,2.85,1.14,7.32-1.52,9.79s-6.39,3.38-9.99,3.92c-4.46.67-9.09.9-13.4-.41,2.77-1.21,6.25.83,7.1,3.73s-.52,6.14-2.82,8.11-5.35,2.84-8.36,3.18c-3.34.37-6.84.11-9.87-1.35s-5.52-4.27-6.05-7.59c4.54-2.88,9.71-4.78,15.04-5.53.5-.07,1.05-.12,1.47.18s.45,1.07-.03,1.22c-.71-.35-1.08-1.27-.8-2.01,5.92-.02,11.8,2.69,15.63,7.22-5.5,1.77-12.01-3.17-11.77-8.95,3.77-.92,7.73-.27,11.53.52,2.12.44,4.32.97,5.98,2.37s2.56,3.93,1.46,5.8c-.79,1.35-2.37,2-3.86,2.46-4.81,1.47-9.96,1.83-14.93,1.02-1.34-.22-3-.95-2.86-2.3,4.65-.43,9.35-.3,13.97.36-3.83,2.21-8.83,2.24-12.69.08,2.48-1.4,5.85-.97,7.91.99s2.64,5.31,1.36,7.86c-.98,1.94-2.82,3.28-4.59,4.54-2.15-2.86-2.17-7.14-.04-10.01.4,1.5-1.32,2.88-2.88,2.76s-2.84-1.19-4.02-2.21c5.08-1.5,10.28-2.56,15.54-3.18,1.3,2.3-.58,5.34-3.06,6.24s-5.22.32-7.79-.28c3.52-.81,7.25,2.81,6.55,6.36-.09.44-.24.88-.57,1.18-.49.43-1.24.42-1.88.24-2.47-.69-4.06-3.61-3.29-6.06,1.19.27,2.38.54,3.57.81-1.31,1.99-1.79,4.51-1.31,6.84-.72-.55-1.92-.22-2.27.61"/>
        <polygon class="cls-2" points="85.96 145.99 10 145.99 .6 96.23 76.56 96.23 85.96 145.99"/>
        <rect class="cls-2" x="10" y="146.32" width="75.96" height="7.08"/>
        <line class="cls-1" x1="98.65" y1="126.72" x2="103.24" y2="119.64"/>
        <line class="cls-1" x1="85.96" y1="146.32" x2="98.65" y2="126.72"/>
        <line class="cls-1" x1="85.96" y1="153.4" x2="103.24" y2="126.72"/>
        <g>
          <path class="cls-1" d="M109.46,64.01c.47,1.04.81,2.53.9,4.27.2,3.72-.78,7.17-2.19,7.7s-2.72-2.06-2.92-5.78c-.1-1.86.09-3.65.49-5.05"/>
          <line class="cls-1" x1="109.59" y1="64.31" x2="107.32" y2="58.73"/>
          <line class="cls-1" x1="107.41" y1="58.36" x2="105.64" y2="65.56"/>
        </g>
      </g>
      <g>
        <path class="cls-4" d="M55.5,167.14v.62h-3.93v-.62h3.93ZM55.23,171.62v3.23h-2.53v.52h-.64v-3.75h3.17ZM55.22,168.63v.6h-3.15v-.6h3.15ZM52.07,170.73v-.61h3.15v.61h-3.15ZM55.17,165.67v.61h-3.05v-.61h3.05ZM54.58,172.25h-1.88v1.98h1.88v-1.98ZM61.73,171.77h-2.23c.61,1.02,1.56,2.07,2.4,2.6-.15.13-.4.39-.52.57-.8-.61-1.72-1.68-2.33-2.75v3.3h-.71v-3.22c-.65,1.12-1.58,2.15-2.51,2.72-.11-.18-.34-.43-.5-.57.98-.51,1.98-1.56,2.6-2.64h-2.24v-.67h2.65v-1.03h-2.22v-4.31h5.2v4.31h-2.27v1.03h2.68v.67ZM56.79,166.36v1.23h1.56v-1.23h-1.56ZM56.79,168.2v1.24h1.56v-1.24h-1.56ZM60.62,167.6v-1.23h-1.61v1.23h1.61ZM60.62,169.44v-1.24h-1.61v1.24h1.61Z"/>
        <path class="cls-4" d="M65.55,172.5v1.61c.92.42,2.12.5,3.56.51.46,0,3.16,0,3.76-.02-.11.17-.23.45-.28.65h-3.49c-2.49,0-4.21-.27-5.24-1.83-.15.79-.42,1.55-.88,2.08-.1-.13-.3-.33-.45-.42.68-.82.87-2.38.92-3.74l.82.08c-.01.08-.08.13-.21.14-.02.33-.04.68-.09,1.05.23.47.53.84.89,1.12v-3.06h-2.24v-.59h5.03v.59h-2.12v1.25h1.94v.58h-1.94ZM66.99,165.75v3.47h-3.66v-3.47h3.66ZM66.3,167.2v-.89h-2.29v.89h2.29ZM66.3,168.65v-.91h-2.29v.91h2.29ZM69.71,172.7c-.04.08-.13.1-.22.09-.47.53-1.25,1.09-1.95,1.44-.1-.12-.31-.33-.45-.44.65-.3,1.42-.83,1.86-1.38l.76.29ZM68.08,167.39h1.32c.1-.3.22-.66.31-.98h-2.13v-.57h5.14v.57h-2.33c-.09.3-.21.66-.34.98h2.12v4.88h-4.08v-4.88ZM71.47,168.83v-.88h-2.71v.88h2.71ZM71.47,170.26v-.89h-2.71v.89h2.71ZM71.47,171.7v-.9h-2.71v.9h2.71ZM72.19,174.19c-.38-.42-1.06-.98-1.65-1.41l.5-.31c.64.44,1.36.99,1.79,1.42l-.64.3Z"/>
        <path class="cls-4" d="M79.45,167.71c0,.41-.33.74-.75.74s-.75-.33-.75-.74.33-.75.75-.75c.44,0,.75.35.75.75ZM79.45,173.05c0,.42-.33.75-.75.75s-.75-.33-.75-.75.33-.74.75-.74c.44,0,.75.35.75.74Z"/>
        <path class="cls-4" d="M11.35,180.91h7l.07-.03.75.57s-.07.08-.13.1c-.89,4.14-2.81,6.29-6.17,7.57-.12-.2-.34-.48-.5-.65,3.2-1.18,5.05-3.22,5.76-6.8h-6.78v-.76ZM19.73,178.95c.66,0,1.2.54,1.2,1.21s-.54,1.2-1.2,1.2-1.21-.54-1.21-1.2c0-.69.56-1.21,1.21-1.21ZM20.57,180.16c0-.47-.37-.85-.84-.85s-.85.37-.85.85.38.85.85.85.84-.41.84-.85Z"/>
        <path class="cls-4" d="M30.26,181.09v7.26h-.79v-.69h-6.06v.71h-.77v-7.28h7.62ZM29.47,186.92v-5.09h-6.06v5.09h6.06Z"/>
        <path class="cls-4" d="M41.24,181.77c-.04.07-.1.12-.17.17-1.17,3.64-2.97,5.84-5.95,7.36-.12-.19-.34-.44-.56-.61,2.83-1.38,4.6-3.49,5.53-6.48h-3.88c-.64.99-1.45,1.91-2.43,2.68-.14-.15-.41-.36-.62-.5,1.5-1.12,2.74-2.86,3.49-4.82l1.03.29c-.03.11-.17.15-.31.14-.22.5-.47,1.02-.73,1.46h3.83l.13-.07.63.36ZM39.87,179.24c.52.42,1.12,1.09,1.44,1.56l-.41.35c-.33-.51-.92-1.16-1.42-1.56l.38-.35ZM41.47,178.92c.52.42,1.12,1.08,1.44,1.56l-.41.34c-.33-.5-.9-1.13-1.42-1.55l.39-.35Z"/>
        <path class="cls-4" d="M52.57,183.16s-.08.09-.14.11c-.9,3.32-2.74,4.94-6.03,5.85-.1-.2-.31-.47-.46-.64,2.99-.75,4.85-2.29,5.54-4.84h-7.28v-.75h7.61l.11-.07.65.33ZM51.53,180.81h-6.27v-.73h6.27v.73Z"/>
        <path class="cls-4" d="M55.88,186.64c2.42.27,5.25.9,6.98,1.58l-.33.77c-1.56-.65-4.49-1.34-6.91-1.63l.26-.73ZM56.76,183.27c1.75.18,3.95.59,5.31,1.01l-.25.77c-1.29-.44-3.51-.86-5.29-1.03l.23-.75ZM56.8,179.87c1.87.2,4.27.64,5.79,1.18l-.32.77c-1.52-.57-3.85-1-5.72-1.21l.25-.74Z"/>
        <path class="cls-4" d="M66.66,180.47c1.14.36,2.46.93,3.28,1.5l-.42.69c-.79-.56-2.09-1.14-3.21-1.53l.35-.66ZM66.61,188.1c3.91-1.21,6.5-3.4,7.82-6.45.23.19.48.33.71.45-1.38,3.01-4.06,5.36-7.79,6.6-.01.1-.08.21-.15.25l-.59-.86Z"/>
        <path class="cls-4" d="M85.24,181.77c-.04.07-.1.12-.17.17-1.17,3.64-2.97,5.84-5.95,7.36-.12-.19-.34-.44-.56-.61,2.83-1.38,4.6-3.49,5.53-6.48h-3.88c-.64.99-1.45,1.91-2.43,2.68-.14-.15-.41-.36-.62-.5,1.5-1.12,2.74-2.86,3.49-4.82l1.03.29c-.03.11-.17.15-.31.14-.22.5-.47,1.02-.73,1.46h3.83l.13-.07.63.36ZM83.87,179.24c.52.42,1.12,1.09,1.44,1.56l-.41.35c-.33-.51-.92-1.16-1.42-1.56l.38-.35ZM85.47,178.92c.52.42,1.12,1.08,1.44,1.56l-.41.34c-.33-.5-.9-1.13-1.42-1.55l.39-.35Z"/>
        <path class="cls-4" d="M97.39,185.77v.69h-4.57v2.13c0,.92-.53.93-2.56.93-.05-.21-.2-.52-.32-.73.56.02,1.06.03,1.41.03.64,0,.72,0,.72-.24v-2.13h-4.51v-.69h4.51v-.96l.52.03c.56-.29,1.14-.67,1.6-1.04h-4.79v-.66h5.57l.13-.04.57.36c-.03.05-.1.09-.17.1-.65.62-1.69,1.33-2.67,1.82v.4h4.57ZM88.54,181.82v1.77h-.7v-2.44h1.72c-.21-.43-.62-1.01-.98-1.44l.62-.3c.44.48.91,1.13,1.11,1.57l-.32.17h2.33c-.17-.5-.53-1.18-.87-1.68l.64-.24c.4.55.79,1.29.93,1.76l-.38.17h1.93c.43-.51.97-1.28,1.26-1.8.69.25.78.31.87.36-.03.07-.12.1-.23.09-.28.4-.67.91-1.06,1.35h1.79v2.44h-.73v-1.77h-7.93Z"/>
        <path class="cls-4" d="M98.46,183.34c.77-.25,1.9-.67,3.03-1.09l.11.55c-.99.41-1.99.81-2.66,1.07,0,.09-.04.14-.11.18l-.36-.7ZM102.92,183.56c0,.71-.36.71-1.77.71-.03-.17-.12-.4-.21-.56.26,0,.51.01.7.01q.58,0,.58-.18v-3.08h-3.53v-.62h4.22v3.71ZM100.68,182.17c-.3-.34-.92-.81-1.47-1.11l.41-.44c.54.29,1.18.73,1.49,1.07l-.42.48ZM102.57,184.9c.19-.35.38-.79.48-1.1l.88.24c-.02.07-.1.11-.22.1-.11.22-.26.51-.42.76h3.72v4.63h-.75v-.45h-5.56v.45h-.73v-4.63h2.59ZM106.27,186.66v-1.16h-5.56v1.16h5.56ZM100.71,188.47h5.56v-1.21h-5.56v1.21ZM106.7,182.62c-1.03.4-2.11.8-2.82,1.06,0,.09-.05.14-.11.18l-.36-.69c.8-.26,2-.68,3.18-1.1l.11.56ZM107.91,179.85v3.72c0,.73-.38.75-1.85.75-.02-.18-.13-.43-.22-.59.32.01.63.02.85.02.46,0,.53-.01.53-.19v-3.09h-3.56v-.62h4.26ZM104.38,180.62c.54.26,1.19.69,1.51,1.03l-.42.5c-.3-.35-.95-.79-1.48-1.08l.4-.45Z"/>
        <path class="cls-4" d="M115.09,181.28c-.04.1-.13.18-.27.18-.4,3.42-1.54,6.4-3.37,6.4-.92,0-1.76-.92-1.76-2.66,0-2.64,2.06-4.85,4.95-4.85,3.18,0,4.55,2.01,4.55,4.16,0,2.62-1.52,3.88-4.18,4.5-.1-.18-.29-.47-.46-.67,2.53-.48,3.83-1.72,3.83-3.79,0-1.82-1.17-3.47-3.74-3.47-.11,0-.23.01-.33.02l.78.19ZM114.04,181.14c-2.22.27-3.6,2.11-3.6,4.04,0,1.18.51,1.91,1.03,1.91,1.33,0,2.29-2.94,2.56-5.95Z"/>
        <path class="cls-4" d="M37.77,194.35h4.54v.66h-9.73v-.66h4.43v-1.09l.97.07c-.01.08-.07.13-.22.15v.87ZM41.85,198.69v3.88c0,.43-.1.66-.44.78-.34.12-.95.12-1.9.12-.03-.21-.14-.5-.24-.7.45.01.86.02,1.16.02.63,0,.69,0,.69-.23v-3.22h-7.27v4.16h-.73v-4.81h8.74ZM34.47,195.67h5.98v2.28h-5.98v-2.28ZM39.71,197.39v-1.16h-4.52v1.16h4.52ZM39.59,202.44h-3.59v.58h-.67v-2.93h4.26v2.34ZM38.92,200.66h-2.92v1.22h2.92v-1.22Z"/>
        <path class="cls-4" d="M45.22,194.76c-.02.1-.14.17-.3.18-.13.83-.21,1.82-.21,2.74,0,.41.02.8.04,1.16.13,1.87.89,3,1.74,2.99.44,0,1.01-1.12,1.41-2.35.15.15.45.36.64.47-.51,1.49-1.14,2.7-2.06,2.72-1.4.02-2.37-1.67-2.52-3.78-.03-.42-.04-.88-.04-1.38,0-.97.06-2.02.17-2.96l1.13.22ZM52.51,199.88c-.31-1.92-1.29-3.31-2.77-4.14l.48-.59c1.61.86,2.78,2.44,3.1,4.48l-.81.25Z"/>
        <path class="cls-4" d="M58.03,195.23c-.03.1-.12.15-.29.18-.45,2.61-1.3,5.39-2.63,7.07-.21-.14-.52-.28-.74-.37,1.32-1.61,2.16-4.3,2.54-7.12l1.11.24ZM61.5,194.88c1.21,2.05,2.52,5.27,3,7.23l-.8.32c-.5-1.94-1.77-5.24-2.95-7.23l.75-.32Z"/>
        <path class="cls-4" d="M65.8,197.8h9.19v.78h-8.77c-.07.11-.21.19-.35.21l-.07-.99Z"/>
        <path class="cls-4" d="M84.56,199.45c-1.12-.61-2.66-1.32-3.86-1.79v5.49h-.82v-9.56l1.11.07c-.01.12-.1.2-.29.23v3.24l.17-.24c1.29.47,2.99,1.23,4.14,1.84l-.44.74ZM83.4,194.27c.51.42,1.17,1.11,1.52,1.62l-.42.34c-.33-.47-1-1.21-1.5-1.61l.4-.35ZM84.87,193.32c.52.43,1.18,1.12,1.51,1.61l-.4.34c-.34-.47-1.01-1.2-1.51-1.61l.4-.34Z"/>
        <path class="cls-4" d="M90.32,195.31c-.01.1-.11.17-.25.19-.07,2.96-.31,5.66-2,7.62-.18-.13-.44-.3-.66-.42,1.64-1.78,1.84-4.53,1.87-7.49l1.04.1ZM93.17,201.65c1.84-.89,3.03-2.5,3.66-4.42.17.14.49.33.68.43-.78,2.22-2.15,3.86-4.49,4.97-.03.09-.11.18-.19.22l-.57-.73.12-.17v-8.08l1.02.06c-.01.1-.09.19-.24.21v7.5Z"/>
      </g>
      <g>
        <path class="cls-4" d="M202.6,2.67h7l.07-.03.75.57s-.07.08-.13.1c-.89,4.14-2.81,6.29-6.17,7.57-.12-.2-.34-.48-.5-.65,3.2-1.18,5.05-3.22,5.76-6.8h-6.78v-.76ZM210.98.7c.66,0,1.2.54,1.2,1.21s-.54,1.2-1.2,1.2-1.21-.54-1.21-1.2c0-.69.56-1.21,1.21-1.21ZM211.81,1.91c0-.47-.37-.85-.84-.85s-.85.37-.85.85.38.85.85.85.84-.41.84-.85Z"/>
        <path class="cls-4" d="M221.51,2.85v7.26h-.79v-.69h-6.06v.71h-.77V2.85h7.62ZM220.71,8.68V3.59h-6.06v5.09h6.06Z"/>
        <path class="cls-4" d="M232.48,3.53c-.04.07-.1.12-.17.17-1.17,3.64-2.97,5.84-5.95,7.36-.12-.19-.34-.44-.56-.61,2.83-1.38,4.6-3.49,5.53-6.48h-3.88c-.64.99-1.45,1.91-2.43,2.68-.14-.15-.41-.36-.62-.5,1.5-1.12,2.74-2.86,3.49-4.82l1.03.29c-.03.11-.17.15-.31.14-.22.5-.47,1.02-.73,1.46h3.83l.13-.07.63.36ZM231.12,1c.52.42,1.12,1.09,1.44,1.56l-.41.35c-.33-.51-.92-1.16-1.42-1.56l.38-.35ZM232.72.68c.52.42,1.12,1.08,1.44,1.56l-.41.34c-.33-.5-.9-1.13-1.42-1.55l.39-.35Z"/>
        <path class="cls-4" d="M243.81,4.92s-.08.09-.14.11c-.9,3.32-2.74,4.94-6.03,5.85-.1-.2-.31-.47-.46-.64,2.99-.75,4.85-2.29,5.54-4.84h-7.28v-.75h7.61l.11-.07.65.33ZM242.78,2.56h-6.27v-.73h6.27v.73Z"/>
        <path class="cls-4" d="M254.77,10.64c-.17-.37-.36-.77-.58-1.17-2.29.24-6.05.47-7.73.56-.03.11-.11.2-.21.22l-.3-.99c.33-.01.73-.02,1.16-.04.73-2.11,1.77-5.4,2.38-7.6l1.07.29c-.04.1-.15.15-.32.15-.6,2.02-1.55,4.97-2.31,7.13,1.83-.08,4.43-.26,5.89-.4-.57-.95-1.3-1.95-1.96-2.68l.66-.37c1.16,1.27,2.48,3.36,3.04,4.55l-.77.35Z"/>
      </g>
      <g>
        <path class="cls-4" d="M374.39,166.03h7.46v9.46h-.77v-.78h-5.95v.78h-.74v-9.46ZM381.08,166.75h-5.95v1.93h5.95v-1.93ZM381.08,169.38h-5.95v1.95h5.95v-1.95ZM375.13,173.99h5.95v-1.95h-5.95v1.95Z"/>
        <path class="cls-4" d="M386.44,169.22c.31.41,1.16,1.65,1.34,1.96l-.42.56c-.17-.36-.58-1.08-.92-1.64v5.37h-.68v-5.42c-.38,1.29-.9,2.54-1.44,3.3-.09-.2-.26-.47-.38-.64.69-.93,1.4-2.74,1.74-4.3h-1.52v-.69h1.61v-2.45l.9.07c-.01.07-.08.12-.22.14v2.24h1.29v.69h-1.29v.81ZM389.76,173.33c-.02.08-.1.09-.19.08-.38.53-1.09,1.21-1.77,1.68-.11-.14-.31-.34-.47-.45.67-.44,1.36-1.12,1.74-1.69l.69.38ZM394.24,172.67h-2.92v2.07c0,.73-.33.77-1.79.77-.03-.2-.13-.44-.23-.63.29,0,.54.01.74.01.59,0,.59-.01.59-.17v-2.06h-2.89v-.62h6.5v.62ZM389.83,167.22v-.83h-2.02v-.63h6.45v.63h-2.07v.83h1.79v2.65h-5.82v-2.65h1.67ZM393.69,171.17h-5.25v-.58h5.25v.58ZM388.79,167.82v1.46h1.09v-1.46h-1.09ZM391.56,167.22v-.83h-1.12v.83h1.12ZM391.56,167.82h-1.12v1.46h1.12v-1.46ZM393.3,169.28v-1.46h-1.19v1.46h1.19ZM393.78,175.09c-.33-.46-1-1.22-1.56-1.75l.52-.36c.57.53,1.26,1.23,1.58,1.71l-.54.41Z"/>
        <path class="cls-4" d="M400.88,167.71c0,.41-.33.74-.75.74s-.75-.33-.75-.74.33-.75.75-.75c.44,0,.75.35.75.75ZM400.88,173.05c0,.42-.33.75-.75.75s-.75-.33-.75-.75.33-.74.75-.74c.44,0,.75.35.75.74Z"/>
        <path class="cls-4" d="M316.28,180.91h7l.07-.03.75.57s-.07.08-.13.1c-.89,4.14-2.81,6.29-6.17,7.57-.12-.2-.34-.48-.5-.65,3.2-1.18,5.05-3.22,5.76-6.8h-6.78v-.76ZM324.66,178.95c.66,0,1.2.54,1.2,1.21s-.54,1.2-1.2,1.2-1.21-.54-1.21-1.2c0-.69.56-1.21,1.21-1.21ZM325.5,180.16c0-.47-.37-.85-.84-.85s-.85.37-.85.85.38.85.85.85.84-.41.84-.85Z"/>
        <path class="cls-4" d="M335.19,181.09v7.26h-.79v-.69h-6.06v.71h-.77v-7.28h7.62ZM334.4,186.92v-5.09h-6.06v5.09h6.06Z"/>
        <path class="cls-4" d="M346.17,181.77c-.04.07-.1.12-.17.17-1.17,3.64-2.97,5.84-5.95,7.36-.12-.19-.34-.44-.56-.61,2.83-1.38,4.6-3.49,5.53-6.48h-3.88c-.64.99-1.45,1.91-2.43,2.68-.14-.15-.41-.36-.62-.5,1.5-1.12,2.74-2.86,3.49-4.82l1.03.29c-.03.11-.17.15-.31.14-.22.5-.47,1.02-.73,1.46h3.83l.13-.07.63.36ZM344.8,179.24c.52.42,1.12,1.09,1.44,1.56l-.41.35c-.33-.51-.92-1.16-1.42-1.56l.38-.35ZM346.4,178.92c.52.42,1.12,1.08,1.44,1.56l-.41.34c-.33-.5-.9-1.13-1.42-1.55l.39-.35Z"/>
        <path class="cls-4" d="M357.5,183.16s-.08.09-.14.11c-.9,3.32-2.74,4.94-6.03,5.85-.1-.2-.31-.47-.46-.64,2.99-.75,4.85-2.29,5.54-4.84h-7.28v-.75h7.61l.11-.07.65.33ZM356.46,180.81h-6.27v-.73h6.27v.73Z"/>
        <path class="cls-4" d="M360.81,186.64c2.42.27,5.25.9,6.98,1.58l-.33.77c-1.56-.65-4.49-1.34-6.91-1.63l.26-.73ZM361.69,183.27c1.75.18,3.95.59,5.31,1.01l-.25.77c-1.29-.44-3.51-.86-5.29-1.03l.23-.75ZM361.73,179.87c1.87.2,4.27.64,5.79,1.18l-.32.77c-1.52-.57-3.85-1-5.72-1.21l.25-.74Z"/>
        <path class="cls-4" d="M371.59,180.47c1.14.36,2.46.93,3.28,1.5l-.42.69c-.79-.56-2.09-1.14-3.21-1.53l.35-.66ZM371.54,188.1c3.91-1.21,6.5-3.4,7.82-6.45.23.19.48.33.71.45-1.38,3.01-4.06,5.36-7.79,6.6-.01.1-.08.21-.15.25l-.59-.86Z"/>
        <path class="cls-4" d="M390.17,181.77c-.04.07-.1.12-.17.17-1.17,3.64-2.97,5.84-5.95,7.36-.12-.19-.34-.44-.56-.61,2.83-1.38,4.6-3.49,5.53-6.48h-3.88c-.64.99-1.45,1.91-2.43,2.68-.14-.15-.41-.36-.62-.5,1.5-1.12,2.74-2.86,3.49-4.82l1.03.29c-.03.11-.17.15-.31.14-.22.5-.47,1.02-.73,1.46h3.83l.13-.07.63.36ZM388.8,179.24c.52.42,1.12,1.09,1.44,1.56l-.41.35c-.33-.51-.92-1.16-1.42-1.56l.38-.35ZM390.4,178.92c.52.42,1.12,1.08,1.44,1.56l-.41.34c-.33-.5-.9-1.13-1.42-1.55l.39-.35Z"/>
        <path class="cls-4" d="M398.02,181.28c-.04.1-.13.18-.27.18-.4,3.42-1.54,6.4-3.37,6.4-.92,0-1.76-.92-1.76-2.66,0-2.64,2.06-4.85,4.95-4.85,3.18,0,4.55,2.01,4.55,4.16,0,2.62-1.52,3.88-4.18,4.5-.1-.18-.29-.47-.46-.67,2.53-.48,3.83-1.72,3.83-3.79,0-1.82-1.17-3.47-3.74-3.47-.11,0-.23.01-.33.02l.78.19ZM396.97,181.14c-2.22.27-3.6,2.11-3.6,4.04,0,1.18.51,1.91,1.03,1.91,1.33,0,2.29-2.94,2.56-5.95Z"/>
        <path class="cls-4" d="M405.67,183.68v3.62c.85,1.31,2.41,1.31,4.5,1.31,1.2,0,2.61-.02,3.47-.08-.09.17-.2.51-.24.73-.75.02-1.94.04-3.04.04-2.41,0-3.92,0-5-1.38-.58.51-1.19.99-1.68,1.36,0,.1-.02.14-.1.18l-.42-.79c.54-.35,1.21-.84,1.8-1.32v-2.97h-1.66v-.7h2.38ZM404,179.53c.71.51,1.54,1.26,1.89,1.83l-.55.51c-.35-.56-1.16-1.35-1.87-1.88l.53-.45ZM410.19,182.07c-.69-.34-1.54-.71-2.25-.98l.48-.43c.48.18,1.04.4,1.58.64.58-.26,1.2-.61,1.67-.95h-4.82v-.61h5.58l.12-.03.56.36s-.11.08-.18.09c-.56.48-1.41,1.03-2.26,1.44.34.15.65.32.9.46h1.42v5.01c0,.73-.23.8-1.87.8-.03-.2-.12-.45-.21-.63.32.01.63.02.85.02.47,0,.53,0,.53-.2v-1.12h-2.07v1.86h-.67v-1.86h-1.99v1.9h-.7v-5.79h3.32ZM409.56,182.66h-1.99v1.04h1.99v-1.04ZM407.57,185.37h1.99v-1.09h-1.99v1.09ZM412.3,183.71v-1.04h-2.07v1.04h2.07ZM410.23,185.37h2.07v-1.09h-2.07v1.09Z"/>
        <path class="cls-4" d="M415.76,183.16c-.42.69-.88,1.31-1.34,1.84-.08-.18-.26-.52-.38-.69,1.06-1.14,2.11-3.05,2.75-4.95l.88.3c-.04.08-.12.11-.25.1-.29.77-.63,1.54-1.01,2.28l.3.08c-.02.07-.08.12-.22.13v7.29h-.72v-6.37ZM417.24,181.35h7.26v.63h-7.26v-.63ZM418.05,189.5v-3.53h5.69v3.5h-.75v-.52h-4.22v.55h-.71ZM423.64,182.89v.62h-5.48v-.62h5.48ZM418.16,185.05v-.62h5.47v.62h-5.47ZM423.44,179.81v.62h-5.16v-.62h5.16ZM422.99,186.58h-4.22v1.75h4.22v-1.75Z"/>
        <path class="cls-4" d="M429.18,181.14v.62h-3.93v-.62h3.93ZM428.91,185.62v3.23h-2.53v.52h-.64v-3.75h3.17ZM428.9,182.63v.6h-3.15v-.6h3.15ZM425.75,184.73v-.61h3.15v.61h-3.15ZM428.85,179.67v.61h-3.05v-.61h3.05ZM428.26,186.25h-1.88v1.98h1.88v-1.98ZM435.41,185.77h-2.23c.61,1.02,1.56,2.07,2.4,2.6-.15.13-.4.39-.52.57-.8-.61-1.72-1.68-2.33-2.75v3.3h-.71v-3.22c-.65,1.12-1.58,2.15-2.51,2.72-.11-.18-.34-.43-.5-.57.98-.51,1.98-1.56,2.6-2.64h-2.24v-.67h2.65v-1.03h-2.22v-4.31h5.2v4.31h-2.27v1.03h2.68v.67ZM430.47,180.36v1.23h1.56v-1.23h-1.56ZM430.47,182.2v1.24h1.56v-1.24h-1.56ZM434.3,181.6v-1.23h-1.61v1.23h1.61ZM434.3,183.44v-1.24h-1.61v1.24h1.61Z"/>
        <path class="cls-4" d="M439.23,186.5v1.61c.92.42,2.12.5,3.56.51.46,0,3.16,0,3.76-.02-.11.17-.23.45-.28.65h-3.49c-2.49,0-4.21-.27-5.24-1.83-.15.79-.42,1.55-.88,2.08-.1-.13-.3-.33-.45-.42.68-.82.87-2.38.92-3.74l.82.08c-.01.08-.08.13-.21.14-.02.33-.04.68-.09,1.05.23.47.53.84.89,1.12v-3.06h-2.24v-.59h5.03v.59h-2.12v1.25h1.94v.58h-1.94ZM440.67,179.75v3.47h-3.66v-3.47h3.66ZM439.97,181.2v-.89h-2.29v.89h2.29ZM439.97,182.65v-.91h-2.29v.91h2.29ZM443.38,186.7c-.04.08-.13.1-.22.09-.47.53-1.25,1.09-1.95,1.44-.1-.12-.31-.33-.45-.44.65-.3,1.42-.83,1.86-1.38l.76.29ZM441.76,181.39h1.32c.1-.3.22-.66.31-.98h-2.13v-.57h5.14v.57h-2.33c-.09.3-.21.66-.34.98h2.12v4.88h-4.08v-4.88ZM445.15,182.83v-.88h-2.71v.88h2.71ZM445.15,184.26v-.89h-2.71v.89h2.71ZM445.15,185.7v-.9h-2.71v.9h2.71ZM445.87,188.19c-.38-.42-1.06-.98-1.65-1.41l.5-.31c.64.44,1.36.99,1.79,1.42l-.64.3Z"/>
        <path class="cls-4" d="M456.97,183.98s-.04.02-.07.02c-.07,0-.12-.03-.17-.07-.84.28-2.06.73-2.97,1.12.02.25.03.54.03.86,0,.35-.01.75-.03,1.18l-.8.04c.03-.4.05-.9.05-1.33,0-.17,0-.32-.01-.44-1.24.61-2.25,1.34-2.25,2s.76.95,2.28.95c1.07,0,2.06-.02,2.76-.11v.74c-.64.07-1.63.09-2.76.09-2.11,0-3.05-.51-3.05-1.63,0-.97,1.28-1.9,2.93-2.73-.07-.69-.37-1.03-.81-1.03-.8,0-1.64.45-2.63,1.55-.31.34-.74.77-1.21,1.2l-.54-.54c1.1-.97,2.13-1.89,2.77-4.06h-.62s-1.84.01-1.84.01v-.71c.67.01,1.45.01,1.9.01h.75c.12-.52.22-.99.3-1.58l1.08.13c-.02.11-.11.18-.28.2-.08.44-.18.83-.27,1.22.75-.01,2.35-.19,3.78-.64l.13.74c-1.38.43-3.04.58-4.12.62-.26.83-.54,1.49-.79,1.86h.01c.48-.43,1.21-.71,1.77-.71.75,0,1.22.54,1.36,1.43.92-.42,2.09-.87,2.97-1.21l.34.84Z"/>
        <path class="cls-4" d="M336.33,200.32h-3.88c.98,1.02,2.56,1.89,4.08,2.31-.17.15-.38.43-.5.63-1.57-.52-3.26-1.53-4.3-2.73v2.97h-.75v-3.01c-1.03,1.23-2.74,2.3-4.25,2.85-.12-.19-.34-.47-.51-.62,1.44-.46,3.03-1.36,4-2.4h-3.79v-.66h4.54v-.98l.97.06c-.01.09-.08.14-.22.15v.77h4.6v.66ZM326.3,198.25c.66-.33,1.63-.89,2.6-1.44l.21.62c-.83.5-1.69,1.01-2.24,1.33,0,.09-.04.17-.11.2l-.45-.7ZM327.18,193.96c.68.48,1.44,1.22,1.77,1.76l-.56.48c-.31-.55-1.05-1.31-1.73-1.83l.52-.42ZM333.46,194.41v4.21h-4.13v-4.21h1.41c.12-.36.25-.81.33-1.14l.91.21c-.02.07-.1.11-.22.11-.08.23-.19.54-.31.83h2ZM332.74,196.21v-1.2h-2.7v1.2h2.7ZM332.74,198.02v-1.22h-2.7v1.22h2.7ZM333.99,196.65c.87.44,1.98,1.13,2.53,1.62l-.45.56c-.54-.5-1.63-1.21-2.52-1.68l.44-.5ZM333.69,195.74c.57-.5,1.34-1.31,1.78-1.9l.76.47c-.03.05-.11.09-.24.07-.45.54-1.18,1.25-1.75,1.75l-.55-.39Z"/>
        <path class="cls-4" d="M339.78,194.09c-.03.12-.14.19-.36.18-.38,1.79-.58,3.76-.58,4.95,0,.83.03,1.66.14,2.18.21-.54.68-1.69.84-2.08l.46.48c-.45,1.11-.78,1.74-.94,2.23-.05.19-.09.36-.09.52,0,.12.02.23.05.34l-.78.14c-.35-1.04-.48-2.32-.48-3.78s.23-3.45.58-5.36l1.16.2ZM346.78,202.13c-.4.02-.8.03-1.21.03-.78,0-1.52-.04-2.05-.12-1.35-.2-1.98-.95-1.98-1.83,0-.76.42-1.4,1.03-2.12l.71.31c-.55.57-.94,1.1-.94,1.73,0,1.28,1.87,1.28,3.01,1.28.46,0,.96-.02,1.42-.05v.78ZM341.69,195.41c1.42-.03,3.33-.17,4.8-.42l.07.77c-1.36.23-3.58.37-4.84.41l-.02-.76Z"/>
        <path class="cls-4" d="M350.5,197.68v3.62c.86,1.31,2.46,1.31,4.53,1.31,1.21,0,2.62-.02,3.48-.08-.09.17-.21.51-.23.73-.76.02-1.97.04-3.06.04-2.42,0-3.94,0-5.03-1.36-.51.5-1.02.98-1.45,1.35.01.09-.01.13-.09.18l-.43-.78c.47-.35,1.04-.84,1.56-1.31v-2.99h-1.45v-.7h2.17ZM349.03,193.55c.69.52,1.47,1.29,1.81,1.84l-.6.46c-.32-.56-1.09-1.35-1.78-1.89l.57-.41ZM352.07,201.87v-5.16c-.31.43-.65.8-.99,1.12-.12-.14-.36-.4-.52-.53,1.01-.88,1.94-2.42,2.49-4.02l.9.28c-.03.08-.12.12-.25.11-.19.51-.41,1-.66,1.49h1.79c.28-.54.56-1.28.74-1.79l.9.26c-.02.07-.11.11-.23.11-.18.41-.43.96-.68,1.42h2.62v.65h-2.63v1.18h2.27v.64h-2.27v1.2h2.24v.63h-2.24v1.23h2.82v.65h-5.58v.54h-.71ZM354.85,196.98v-1.18h-2.06v1.18h2.06ZM354.85,198.82v-1.2h-2.06v1.2h2.06ZM354.85,200.68v-1.23h-2.06v1.23h2.06Z"/>
        <path class="cls-4" d="M366.91,193.76c-.02.1-.14.14-.29.17-.12.76-.28,1.49-.45,2.13,1.93.36,2.99,1.76,2.99,3.45,0,1.96-1.49,3.21-4.27,3.61-.11-.23-.23-.47-.35-.67,2.43-.32,3.82-1.31,3.82-2.92,0-1.33-.85-2.45-2.41-2.75-.52,1.69-1.22,3-1.99,3.92.14.2.33.37.51.54l-.56.54c-.17-.17-.32-.34-.47-.54-.71.68-1.5,1.02-2.23,1.02-.97,0-1.56-.83-1.56-2.02,0-1.5.83-2.65,1.94-3.38-.21-.84-.38-1.75-.54-2.74l1.06-.02c-.01.1-.08.21-.23.24.11.76.23,1.5.38,2.18,1.21-.6,2.38-.6,2.87-.6.09,0,.19,0,.26.01.18-.73.33-1.54.44-2.41l1.09.24ZM363.02,200.66c-.5-.8-.9-1.83-1.23-3.05-.69.48-1.42,1.35-1.42,2.58,0,.78.3,1.34.89,1.34.68,0,1.27-.4,1.76-.87ZM363.51,200.05c.66-.8,1.23-1.92,1.67-3.41-.12-.01-.26-.01-.38-.01-.85.01-1.67.2-2.39.59.29,1.1.64,2.08,1.1,2.83Z"/>
        <path class="cls-4" d="M373.27,195.64c-.04.11-.13.17-.29.19-.09,1.63-.3,3.01-.45,3.25h.01c1.08-.8,2.76-1.35,4.05-1.35,1.69,0,2.75.87,2.73,2.41-.03,2.02-1.71,2.93-5.96,3.1-.05-.21-.15-.52-.28-.73,3.84-.17,5.38-.79,5.41-2.37.01-1.06-.73-1.69-2.01-1.69-2.04,0-3.87,1.22-4.18,1.76l-.75-.36c.22-.21.61-2.18.63-4.33l1.09.13ZM373.46,193.51c1.5.18,3.19.52,4.27.97l-.27.76c-1.13-.48-2.77-.8-4.22-1l.23-.73Z"/>
        <path class="cls-4" d="M381.78,195.8c.89,0,1.71-.08,2.07-.17.02-.66.03-1.02.08-2.02l1.13.09c-.02.12-.12.2-.31.22-.04.48-.09,1.17-.11,1.57l.34.13c-.26.53-.37,1.18-.44,1.57,1.21-1.13,2.55-1.94,3.47-1.94,1.03,0,1.55.73,1.55,2,0,.14-.01.29-.02.43-.08.97-.19,2.34-.19,3.22,0,.66.08,1.01.54,1.01.33,0,.99-.33,1.46-.74.02.22.11.67.15.84-.56.41-1.22.71-1.73.71-.92,0-1.23-.55-1.23-1.69,0-.57.2-3.6.2-3.61,0-.96-.33-1.39-.87-1.39-.83,0-2.21.89-3.36,2.1,0,1.6,0,3.55.01,5.05h-.77c.01-.64,0-3.77.01-4.48-.38.77-1.13,1.77-2,2.65l-.4-.69c.91-.86,1.94-2.19,2.42-3.32,0-.32.01-.62.02-.97-.38.09-1.19.18-2.02.19v-.78Z"/>
        <path class="cls-4" d="M396.02,198.1c.73-.37,1.86-.64,2.73-.64,1.75,0,2.85,1.02,2.85,2.64,0,1.99-1.75,3.09-3.96,3.09-1.43,0-2.41-.57-2.41-1.54,0-.81.8-1.47,1.8-1.47,1.24,0,2.08.99,2.24,1.99.88-.33,1.52-1.03,1.52-2.06,0-1.19-.88-1.95-2.27-1.95-1.65,0-3.27.74-3.99,1.44-.33.31-.76.77-1.06,1.11l-.56-.56c.99-1.03,4.14-4.04,5.63-5.43-.64.09-2.84.18-4.09.22-.03.08-.14.14-.23.17l-.09-.93c1.49-.01,4.32-.12,5.13-.24l.17-.08.58.71c-.05.04-.15.09-.26.1-.78.64-2.87,2.6-3.73,3.42h0ZM397.54,202.51c.33,0,.71-.04,1-.11-.12-.85-.75-1.56-1.56-1.56-.57,0-1.08.31-1.08.81,0,.67.91.86,1.64.86Z"/>
        <path class="cls-4" d="M412.07,202.51c-.95-.75-2.15-1.46-3.3-1.84.02.43-.05.99-.14,1.28-.09.91-.94,1.27-1.95,1.27-1.42,0-2.54-.69-2.55-1.8-.02-1.11,1.14-1.79,2.53-1.8.38,0,.88.02,1.29.1,0-.3-.05-.55-.07-.8-.1-1.44-.19-3.75-.2-5.34l1.14.07c0,.11-.1.21-.29.23-.01.3,0,1.75,0,2.08.71,0,2.32-.12,3.65-.35l.08.78c-1.25.2-2.88.31-3.72.32,0,.63.02.88.19,3.16,1.42.42,2.76,1.17,3.84,1.96l-.51.7ZM406.63,200.26c-1.06.02-1.79.46-1.79,1.09,0,.8.87,1.16,1.75,1.16.77,0,1.41-.28,1.41-1.06,0-.25,0-.7-.02-1.02-.44-.13-.92-.17-1.34-.17Z"/>
        <path class="cls-4" d="M415.66,197.32c1.65-.45,3.73-.9,4.55-.9,1.65,0,2.62.88,2.62,2.51v.09c-.02,2-1.59,3.47-4.75,4.31-.1-.19-.33-.48-.49-.67,2.82-.67,4.41-1.99,4.41-3.66,0-1.06-.51-1.82-1.82-1.82-.88,0-2.63.4-3.98.87.01.09-.1.2-.21.25l-.33-.98ZM417.2,193.52c1.51.13,3.25.45,4.42.86l-.23.77c-1.17-.4-2.95-.76-4.38-.88l.19-.75Z"/>
        <path class="cls-4" d="M433.59,197.53l.55.32c-.03.06-.09.09-.15.11-.64,1.49-1.66,2.63-2.92,3.49,1.22.68,2.72,1.13,4.43,1.38-.18.18-.36.5-.47.7-1.83-.29-3.4-.83-4.69-1.64-1.38.78-2.98,1.29-4.68,1.61-.07-.2-.26-.54-.41-.7,1.61-.26,3.12-.69,4.42-1.35-1.02-.77-1.83-1.75-2.41-2.93l.63-.23h-1.73v-.73h3.81v-1.8h-4.41v-.73h4.41v-1.75l.98.07c-.01.08-.08.13-.22.15v1.53h4.46v.73h-4.46v1.8h2.71l.14-.02ZM427.97,198.28c.55,1.11,1.36,2.04,2.43,2.75,1.1-.69,2-1.59,2.59-2.75h-5.02Z"/>
        <path class="cls-4" d="M439.6,198.86l-1,.36v3.36c0,.87-.43.92-1.9.92-.02-.2-.12-.51-.23-.71.24.01.46.01.66.01.77,0,.77-.01.77-.23v-3.09l-1.25.44c-.01.08-.07.14-.14.17l-.28-.85c.46-.13,1.04-.31,1.67-.51v-2.46h-1.56v-.69h1.56v-2.3l.92.05c-.01.09-.07.13-.22.15v2.09h1.24v.69h-1.24v2.24l.9-.29.1.64ZM445.11,199.54l.42.2s-.04.09-.09.11c-.32.92-.8,1.65-1.43,2.21.73.38,1.58.67,2.5.81-.15.15-.35.43-.45.63-.96-.2-1.85-.54-2.61-1-.66.45-1.43.78-2.29,1-.08-.17-.29-.44-.42-.56.79-.19,1.51-.45,2.13-.84-.58-.44-1.07-.96-1.41-1.55l.59-.2c.32.52.78.98,1.35,1.36.51-.42.91-.92,1.19-1.56h-3.07c-.43,1.38-1.05,2.52-1.93,3.3-.12-.12-.38-.32-.55-.42,1.1-.92,1.77-2.47,2.16-4.38h-1.47v-.63h1.6c.05-.32.1-.64.14-.97h-1.62v-.62h4.18l-.13-.05c.37-.51.84-1.34,1.08-1.91l.81.3c-.02.07-.1.1-.22.1-.25.45-.65,1.1-1.01,1.57h1.25v.62h-3.64c-.04.33-.09.65-.14.97h4.3v.63h-4.42c-.07.31-.13.6-.21.9h3.27l.13-.02ZM445.82,193.87s-.07.02-.11.02c-.03,0-.07,0-.1-.01-1.36.31-3.79.54-5.78.64-.02-.18-.1-.43-.18-.57,1.96-.11,4.36-.34,5.66-.67l.51.59ZM440.85,194.69c.26.45.51,1.03.58,1.43l-.6.21c-.07-.4-.31-1-.55-1.46l.57-.18ZM442.89,194.54c.19.48.33,1.11.35,1.5l-.62.13c-.02-.4-.15-1.03-.32-1.53l.58-.1Z"/>
      </g>
      <g>
        <path class="cls-4" d="M209.74,168.41h-4.02c.95,1.96,2.6,3.77,4.39,4.63-.19.15-.43.44-.56.65-1.73-.94-3.29-2.7-4.3-4.69v3.61h2.2v.75h-2.2v2.13h-.77v-2.13h-2.23v-.75h2.23v-3.59c-1.04,1.99-2.62,3.72-4.28,4.69-.13-.19-.36-.46-.53-.61,1.73-.89,3.38-2.74,4.33-4.7h-3.97v-.75h4.44v-2.38l.99.05c-.01.08-.07.13-.22.15v2.17h4.49v.75Z"/>
        <path class="cls-4" d="M220.65,168.88h-2.3v.76c0,2.1-.65,4.24-3.52,5.53-.14-.18-.37-.4-.57-.55,2.79-1.21,3.31-3.17,3.31-4.97v-.77h-3.55v2.74h-.78v-2.74h-2.16v-.75h2.16v-2.39l1.06.07c-.01.11-.11.21-.28.23v2.09h3.55v-2.53l1.06.07c-.01.1-.1.19-.27.21v2.26h2.3v.75Z"/>
        <path class="cls-4" d="M231.11,166.29c-.04.06-.11.09-.21.09-.03,0-.07,0-.11-.01-.85.86-2.07,1.86-3.13,2.63.09.03.22.1.26.12-.02.07-.12.13-.24.14v5.91h-.8v-5.66c-1.17.83-2.68,1.72-4.19,2.45-.11-.18-.31-.45-.46-.6,3-1.39,6.29-3.74,8.06-5.69l.83.62Z"/>
        <path class="cls-4" d="M240.98,171.44c-1.12-.61-2.66-1.32-3.86-1.79v5.5h-.82v-9.56l1.11.07c-.01.12-.1.2-.29.23v3.21l.17-.23c1.29.47,2.99,1.23,4.14,1.84l-.44.74Z"/>
        <path class="cls-4" d="M249.62,167.71c0,.41-.33.74-.75.74s-.75-.33-.75-.74.33-.75.75-.75c.44,0,.75.35.75.75ZM249.62,173.05c0,.42-.33.75-.75.75s-.75-.33-.75-.75.33-.74.75-.74c.44,0,.75.35.75.74Z"/>
        <path class="cls-4" d="M181.52,180.91h7l.07-.03.75.57s-.07.08-.13.1c-.89,4.14-2.81,6.29-6.17,7.57-.12-.2-.34-.48-.5-.65,3.2-1.18,5.05-3.22,5.76-6.8h-6.78v-.76ZM189.9,178.95c.66,0,1.2.54,1.2,1.21s-.54,1.2-1.2,1.2-1.21-.54-1.21-1.2c0-.69.56-1.21,1.21-1.21ZM190.74,180.16c0-.47-.37-.85-.84-.85s-.85.37-.85.85.38.85.85.85.84-.41.84-.85Z"/>
        <path class="cls-4" d="M200.43,181.09v7.26h-.79v-.69h-6.06v.71h-.77v-7.28h7.62ZM199.64,186.92v-5.09h-6.06v5.09h6.06Z"/>
        <path class="cls-4" d="M211.41,181.77c-.04.07-.1.12-.17.17-1.17,3.64-2.97,5.84-5.95,7.36-.12-.19-.34-.44-.56-.61,2.83-1.38,4.6-3.49,5.53-6.48h-3.88c-.64.99-1.45,1.91-2.43,2.68-.14-.15-.41-.36-.62-.5,1.5-1.12,2.74-2.86,3.49-4.82l1.03.29c-.03.11-.17.15-.31.14-.22.5-.47,1.02-.73,1.46h3.83l.13-.07.63.36ZM210.04,179.24c.52.42,1.12,1.09,1.44,1.56l-.41.35c-.33-.51-.92-1.16-1.42-1.56l.38-.35ZM211.64,178.92c.52.42,1.12,1.08,1.44,1.56l-.41.34c-.33-.5-.9-1.13-1.42-1.55l.39-.35Z"/>
        <path class="cls-4" d="M222.74,183.16s-.08.09-.14.11c-.9,3.32-2.74,4.94-6.03,5.85-.1-.2-.31-.47-.46-.64,2.99-.75,4.85-2.29,5.54-4.84h-7.28v-.75h7.61l.11-.07.65.33ZM221.7,180.81h-6.27v-.73h6.27v.73Z"/>
        <path class="cls-4" d="M226.05,186.64c2.42.27,5.25.9,6.98,1.58l-.33.77c-1.56-.65-4.49-1.34-6.91-1.63l.26-.73ZM226.93,183.27c1.75.18,3.95.59,5.31,1.01l-.25.77c-1.29-.44-3.51-.86-5.29-1.03l.23-.75ZM226.97,179.87c1.87.2,4.27.64,5.79,1.18l-.32.77c-1.52-.57-3.85-1-5.72-1.21l.25-.74Z"/>
        <path class="cls-4" d="M236.83,180.47c1.14.36,2.46.93,3.28,1.5l-.42.69c-.79-.56-2.09-1.14-3.21-1.53l.35-.66ZM236.78,188.1c3.91-1.21,6.5-3.4,7.82-6.45.23.19.48.33.71.45-1.38,3.01-4.06,5.36-7.79,6.6-.01.1-.08.21-.15.25l-.59-.86Z"/>
        <path class="cls-4" d="M255.41,181.77c-.04.07-.1.12-.17.17-1.17,3.64-2.97,5.84-5.95,7.36-.12-.19-.34-.44-.56-.61,2.83-1.38,4.6-3.49,5.53-6.48h-3.88c-.64.99-1.45,1.91-2.43,2.68-.14-.15-.41-.36-.62-.5,1.5-1.12,2.74-2.86,3.49-4.82l1.03.29c-.03.11-.17.15-.31.14-.22.5-.47,1.02-.73,1.46h3.83l.13-.07.63.36ZM254.04,179.24c.52.42,1.12,1.09,1.44,1.56l-.41.35c-.33-.51-.92-1.16-1.42-1.56l.38-.35ZM255.64,178.92c.52.42,1.12,1.08,1.44,1.56l-.41.34c-.33-.5-.9-1.13-1.42-1.55l.39-.35Z"/>
        <path class="cls-4" d="M267.21,183.98s-.04.02-.07.02c-.07,0-.12-.03-.17-.07-.84.28-2.06.73-2.97,1.12.02.25.03.54.03.86,0,.35-.01.75-.03,1.18l-.8.04c.03-.4.05-.9.05-1.33,0-.17,0-.32-.01-.44-1.24.61-2.25,1.34-2.25,2s.76.95,2.28.95c1.07,0,2.06-.02,2.76-.11v.74c-.64.07-1.63.09-2.76.09-2.11,0-3.05-.51-3.05-1.63,0-.97,1.28-1.9,2.93-2.73-.07-.69-.37-1.03-.81-1.03-.8,0-1.64.45-2.63,1.55-.31.34-.74.77-1.21,1.2l-.54-.54c1.1-.97,2.13-1.89,2.77-4.06h-.62s-1.84.01-1.84.01v-.71c.67.01,1.45.01,1.9.01h.75c.12-.52.22-.99.3-1.58l1.08.13c-.02.11-.11.18-.28.2-.08.44-.18.83-.27,1.22.75-.01,2.35-.19,3.78-.64l.13.74c-1.38.43-3.04.58-4.12.62-.26.83-.54,1.49-.79,1.86h.01c.48-.43,1.21-.71,1.77-.71.75,0,1.22.54,1.36,1.43.92-.42,2.09-.87,2.97-1.21l.34.84Z"/>
        <path class="cls-4" d="M181.78,201.98c.44-.01,1.62-.05,2.31-.17.01.24.02.55.04.79-.73.08-1.83.12-2.28.12h-2.75c-1.66,0-2.46-.73-2.46-2.3v-6.41l1.08.07c-.02.11-.1.18-.3.2v3.59c1.68-.53,4.03-1.41,5.46-2.18l.56.76s-.09.03-.13.03c-.05,0-.1-.01-.15-.03-1.33.67-3.84,1.6-5.73,2.17v1.84c0,1.11.54,1.53,1.67,1.53h2.68ZM182.82,193.69c.51.45,1.06,1.13,1.36,1.62l-.42.32c-.31-.48-.88-1.2-1.34-1.62l.4-.32ZM184.17,193.03c.5.45,1.06,1.12,1.36,1.61l-.42.32c-.31-.48-.89-1.19-1.34-1.61l.4-.32Z"/>
        <path class="cls-4" d="M186.91,196.79c.99.22,2.22.64,2.96.99l-.33.69c-.73-.35-1.99-.79-2.96-1.01l.33-.67ZM187.57,202.16c3.53-1.19,6.03-3.12,7.48-6.4.17.14.5.38.67.5-1.47,3.25-4.08,5.31-7.4,6.49.03.1-.03.23-.12.27l-.63-.86ZM188.12,194.06c.99.26,2.2.7,2.95,1.08l-.36.67c-.78-.4-1.93-.84-2.92-1.11l.33-.64ZM193.27,193.69c.45.38,1.08,1.07,1.42,1.59l-.43.32c-.31-.47-.95-1.21-1.4-1.61l.41-.31ZM194.8,193.02c.45.38,1.08,1.08,1.43,1.58l-.43.32c-.33-.48-.95-1.19-1.4-1.58l.4-.32Z"/>
        <path class="cls-4" d="M205.86,201.67v.64h-7.5v-.64h4.48c.18-1.11.47-3.3.58-4.42h-4.19v-.64h4.41l.13-.04.54.26s-.07.09-.13.1c-.14,1.16-.49,3.56-.68,4.74h2.37Z"/>
        <path class="cls-4" d="M217.77,194.58s-.09.08-.14.1c-.59,1.41-1.54,2.63-2.61,3.52-.16-.14-.47-.34-.67-.45,1.01-.74,1.83-1.8,2.19-2.73h-7.88v-.75h8.29l.12-.05.69.36ZM213.47,196.59c-.01.09-.11.17-.25.19-.32,2.6-1.21,5.07-3.48,6.38-.15-.13-.44-.38-.65-.51,2.24-1.23,3.05-3.53,3.31-6.18l1.07.12Z"/>
        <path class="cls-4" d="M221.99,195.31c-.01.1-.11.17-.25.19-.07,2.96-.31,5.66-2,7.62-.18-.13-.44-.3-.66-.42,1.64-1.78,1.84-4.53,1.87-7.49l1.04.1ZM224.84,201.65c1.84-.89,3.03-2.5,3.66-4.42.17.14.49.33.68.43-.78,2.22-2.15,3.86-4.49,4.97-.03.09-.11.18-.19.22l-.57-.73.12-.17v-8.08l1.02.06c-.01.1-.09.19-.24.21v7.5Z"/>
        <path class="cls-4" d="M231.65,195.16c.21-.56.43-1.33.54-1.89l.95.23c-.03.08-.1.11-.24.11-.12.45-.34,1.07-.55,1.55h1.85v6.55h-3.01v.91h-.69v-7.46h1.17ZM233.48,198.04v-2.2h-2.31v2.2h2.31ZM231.17,201.02h2.31v-2.32h-2.31v2.32ZM239.5,195.18l.38.02c-.01.06-.01.17-.01.24-.15,5.33-.3,7.08-.73,7.61-.28.37-.57.44-1.34.44-.36,0-.81-.01-1.27-.04-.02-.21-.11-.52-.24-.7.78.05,1.49.05,1.79.05.18,0,.3-.04.41-.17.35-.38.52-2.1.65-6.77h-3.09c-.35.97-.78,1.85-1.26,2.51-.12-.13-.38-.37-.55-.48.78-1.04,1.42-2.85,1.79-4.64l.93.22c-.03.1-.12.13-.24.12-.12.53-.26,1.07-.44,1.58h3.21ZM236.38,197.51c.64.86,1.29,1.99,1.52,2.74l-.67.32c-.23-.75-.85-1.91-1.49-2.77l.64-.29Z"/>
        <path class="cls-4" d="M243.52,194.09c-.03.12-.14.19-.36.18-.38,1.79-.58,3.76-.58,4.95,0,.83.03,1.66.14,2.18.21-.54.68-1.69.84-2.08l.46.48c-.45,1.11-.78,1.74-.94,2.23-.05.19-.09.36-.09.52,0,.12.02.23.05.34l-.78.14c-.35-1.04-.48-2.32-.48-3.78s.23-3.45.58-5.36l1.16.2ZM250.52,202.13c-.4.02-.8.03-1.21.03-.78,0-1.52-.04-2.05-.12-1.35-.2-1.98-.95-1.98-1.83,0-.76.42-1.4,1.03-2.12l.71.31c-.55.57-.94,1.1-.94,1.73,0,1.28,1.87,1.28,3.01,1.28.46,0,.96-.02,1.42-.05v.78ZM245.43,195.41c1.42-.03,3.33-.17,4.8-.42l.07.77c-1.36.23-3.58.37-4.84.41l-.02-.76Z"/>
        <path class="cls-4" d="M256.66,196.11v6.56c0,.83-.46.83-1.86.83-.03-.18-.14-.46-.24-.64.35.01.67.02.9.02.51,0,.56,0,.56-.22v-2.12h-2.67c-.09,1.04-.33,2.17-.86,2.99-.11-.1-.4-.27-.54-.34.76-1.19.84-2.85.84-4.1v-2.23c-.11.14-.22.29-.33.41-.12-.11-.36-.31-.53-.41.74-.8,1.38-2.19,1.75-3.58l.85.23c-.02.08-.09.11-.22.11-.07.22-.13.43-.21.65h1.41l.11-.03.51.33s-.09.07-.14.09c-.18.43-.46.99-.73,1.46h1.41ZM254.57,196.11c.21-.35.42-.81.58-1.24h-1.29c-.19.44-.38.86-.6,1.24h1.31ZM253.42,198.59v.5c0,.26,0,.56-.02.86h1.02v-1.35h-1ZM253.42,196.71v1.3h1v-1.3h-1ZM254.98,196.71v1.3h1.04v-1.3h-1.04ZM254.98,199.94h1.04v-1.35h-1.04v1.35ZM261.97,193.87c0,.08-.01.15-.02.23-.1,1.87-.19,2.56-.43,2.83-.14.18-.32.26-.83.26-.25,0-.59-.01-.93-.02-.01-.19-.08-.45-.18-.63.46.05.89.05,1.05.05.17,0,.26-.01.33-.1.13-.15.22-.68.3-2.01h-1.89c-.23,1.22-.71,2.41-2.18,3.08-.09-.15-.27-.4-.43-.52,1.23-.52,1.71-1.47,1.91-2.56h-1.56v-.64h4.48s.38.02.38.02ZM262.25,200.79v.66h-2.25v2.06h-.71v-2.06h-2.33v-.66h2.33v-1.44h-1.26c-.15.41-.35.77-.56,1.06-.12-.1-.35-.26-.51-.35.43-.56.74-1.54.91-2.51l.81.2c-.02.07-.09.11-.21.11-.07.28-.13.56-.22.85h1.03v-1.34l.92.06c-.01.08-.07.13-.21.15v1.13h1.84v.65h-1.84v1.44h2.25Z"/>
        <path class="cls-4" d="M267.03,195.16v.63h-4.04v-.63h4.04ZM266.68,199.73v3.23h-2.53v.52h-.65v-3.75h3.18ZM266.65,196.7v.61h-3.13v-.61h3.13ZM263.51,198.82v-.61h3.13v.61h-3.13ZM266.62,193.67v.61h-3.04v-.61h3.04ZM266.02,200.36h-1.87v1.98h1.87v-1.98ZM269.65,199.43c-.01.08-.09.12-.22.14-.18,1.62-.56,3.09-2.23,3.92-.09-.18-.3-.44-.47-.57,1.51-.69,1.86-1.99,1.98-3.59l.95.1ZM271.29,202.35c0,.29.04.33.3.33h.78c.28,0,.33-.22.35-1.75.15.12.45.23.64.3-.05,1.71-.23,2.12-.91,2.12h-.96c-.73,0-.9-.23-.9-1v-3.31h-3.04v-3.66h5.26v3.66h-1.43s-.05.02-.09.02v3.29ZM268.46,193.32c.37.55.73,1.29.87,1.78-.36.15-.53.21-.69.26-.13-.5-.48-1.26-.84-1.83l.66-.22ZM268.27,196.04v2.35h3.8v-2.35h-3.8ZM272.72,193.57c-.02.07-.11.1-.22.09-.23.51-.59,1.23-.9,1.71-.13-.05-.45-.2-.59-.25.28-.5.64-1.31.83-1.86l.89.32Z"/>
      </g>
      <g>
        <polyline class="cls-1" points="215.19 111.13 268.94 111.13 268.94 151.16 268.43 151.16"/>
        <rect class="cls-1" x="188.31" y="118.31" width="53.75" height="40.03"/>
        <polyline class="cls-1" points="268.28 151.16 242.06 158.34 242.06 118.31 268.94 110.95 268.94 150.98"/>
        <line class="cls-1" x1="268.59" y1="151.07" x2="268.28" y2="151.16"/>
        <line class="cls-1" x1="268.94" y1="150.98" x2="268.59" y2="151.07"/>
        <polyline class="cls-1" points="188.31 158.38 188.31 118.35 215.19 110.99"/>
        <line class="cls-1" x1="189.13" y1="158.16" x2="188.31" y2="158.38"/>
      </g>
      <path class="cls-4" d="M212.94,142.94h.3c.34,0,.61.06.8.19.19.13.29.31.29.54,0,.25-.08.43-.25.54-.17.12-.43.17-.79.17h-2.83c-.21,0-.38-.07-.51-.21s-.21-.31-.21-.51c0-.25.09-.44.28-.55.19-.12.48-.17.88-.17h.21l3.32-3.41-3.26-3.17h-.14c-.4,0-.67-.05-.83-.16-.15-.11-.23-.29-.23-.55,0-.28.09-.47.26-.58.17-.11.51-.16,1-.16h2.1c.37,0,.64.06.8.18.17.12.25.3.25.56,0,.23-.09.41-.28.53-.19.12-.46.18-.82.18h-.08l2.21,2.16,2.1-2.16h-.21c-.38,0-.67-.06-.85-.17-.18-.11-.28-.29-.28-.52,0-.26.08-.46.25-.58.16-.12.43-.18.8-.18h2.67c.21,0,.38.07.52.2.13.13.2.3.2.51,0,.25-.08.44-.26.55s-.44.18-.82.18h-.29l-2.94,3.07,3.59,3.51h.1c.26,0,.46.06.61.19.14.13.21.31.21.54,0,.27-.08.46-.25.56-.16.1-.5.15-1.01.15h-2.09c-.36,0-.63-.06-.8-.17s-.26-.3-.26-.54c0-.23.08-.4.25-.53s.39-.19.68-.19h.57l-2.58-2.52-2.36,2.52Z"/>
      <path class="cls-4" d="M232.33,75.94h-5.21l-.52,3.51c.32-.04.61-.08,1.11-.08,1.05,0,2.1.23,2.94.73,1.07.61,1.95,1.79,1.95,3.51,0,2.67-2.12,4.66-5.08,4.66-1.49,0-2.75-.42-3.4-.84l.46-1.41c.57.34,1.68.76,2.92.76,1.74,0,3.23-1.13,3.23-2.96-.02-1.76-1.2-3.02-3.93-3.02-.78,0-1.39.08-1.89.15l.88-6.55h6.53v1.55Z"/>
      <g>
        <path class="cls-5" d="M200.42,43.21h.3c.34,0,.61.06.8.19.19.13.29.31.29.54,0,.25-.08.43-.25.54-.17.12-.43.17-.79.17h-2.83c-.21,0-.38-.07-.51-.21s-.21-.31-.21-.51c0-.25.09-.44.28-.55.19-.12.48-.17.88-.17h.21l3.32-3.41-3.26-3.17h-.14c-.4,0-.67-.05-.83-.16-.15-.11-.23-.29-.23-.55,0-.28.09-.47.26-.58.17-.11.51-.16,1-.16h2.1c.37,0,.64.06.8.18.17.12.25.3.25.56,0,.23-.09.41-.28.53-.19.12-.46.18-.82.18h-.08l2.21,2.16,2.1-2.16h-.21c-.38,0-.67-.06-.85-.17-.18-.11-.28-.29-.28-.52,0-.26.08-.46.25-.58.16-.12.43-.18.8-.18h2.67c.21,0,.38.07.52.2.13.13.2.3.2.51,0,.25-.08.44-.26.55s-.44.18-.82.18h-.29l-2.94,3.07,3.59,3.51h.1c.26,0,.46.06.61.19.14.13.21.31.21.54,0,.27-.08.46-.25.56-.16.1-.5.15-1.01.15h-2.09c-.36,0-.63-.06-.8-.17s-.26-.3-.26-.54c0-.23.08-.4.25-.53s.39-.19.68-.19h.57l-2.58-2.52-2.36,2.52Z"/>
        <path class="cls-5" d="M223.27,35.71h9.2c.21,0,.36.07.48.2.11.13.17.31.17.55s-.06.43-.17.56c-.11.13-.27.2-.48.2h-9.2c-.21,0-.37-.06-.49-.19-.11-.13-.17-.32-.17-.57s.06-.43.17-.56c.11-.13.28-.19.49-.19ZM223.27,39.15h9.2c.21,0,.36.07.48.2.11.13.17.32.17.56s-.06.43-.17.56c-.11.13-.27.2-.48.2h-9.2c-.21,0-.37-.07-.49-.2-.11-.13-.17-.32-.17-.56s.06-.43.17-.56c.11-.13.28-.19.49-.19Z"/>
        <path class="cls-5" d="M250.76,36.63c.45-.16.87-.29,1.25-.36.38-.08.75-.12,1.1-.12,1.2,0,2.19.42,2.99,1.25.8.83,1.19,1.86,1.19,3.09,0,1.31-.44,2.38-1.32,3.23-.88.85-2.01,1.27-3.38,1.27-1.15,0-2.11-.16-2.89-.47-.78-.31-1.16-.69-1.16-1.13,0-.18.07-.34.21-.48.14-.14.31-.21.5-.21.08,0,.48.13,1.21.39.73.26,1.4.4,2.02.4.92,0,1.66-.28,2.23-.83.57-.55.86-1.26.86-2.13s-.27-1.55-.81-2.12c-.54-.56-1.22-.85-2.04-.85-.62,0-1.22.15-1.81.46-.59.31-.95.46-1.07.46-.21,0-.35-.08-.44-.23-.08-.15-.13-.42-.13-.82v-5.12c0-.23.07-.39.21-.49.14-.1.38-.15.73-.15h5.19c.33,0,.57.07.74.2.16.13.25.33.25.6,0,.25-.09.45-.26.59-.17.14-.41.21-.73.21h-4.65v3.32Z"/>
      </g>
      <g>
        <line class="cls-3" x1="228.63" y1="114.16" x2="228.63" y2="90.8"/>
        <polygon class="cls-4" points="236.81 107.53 235.34 106.17 228.63 113.39 221.91 106.17 220.45 107.53 228.63 116.33 236.81 107.53"/>
      </g>
    </g>
  </g>
</svg>