<?xml version="1.0" encoding="UTF-8"?>
<svg id="_レイヤー_2" data-name="レイヤー 2" xmlns="http://www.w3.org/2000/svg" viewBox="0 0 81.63 95.97">
  <defs>
    <style>
      .cls-1, .cls-2 {
        fill: none;
        stroke: #231815;
        stroke-miterlimit: 10;
      }

      .cls-3 {
        fill: #231815;
      }

      .cls-4 {
        fill: #fff100;
      }

      .cls-2 {
        stroke-width: 2px;
      }
    </style>
  </defs>
  <g id="_レイヤー_1-2" data-name="レイヤー 1">
    <g>
      <rect class="cls-4" x="27.57" width="26.48" height="26.48" rx="5.47" ry="5.47"/>
      <g>
        <polyline class="cls-1" points="27.38 48.1 81.13 48.1 81.13 88.13 80.62 88.13"/>
        <rect class="cls-1" x=".5" y="55.29" width="53.75" height="40.03"/>
        <polyline class="cls-1" points="80.47 88.13 54.25 95.32 54.25 55.29 81.13 47.92 81.13 87.95"/>
        <line class="cls-1" x1="80.77" y1="88.05" x2="80.47" y2="88.13"/>
        <line class="cls-1" x1="81.13" y1="87.95" x2="80.77" y2="88.05"/>
        <polyline class="cls-1" points=".5 95.35 .5 55.33 27.38 47.96"/>
        <line class="cls-1" x1="1.32" y1="95.13" x2=".5" y2="95.35"/>
      </g>
      <path class="cls-3" d="M25.13,79.91h.3c.34,0,.61.06.8.19.19.13.29.31.29.54,0,.25-.08.43-.25.54-.17.12-.43.17-.79.17h-2.83c-.21,0-.38-.07-.51-.21s-.21-.31-.21-.51c0-.25.09-.44.28-.55.19-.12.48-.17.88-.17h.21l3.32-3.41-3.26-3.17h-.14c-.4,0-.67-.05-.83-.16-.15-.11-.23-.29-.23-.55,0-.28.09-.47.26-.58.17-.11.51-.16,1-.16h2.1c.37,0,.64.06.8.18.17.12.25.3.25.56,0,.23-.09.41-.28.53-.19.12-.46.18-.82.18h-.08l2.21,2.16,2.1-2.16h-.21c-.38,0-.67-.06-.85-.17-.18-.11-.28-.29-.28-.52,0-.26.08-.46.25-.58.16-.12.43-.18.8-.18h2.67c.21,0,.38.07.52.2.13.13.2.3.2.51,0,.25-.08.44-.26.55s-.44.18-.82.18h-.29l-2.94,3.07,3.59,3.51h.1c.26,0,.46.06.61.19.14.13.21.31.21.54,0,.27-.08.46-.25.56-.16.1-.5.15-1.01.15h-2.09c-.36,0-.63-.06-.8-.17s-.26-.3-.26-.54c0-.23.08-.4.25-.53s.39-.19.68-.19h.57l-2.58-2.52-2.36,2.52Z"/>
      <path class="cls-3" d="M44.78,7.85h-5.21l-.52,3.51c.32-.04.61-.08,1.11-.08,1.05,0,2.1.23,2.94.73,1.07.61,1.95,1.79,1.95,3.51,0,2.67-2.12,4.66-5.08,4.66-1.49,0-2.75-.42-3.4-.84l.46-1.41c.57.34,1.68.76,2.92.76,1.74,0,3.23-1.13,3.23-2.96-.02-1.76-1.2-3.02-3.93-3.02-.78,0-1.39.08-1.89.15l.88-6.55h6.53v1.55Z"/>
      <g>
        <line class="cls-2" x1="40.81" y1="51.13" x2="40.81" y2="27.78"/>
        <polygon class="cls-3" points="48.99 44.5 47.53 43.14 40.81 50.36 34.1 43.14 32.64 44.5 40.81 53.3 48.99 44.5"/>
      </g>
    </g>
  </g>
</svg>