<?xml version="1.0" encoding="UTF-8"?>
<svg id="_レイヤー_2" data-name="レイヤー 2" xmlns="http://www.w3.org/2000/svg" viewBox="0 0 370.91 337.1">
  <defs>
    <style>
      .cls-1, .cls-2, .cls-3 {
        stroke: #231815;
        stroke-miterlimit: 10;
      }

      .cls-1, .cls-4 {
        fill: #231815;
      }

      .cls-2 {
        fill: #fff100;
      }

      .cls-3 {
        fill: none;
      }
    </style>
  </defs>
  <g id="_レイヤー_1-2" data-name="レイヤー 1">
    <g>
      <g>
        <rect class="cls-3" x="2.53" y=".5" width="103.27" height="36.5" rx="18.25" ry="18.25"/>
        <g>
          <path class="cls-4" d="M47.58,16.46h-3.6v6.57h-.79v-10.63h4.39v4.05ZM46.81,13.04h-2.83v1.06h2.83v-1.06ZM43.98,15.82h2.83v-1.13h-2.83v1.13ZM51.45,20.02h-1.7v2.77h-.73v-2.77h-1.83c-.08.78-.47,2.09-1.66,2.88-.12-.16-.36-.38-.54-.5,1.06-.66,1.4-1.67,1.48-2.37h-1.57v-.68h1.59v-1.4h-1.36v-.68h6.06v.68h-1.44v1.4h1.7v.68ZM47.21,19.34h1.81v-1.4h-1.81v1.4ZM53.2,12.4v9.52c0,1.03-.46,1.08-2.34,1.08-.04-.23-.14-.6-.26-.83.41.01.8.02,1.1.02.63,0,.71,0,.71-.28v-5.46h-3.71v-4.07h4.5ZM52.41,13.04h-2.93v1.06h2.93v-1.06ZM49.49,15.83h2.93v-1.14h-2.93v1.14Z"/>
          <path class="cls-4" d="M58.75,14.37l.46.12-.07.17c-.17,2.12-.55,3.83-1.15,5.16.59.46,1.09.9,1.42,1.31l-.49.66c-.3-.38-.76-.82-1.28-1.25-.61,1.12-1.42,1.93-2.38,2.51-.11-.2-.34-.49-.5-.66.9-.48,1.65-1.26,2.25-2.34-.44-.34-.91-.65-1.37-.92l-.14.53-.68-.36c.3-1.05.67-2.58,1.02-4.12h-1.2v-.76h1.37c.19-.9.36-1.76.5-2.53l.98.12c-.01.08-.08.13-.24.14-.13.68-.3,1.46-.48,2.27h1.85l.14-.04ZM56.59,15.16c-.25,1.12-.53,2.24-.78,3.23.5.28,1.02.61,1.52.95.48-1.12.83-2.51,1-4.17h-1.74ZM63.92,13.85c.78.98,1.62,2.28,1.92,3.15l-.71.38c-.08-.24-.2-.52-.35-.82-1.9.16-3.84.28-5.1.36-.02.1-.1.14-.17.16l-.33-.94.97-.04c.5-1.19,1.07-2.97,1.37-4.26l1.06.26c-.04.08-.13.13-.28.14-.32,1.12-.86,2.67-1.36,3.83l3.49-.17c-.35-.59-.77-1.21-1.18-1.74l.66-.34ZM60.08,23.02v-4.92h5.08v4.87h-.8v-.52h-3.51v.56h-.77ZM64.36,18.85h-3.51v2.85h3.51v-2.85Z"/>
        </g>
      </g>
      <g>
        <rect class="cls-3" x="3.58" y="300.09" width="103.27" height="36.5" rx="18.25" ry="18.25"/>
        <g>
          <path class="cls-4" d="M53.42,312.64l.55.3s-.08.11-.16.12c-.43,1.15-1.08,2.17-1.86,3.03.88.8,1.91,1.45,3.01,1.83-.17.17-.4.46-.53.66-1.09-.44-2.12-1.13-2.99-1.98-.95.91-2.03,1.61-3.15,2.11-.1-.17-.32-.47-.49-.61l-.05.02c-.06-.22-.16-.46-.28-.72-.37.02-.76.04-1.12.06v5.13h-.72v-5.1c-.67.04-1.27.06-1.75.07-.01.1-.08.13-.17.16l-.22-.9h.84c.26-.32.54-.7.83-1.1-.37-.55-1-1.26-1.55-1.78l.42-.52c.12.11.25.23.38.36.41-.7.88-1.65,1.14-2.34l.85.36c-.04.07-.12.11-.25.11-.31.67-.84,1.65-1.29,2.33.28.29.53.59.72.85.52-.78,1-1.59,1.34-2.28l.84.4c-.04.06-.13.11-.26.11-.61,1.02-1.57,2.45-2.41,3.49l2.08-.04c-.22-.41-.46-.83-.71-1.19l.6-.26c.55.77,1.12,1.8,1.33,2.47.9-.44,1.77-1.02,2.53-1.74-.49-.54-.91-1.14-1.26-1.78-.37.53-.8,1.04-1.31,1.51-.12-.17-.4-.4-.58-.49,1.25-1.14,2.09-2.67,2.52-3.86l.98.14c-.02.08-.1.14-.24.16-.12.29-.26.6-.42.92h2.65l.13-.04ZM45.18,318.61c-.04.07-.11.12-.24.12-.17,1.02-.44,2.17-.8,2.88-.17-.11-.43-.23-.6-.31.35-.67.6-1.82.76-2.91l.89.23ZM47.67,320.93c-.11-.65-.44-1.64-.79-2.39l.62-.2c.36.76.71,1.73.83,2.36l-.66.23ZM53.42,322.67c-1.08-.65-3.08-1.49-4.74-1.94l.49-.58c1.62.44,3.63,1.27,4.72,1.87l-.48.65ZM52.43,319.87c-.54-.43-1.58-1.06-2.42-1.42l.49-.5c.85.35,1.89.94,2.45,1.36l-.52.56ZM50.24,313.4l-.14.25c.35.68.8,1.33,1.33,1.92.58-.65,1.07-1.37,1.43-2.17h-2.61Z"/>
          <path class="cls-4" d="M65.3,312.38l.74.46c-.04.06-.13.11-.2.12-1.01,1.15-2.71,2.54-4.19,3.37v5.21c0,.58-.16.82-.61.95-.44.13-1.24.13-2.49.13-.05-.23-.2-.58-.34-.82.66.02,1.28.04,1.71.04.78,0,.89,0,.89-.31v-5.91l.52.02c1.07-.62,2.23-1.56,3.02-2.4h-8.02v-.79h8.82l.16-.06Z"/>
        </g>
      </g>
      <rect class="cls-3" x="2.53" y="201.64" width="103.27" height="36.5"/>
      <g>
        <path class="cls-4" d="M31.6,182.76h-2.7v8.29h-1v-8.29h-2.69v-.84h6.38v.84Z"/>
        <path class="cls-4" d="M35.55,185.35c-.11-.01-.22-.02-.36-.02-1.08,0-1.63,1.07-1.63,2.17v3.55h-1v-4.58c0-.7-.01-1.33-.05-1.96h.88l.05,1.26h.04c.29-.82.97-1.4,1.78-1.4.11,0,.19.02.3.04v.95Z"/>
        <path class="cls-4" d="M41.83,189.3c0,.67.04,1.24.06,1.74h-.9l-.05-1.03h-.04c-.3.52-.97,1.17-2.09,1.17-.98,0-2.15-.56-2.15-2.82v-3.86h1v3.68c0,1.27.37,2.16,1.46,2.16.78,0,1.7-.62,1.7-1.78v-4.07h1v4.8Z"/>
        <path class="cls-4" d="M48.43,190.77c-.37.18-1.06.41-2.05.41-1.91,0-3.05-1.34-3.05-3.3,0-2.05,1.15-3.53,2.91-3.53,2.02,0,2.53,1.85,2.53,2.99,0,.23-.01.4-.02.55h-4.45c.01,1.81,1.04,2.5,2.22,2.5.82,0,1.31-.17,1.71-.34l.19.72ZM47.8,187.15c.01-.89-.36-2.04-1.64-2.04-1.2,0-1.73,1.14-1.82,2.04h3.47Z"/>
      </g>
      <g>
        <path class="cls-4" d="M160.13,229.86h-2.7v8.29h-1v-8.29h-2.69v-.84h6.38v.84Z"/>
        <path class="cls-4" d="M164.08,232.45c-.11-.01-.22-.02-.36-.02-1.08,0-1.63,1.07-1.63,2.17v3.55h-1v-4.58c0-.7-.01-1.33-.05-1.96h.88l.05,1.26h.04c.29-.81.97-1.4,1.78-1.4.11,0,.19.02.3.04v.95Z"/>
        <path class="cls-4" d="M170.36,236.4c0,.67.04,1.23.06,1.74h-.9l-.05-1.03h-.04c-.3.52-.97,1.18-2.09,1.18-.98,0-2.15-.56-2.15-2.82v-3.86h1v3.68c0,1.27.37,2.16,1.46,2.16.78,0,1.7-.62,1.7-1.78v-4.06h1v4.8Z"/>
        <path class="cls-4" d="M176.97,237.87c-.37.18-1.06.41-2.05.41-1.91,0-3.05-1.34-3.05-3.3,0-2.05,1.15-3.53,2.91-3.53,2.02,0,2.53,1.85,2.53,2.99,0,.23-.01.39-.02.55h-4.45c.01,1.81,1.04,2.5,2.22,2.5.82,0,1.31-.17,1.71-.34l.19.72ZM176.33,234.25c.01-.89-.36-2.04-1.64-2.04-1.2,0-1.73,1.14-1.82,2.04h3.47Z"/>
      </g>
      <g>
        <path class="cls-4" d="M113.48,149.42v-9.14h4.61v.84h-3.61v3.25h3.32v.83h-3.32v4.22h-1Z"/>
        <path class="cls-4" d="M123.95,147.86c0,.54.01,1.1.1,1.56h-.91l-.1-.84h-.04c-.34.52-1.01.98-1.93.98-1.25,0-1.91-.91-1.91-1.86,0-1.57,1.37-2.42,3.79-2.41,0-.55,0-1.8-1.49-1.8-.56,0-1.15.16-1.59.47l-.24-.68c.53-.35,1.26-.55,1.99-.55,1.85,0,2.33,1.31,2.33,2.6v2.53ZM122.97,146.02c-1.24,0-2.78.18-2.78,1.56,0,.84.53,1.21,1.13,1.21.97,0,1.65-.74,1.65-1.54v-1.24Z"/>
        <path class="cls-4" d="M126.87,149.42h-.99v-9.59h.99v9.59Z"/>
        <path class="cls-4" d="M131.91,143.88c-.24-.16-.68-.38-1.27-.38-.72,0-1.1.44-1.1.97,0,.56.37.83,1.21,1.19,1.06.43,1.67.98,1.67,1.97,0,1.16-.89,1.93-2.31,1.93-.65,0-1.27-.18-1.71-.44l.28-.77c.35.2.91.44,1.47.44.88,0,1.31-.47,1.31-1.06s-.35-.95-1.21-1.29c-1.1-.44-1.67-1.06-1.67-1.85,0-1.02.81-1.86,2.13-1.86.62,0,1.15.18,1.5.4l-.29.76Z"/>
        <path class="cls-4" d="M138.57,149.14c-.37.18-1.06.41-2.05.41-1.91,0-3.05-1.34-3.05-3.3,0-2.05,1.15-3.53,2.91-3.53,2.02,0,2.53,1.85,2.53,2.99,0,.23-.01.4-.03.55h-4.45c.01,1.81,1.04,2.5,2.22,2.5.82,0,1.31-.17,1.71-.34l.19.72ZM137.93,145.52c.01-.89-.36-2.04-1.64-2.04-1.2,0-1.73,1.14-1.82,2.04h3.47Z"/>
      </g>
      <g>
        <path class="cls-4" d="M243.22,195.81v-9.14h4.61v.84h-3.61v3.25h3.32v.83h-3.32v4.22h-1Z"/>
        <path class="cls-4" d="M253.69,194.25c0,.54.01,1.1.1,1.56h-.91l-.1-.84h-.04c-.34.52-1.01.98-1.93.98-1.25,0-1.91-.91-1.91-1.86,0-1.57,1.37-2.42,3.79-2.41,0-.55,0-1.8-1.49-1.8-.56,0-1.15.16-1.59.47l-.24-.68c.53-.35,1.26-.55,1.99-.55,1.85,0,2.33,1.31,2.33,2.6v2.53ZM252.71,192.42c-1.24,0-2.78.18-2.78,1.56,0,.84.53,1.21,1.13,1.21.97,0,1.65-.74,1.65-1.54v-1.24Z"/>
        <path class="cls-4" d="M256.61,195.81h-1v-9.59h1v9.59Z"/>
        <path class="cls-4" d="M261.65,190.27c-.24-.16-.68-.38-1.27-.38-.72,0-1.1.44-1.1.97,0,.56.37.83,1.21,1.19,1.06.43,1.67.98,1.67,1.97,0,1.16-.89,1.93-2.32,1.93-.65,0-1.27-.18-1.71-.44l.28-.77c.35.2.91.44,1.47.44.88,0,1.31-.47,1.31-1.06s-.35-.95-1.21-1.29c-1.1-.44-1.67-1.06-1.67-1.85,0-1.02.82-1.86,2.13-1.86.62,0,1.15.18,1.5.4l-.29.76Z"/>
        <path class="cls-4" d="M268.3,195.54c-.37.18-1.06.41-2.05.41-1.91,0-3.05-1.34-3.05-3.3,0-2.05,1.15-3.53,2.91-3.53,2.02,0,2.53,1.85,2.53,2.99,0,.23-.01.4-.02.55h-4.45c.01,1.81,1.04,2.5,2.22,2.5.82,0,1.31-.17,1.71-.34l.19.72ZM267.67,191.91c.01-.89-.36-2.04-1.64-2.04-1.2,0-1.73,1.14-1.82,2.04h3.47Z"/>
      </g>
      <rect class="cls-3" x="2.53" y="67.55" width="103.27" height="36.5"/>
      <g>
        <path class="cls-4" d="M18.38,82.51l-2.16,3.17,2.22,3.37h-1.14l-.98-1.52c-.24-.4-.46-.75-.7-1.17h-.02c-.2.41-.44.77-.7,1.17l-.96,1.52h-1.1l2.24-3.33-2.13-3.2h1.12l.95,1.45c.24.37.44.71.66,1.09h.04c.2-.38.43-.74.66-1.09l.92-1.45h1.09Z"/>
        <path class="cls-4" d="M28.94,84.44h-6.99v-.72h6.99v.72ZM28.94,87.07h-6.99v-.72h6.99v.72Z"/>
        <path class="cls-4" d="M36.26,83.35c-.11-.01-.22-.02-.36-.02-1.08,0-1.63,1.07-1.63,2.17v3.55h-1v-4.58c0-.7-.01-1.33-.05-1.96h.88l.05,1.26h.04c.29-.82.97-1.4,1.78-1.4.11,0,.19.02.3.04v.95Z"/>
        <path class="cls-4" d="M41.71,87.48c0,.54.01,1.1.1,1.56h-.91l-.1-.84h-.04c-.34.52-1.01.98-1.93.98-1.25,0-1.91-.91-1.91-1.86,0-1.57,1.37-2.42,3.79-2.41,0-.55,0-1.8-1.49-1.8-.56,0-1.15.16-1.59.47l-.24-.68c.53-.35,1.26-.55,1.99-.55,1.85,0,2.33,1.31,2.33,2.6v2.53ZM40.73,85.65c-1.24,0-2.78.18-2.78,1.56,0,.84.53,1.21,1.13,1.21.97,0,1.65-.74,1.65-1.54v-1.24Z"/>
        <path class="cls-4" d="M48.86,89.04h-1v-3.86c0-1.07-.38-2-1.52-2-.85,0-1.72.72-1.72,1.86v4.01h-1v-4.86c0-.67-.02-1.16-.05-1.69h.89l.06,1.07h.02c.32-.63,1.08-1.21,2.1-1.21.82,0,2.21.49,2.21,2.71v3.98Z"/>
        <path class="cls-4" d="M56.08,87.43c0,.53.02,1.18.05,1.62h-.89l-.05-1.12h-.04c-.34.68-1.08,1.26-2.13,1.26-1.51,0-2.69-1.31-2.69-3.32,0-2.21,1.29-3.5,2.82-3.5.96,0,1.61.47,1.91,1.01h.02v-3.92h1v7.98ZM55.08,85.12c0-1.31-.92-1.96-1.76-1.96-1.24,0-1.97,1.15-1.97,2.65,0,1.38.65,2.55,1.93,2.55,1.08,0,1.8-.95,1.8-1.99v-1.26Z"/>
        <path class="cls-4" d="M63.6,85.72c0,2.43-1.61,3.47-3.06,3.47-1.68,0-2.97-1.26-2.97-3.37,0-2.23,1.39-3.47,3.06-3.47,1.79,0,2.97,1.37,2.97,3.37ZM60.59,83.13c-1.42,0-2,1.39-2,2.65,0,1.45.8,2.63,1.98,2.63s2.01-1.17,2.01-2.65c0-1.16-.56-2.63-1.99-2.63Z"/>
        <path class="cls-4" d="M74.01,89.04h-.98v-3.78c0-1.27-.46-2.09-1.44-2.09-.8,0-1.54.76-1.54,1.75v4.11h-.98v-4.03c0-1.04-.44-1.84-1.37-1.84-.85,0-1.61.84-1.61,1.86v4.01h-.98v-4.86c0-.67-.02-1.15-.05-1.69h.88l.06,1.06h.04c.36-.64.96-1.2,1.99-1.2.85,0,1.51.53,1.79,1.31h.02c.43-.78,1.09-1.31,2.1-1.31.8,0,2.08.52,2.08,2.76v3.93Z"/>
        <path class="cls-4" d="M77.62,90.69c-.85-1.12-1.77-2.85-1.77-5.51s.91-4.41,1.77-5.55h.82c-1,1.33-1.71,3.09-1.71,5.57s.74,4.14,1.71,5.49h-.82Z"/>
        <path class="cls-4" d="M81.8,89.04v-8.05h-.02l-1.48.85-.24-.74,1.86-1.04h.85v8.98h-.97Z"/>
        <path class="cls-4" d="M85.78,84.58c0-3.14,1.22-4.67,2.9-4.67s2.75,1.61,2.75,4.55c0,3.12-1.09,4.72-2.88,4.72-1.63,0-2.77-1.61-2.77-4.61ZM90.42,84.51c0-2.24-.54-3.79-1.8-3.79-1.07,0-1.82,1.43-1.82,3.79s.66,3.86,1.79,3.86c1.33,0,1.83-1.73,1.83-3.86Z"/>
        <path class="cls-4" d="M92.98,79.63c.85,1.12,1.76,2.85,1.76,5.53s-.9,4.38-1.76,5.53h-.82c.97-1.33,1.71-3.09,1.71-5.54s-.73-4.16-1.71-5.52h.82Z"/>
      </g>
      <g>
        <rect class="cls-3" x="138.92" y="242.49" width="103.27" height="36.5"/>
        <g>
          <path class="cls-4" d="M163.01,257.53v-7.34h3.33v.52h-2.81v6.82h-.52Z"/>
          <path class="cls-4" d="M171.32,253.29l-1.8,2.64,1.85,2.81h-.95l-.82-1.27c-.2-.33-.38-.63-.58-.98h-.02c-.17.34-.37.64-.58.98l-.8,1.27h-.92l1.87-2.78-1.78-2.67h.93l.79,1.21c.2.31.37.59.55.91h.03c.17-.32.36-.62.55-.91l.77-1.21h.91Z"/>
          <path class="cls-4" d="M175.36,259.03c-.31-.72-.43-2.21-.43-3.52s.21-3,.54-4.67l.97.19c-.02.1-.12.17-.26.18-.36,1.37-.58,3.15-.58,4.31,0,.76.01,1.52.09,1.89.22-.6.62-1.56.83-2.03l.45.42c-.33.68-1.03,2.2-1.03,2.67,0,.14.03.29.1.48l-.68.08ZM177.9,253.14c.84,0,1.68.02,2.52-.04-.04-.86-.07-1.6-.09-2.34l1.01.03c0,.1-.1.18-.26.21,0,.64.03,1.29.05,2.05.79-.08,1.43-.22,1.96-.4l.09.7c-.48.15-1.17.29-2.02.36.04,1.11.09,2.28.12,2.92.76.31,1.52.8,2.04,1.27l-.39.64c-.41-.41-1-.85-1.62-1.14,0,.85-.17,1.8-1.67,1.8-1.17,0-1.95-.56-1.95-1.44,0-1.02,1.03-1.47,1.95-1.47.31,0,.64.04.95.13-.03-.63-.09-1.68-.14-2.66-.31.02-.73.03-1.02.03h-1.52v-.65ZM180.64,257.07c-.32-.1-.66-.18-.99-.18-.61,0-1.34.22-1.34.85,0,.56.6.84,1.33.84s1.01-.36,1.01-1.16v-.35Z"/>
          <path class="cls-4" d="M191.16,251.25v.69h-2.69l-.31,2.12c.16-.02.32-.04.58-.04,1.33,0,2.52.79,2.52,2.3s-1.1,2.54-2.58,2.54c-.75,0-1.38-.22-1.72-.44l.24-.65c.28.19.83.42,1.48.42.94,0,1.75-.69,1.74-1.77,0-1.03-.66-1.75-2.06-1.75-.4,0-.71.03-.96.07l.47-3.49h3.29Z"/>
          <path class="cls-4" d="M195.34,251.65c.75-.03,6.91-.47,8.21-.48v.75c-.12,0-.24,0-.36,0-.58,0-1.07.1-1.71.51-1.5.9-2.95,2.51-2.95,3.8,0,1.4.98,2.23,3.46,2.55l-.33.7c-2.84-.41-3.9-1.47-3.9-3.25,0-1.41,1.39-3.12,3.22-4.27-1.1.08-4.05.3-5.34.42-.03.08-.14.15-.22.16l-.08-.88ZM201.82,253.62c.48.36,1.05.95,1.36,1.38l-.38.31c-.28-.44-.89-1.06-1.32-1.39l.34-.3ZM202.9,252.74c.49.36,1.07.94,1.36,1.38l-.38.3c-.27-.4-.85-1.02-1.32-1.38l.34-.3Z"/>
          <path class="cls-4" d="M209.82,251.95c0-.22-.04-1.31-.06-1.56l1.03.04c0,.08-.08.18-.26.21,0,.12,0,.24.02,1.29,1.23-.04,2.52-.07,3.27-.08v.69c-.85-.02-2.06,0-3.25.04.02.78.04,1.5.07,2.05.1.33.12.63.12,1.05,0,.32-.03.69-.1.97-.26,1.17-1.12,2.2-2.88,2.9-.13-.17-.35-.42-.51-.57,1.53-.55,2.35-1.38,2.6-2.33h0c-.21.3-.58.53-1.03.53-.89,0-1.68-.73-1.68-1.75-.01-1.06.85-1.87,1.8-1.87.36,0,.73.13.93.31,0-.17-.02-.84-.04-1.27-1.04.02-4.2.13-4.61.15l-.02-.66,2.28-.06,2.33-.08ZM210.01,255.46c0-.39,0-1.3-1.02-1.3-.69,0-1.18.54-1.19,1.27,0,.7.53,1.16,1.11,1.16.71,0,1.1-.55,1.1-1.13Z"/>
          <path class="cls-4" d="M218.2,252.25v7.34h-3.33v-.53h2.81v-6.81h.52Z"/>
          <path class="cls-4" d="M183.72,264.85s-.05.01-.08.01c-.07,0-.15-.02-.21-.06-2.97.87-5.66,2.18-5.65,3.52,0,.96,1.06,1.29,2.68,1.29s2.84-.12,3.54-.23l.06.73c-.92.12-2.41.18-3.58.18-1.98,0-3.42-.46-3.43-1.93,0-1.07,1.06-2.01,2.63-2.82-.34-.61-.46-1.77-.46-4.03l1.1.09c0,.13-.11.21-.31.24,0,1.75.05,2.84.33,3.38.94-.44,2.02-.84,3.12-1.2l.26.83Z"/>
          <path class="cls-4" d="M193.83,266.4l.89.06c0,.07-.06.12-.2.13v3.98h-.69v-.63h-6.5v.66h-.67v-4.2l.88.05c0,.08-.07.13-.21.14v2.69h2.84v-3.55h-3.13v-3.46l.88.06c0,.06-.07.11-.21.13v2.61h2.46v-3.73l.89.06c0,.07-.07.12-.2.14v3.53h2.56v-2.81l.89.06c0,.07-.06.12-.2.14v3.27h-3.25v3.55h2.97v-2.88Z"/>
          <path class="cls-4" d="M203.96,263.53c.15,0,.17,0,.32,0l.39.04c0,.06,0,.16-.02.23-.15,4.39-.3,5.88-.7,6.34-.28.35-.6.41-1.25.41-.34,0-.77,0-1.18-.04,0-.2-.1-.5-.24-.7.71.06,1.35.07,1.6.07.21,0,.33-.03.44-.15.33-.33.49-1.77.62-5.51h-3.59c-.14,2.12-.82,4.59-3.79,6.42-.11-.17-.36-.42-.52-.53,2.81-1.69,3.47-3.95,3.61-5.89h-3.32v-.68h3.35c0-.18,0-.35,0-.52v-1.7l.9.06c0,.07-.07.12-.2.14v1.5c0,.17,0,.34,0,.52h3.58Z"/>
        </g>
      </g>
      <g>
        <rect class="cls-3" x="267.14" y="242.49" width="103.27" height="36.5"/>
        <g>
          <path class="cls-4" d="M293.73,253.22v-7.34h3.33v.52h-2.81v6.82h-.52Z"/>
          <path class="cls-4" d="M302.04,248.98l-1.8,2.64,1.85,2.81h-.95l-.82-1.27c-.2-.33-.38-.63-.58-.98h-.02c-.17.34-.37.64-.58.98l-.8,1.27h-.92l1.87-2.78-1.78-2.67h.93l.79,1.21c.2.31.37.59.55.91h.03c.17-.32.36-.62.55-.91l.77-1.21h.91Z"/>
          <path class="cls-4" d="M306.08,254.72c-.31-.72-.43-2.21-.43-3.52s.21-3,.54-4.67l.97.19c-.02.1-.12.17-.26.18-.36,1.37-.58,3.15-.58,4.31,0,.76.01,1.52.09,1.89.22-.6.62-1.56.83-2.03l.45.42c-.33.68-1.03,2.2-1.03,2.67,0,.14.03.29.1.48l-.68.08ZM308.62,248.83c.84,0,1.68.02,2.52-.04-.04-.86-.07-1.6-.09-2.34l1.01.03c0,.1-.1.18-.26.21,0,.64.03,1.29.05,2.05.79-.08,1.43-.22,1.96-.4l.09.7c-.48.15-1.17.29-2.02.36.04,1.11.09,2.28.12,2.92.76.31,1.52.8,2.04,1.27l-.39.64c-.41-.41-1-.85-1.62-1.14,0,.85-.17,1.8-1.67,1.8-1.17,0-1.95-.56-1.95-1.44,0-1.02,1.03-1.47,1.95-1.47.31,0,.64.04.95.13-.03-.63-.09-1.68-.14-2.66-.31.02-.73.03-1.02.03h-1.52v-.65ZM311.36,252.76c-.32-.1-.66-.18-.99-.18-.61,0-1.34.22-1.34.85,0,.56.6.84,1.33.84s1.01-.36,1.01-1.16v-.35Z"/>
          <path class="cls-4" d="M321.88,246.94v.69h-2.69l-.31,2.12c.16-.02.32-.04.58-.04,1.33,0,2.52.79,2.52,2.3s-1.1,2.54-2.58,2.54c-.75,0-1.38-.22-1.72-.44l.24-.65c.28.19.83.42,1.48.42.94,0,1.75-.69,1.74-1.77,0-1.03-.66-1.75-2.06-1.75-.4,0-.71.03-.96.07l.47-3.49h3.29Z"/>
          <path class="cls-4" d="M333.59,254.38c-.86-.68-1.95-1.33-3-1.67.02.39-.05.9-.13,1.16-.08.83-.85,1.15-1.77,1.15-1.29,0-2.31-.63-2.32-1.64-.02-1.01,1.04-1.63,2.3-1.64.35,0,.8.02,1.17.09,0-.27-.05-.5-.06-.73-.09-1.31-.17-3.41-.18-4.85l1.04.06c0,.1-.09.19-.26.21,0,.27,0,1.59,0,1.89.65,0,2.11-.11,3.32-.32l.07.71c-1.14.18-2.62.28-3.38.29,0,.57.02.8.17,2.87,1.29.38,2.51,1.06,3.49,1.78l-.46.64ZM328.65,252.34c-.96.02-1.63.42-1.63.99,0,.73.79,1.05,1.59,1.05.7,0,1.28-.25,1.28-.96,0-.23,0-.64-.02-.93-.4-.12-.84-.15-1.22-.15Z"/>
          <path class="cls-4" d="M337.7,251.89c-.19-.54-.28-1.32-.29-1.88,0-.94.1-2.03.34-3.3l1,.17c-.04.13-.16.16-.29.17-.2.83-.34,2.1-.34,2.91,0,.22,0,.4.03.54.2-.49.57-1.17.78-1.55.09.13.29.34.39.44-.74,1.33-.96,1.71-.96,2.13,0,.08,0,.16.03.25l-.69.12ZM343.06,246.45c0,.12-.09.17-.26.22.07.87.17,2.32.17,3.47,0,1.93-.71,3.67-3.72,4.92-.11-.16-.35-.43-.5-.58,2.73-1.04,3.46-2.69,3.46-4.33,0-1.23-.12-2.68-.23-3.75l1.08.05Z"/>
          <path class="cls-4" d="M294.22,259.7c-.02.08-.09.12-.22.12-.29,1.3-.89,3.13-1.81,4.26-.16-.11-.45-.28-.63-.36.92-1.08,1.49-2.83,1.74-4.2l.92.18ZM295.97,257.14l.92.05c0,.08-.07.13-.21.14v7.98c0,.52-.14.73-.48.85-.36.11-.98.13-1.92.13-.05-.2-.17-.52-.29-.71.45,0,.88.02,1.2.02.7,0,.78,0,.78-.28v-8.17ZM300.36,264.25c-.25-1.2-1.07-3.1-1.96-4.55l.64-.25c.9,1.43,1.77,3.29,2.03,4.5l-.71.3Z"/>
          <path class="cls-4" d="M310.31,259.29c-.91.26-2.13.44-3.33.55.39,1.36.81,2.17,1.89,2.64l-.49.61c-.46-.35-.93-.62-2.23-.69l-.12-.59c.49.04.86.1,1.11.15-.35-.42-.62-1.06-.89-2.07-.45.04-1.06.06-1.66.06-.65,0-1.71-.01-2.35-.03v-.68c.6.03,1.45.03,2.36.03.51,0,1.09-.01,1.49-.05-.12-.54-.23-1.28-.35-2.05l1.07.02c0,.12-.1.19-.26.23.06.57.16,1.2.27,1.75,1.15-.1,2.45-.31,3.33-.59l.16.71ZM308.52,265.87c-.48.02-.99.03-1.86.03-2.09,0-3.57-.64-3.57-1.98,0-.57.35-1.15.9-1.68l.54.43c-.45.36-.72.85-.72,1.23,0,.99,1.28,1.31,2.87,1.31.87,0,1.38-.02,1.89-.05l-.05.71Z"/>
          <path class="cls-4" d="M313.34,258.34c-.02.09-.13.15-.27.16-.12.75-.19,1.65-.19,2.49,0,.37.02.73.04,1.05.12,1.7.81,2.73,1.58,2.72.4,0,.92-1.02,1.28-2.14.14.14.41.33.58.43-.46,1.35-1.04,2.45-1.87,2.47-1.27.02-2.15-1.52-2.29-3.44-.03-.38-.04-.8-.04-1.25,0-.88.05-1.84.15-2.69l1.03.2ZM319.96,262.99c-.28-1.75-1.17-3.01-2.52-3.76l.44-.54c1.46.78,2.53,2.22,2.82,4.07l-.74.23Z"/>
          <path class="cls-4" d="M322.1,258.34c.75-.03,6.91-.47,8.21-.48v.75c-.12,0-.24,0-.36,0-.58,0-1.07.1-1.71.51-1.5.9-2.95,2.51-2.95,3.8,0,1.4.98,2.23,3.46,2.55l-.33.7c-2.84-.41-3.9-1.47-3.9-3.25,0-1.41,1.39-3.12,3.22-4.27-1.1.08-4.05.3-5.34.42-.03.08-.14.15-.22.16l-.08-.88ZM328.57,260.31c.48.36,1.05.95,1.36,1.38l-.38.31c-.28-.44-.89-1.06-1.32-1.39l.34-.3ZM329.65,259.43c.49.36,1.07.94,1.36,1.38l-.38.3c-.27-.4-.85-1.02-1.32-1.38l.34-.3Z"/>
          <path class="cls-4" d="M336.57,258.64c0-.22-.04-1.31-.06-1.56l1.03.04c0,.08-.08.18-.26.21,0,.12,0,.24.02,1.29,1.23-.04,2.52-.07,3.27-.08v.69c-.85-.02-2.06,0-3.25.04.02.78.04,1.5.07,2.05.1.33.12.63.12,1.05,0,.32-.03.69-.1.97-.26,1.17-1.12,2.2-2.88,2.9-.13-.17-.35-.42-.51-.57,1.53-.55,2.35-1.38,2.6-2.33h0c-.21.3-.58.53-1.03.53-.89,0-1.68-.73-1.68-1.75-.01-1.06.85-1.87,1.8-1.87.36,0,.73.13.93.31,0-.17-.02-.84-.04-1.27-1.04.02-4.2.13-4.61.15l-.02-.66,2.28-.06,2.33-.08ZM336.76,262.15c0-.39,0-1.3-1.02-1.3-.69,0-1.18.54-1.19,1.27,0,.7.53,1.16,1.11,1.16.71,0,1.1-.55,1.1-1.13Z"/>
          <path class="cls-4" d="M344.96,258.94v7.34h-3.33v-.53h2.81v-6.81h.52Z"/>
          <path class="cls-4" d="M311.94,271.54s-.05.01-.08.01c-.07,0-.15-.02-.21-.06-2.97.87-5.66,2.18-5.65,3.52,0,.96,1.06,1.29,2.68,1.29s2.84-.12,3.54-.23l.06.73c-.92.12-2.41.18-3.58.18-1.98,0-3.42-.46-3.43-1.93,0-1.07,1.06-2.01,2.63-2.82-.34-.61-.46-1.77-.46-4.03l1.1.09c0,.13-.11.21-.31.24-.01,1.75.05,2.84.33,3.38.94-.44,2.02-.84,3.12-1.2l.26.83Z"/>
          <path class="cls-4" d="M322.04,273.09l.89.06c-.01.07-.06.12-.2.13v3.98h-.69v-.63h-6.5v.66h-.67v-4.2l.88.05c0,.08-.07.13-.21.14v2.69h2.84v-3.55h-3.13v-3.46l.88.06c0,.06-.07.11-.21.13v2.61h2.46v-3.73l.89.06c0,.07-.07.12-.2.14v3.53h2.56v-2.81l.89.06c0,.07-.06.12-.2.14v3.27h-3.25v3.55h2.97v-2.88Z"/>
          <path class="cls-4" d="M332.18,270.22c.15,0,.17,0,.32,0l.39.04c0,.06,0,.16-.02.23-.15,4.39-.3,5.88-.7,6.34-.28.35-.6.41-1.25.41-.34,0-.77,0-1.18-.04,0-.2-.1-.5-.24-.7.71.06,1.35.07,1.6.07.21,0,.33-.03.44-.15.33-.33.49-1.77.62-5.51h-3.59c-.14,2.12-.82,4.59-3.79,6.42-.11-.17-.36-.42-.52-.53,2.81-1.69,3.47-3.95,3.61-5.89h-3.32v-.68h3.35c0-.18,0-.35,0-.52v-1.7l.9.06c0,.07-.07.12-.2.14v1.5c0,.17,0,.34,0,.52h3.58Z"/>
        </g>
        <g>
          <path class="cls-4" d="M30.18,212.69v-7.34h3.33v.52h-2.81v6.82h-.52Z"/>
          <path class="cls-4" d="M38.49,208.46l-1.8,2.64,1.85,2.81h-.95l-.82-1.27c-.2-.33-.38-.63-.58-.98h-.02c-.17.34-.37.64-.58.98l-.8,1.27h-.92l1.87-2.78-1.78-2.67h.93l.79,1.21c.2.31.37.59.55.91h.03c.17-.32.36-.62.55-.91l.77-1.21h.91Z"/>
          <path class="cls-4" d="M42.53,214.19c-.31-.72-.43-2.21-.43-3.52s.21-3,.54-4.67l.97.19c-.02.1-.12.17-.26.18-.36,1.37-.58,3.15-.58,4.31,0,.76.01,1.52.09,1.89.22-.6.62-1.56.83-2.03l.45.42c-.33.68-1.03,2.2-1.03,2.67,0,.14.03.29.1.48l-.68.08ZM45.07,208.31c.84,0,1.68.02,2.52-.04-.04-.86-.07-1.6-.09-2.34l1.01.03c0,.1-.1.18-.26.21,0,.64.03,1.29.05,2.05.79-.08,1.43-.22,1.96-.4l.09.7c-.48.15-1.17.29-2.02.36.04,1.11.09,2.28.12,2.92.76.31,1.52.8,2.04,1.27l-.39.64c-.41-.41-1-.85-1.62-1.14,0,.85-.17,1.8-1.67,1.8-1.17,0-1.95-.56-1.95-1.44,0-1.02,1.03-1.47,1.95-1.47.31,0,.64.04.95.13-.03-.63-.09-1.68-.14-2.66-.31.02-.73.03-1.02.03h-1.52v-.65ZM47.8,212.23c-.32-.1-.66-.18-.99-.18-.61,0-1.34.22-1.34.85,0,.56.6.84,1.33.84s1.01-.36,1.01-1.16v-.35Z"/>
          <path class="cls-4" d="M58.33,206.42v.69h-2.69l-.31,2.12c.16-.02.32-.04.58-.04,1.33,0,2.52.79,2.52,2.3s-1.1,2.54-2.58,2.54c-.75,0-1.38-.22-1.72-.44l.24-.65c.28.19.83.42,1.48.42.94,0,1.75-.69,1.74-1.77,0-1.03-.66-1.75-2.06-1.75-.4,0-.71.03-.96.07l.47-3.49h3.29Z"/>
          <path class="cls-4" d="M70.03,213.85c-.86-.68-1.95-1.33-3-1.67.02.39-.05.9-.13,1.16-.08.83-.85,1.15-1.77,1.15-1.29,0-2.31-.63-2.32-1.64-.02-1.01,1.04-1.63,2.3-1.64.35,0,.8.02,1.17.09,0-.27-.05-.5-.06-.73-.09-1.31-.17-3.41-.18-4.85l1.04.06c0,.1-.09.19-.26.21,0,.27,0,1.59,0,1.89.65,0,2.11-.11,3.32-.32l.07.71c-1.14.18-2.62.28-3.38.29,0,.57.02.8.17,2.87,1.29.38,2.51,1.06,3.49,1.78l-.46.64ZM65.1,211.81c-.96.02-1.63.42-1.63.99,0,.73.79,1.05,1.59,1.05.7,0,1.28-.25,1.28-.96,0-.23,0-.64-.02-.93-.4-.12-.84-.15-1.22-.15Z"/>
          <path class="cls-4" d="M74.15,211.36c-.19-.54-.28-1.32-.29-1.88,0-.94.1-2.03.34-3.3l1,.17c-.04.13-.16.16-.29.17-.2.83-.34,2.1-.34,2.91,0,.22,0,.4.03.54.2-.49.57-1.17.78-1.55.09.13.29.34.39.44-.74,1.33-.96,1.71-.96,2.13,0,.08,0,.16.03.25l-.69.12ZM79.5,205.93c0,.12-.09.17-.26.22.07.87.17,2.32.17,3.47,0,1.93-.71,3.67-3.72,4.92-.11-.16-.35-.43-.5-.58,2.73-1.04,3.46-2.69,3.46-4.33,0-1.23-.12-2.68-.23-3.75l1.08.05Z"/>
          <path class="cls-4" d="M37.19,220.1h-3.91c.65,2.39,1.94,4.23,4.07,5.02-.17.15-.39.43-.5.63-2.09-.86-3.36-2.63-4.1-5.04-.46,1.98-1.55,3.94-4.13,5.05-.1-.18-.31-.42-.48-.57,2.64-1.07,3.63-3.07,4.01-5.09h-3.86v-.69h3.97c.13-1.04.12-2.06.13-2.93l.94.05c0,.09-.09.14-.22.17,0,.79-.02,1.73-.14,2.71h4.22v.69Z"/>
          <path class="cls-4" d="M46.66,220.05c-.9.31-1.99.5-3.02.62.31.54.92,1.29,1.65,1.57l-.4.57c-.14-.07-.4-.19-.58-.3-.22-.08-.71-.15-1.18-.15-.14,0-.28,0-.41.02l-.14-.55c.34-.02.83,0,1.12.04-.27-.29-.59-.72-.79-1.13-.67.07-1.41.1-2.68.1-.49,0-1.04,0-1.49-.01v-.63c.44,0,1.02.02,1.52.02.82,0,1.63,0,2.44-.07-.11-.31-.27-.88-.39-1.33-.4.04-.85.06-1.26.06-.54,0-1.23,0-1.7-.02v-.62c.6.03,1.26.03,1.69.03.36,0,.77-.02,1.15-.05-.09-.46-.19-1.01-.27-1.57h1.03c0,.13-.09.2-.27.23.06.43.13.89.21,1.28.94-.09,1.95-.29,2.68-.58l.17.62c-.73.27-1.72.46-2.72.57.13.53.26,1,.38,1.31,1.06-.11,2.21-.34,3.12-.66l.14.63ZM44.9,225.33c-.55.04-1.21.06-2.2.06-1.62,0-2.88-.53-2.86-1.66,0-.59.53-1.22,1.18-1.58l.45.46c-.58.31-.92.73-.92,1.11,0,.71.88,1.02,2.15,1.03.75,0,1.54-.04,2.22-.09l-.02.67Z"/>
          <path class="cls-4" d="M49.78,217.82c-.02.09-.13.15-.27.16-.12.75-.19,1.65-.19,2.49,0,.37.02.73.04,1.05.12,1.7.81,2.73,1.58,2.72.4,0,.92-1.02,1.28-2.14.14.14.41.33.58.43-.46,1.35-1.04,2.45-1.87,2.47-1.27.02-2.15-1.52-2.29-3.44-.03-.38-.04-.8-.04-1.25,0-.88.05-1.84.15-2.69l1.03.2ZM56.41,222.47c-.28-1.75-1.17-3.01-2.52-3.76l.44-.54c1.46.78,2.53,2.22,2.82,4.07l-.74.23Z"/>
          <path class="cls-4" d="M58.54,217.82c.75-.03,6.91-.47,8.21-.48v.75c-.12,0-.24,0-.36,0-.58,0-1.07.1-1.71.51-1.5.9-2.95,2.51-2.95,3.8,0,1.4.98,2.23,3.46,2.55l-.33.7c-2.84-.41-3.9-1.47-3.9-3.25,0-1.41,1.39-3.12,3.22-4.27-1.1.08-4.05.3-5.34.42-.03.08-.14.15-.22.16l-.08-.88ZM65.02,219.79c.48.36,1.05.95,1.36,1.38l-.38.31c-.28-.44-.89-1.06-1.32-1.39l.34-.3ZM66.1,218.91c.49.36,1.07.94,1.36,1.38l-.38.3c-.27-.4-.85-1.02-1.32-1.38l.34-.3Z"/>
          <path class="cls-4" d="M73.02,218.12c0-.22-.04-1.31-.06-1.56l1.03.04c0,.08-.08.18-.26.21,0,.12,0,.24.02,1.29,1.23-.04,2.52-.07,3.27-.08v.69c-.85-.02-2.06,0-3.25.04.02.78.04,1.5.07,2.05.1.33.12.63.12,1.05,0,.32-.03.69-.1.97-.26,1.17-1.12,2.2-2.88,2.9-.13-.17-.35-.42-.51-.57,1.53-.55,2.35-1.38,2.6-2.33h0c-.21.3-.58.53-1.03.53-.89,0-1.68-.73-1.68-1.75-.01-1.06.85-1.87,1.8-1.87.36,0,.73.13.93.31,0-.17-.02-.84-.04-1.27-1.04.02-4.2.13-4.61.15l-.02-.66,2.28-.06,2.33-.08ZM73.21,221.63c0-.39,0-1.3-1.02-1.3-.69,0-1.18.54-1.19,1.27,0,.7.53,1.16,1.11,1.16.71,0,1.1-.55,1.1-1.13Z"/>
          <path class="cls-4" d="M81.4,218.42v7.34h-3.33v-.53h2.81v-6.81h.52Z"/>
          <path class="cls-4" d="M48.39,231.02s-.05.01-.08.01c-.07,0-.15-.02-.21-.06-2.97.87-5.66,2.18-5.65,3.52,0,.96,1.06,1.29,2.68,1.29s2.84-.12,3.54-.23l.06.73c-.92.12-2.41.18-3.58.18-1.98,0-3.42-.46-3.43-1.93,0-1.07,1.06-2.01,2.63-2.82-.34-.61-.46-1.77-.46-4.03l1.1.09c0,.13-.11.21-.31.24-.01,1.75.05,2.84.33,3.38.94-.44,2.02-.84,3.12-1.2l.26.83Z"/>
          <path class="cls-4" d="M58.49,232.57l.89.06c-.01.07-.06.12-.2.13v3.98h-.69v-.63h-6.5v.66h-.67v-4.2l.88.05c0,.08-.07.13-.21.14v2.69h2.84v-3.55h-3.13v-3.46l.88.06c0,.06-.07.11-.21.13v2.61h2.46v-3.73l.89.06c0,.07-.07.12-.2.14v3.53h2.56v-2.81l.89.06c0,.07-.06.12-.2.14v3.27h-3.25v3.55h2.97v-2.88Z"/>
          <path class="cls-4" d="M68.63,229.7c.15,0,.17,0,.32,0l.39.04c0,.06,0,.16-.02.23-.15,4.39-.3,5.88-.7,6.34-.28.35-.6.41-1.25.41-.34,0-.77,0-1.18-.04,0-.2-.1-.5-.24-.7.71.06,1.35.07,1.6.07.21,0,.33-.03.44-.15.33-.33.49-1.77.62-5.51h-3.59c-.14,2.12-.82,4.59-3.79,6.42-.11-.17-.36-.42-.52-.53,2.81-1.69,3.47-3.95,3.61-5.89h-3.32v-.68h3.35c0-.18,0-.35,0-.52v-1.7l.9.06c0,.07-.07.12-.2.14v1.5c0,.17,0,.34,0,.52h3.58Z"/>
        </g>
      </g>
      <line class="cls-1" x1="107.27" y1="152.85" x2="182.94" y2="152.85"/>
      <g>
        <line class="cls-3" x1="53.79" y1="195.36" x2="53.79" y2="180.76"/>
        <polygon class="cls-4" points="57.49 192.55 53.79 194.13 50.09 192.55 53.79 201.33 57.49 192.55"/>
      </g>
      <g>
        <line class="cls-3" x1="53.79" y1="294.12" x2="53.79" y2="238.14"/>
        <polygon class="cls-4" points="57.49 291.32 53.79 292.89 50.09 291.32 53.79 300.09 57.49 291.32"/>
      </g>
      <g>
        <line class="cls-3" x1="53.79" y1="118.91" x2="53.79" y2="104.05"/>
        <polygon class="cls-4" points="57.49 116.1 53.79 117.68 50.09 116.1 53.79 124.88 57.49 116.1"/>
      </g>
      <g>
        <line class="cls-3" x1="53.79" y1="61.58" x2="53.79" y2="37.74"/>
        <polygon class="cls-4" points="57.49 58.77 53.79 60.34 50.09 58.77 53.79 67.55 57.49 58.77"/>
      </g>
      <g>
        <g>
          <line class="cls-3" x1="186.47" y1="165.37" x2="186.47" y2="152.89"/>
          <polygon class="cls-4" points="190.18 162.56 186.47 164.13 182.77 162.56 186.47 171.34 190.18 162.56"/>
        </g>
        <line class="cls-1" x1="107.27" y1="152.85" x2="187.07" y2="152.85"/>
      </g>
      <g>
        <line class="cls-3" x1="318.78" y1="236.52" x2="318.78" y2="199.35"/>
        <polygon class="cls-4" points="322.48 233.71 318.78 235.28 315.07 233.71 318.78 242.49 322.48 233.71"/>
      </g>
      <g>
        <line class="cls-3" x1="186.47" y1="236.52" x2="186.47" y2="227.26"/>
        <polygon class="cls-4" points="190.18 233.71 186.47 235.28 182.77 233.71 186.47 242.49 190.18 233.71"/>
      </g>
      <line class="cls-1" x1="239.57" y1="199.3" x2="319.37" y2="199.3"/>
      <line class="cls-1" x1="54.68" y1="286.02" x2="319.37" y2="286.02"/>
      <line class="cls-1" x1="54.16" y1="260.47" x2="138.92" y2="260.47"/>
      <line class="cls-1" x1="318.78" y1="278.45" x2="318.78" y2="286.02"/>
      <g>
        <polyline class="cls-2" points="54.14 180.81 107.27 152.85 54.14 124.88"/>
        <polyline class="cls-2" points="54.2 124.88 1.07 152.85 54.2 180.81"/>
      </g>
      <g>
        <g>
          <path class="cls-4" d="M176.43,196.01l-2.16,3.17,2.22,3.37h-1.14l-.98-1.52c-.24-.4-.46-.75-.7-1.17h-.02c-.2.41-.44.77-.7,1.17l-.96,1.52h-1.1l2.24-3.33-2.13-3.2h1.12l.95,1.45c.24.37.44.71.66,1.09h.04c.2-.38.43-.74.66-1.09l.92-1.45h1.09Z"/>
          <path class="cls-4" d="M186.99,197.94h-6.99v-.72h6.99v.72ZM186.99,200.57h-6.99v-.72h6.99v.72Z"/>
          <path class="cls-4" d="M195.08,197.94h-6.99v-.72h6.99v.72ZM195.08,200.57h-6.99v-.72h6.99v.72Z"/>
          <path class="cls-4" d="M204.01,193.56v.83h-3.23l-.37,2.54c.19-.02.38-.05.7-.05,1.59,0,3.02.95,3.02,2.76s-1.32,3.05-3.09,3.05c-.9,0-1.66-.26-2.06-.53l.29-.78c.34.23,1,.5,1.78.5,1.13,0,2.1-.83,2.09-2.12,0-1.24-.79-2.1-2.47-2.1-.48,0-.85.04-1.15.08l.56-4.19h3.95Z"/>
          <path class="cls-4" d="M207.8,200.04h-.9c-.05-.44-.05-.49-.05-.64,0-.67.24-1.39.82-2.12.64-.77.97-1.31.97-1.97,0-.74-.46-1.25-1.32-1.25-.47,0-.98.17-1.31.42l-.29-.73c.42-.3,1.14-.52,1.8-.52,1.49,0,2.16.95,2.16,1.97,0,.9-.52,1.58-1.15,2.38-.52.66-.76,1.19-.76,1.81,0,.1,0,.19.01.29v.36ZM206.63,201.93c.01-.44.29-.77.71-.77s.71.32.71.77c0,.42-.28.75-.71.75-.46,0-.71-.36-.71-.75Z"/>
        </g>
        <g>
          <polyline class="cls-3" points="186.44 227.26 239.57 199.3 186.44 171.34"/>
          <polyline class="cls-3" points="186.51 171.34 133.38 199.3 186.51 227.26"/>
        </g>
      </g>
      <g>
        <path class="cls-4" d="M44.69,149.41l-1.99,3.23,2.01,3.45h-1.99l-.66-1.29c-.18-.35-.34-.7-.5-1.06h-.02c-.16.36-.32.71-.49,1.06l-.62,1.29h-1.89l2.03-3.38-1.98-3.3h1.97l.64,1.21c.19.37.35.72.52,1.05h.02c.17-.36.32-.72.49-1.07l.6-1.2h1.88Z"/>
        <path class="cls-4" d="M54.74,151.88v1.13l-6.52,3.08v-1.29l5.22-2.34v-.02l-5.22-2.34v-1.29l6.52,3.08Z"/>
        <path class="cls-4" d="M64.03,147.01v1.46h-3.08l-.24,1.78c.17-.02.31-.04.5-.04,1.58,0,3.07.89,3.07,2.84,0,1.74-1.33,3.17-3.47,3.17-.9,0-1.71-.23-2.16-.47l.35-1.34c.36.19,1.02.42,1.71.42.92,0,1.78-.59,1.78-1.63s-.8-1.7-2.34-1.7c-.41,0-.72.02-1.02.06l.55-4.55h4.34Z"/>
        <path class="cls-4" d="M65.61,147.2c.42-.25,1.15-.5,1.98-.5,1.73,0,2.44,1.03,2.44,2.09,0,1-.6,1.7-1.13,2.36-.66.83-.66,1.26-.66,2.08h-1.54c-.02-.38-.04-.43-.04-.54,0-.67.25-1.33.79-2.04.46-.6.77-1.07.77-1.58,0-.55-.35-.92-1.03-.92-.41,0-.89.13-1.21.36l-.37-1.29ZM66.39,155.13c0-.66.46-1.12,1.06-1.12s1.06.46,1.06,1.12c0,.62-.41,1.09-1.06,1.09s-1.06-.49-1.06-1.09Z"/>
      </g>
    </g>
  </g>
</svg>