<?xml version="1.0" encoding="UTF-8"?>
<svg id="_レイヤー_2" data-name="レイヤー 2" xmlns="http://www.w3.org/2000/svg" viewBox="0 0 151.91 352.69">
  <defs>
    <style>
      .cls-1, .cls-2 {
        stroke: #231815;
        stroke-miterlimit: 10;
      }

      .cls-1, .cls-3, .cls-4 {
        fill: #231815;
      }

      .cls-2 {
        fill: none;
      }

      .cls-5 {
        letter-spacing: .25em;
      }

      .cls-4 {
        font-family: KozGoPr6N-Regular-83pv-RKSJ-H, 'Kozuka Gothic Pr6N';
        font-size: 12px;
      }
    </style>
  </defs>
  <g id="_レイヤー_1-2" data-name="レイヤー 1">
    <g>
      <line class="cls-1" x1="151.41" y1="152.85" x2="151.41" y2="304.1"/>
      <g>
        <rect class="cls-2" x="18.67" y=".5" width="103.27" height="36.5" rx="18.25" ry="18.25"/>
        <text class="cls-4" transform="translate(58.31 22)"><tspan x="0" y="0">開始</tspan></text>
      </g>
      <g>
        <rect class="cls-2" x="19.73" y="315.69" width="103.27" height="36.5" rx="18.25" ry="18.25"/>
        <text class="cls-4" transform="translate(59.36 337.19)"><tspan x="0" y="0">終了</tspan></text>
      </g>
      <rect class="cls-2" x="18.71" y="201.64" width="103.27" height="36.5"/>
      <rect class="cls-2" x="18.71" y="258.64" width="103.27" height="36.5"/>
      <text class="cls-4" transform="translate(57.97 280.46)"><tspan x="0" y="0" xml:space="preserve">i  ++</tspan></text>
      <text class="cls-4" transform="translate(37.36 225.16)"><tspan class="cls-5" x="0" y="0">i</tspan><tspan x="5.98" y="0">を出力する</tspan></text>
      <text class="cls-4" transform="translate(41.91 190.18)"><tspan x="0" y="0">True</tspan></text>
      <text class="cls-4" transform="translate(124.43 147.11)"><tspan x="0" y="0">False</tspan></text>
      <rect class="cls-2" x="18.67" y="67.55" width="103.27" height="36.5"/>
      <text class="cls-4" transform="translate(59.65 89.04)"><tspan x="0" y="0">i = 0</tspan></text>
      <line class="cls-1" x1="123.41" y1="152.85" x2="151.41" y2="152.85"/>
      <g>
        <line class="cls-2" x1="70.34" y1="252.75" x2="70.34" y2="238.14"/>
        <polygon class="cls-3" points="74.05 249.94 70.34 251.51 66.64 249.94 70.34 258.72 74.05 249.94"/>
      </g>
      <g>
        <line class="cls-2" x1="69.93" y1="195.94" x2="69.93" y2="181.33"/>
        <polygon class="cls-3" points="73.63 193.13 69.93 194.7 66.23 193.13 69.93 201.91 73.63 193.13"/>
      </g>
      <g>
        <line class="cls-2" x1="69.93" y1="309.93" x2="69.93" y2="295.32"/>
        <polygon class="cls-3" points="73.63 307.12 69.93 308.69 66.23 307.12 69.93 315.9 73.63 307.12"/>
      </g>
      <g>
        <line class="cls-2" x1="12.7" y1="152.85" x2=".5" y2="152.85"/>
        <polygon class="cls-3" points="9.9 149.14 11.47 152.85 9.9 156.55 18.67 152.85 9.9 149.14"/>
      </g>
      <g>
        <line class="cls-2" x1="69.93" y1="118.91" x2="69.93" y2="104.05"/>
        <polygon class="cls-3" points="73.63 116.1 69.93 117.68 66.23 116.1 69.93 124.88 73.63 116.1"/>
      </g>
      <g>
        <line class="cls-2" x1="69.93" y1="61.58" x2="69.93" y2="37.74"/>
        <polygon class="cls-3" points="73.63 58.77 69.93 60.34 66.23 58.77 69.93 67.55 73.63 58.77"/>
      </g>
      <line class="cls-1" x1=".5" y1="276.9" x2="18.67" y2="276.9"/>
      <line class="cls-1" x1="151.41" y1="304.1" x2="69.93" y2="304.1"/>
      <line class="cls-1" x1=".5" y1="152.85" x2=".5" y2="276.9"/>
      <g>
        <text class="cls-4" transform="translate(58.65 156.23)"><tspan x="0" y="0">i &lt; 5?</tspan></text>
        <g>
          <polyline class="cls-2" points="70.28 180.81 123.41 152.85 70.28 124.88"/>
          <polyline class="cls-2" points="70.34 124.88 17.21 152.85 70.34 180.81"/>
        </g>
      </g>
    </g>
  </g>
</svg>